<?xml version="1.0" encoding="utf-8" standalone="no"?>
<!DOCTYPE svg PUBLIC "-//W3C//DTD SVG 1.1//EN"
  "http://www.w3.org/Graphics/SVG/1.1/DTD/svg11.dtd">
<!-- Created with matplotlib (https://matplotlib.org/) -->
<svg height="576pt" version="1.1" viewBox="0 0 576 576" width="576pt" xmlns="http://www.w3.org/2000/svg" xmlns:xlink="http://www.w3.org/1999/xlink">
 <defs>
  <style type="text/css">
*{stroke-linecap:butt;stroke-linejoin:round;}
  </style>
 </defs>
 <g id="figure_1">
  <g id="patch_1">
   <path d="M 0 576 
L 576 576 
L 576 0 
L 0 0 
z
" style="fill:#ffffff;"/>
  </g>
  <g id="axes_1">
   <g id="patch_2">
    <path d="M 78.23 503.08 
L 541.665 503.08 
L 541.665 29.52 
L 78.23 29.52 
z
" style="fill:#ffffff;"/>
   </g>
   <g id="matplotlib.axis_1">
    <g id="xtick_1">
     <g id="line2d_1">
      <defs>
       <path d="M 0 0 
L 0 3.5 
" id="m7c5fa1a20e" style="stroke:#000000;stroke-width:0.8;"/>
      </defs>
      <g>
       <use style="stroke:#000000;stroke-width:0.8;" x="104.46217" xlink:href="#m7c5fa1a20e" y="503.08"/>
      </g>
     </g>
     <g id="text_1">
      <!-- 0 -->
      <defs>
       <path d="M 31.78125 66.40625 
Q 24.171875 66.40625 20.328125 58.90625 
Q 16.5 51.421875 16.5 36.375 
Q 16.5 21.390625 20.328125 13.890625 
Q 24.171875 6.390625 31.78125 6.390625 
Q 39.453125 6.390625 43.28125 13.890625 
Q 47.125 21.390625 47.125 36.375 
Q 47.125 51.421875 43.28125 58.90625 
Q 39.453125 66.40625 31.78125 66.40625 
z
M 31.78125 74.21875 
Q 44.046875 74.21875 50.515625 64.515625 
Q 56.984375 54.828125 56.984375 36.375 
Q 56.984375 17.96875 50.515625 8.265625 
Q 44.046875 -1.421875 31.78125 -1.421875 
Q 19.53125 -1.421875 13.0625 8.265625 
Q 6.59375 17.96875 6.59375 36.375 
Q 6.59375 54.828125 13.0625 64.515625 
Q 19.53125 74.21875 31.78125 74.21875 
z
" id="DejaVuSans-48"/>
      </defs>
      <g transform="translate(98.09967 525.276875)scale(0.2 -0.2)">
       <use xlink:href="#DejaVuSans-48"/>
      </g>
     </g>
    </g>
    <g id="xtick_2">
     <g id="line2d_2">
      <g>
       <use style="stroke:#000000;stroke-width:0.8;" x="191.902736" xlink:href="#m7c5fa1a20e" y="503.08"/>
      </g>
     </g>
     <g id="text_2">
      <!-- 10 -->
      <defs>
       <path d="M 12.40625 8.296875 
L 28.515625 8.296875 
L 28.515625 63.921875 
L 10.984375 60.40625 
L 10.984375 69.390625 
L 28.421875 72.90625 
L 38.28125 72.90625 
L 38.28125 8.296875 
L 54.390625 8.296875 
L 54.390625 0 
L 12.40625 0 
z
" id="DejaVuSans-49"/>
      </defs>
      <g transform="translate(179.177736 525.276875)scale(0.2 -0.2)">
       <use xlink:href="#DejaVuSans-49"/>
       <use x="63.623047" xlink:href="#DejaVuSans-48"/>
      </g>
     </g>
    </g>
    <g id="xtick_3">
     <g id="line2d_3">
      <g>
       <use style="stroke:#000000;stroke-width:0.8;" x="279.343302" xlink:href="#m7c5fa1a20e" y="503.08"/>
      </g>
     </g>
     <g id="text_3">
      <!-- 20 -->
      <defs>
       <path d="M 19.1875 8.296875 
L 53.609375 8.296875 
L 53.609375 0 
L 7.328125 0 
L 7.328125 8.296875 
Q 12.9375 14.109375 22.625 23.890625 
Q 32.328125 33.6875 34.8125 36.53125 
Q 39.546875 41.84375 41.421875 45.53125 
Q 43.3125 49.21875 43.3125 52.78125 
Q 43.3125 58.59375 39.234375 62.25 
Q 35.15625 65.921875 28.609375 65.921875 
Q 23.96875 65.921875 18.8125 64.3125 
Q 13.671875 62.703125 7.8125 59.421875 
L 7.8125 69.390625 
Q 13.765625 71.78125 18.9375 73 
Q 24.125 74.21875 28.421875 74.21875 
Q 39.75 74.21875 46.484375 68.546875 
Q 53.21875 62.890625 53.21875 53.421875 
Q 53.21875 48.921875 51.53125 44.890625 
Q 49.859375 40.875 45.40625 35.40625 
Q 44.1875 33.984375 37.640625 27.21875 
Q 31.109375 20.453125 19.1875 8.296875 
z
" id="DejaVuSans-50"/>
      </defs>
      <g transform="translate(266.618302 525.276875)scale(0.2 -0.2)">
       <use xlink:href="#DejaVuSans-50"/>
       <use x="63.623047" xlink:href="#DejaVuSans-48"/>
      </g>
     </g>
    </g>
    <g id="xtick_4">
     <g id="line2d_4">
      <g>
       <use style="stroke:#000000;stroke-width:0.8;" x="366.783868" xlink:href="#m7c5fa1a20e" y="503.08"/>
      </g>
     </g>
     <g id="text_4">
      <!-- 30 -->
      <defs>
       <path d="M 40.578125 39.3125 
Q 47.65625 37.796875 51.625 33 
Q 55.609375 28.21875 55.609375 21.1875 
Q 55.609375 10.40625 48.1875 4.484375 
Q 40.765625 -1.421875 27.09375 -1.421875 
Q 22.515625 -1.421875 17.65625 -0.515625 
Q 12.796875 0.390625 7.625 2.203125 
L 7.625 11.71875 
Q 11.71875 9.328125 16.59375 8.109375 
Q 21.484375 6.890625 26.8125 6.890625 
Q 36.078125 6.890625 40.9375 10.546875 
Q 45.796875 14.203125 45.796875 21.1875 
Q 45.796875 27.640625 41.28125 31.265625 
Q 36.765625 34.90625 28.71875 34.90625 
L 20.21875 34.90625 
L 20.21875 43.015625 
L 29.109375 43.015625 
Q 36.375 43.015625 40.234375 45.921875 
Q 44.09375 48.828125 44.09375 54.296875 
Q 44.09375 59.90625 40.109375 62.90625 
Q 36.140625 65.921875 28.71875 65.921875 
Q 24.65625 65.921875 20.015625 65.03125 
Q 15.375 64.15625 9.8125 62.3125 
L 9.8125 71.09375 
Q 15.4375 72.65625 20.34375 73.4375 
Q 25.25 74.21875 29.59375 74.21875 
Q 40.828125 74.21875 47.359375 69.109375 
Q 53.90625 64.015625 53.90625 55.328125 
Q 53.90625 49.265625 50.4375 45.09375 
Q 46.96875 40.921875 40.578125 39.3125 
z
" id="DejaVuSans-51"/>
      </defs>
      <g transform="translate(354.058868 525.276875)scale(0.2 -0.2)">
       <use xlink:href="#DejaVuSans-51"/>
       <use x="63.623047" xlink:href="#DejaVuSans-48"/>
      </g>
     </g>
    </g>
    <g id="xtick_5">
     <g id="line2d_5">
      <g>
       <use style="stroke:#000000;stroke-width:0.8;" x="454.224434" xlink:href="#m7c5fa1a20e" y="503.08"/>
      </g>
     </g>
     <g id="text_5">
      <!-- 40 -->
      <defs>
       <path d="M 37.796875 64.3125 
L 12.890625 25.390625 
L 37.796875 25.390625 
z
M 35.203125 72.90625 
L 47.609375 72.90625 
L 47.609375 25.390625 
L 58.015625 25.390625 
L 58.015625 17.1875 
L 47.609375 17.1875 
L 47.609375 0 
L 37.796875 0 
L 37.796875 17.1875 
L 4.890625 17.1875 
L 4.890625 26.703125 
z
" id="DejaVuSans-52"/>
      </defs>
      <g transform="translate(441.499434 525.276875)scale(0.2 -0.2)">
       <use xlink:href="#DejaVuSans-52"/>
       <use x="63.623047" xlink:href="#DejaVuSans-48"/>
      </g>
     </g>
    </g>
    <g id="xtick_6">
     <g id="line2d_6">
      <g>
       <use style="stroke:#000000;stroke-width:0.8;" x="541.665" xlink:href="#m7c5fa1a20e" y="503.08"/>
      </g>
     </g>
     <g id="text_6">
      <!-- 50 -->
      <defs>
       <path d="M 10.796875 72.90625 
L 49.515625 72.90625 
L 49.515625 64.59375 
L 19.828125 64.59375 
L 19.828125 46.734375 
Q 21.96875 47.46875 24.109375 47.828125 
Q 26.265625 48.1875 28.421875 48.1875 
Q 40.625 48.1875 47.75 41.5 
Q 54.890625 34.8125 54.890625 23.390625 
Q 54.890625 11.625 47.5625 5.09375 
Q 40.234375 -1.421875 26.90625 -1.421875 
Q 22.3125 -1.421875 17.546875 -0.640625 
Q 12.796875 0.140625 7.71875 1.703125 
L 7.71875 11.625 
Q 12.109375 9.234375 16.796875 8.0625 
Q 21.484375 6.890625 26.703125 6.890625 
Q 35.15625 6.890625 40.078125 11.328125 
Q 45.015625 15.765625 45.015625 23.390625 
Q 45.015625 31 40.078125 35.4375 
Q 35.15625 39.890625 26.703125 39.890625 
Q 22.75 39.890625 18.8125 39.015625 
Q 14.890625 38.140625 10.796875 36.28125 
z
" id="DejaVuSans-53"/>
      </defs>
      <g transform="translate(528.94 525.276875)scale(0.2 -0.2)">
       <use xlink:href="#DejaVuSans-53"/>
       <use x="63.623047" xlink:href="#DejaVuSans-48"/>
      </g>
     </g>
    </g>
    <g id="text_7">
     <!-- 1000 generations -->
     <defs>
      <path id="DejaVuSans-32"/>
      <path d="M 45.40625 27.984375 
Q 45.40625 37.75 41.375 43.109375 
Q 37.359375 48.484375 30.078125 48.484375 
Q 22.859375 48.484375 18.828125 43.109375 
Q 14.796875 37.75 14.796875 27.984375 
Q 14.796875 18.265625 18.828125 12.890625 
Q 22.859375 7.515625 30.078125 7.515625 
Q 37.359375 7.515625 41.375 12.890625 
Q 45.40625 18.265625 45.40625 27.984375 
z
M 54.390625 6.78125 
Q 54.390625 -7.171875 48.1875 -13.984375 
Q 42 -20.796875 29.203125 -20.796875 
Q 24.46875 -20.796875 20.265625 -20.09375 
Q 16.0625 -19.390625 12.109375 -17.921875 
L 12.109375 -9.1875 
Q 16.0625 -11.328125 19.921875 -12.34375 
Q 23.78125 -13.375 27.78125 -13.375 
Q 36.625 -13.375 41.015625 -8.765625 
Q 45.40625 -4.15625 45.40625 5.171875 
L 45.40625 9.625 
Q 42.625 4.78125 38.28125 2.390625 
Q 33.9375 0 27.875 0 
Q 17.828125 0 11.671875 7.65625 
Q 5.515625 15.328125 5.515625 27.984375 
Q 5.515625 40.671875 11.671875 48.328125 
Q 17.828125 56 27.875 56 
Q 33.9375 56 38.28125 53.609375 
Q 42.625 51.21875 45.40625 46.390625 
L 45.40625 54.6875 
L 54.390625 54.6875 
z
" id="DejaVuSans-103"/>
      <path d="M 56.203125 29.59375 
L 56.203125 25.203125 
L 14.890625 25.203125 
Q 15.484375 15.921875 20.484375 11.0625 
Q 25.484375 6.203125 34.421875 6.203125 
Q 39.59375 6.203125 44.453125 7.46875 
Q 49.3125 8.734375 54.109375 11.28125 
L 54.109375 2.78125 
Q 49.265625 0.734375 44.1875 -0.34375 
Q 39.109375 -1.421875 33.890625 -1.421875 
Q 20.796875 -1.421875 13.15625 6.1875 
Q 5.515625 13.8125 5.515625 26.8125 
Q 5.515625 40.234375 12.765625 48.109375 
Q 20.015625 56 32.328125 56 
Q 43.359375 56 49.78125 48.890625 
Q 56.203125 41.796875 56.203125 29.59375 
z
M 47.21875 32.234375 
Q 47.125 39.59375 43.09375 43.984375 
Q 39.0625 48.390625 32.421875 48.390625 
Q 24.90625 48.390625 20.390625 44.140625 
Q 15.875 39.890625 15.1875 32.171875 
z
" id="DejaVuSans-101"/>
      <path d="M 54.890625 33.015625 
L 54.890625 0 
L 45.90625 0 
L 45.90625 32.71875 
Q 45.90625 40.484375 42.875 44.328125 
Q 39.84375 48.1875 33.796875 48.1875 
Q 26.515625 48.1875 22.3125 43.546875 
Q 18.109375 38.921875 18.109375 30.90625 
L 18.109375 0 
L 9.078125 0 
L 9.078125 54.6875 
L 18.109375 54.6875 
L 18.109375 46.1875 
Q 21.34375 51.125 25.703125 53.5625 
Q 30.078125 56 35.796875 56 
Q 45.21875 56 50.046875 50.171875 
Q 54.890625 44.34375 54.890625 33.015625 
z
" id="DejaVuSans-110"/>
      <path d="M 41.109375 46.296875 
Q 39.59375 47.171875 37.8125 47.578125 
Q 36.03125 48 33.890625 48 
Q 26.265625 48 22.1875 43.046875 
Q 18.109375 38.09375 18.109375 28.8125 
L 18.109375 0 
L 9.078125 0 
L 9.078125 54.6875 
L 18.109375 54.6875 
L 18.109375 46.1875 
Q 20.953125 51.171875 25.484375 53.578125 
Q 30.03125 56 36.53125 56 
Q 37.453125 56 38.578125 55.875 
Q 39.703125 55.765625 41.0625 55.515625 
z
" id="DejaVuSans-114"/>
      <path d="M 34.28125 27.484375 
Q 23.390625 27.484375 19.1875 25 
Q 14.984375 22.515625 14.984375 16.5 
Q 14.984375 11.71875 18.140625 8.90625 
Q 21.296875 6.109375 26.703125 6.109375 
Q 34.1875 6.109375 38.703125 11.40625 
Q 43.21875 16.703125 43.21875 25.484375 
L 43.21875 27.484375 
z
M 52.203125 31.203125 
L 52.203125 0 
L 43.21875 0 
L 43.21875 8.296875 
Q 40.140625 3.328125 35.546875 0.953125 
Q 30.953125 -1.421875 24.3125 -1.421875 
Q 15.921875 -1.421875 10.953125 3.296875 
Q 6 8.015625 6 15.921875 
Q 6 25.140625 12.171875 29.828125 
Q 18.359375 34.515625 30.609375 34.515625 
L 43.21875 34.515625 
L 43.21875 35.40625 
Q 43.21875 41.609375 39.140625 45 
Q 35.0625 48.390625 27.6875 48.390625 
Q 23 48.390625 18.546875 47.265625 
Q 14.109375 46.140625 10.015625 43.890625 
L 10.015625 52.203125 
Q 14.9375 54.109375 19.578125 55.046875 
Q 24.21875 56 28.609375 56 
Q 40.484375 56 46.34375 49.84375 
Q 52.203125 43.703125 52.203125 31.203125 
z
" id="DejaVuSans-97"/>
      <path d="M 18.3125 70.21875 
L 18.3125 54.6875 
L 36.8125 54.6875 
L 36.8125 47.703125 
L 18.3125 47.703125 
L 18.3125 18.015625 
Q 18.3125 11.328125 20.140625 9.421875 
Q 21.96875 7.515625 27.59375 7.515625 
L 36.8125 7.515625 
L 36.8125 0 
L 27.59375 0 
Q 17.1875 0 13.234375 3.875 
Q 9.28125 7.765625 9.28125 18.015625 
L 9.28125 47.703125 
L 2.6875 47.703125 
L 2.6875 54.6875 
L 9.28125 54.6875 
L 9.28125 70.21875 
z
" id="DejaVuSans-116"/>
      <path d="M 9.421875 54.6875 
L 18.40625 54.6875 
L 18.40625 0 
L 9.421875 0 
z
M 9.421875 75.984375 
L 18.40625 75.984375 
L 18.40625 64.59375 
L 9.421875 64.59375 
z
" id="DejaVuSans-105"/>
      <path d="M 30.609375 48.390625 
Q 23.390625 48.390625 19.1875 42.75 
Q 14.984375 37.109375 14.984375 27.296875 
Q 14.984375 17.484375 19.15625 11.84375 
Q 23.34375 6.203125 30.609375 6.203125 
Q 37.796875 6.203125 41.984375 11.859375 
Q 46.1875 17.53125 46.1875 27.296875 
Q 46.1875 37.015625 41.984375 42.703125 
Q 37.796875 48.390625 30.609375 48.390625 
z
M 30.609375 56 
Q 42.328125 56 49.015625 48.375 
Q 55.71875 40.765625 55.71875 27.296875 
Q 55.71875 13.875 49.015625 6.21875 
Q 42.328125 -1.421875 30.609375 -1.421875 
Q 18.84375 -1.421875 12.171875 6.21875 
Q 5.515625 13.875 5.515625 27.296875 
Q 5.515625 40.765625 12.171875 48.375 
Q 18.84375 56 30.609375 56 
z
" id="DejaVuSans-111"/>
      <path d="M 44.28125 53.078125 
L 44.28125 44.578125 
Q 40.484375 46.53125 36.375 47.5 
Q 32.28125 48.484375 27.875 48.484375 
Q 21.1875 48.484375 17.84375 46.4375 
Q 14.5 44.390625 14.5 40.28125 
Q 14.5 37.15625 16.890625 35.375 
Q 19.28125 33.59375 26.515625 31.984375 
L 29.59375 31.296875 
Q 39.15625 29.25 43.1875 25.515625 
Q 47.21875 21.78125 47.21875 15.09375 
Q 47.21875 7.46875 41.1875 3.015625 
Q 35.15625 -1.421875 24.609375 -1.421875 
Q 20.21875 -1.421875 15.453125 -0.5625 
Q 10.6875 0.296875 5.421875 2 
L 5.421875 11.28125 
Q 10.40625 8.6875 15.234375 7.390625 
Q 20.0625 6.109375 24.8125 6.109375 
Q 31.15625 6.109375 34.5625 8.28125 
Q 37.984375 10.453125 37.984375 14.40625 
Q 37.984375 18.0625 35.515625 20.015625 
Q 33.0625 21.96875 24.703125 23.78125 
L 21.578125 24.515625 
Q 13.234375 26.265625 9.515625 29.90625 
Q 5.8125 33.546875 5.8125 39.890625 
Q 5.8125 47.609375 11.28125 51.796875 
Q 16.75 56 26.8125 56 
Q 31.78125 56 36.171875 55.265625 
Q 40.578125 54.546875 44.28125 53.078125 
z
" id="DejaVuSans-115"/>
     </defs>
     <g transform="translate(221.724063 548.633125)scale(0.2 -0.2)">
      <use xlink:href="#DejaVuSans-49"/>
      <use x="63.623047" xlink:href="#DejaVuSans-48"/>
      <use x="127.246094" xlink:href="#DejaVuSans-48"/>
      <use x="190.869141" xlink:href="#DejaVuSans-48"/>
      <use x="254.492188" xlink:href="#DejaVuSans-32"/>
      <use x="286.279297" xlink:href="#DejaVuSans-103"/>
      <use x="349.755859" xlink:href="#DejaVuSans-101"/>
      <use x="411.279297" xlink:href="#DejaVuSans-110"/>
      <use x="474.658203" xlink:href="#DejaVuSans-101"/>
      <use x="536.181641" xlink:href="#DejaVuSans-114"/>
      <use x="577.294922" xlink:href="#DejaVuSans-97"/>
      <use x="638.574219" xlink:href="#DejaVuSans-116"/>
      <use x="677.783203" xlink:href="#DejaVuSans-105"/>
      <use x="705.566406" xlink:href="#DejaVuSans-111"/>
      <use x="766.748047" xlink:href="#DejaVuSans-110"/>
      <use x="830.126953" xlink:href="#DejaVuSans-115"/>
     </g>
    </g>
   </g>
   <g id="matplotlib.axis_2">
    <g id="ytick_1">
     <g id="line2d_7">
      <defs>
       <path d="M 0 0 
L -3.5 0 
" id="m613d00293c" style="stroke:#000000;stroke-width:0.8;"/>
      </defs>
      <g>
       <use style="stroke:#000000;stroke-width:0.8;" x="78.23" xlink:href="#m613d00293c" y="503.08"/>
      </g>
     </g>
     <g id="text_8">
      <!-- 0 -->
      <g transform="translate(58.505 510.678437)scale(0.2 -0.2)">
       <use xlink:href="#DejaVuSans-48"/>
      </g>
     </g>
    </g>
    <g id="ytick_2">
     <g id="line2d_8">
      <g>
       <use style="stroke:#000000;stroke-width:0.8;" x="78.23" xlink:href="#m613d00293c" y="408.368"/>
      </g>
     </g>
     <g id="text_9">
      <!-- 2 -->
      <g transform="translate(58.505 415.966437)scale(0.2 -0.2)">
       <use xlink:href="#DejaVuSans-50"/>
      </g>
     </g>
    </g>
    <g id="ytick_3">
     <g id="line2d_9">
      <g>
       <use style="stroke:#000000;stroke-width:0.8;" x="78.23" xlink:href="#m613d00293c" y="313.656"/>
      </g>
     </g>
     <g id="text_10">
      <!-- 4 -->
      <g transform="translate(58.505 321.254437)scale(0.2 -0.2)">
       <use xlink:href="#DejaVuSans-52"/>
      </g>
     </g>
    </g>
    <g id="ytick_4">
     <g id="line2d_10">
      <g>
       <use style="stroke:#000000;stroke-width:0.8;" x="78.23" xlink:href="#m613d00293c" y="218.944"/>
      </g>
     </g>
     <g id="text_11">
      <!-- 6 -->
      <defs>
       <path d="M 33.015625 40.375 
Q 26.375 40.375 22.484375 35.828125 
Q 18.609375 31.296875 18.609375 23.390625 
Q 18.609375 15.53125 22.484375 10.953125 
Q 26.375 6.390625 33.015625 6.390625 
Q 39.65625 6.390625 43.53125 10.953125 
Q 47.40625 15.53125 47.40625 23.390625 
Q 47.40625 31.296875 43.53125 35.828125 
Q 39.65625 40.375 33.015625 40.375 
z
M 52.59375 71.296875 
L 52.59375 62.3125 
Q 48.875 64.0625 45.09375 64.984375 
Q 41.3125 65.921875 37.59375 65.921875 
Q 27.828125 65.921875 22.671875 59.328125 
Q 17.53125 52.734375 16.796875 39.40625 
Q 19.671875 43.65625 24.015625 45.921875 
Q 28.375 48.1875 33.59375 48.1875 
Q 44.578125 48.1875 50.953125 41.515625 
Q 57.328125 34.859375 57.328125 23.390625 
Q 57.328125 12.15625 50.6875 5.359375 
Q 44.046875 -1.421875 33.015625 -1.421875 
Q 20.359375 -1.421875 13.671875 8.265625 
Q 6.984375 17.96875 6.984375 36.375 
Q 6.984375 53.65625 15.1875 63.9375 
Q 23.390625 74.21875 37.203125 74.21875 
Q 40.921875 74.21875 44.703125 73.484375 
Q 48.484375 72.75 52.59375 71.296875 
z
" id="DejaVuSans-54"/>
      </defs>
      <g transform="translate(58.505 226.542437)scale(0.2 -0.2)">
       <use xlink:href="#DejaVuSans-54"/>
      </g>
     </g>
    </g>
    <g id="ytick_5">
     <g id="line2d_11">
      <g>
       <use style="stroke:#000000;stroke-width:0.8;" x="78.23" xlink:href="#m613d00293c" y="124.232"/>
      </g>
     </g>
     <g id="text_12">
      <!-- 8 -->
      <defs>
       <path d="M 31.78125 34.625 
Q 24.75 34.625 20.71875 30.859375 
Q 16.703125 27.09375 16.703125 20.515625 
Q 16.703125 13.921875 20.71875 10.15625 
Q 24.75 6.390625 31.78125 6.390625 
Q 38.8125 6.390625 42.859375 10.171875 
Q 46.921875 13.96875 46.921875 20.515625 
Q 46.921875 27.09375 42.890625 30.859375 
Q 38.875 34.625 31.78125 34.625 
z
M 21.921875 38.8125 
Q 15.578125 40.375 12.03125 44.71875 
Q 8.5 49.078125 8.5 55.328125 
Q 8.5 64.0625 14.71875 69.140625 
Q 20.953125 74.21875 31.78125 74.21875 
Q 42.671875 74.21875 48.875 69.140625 
Q 55.078125 64.0625 55.078125 55.328125 
Q 55.078125 49.078125 51.53125 44.71875 
Q 48 40.375 41.703125 38.8125 
Q 48.828125 37.15625 52.796875 32.3125 
Q 56.78125 27.484375 56.78125 20.515625 
Q 56.78125 9.90625 50.3125 4.234375 
Q 43.84375 -1.421875 31.78125 -1.421875 
Q 19.734375 -1.421875 13.25 4.234375 
Q 6.78125 9.90625 6.78125 20.515625 
Q 6.78125 27.484375 10.78125 32.3125 
Q 14.796875 37.15625 21.921875 38.8125 
z
M 18.3125 54.390625 
Q 18.3125 48.734375 21.84375 45.5625 
Q 25.390625 42.390625 31.78125 42.390625 
Q 38.140625 42.390625 41.71875 45.5625 
Q 45.3125 48.734375 45.3125 54.390625 
Q 45.3125 60.0625 41.71875 63.234375 
Q 38.140625 66.40625 31.78125 66.40625 
Q 25.390625 66.40625 21.84375 63.234375 
Q 18.3125 60.0625 18.3125 54.390625 
z
" id="DejaVuSans-56"/>
      </defs>
      <g transform="translate(58.505 131.830437)scale(0.2 -0.2)">
       <use xlink:href="#DejaVuSans-56"/>
      </g>
     </g>
    </g>
    <g id="ytick_6">
     <g id="line2d_12">
      <g>
       <use style="stroke:#000000;stroke-width:0.8;" x="78.23" xlink:href="#m613d00293c" y="29.52"/>
      </g>
     </g>
     <g id="text_13">
      <!-- 10 -->
      <g transform="translate(45.78 37.118438)scale(0.2 -0.2)">
       <use xlink:href="#DejaVuSans-49"/>
       <use x="63.623047" xlink:href="#DejaVuSans-48"/>
      </g>
     </g>
    </g>
    <g id="text_14">
     <!-- log (evolutions) -->
     <defs>
      <path d="M 9.421875 75.984375 
L 18.40625 75.984375 
L 18.40625 0 
L 9.421875 0 
z
" id="DejaVuSans-108"/>
      <path d="M 31 75.875 
Q 24.46875 64.65625 21.28125 53.65625 
Q 18.109375 42.671875 18.109375 31.390625 
Q 18.109375 20.125 21.3125 9.0625 
Q 24.515625 -2 31 -13.1875 
L 23.1875 -13.1875 
Q 15.875 -1.703125 12.234375 9.375 
Q 8.59375 20.453125 8.59375 31.390625 
Q 8.59375 42.28125 12.203125 53.3125 
Q 15.828125 64.359375 23.1875 75.875 
z
" id="DejaVuSans-40"/>
      <path d="M 2.984375 54.6875 
L 12.5 54.6875 
L 29.59375 8.796875 
L 46.6875 54.6875 
L 56.203125 54.6875 
L 35.6875 0 
L 23.484375 0 
z
" id="DejaVuSans-118"/>
      <path d="M 8.5 21.578125 
L 8.5 54.6875 
L 17.484375 54.6875 
L 17.484375 21.921875 
Q 17.484375 14.15625 20.5 10.265625 
Q 23.53125 6.390625 29.59375 6.390625 
Q 36.859375 6.390625 41.078125 11.03125 
Q 45.3125 15.671875 45.3125 23.6875 
L 45.3125 54.6875 
L 54.296875 54.6875 
L 54.296875 0 
L 45.3125 0 
L 45.3125 8.40625 
Q 42.046875 3.421875 37.71875 1 
Q 33.40625 -1.421875 27.6875 -1.421875 
Q 18.265625 -1.421875 13.375 4.4375 
Q 8.5 10.296875 8.5 21.578125 
z
M 31.109375 56 
z
" id="DejaVuSans-117"/>
      <path d="M 8.015625 75.875 
L 15.828125 75.875 
Q 23.140625 64.359375 26.78125 53.3125 
Q 30.421875 42.28125 30.421875 31.390625 
Q 30.421875 20.453125 26.78125 9.375 
Q 23.140625 -1.703125 15.828125 -13.1875 
L 8.015625 -13.1875 
Q 14.5 -2 17.703125 9.0625 
Q 20.90625 20.125 20.90625 31.390625 
Q 20.90625 42.671875 17.703125 53.65625 
Q 14.5 64.65625 8.015625 75.875 
z
" id="DejaVuSans-41"/>
     </defs>
     <g transform="translate(37.620625 344.196875)rotate(-90)scale(0.2 -0.2)">
      <use xlink:href="#DejaVuSans-108"/>
      <use x="27.783203" xlink:href="#DejaVuSans-111"/>
      <use x="88.964844" xlink:href="#DejaVuSans-103"/>
      <use x="152.441406" xlink:href="#DejaVuSans-32"/>
      <use x="184.228516" xlink:href="#DejaVuSans-40"/>
      <use x="223.242188" xlink:href="#DejaVuSans-101"/>
      <use x="284.765625" xlink:href="#DejaVuSans-118"/>
      <use x="343.945312" xlink:href="#DejaVuSans-111"/>
      <use x="405.126953" xlink:href="#DejaVuSans-108"/>
      <use x="432.910156" xlink:href="#DejaVuSans-117"/>
      <use x="496.289062" xlink:href="#DejaVuSans-116"/>
      <use x="535.498047" xlink:href="#DejaVuSans-105"/>
      <use x="563.28125" xlink:href="#DejaVuSans-111"/>
      <use x="624.462891" xlink:href="#DejaVuSans-110"/>
      <use x="687.841797" xlink:href="#DejaVuSans-115"/>
      <use x="739.941406" xlink:href="#DejaVuSans-41"/>
     </g>
    </g>
   </g>
   <g id="line2d_13">
    <path clip-path="url(#pff6bfa4703)" d="M 104.470914 75.7789 
" style="fill:none;stroke:#4682b4;stroke-linecap:square;stroke-width:1.5;"/>
    <defs>
     <path d="M 0 2 
C 0.530406 2 1.03916 1.789267 1.414214 1.414214 
C 1.789267 1.03916 2 0.530406 2 0 
C 2 -0.530406 1.789267 -1.03916 1.414214 -1.414214 
C 1.03916 -1.789267 0.530406 -2 0 -2 
C -0.530406 -2 -1.03916 -1.789267 -1.414214 -1.414214 
C -1.789267 -1.03916 -2 -0.530406 -2 0 
C -2 0.530406 -1.789267 1.03916 -1.414214 1.414214 
C -1.03916 1.789267 -0.530406 2 0 2 
z
" id="m62eb77f1ce" style="stroke:#4682b4;"/>
    </defs>
    <g clip-path="url(#pff6bfa4703)">
     <use style="fill:#4682b4;stroke:#4682b4;" x="104.470914" xlink:href="#m62eb77f1ce" y="75.7789"/>
    </g>
   </g>
   <g id="line2d_14">
    <path clip-path="url(#pff6bfa4703)" d="M 104.470914 72.237232 
" style="fill:none;stroke:#4682b4;stroke-linecap:square;stroke-width:1.5;"/>
    <defs>
     <path d="M 0 4 
C 1.060812 4 2.078319 3.578535 2.828427 2.828427 
C 3.578535 2.078319 4 1.060812 4 0 
C 4 -1.060812 3.578535 -2.078319 2.828427 -2.828427 
C 2.078319 -3.578535 1.060812 -4 0 -4 
C -1.060812 -4 -2.078319 -3.578535 -2.828427 -2.828427 
C -3.578535 -2.078319 -4 -1.060812 -4 0 
C -4 1.060812 -3.578535 2.078319 -2.828427 2.828427 
C -2.078319 3.578535 -1.060812 4 0 4 
z
" id="me73f625c03" style="stroke:#4682b4;"/>
    </defs>
    <g clip-path="url(#pff6bfa4703)">
     <use style="fill:#4682b4;stroke:#4682b4;" x="104.470914" xlink:href="#me73f625c03" y="72.237232"/>
    </g>
   </g>
   <g id="line2d_15">
    <path clip-path="url(#pff6bfa4703)" d="M 104.470914 27.3485 
" style="fill:none;stroke:#ff82ab;stroke-linecap:square;stroke-width:1.5;"/>
    <defs>
     <path d="M -0 4.5 
L 4.5 -4.5 
L -4.5 -4.5 
z
" id="m27b1803a37" style="stroke:#ff82ab;stroke-linejoin:miter;"/>
    </defs>
    <g clip-path="url(#pff6bfa4703)">
     <use style="fill:#ff82ab;stroke:#ff82ab;stroke-linejoin:miter;" x="104.470914" xlink:href="#m27b1803a37" y="27.3485"/>
    </g>
   </g>
   <g id="line2d_16">
    <path clip-path="url(#pff6bfa4703)" d="M 104.470914 73.35785 
" style="fill:none;stroke:#ff82ab;stroke-linecap:square;stroke-width:1.5;"/>
    <defs>
     <path d="M -4 4 
L 4 4 
L 4 -4 
L -4 -4 
z
" id="m5fcad9d0fd" style="stroke:#ff82ab;stroke-linejoin:miter;"/>
    </defs>
    <g clip-path="url(#pff6bfa4703)">
     <use style="fill:#ff82ab;stroke:#ff82ab;stroke-linejoin:miter;" x="104.470914" xlink:href="#m5fcad9d0fd" y="73.35785"/>
    </g>
   </g>
   <g id="line2d_17">
    <path clip-path="url(#pff6bfa4703)" d="M 104.470914 144.892491 
" style="fill:none;stroke:#5cacee;stroke-linecap:square;stroke-width:1.5;"/>
    <defs>
     <path d="M -4.5 4.5 
L 4.5 4.5 
L 4.5 -4.5 
L -4.5 -4.5 
z
" id="m9e90654f00" style="stroke:#5cacee;stroke-linejoin:miter;"/>
    </defs>
    <g clip-path="url(#pff6bfa4703)">
     <use style="fill:#5cacee;stroke:#5cacee;stroke-linejoin:miter;" x="104.470914" xlink:href="#m9e90654f00" y="144.892491"/>
    </g>
   </g>
   <g id="line2d_18">
    <path clip-path="url(#pff6bfa4703)" d="M 104.470914 59.634108 
" style="fill:none;stroke:#5cacee;stroke-linecap:square;stroke-width:1.5;"/>
    <defs>
     <path d="M -0 4.5 
L 4.5 -4.5 
L -4.5 -4.5 
z
" id="m2fa7844617" style="stroke:#5cacee;stroke-linejoin:miter;"/>
    </defs>
    <g clip-path="url(#pff6bfa4703)">
     <use style="fill:#5cacee;stroke:#5cacee;stroke-linejoin:miter;" x="104.470914" xlink:href="#m2fa7844617" y="59.634108"/>
    </g>
   </g>
   <g id="line2d_19">
    <path clip-path="url(#pff6bfa4703)" d="M 104.470914 139.883383 
" style="fill:none;stroke:#cd6889;stroke-linecap:square;stroke-width:1.5;"/>
    <defs>
     <path d="M 0 5 
C 1.326016 5 2.597899 4.473168 3.535534 3.535534 
C 4.473168 2.597899 5 1.326016 5 0 
C 5 -1.326016 4.473168 -2.597899 3.535534 -3.535534 
C 2.597899 -4.473168 1.326016 -5 0 -5 
C -1.326016 -5 -2.597899 -4.473168 -3.535534 -3.535534 
C -4.473168 -2.597899 -5 -1.326016 -5 0 
C -5 1.326016 -4.473168 2.597899 -3.535534 3.535534 
C -2.597899 4.473168 -1.326016 5 0 5 
z
" id="m4064941889" style="stroke:#cd6889;"/>
    </defs>
    <g clip-path="url(#pff6bfa4703)">
     <use style="fill:#cd6889;stroke:#cd6889;" x="104.470914" xlink:href="#m4064941889" y="139.883383"/>
    </g>
   </g>
   <g id="line2d_20">
    <path clip-path="url(#pff6bfa4703)" d="M 104.470914 101.33871 
" style="fill:none;stroke:#cd6889;stroke-linecap:square;stroke-width:1.5;"/>
    <defs>
     <path d="M 0 -4.5 
L -4.5 4.5 
L 4.5 4.5 
z
" id="mc05c60afa4" style="stroke:#cd6889;stroke-linejoin:miter;"/>
    </defs>
    <g clip-path="url(#pff6bfa4703)">
     <use style="fill:#cd6889;stroke:#cd6889;stroke-linejoin:miter;" x="104.470914" xlink:href="#mc05c60afa4" y="101.33871"/>
    </g>
   </g>
   <g id="line2d_21">
    <path clip-path="url(#pff6bfa4703)" d="M 104.470914 92.670415 
" style="fill:none;stroke:#36648b;stroke-linecap:square;stroke-width:1.5;"/>
    <defs>
     <path d="M 0 -5 
L -5 5 
L 5 5 
z
" id="mec1ba1fb9c" style="stroke:#36648b;stroke-linejoin:miter;"/>
    </defs>
    <g clip-path="url(#pff6bfa4703)">
     <use style="fill:#36648b;stroke:#36648b;stroke-linejoin:miter;" x="104.470914" xlink:href="#mec1ba1fb9c" y="92.670415"/>
    </g>
   </g>
   <g id="line2d_22">
    <path clip-path="url(#pff6bfa4703)" d="M 104.470914 125.356613 
" style="fill:none;stroke:#36648b;stroke-linecap:square;stroke-width:1.5;"/>
    <defs>
     <path d="M 0 -4 
L -3.464102 -2 
L -3.464102 2 
L -0 4 
L 3.464102 2 
L 3.464102 -2 
z
" id="mc6c42b55d8" style="stroke:#36648b;stroke-linejoin:miter;"/>
    </defs>
    <g clip-path="url(#pff6bfa4703)">
     <use style="fill:#36648b;stroke:#36648b;stroke-linejoin:miter;" x="104.470914" xlink:href="#mc6c42b55d8" y="125.356613"/>
    </g>
   </g>
   <g id="line2d_23">
    <g clip-path="url(#pff6bfa4703)">
     <use style="fill:#4682b4;stroke:#4682b4;" x="104.470914" xlink:href="#m62eb77f1ce" y="75.7789"/>
     <use style="fill:#4682b4;stroke:#4682b4;" x="118.070108" xlink:href="#m62eb77f1ce" y="125.847184"/>
     <use style="fill:#4682b4;stroke:#4682b4;" x="131.669302" xlink:href="#m62eb77f1ce" y="155.662856"/>
     <use style="fill:#4682b4;stroke:#4682b4;" x="145.268496" xlink:href="#m62eb77f1ce" y="167.125415"/>
     <use style="fill:#4682b4;stroke:#4682b4;" x="158.86769" xlink:href="#m62eb77f1ce" y="180.111305"/>
     <use style="fill:#4682b4;stroke:#4682b4;" x="172.466884" xlink:href="#m62eb77f1ce" y="186.110964"/>
     <use style="fill:#4682b4;stroke:#4682b4;" x="186.066078" xlink:href="#m62eb77f1ce" y="193.803759"/>
     <use style="fill:#4682b4;stroke:#4682b4;" x="199.665272" xlink:href="#m62eb77f1ce" y="202.410174"/>
     <use style="fill:#4682b4;stroke:#4682b4;" x="213.264466" xlink:href="#m62eb77f1ce" y="222.657732"/>
     <use style="fill:#4682b4;stroke:#4682b4;" x="226.86366" xlink:href="#m62eb77f1ce" y="227.044451"/>
     <use style="fill:#4682b4;stroke:#4682b4;" x="240.462854" xlink:href="#m62eb77f1ce" y="231.418882"/>
     <use style="fill:#4682b4;stroke:#4682b4;" x="254.062048" xlink:href="#m62eb77f1ce" y="239.748361"/>
     <use style="fill:#4682b4;stroke:#4682b4;" x="267.661242" xlink:href="#m62eb77f1ce" y="252.648826"/>
     <use style="fill:#4682b4;stroke:#4682b4;" x="281.260436" xlink:href="#m62eb77f1ce" y="260.996706"/>
     <use style="fill:#4682b4;stroke:#4682b4;" x="294.85963" xlink:href="#m62eb77f1ce" y="269.744974"/>
     <use style="fill:#4682b4;stroke:#4682b4;" x="308.458824" xlink:href="#m62eb77f1ce" y="283.140225"/>
     <use style="fill:#4682b4;stroke:#4682b4;" x="322.058018" xlink:href="#m62eb77f1ce" y="311.617264"/>
     <use style="fill:#4682b4;stroke:#4682b4;" x="335.657212" xlink:href="#m62eb77f1ce" y="301.216532"/>
     <use style="fill:#4682b4;stroke:#4682b4;" x="349.256406" xlink:href="#m62eb77f1ce" y="305.397716"/>
     <use style="fill:#4682b4;stroke:#4682b4;" x="362.8556" xlink:href="#m62eb77f1ce" y="314.177671"/>
     <use style="fill:#4682b4;stroke:#4682b4;" x="376.454795" xlink:href="#m62eb77f1ce" y="319.755405"/>
     <use style="fill:#4682b4;stroke:#4682b4;" x="390.053989" xlink:href="#m62eb77f1ce" y="332.081371"/>
     <use style="fill:#4682b4;stroke:#4682b4;" x="403.653183" xlink:href="#m62eb77f1ce" y="350.646916"/>
     <use style="fill:#4682b4;stroke:#4682b4;" x="417.252377" xlink:href="#m62eb77f1ce" y="358.903595"/>
    </g>
   </g>
   <g id="line2d_24">
    <g clip-path="url(#pff6bfa4703)">
     <use style="fill:#4682b4;stroke:#4682b4;" x="104.470914" xlink:href="#me73f625c03" y="72.237232"/>
     <use style="fill:#4682b4;stroke:#4682b4;" x="114.619667" xlink:href="#me73f625c03" y="89.897951"/>
     <use style="fill:#4682b4;stroke:#4682b4;" x="124.76842" xlink:href="#me73f625c03" y="118.733096"/>
     <use style="fill:#4682b4;stroke:#4682b4;" x="134.917172" xlink:href="#me73f625c03" y="136.205256"/>
     <use style="fill:#4682b4;stroke:#4682b4;" x="145.065925" xlink:href="#me73f625c03" y="150.246507"/>
     <use style="fill:#4682b4;stroke:#4682b4;" x="155.214678" xlink:href="#me73f625c03" y="167.282874"/>
     <use style="fill:#4682b4;stroke:#4682b4;" x="165.363431" xlink:href="#me73f625c03" y="174.5106"/>
     <use style="fill:#4682b4;stroke:#4682b4;" x="175.512184" xlink:href="#me73f625c03" y="187.965953"/>
     <use style="fill:#4682b4;stroke:#4682b4;" x="185.660937" xlink:href="#me73f625c03" y="200.463763"/>
     <use style="fill:#4682b4;stroke:#4682b4;" x="195.80969" xlink:href="#me73f625c03" y="212.524189"/>
     <use style="fill:#4682b4;stroke:#4682b4;" x="205.958443" xlink:href="#me73f625c03" y="228.458168"/>
     <use style="fill:#4682b4;stroke:#4682b4;" x="216.107195" xlink:href="#me73f625c03" y="239.205074"/>
     <use style="fill:#4682b4;stroke:#4682b4;" x="226.255948" xlink:href="#me73f625c03" y="250.088419"/>
     <use style="fill:#4682b4;stroke:#4682b4;" x="236.404701" xlink:href="#me73f625c03" y="260.429562"/>
     <use style="fill:#4682b4;stroke:#4682b4;" x="246.553454" xlink:href="#me73f625c03" y="275.580779"/>
     <use style="fill:#4682b4;stroke:#4682b4;" x="256.702207" xlink:href="#me73f625c03" y="299.901003"/>
     <use style="fill:#4682b4;stroke:#4682b4;" x="266.85096" xlink:href="#me73f625c03" y="309.984137"/>
     <use style="fill:#4682b4;stroke:#4682b4;" x="276.999713" xlink:href="#me73f625c03" y="321.770858"/>
     <use style="fill:#4682b4;stroke:#4682b4;" x="287.148465" xlink:href="#me73f625c03" y="327.220081"/>
     <use style="fill:#4682b4;stroke:#4682b4;" x="297.297218" xlink:href="#me73f625c03" y="361.214102"/>
     <use style="fill:#4682b4;stroke:#4682b4;" x="307.445971" xlink:href="#me73f625c03" y="347.002349"/>
     <use style="fill:#4682b4;stroke:#4682b4;" x="317.594724" xlink:href="#me73f625c03" y="368.910349"/>
     <use style="fill:#4682b4;stroke:#4682b4;" x="327.743477" xlink:href="#me73f625c03" y="356.700594"/>
     <use style="fill:#4682b4;stroke:#4682b4;" x="337.89223" xlink:href="#me73f625c03" y="503.08"/>
    </g>
   </g>
   <g id="line2d_25">
    <g clip-path="url(#pff6bfa4703)">
     <use style="fill:#ff82ab;stroke:#ff82ab;stroke-linejoin:miter;" x="104.470914" xlink:href="#m27b1803a37" y="27.3485"/>
     <use style="fill:#ff82ab;stroke:#ff82ab;stroke-linejoin:miter;" x="110.719635" xlink:href="#m27b1803a37" y="31.510101"/>
     <use style="fill:#ff82ab;stroke:#ff82ab;stroke-linejoin:miter;" x="116.968357" xlink:href="#m27b1803a37" y="75.369529"/>
     <use style="fill:#ff82ab;stroke:#ff82ab;stroke-linejoin:miter;" x="123.217078" xlink:href="#m27b1803a37" y="114.890396"/>
     <use style="fill:#ff82ab;stroke:#ff82ab;stroke-linejoin:miter;" x="129.4658" xlink:href="#m27b1803a37" y="145.015526"/>
     <use style="fill:#ff82ab;stroke:#ff82ab;stroke-linejoin:miter;" x="135.714521" xlink:href="#m27b1803a37" y="165.807732"/>
     <use style="fill:#ff82ab;stroke:#ff82ab;stroke-linejoin:miter;" x="141.963243" xlink:href="#m27b1803a37" y="180.578894"/>
     <use style="fill:#ff82ab;stroke:#ff82ab;stroke-linejoin:miter;" x="148.211964" xlink:href="#m27b1803a37" y="189.642997"/>
     <use style="fill:#ff82ab;stroke:#ff82ab;stroke-linejoin:miter;" x="154.460685" xlink:href="#m27b1803a37" y="205.843271"/>
     <use style="fill:#ff82ab;stroke:#ff82ab;stroke-linejoin:miter;" x="160.709407" xlink:href="#m27b1803a37" y="209.641192"/>
     <use style="fill:#ff82ab;stroke:#ff82ab;stroke-linejoin:miter;" x="166.958128" xlink:href="#m27b1803a37" y="225.807214"/>
     <use style="fill:#ff82ab;stroke:#ff82ab;stroke-linejoin:miter;" x="173.20685" xlink:href="#m27b1803a37" y="230.66117"/>
     <use style="fill:#ff82ab;stroke:#ff82ab;stroke-linejoin:miter;" x="179.455571" xlink:href="#m27b1803a37" y="251.467818"/>
     <use style="fill:#ff82ab;stroke:#ff82ab;stroke-linejoin:miter;" x="185.704293" xlink:href="#m27b1803a37" y="249.190648"/>
     <use style="fill:#ff82ab;stroke:#ff82ab;stroke-linejoin:miter;" x="191.953014" xlink:href="#m27b1803a37" y="258.767777"/>
     <use style="fill:#ff82ab;stroke:#ff82ab;stroke-linejoin:miter;" x="198.201736" xlink:href="#m27b1803a37" y="280.055488"/>
     <use style="fill:#ff82ab;stroke:#ff82ab;stroke-linejoin:miter;" x="204.450457" xlink:href="#m27b1803a37" y="286.439987"/>
     <use style="fill:#ff82ab;stroke:#ff82ab;stroke-linejoin:miter;" x="210.699179" xlink:href="#m27b1803a37" y="297.993792"/>
     <use style="fill:#ff82ab;stroke:#ff82ab;stroke-linejoin:miter;" x="216.9479" xlink:href="#m27b1803a37" y="315.062856"/>
     <use style="fill:#ff82ab;stroke:#ff82ab;stroke-linejoin:miter;" x="223.196621" xlink:href="#m27b1803a37" y="303.260993"/>
     <use style="fill:#ff82ab;stroke:#ff82ab;stroke-linejoin:miter;" x="229.445343" xlink:href="#m27b1803a37" y="330.81847"/>
     <use style="fill:#ff82ab;stroke:#ff82ab;stroke-linejoin:miter;" x="235.694064" xlink:href="#m27b1803a37" y="347.002349"/>
     <use style="fill:#ff82ab;stroke:#ff82ab;stroke-linejoin:miter;" x="241.942786" xlink:href="#m27b1803a37" y="350.646916"/>
     <use style="fill:#ff82ab;stroke:#ff82ab;stroke-linejoin:miter;" x="248.191507" xlink:href="#m27b1803a37" y="343.618339"/>
    </g>
   </g>
   <g id="line2d_26">
    <g clip-path="url(#pff6bfa4703)">
     <use style="fill:#ff82ab;stroke:#ff82ab;stroke-linejoin:miter;" x="104.470914" xlink:href="#m5fcad9d0fd" y="73.35785"/>
     <use style="fill:#ff82ab;stroke:#ff82ab;stroke-linejoin:miter;" x="108.672433" xlink:href="#m5fcad9d0fd" y="50.751684"/>
     <use style="fill:#ff82ab;stroke:#ff82ab;stroke-linejoin:miter;" x="112.873952" xlink:href="#m5fcad9d0fd" y="62.651968"/>
     <use style="fill:#ff82ab;stroke:#ff82ab;stroke-linejoin:miter;" x="117.075471" xlink:href="#m5fcad9d0fd" y="79.712378"/>
     <use style="fill:#ff82ab;stroke:#ff82ab;stroke-linejoin:miter;" x="121.276991" xlink:href="#m5fcad9d0fd" y="101.045725"/>
     <use style="fill:#ff82ab;stroke:#ff82ab;stroke-linejoin:miter;" x="125.47851" xlink:href="#m5fcad9d0fd" y="118.888942"/>
     <use style="fill:#ff82ab;stroke:#ff82ab;stroke-linejoin:miter;" x="129.680029" xlink:href="#m5fcad9d0fd" y="137.680381"/>
     <use style="fill:#ff82ab;stroke:#ff82ab;stroke-linejoin:miter;" x="133.881548" xlink:href="#m5fcad9d0fd" y="156.629021"/>
     <use style="fill:#ff82ab;stroke:#ff82ab;stroke-linejoin:miter;" x="138.083067" xlink:href="#m5fcad9d0fd" y="168.480814"/>
     <use style="fill:#ff82ab;stroke:#ff82ab;stroke-linejoin:miter;" x="142.284587" xlink:href="#m5fcad9d0fd" y="183.875965"/>
     <use style="fill:#ff82ab;stroke:#ff82ab;stroke-linejoin:miter;" x="146.486106" xlink:href="#m5fcad9d0fd" y="196.502432"/>
     <use style="fill:#ff82ab;stroke:#ff82ab;stroke-linejoin:miter;" x="150.687625" xlink:href="#m5fcad9d0fd" y="212.115945"/>
     <use style="fill:#ff82ab;stroke:#ff82ab;stroke-linejoin:miter;" x="154.889144" xlink:href="#m5fcad9d0fd" y="215.813385"/>
     <use style="fill:#ff82ab;stroke:#ff82ab;stroke-linejoin:miter;" x="159.090663" xlink:href="#m5fcad9d0fd" y="231.114341"/>
     <use style="fill:#ff82ab;stroke:#ff82ab;stroke-linejoin:miter;" x="163.292183" xlink:href="#m5fcad9d0fd" y="241.040807"/>
     <use style="fill:#ff82ab;stroke:#ff82ab;stroke-linejoin:miter;" x="167.493702" xlink:href="#m5fcad9d0fd" y="247.875119"/>
     <use style="fill:#ff82ab;stroke:#ff82ab;stroke-linejoin:miter;" x="171.695221" xlink:href="#m5fcad9d0fd" y="274.810746"/>
     <use style="fill:#ff82ab;stroke:#ff82ab;stroke-linejoin:miter;" x="175.89674" xlink:href="#m5fcad9d0fd" y="286.930727"/>
     <use style="fill:#ff82ab;stroke:#ff82ab;stroke-linejoin:miter;" x="180.098259" xlink:href="#m5fcad9d0fd" y="289.987013"/>
     <use style="fill:#ff82ab;stroke:#ff82ab;stroke-linejoin:miter;" x="184.299779" xlink:href="#m5fcad9d0fd" y="314.177671"/>
     <use style="fill:#ff82ab;stroke:#ff82ab;stroke-linejoin:miter;" x="188.501298" xlink:href="#m5fcad9d0fd" y="286.930727"/>
     <use style="fill:#ff82ab;stroke:#ff82ab;stroke-linejoin:miter;" x="192.702817" xlink:href="#m5fcad9d0fd" y="310.793661"/>
     <use style="fill:#ff82ab;stroke:#ff82ab;stroke-linejoin:miter;" x="196.904336" xlink:href="#m5fcad9d0fd" y="322.811691"/>
     <use style="fill:#ff82ab;stroke:#ff82ab;stroke-linejoin:miter;" x="201.105855" xlink:href="#m5fcad9d0fd" y="343.618339"/>
    </g>
   </g>
   <g id="line2d_27">
    <g clip-path="url(#pff6bfa4703)">
     <use style="fill:#5cacee;stroke:#5cacee;stroke-linejoin:miter;" x="104.470914" xlink:href="#m9e90654f00" y="144.892491"/>
     <use style="fill:#5cacee;stroke:#5cacee;stroke-linejoin:miter;" x="105.606184" xlink:href="#m9e90654f00" y="89.782683"/>
     <use style="fill:#5cacee;stroke:#5cacee;stroke-linejoin:miter;" x="106.741454" xlink:href="#m9e90654f00" y="69.493948"/>
     <use style="fill:#5cacee;stroke:#5cacee;stroke-linejoin:miter;" x="107.876724" xlink:href="#m9e90654f00" y="60.843263"/>
     <use style="fill:#5cacee;stroke:#5cacee;stroke-linejoin:miter;" x="109.011994" xlink:href="#m9e90654f00" y="60.449163"/>
     <use style="fill:#5cacee;stroke:#5cacee;stroke-linejoin:miter;" x="110.147264" xlink:href="#m9e90654f00" y="62.995114"/>
     <use style="fill:#5cacee;stroke:#5cacee;stroke-linejoin:miter;" x="111.282534" xlink:href="#m9e90654f00" y="67.698199"/>
     <use style="fill:#5cacee;stroke:#5cacee;stroke-linejoin:miter;" x="112.417804" xlink:href="#m9e90654f00" y="74.16223"/>
     <use style="fill:#5cacee;stroke:#5cacee;stroke-linejoin:miter;" x="113.553074" xlink:href="#m9e90654f00" y="82.583705"/>
     <use style="fill:#5cacee;stroke:#5cacee;stroke-linejoin:miter;" x="114.688344" xlink:href="#m9e90654f00" y="91.438437"/>
     <use style="fill:#5cacee;stroke:#5cacee;stroke-linejoin:miter;" x="115.823614" xlink:href="#m9e90654f00" y="103.719313"/>
     <use style="fill:#5cacee;stroke:#5cacee;stroke-linejoin:miter;" x="116.958884" xlink:href="#m9e90654f00" y="114.191306"/>
     <use style="fill:#5cacee;stroke:#5cacee;stroke-linejoin:miter;" x="118.094154" xlink:href="#m9e90654f00" y="118.761393"/>
     <use style="fill:#5cacee;stroke:#5cacee;stroke-linejoin:miter;" x="119.229424" xlink:href="#m9e90654f00" y="131.091185"/>
     <use style="fill:#5cacee;stroke:#5cacee;stroke-linejoin:miter;" x="120.364694" xlink:href="#m9e90654f00" y="144.282068"/>
     <use style="fill:#5cacee;stroke:#5cacee;stroke-linejoin:miter;" x="121.499964" xlink:href="#m9e90654f00" y="157.1992"/>
     <use style="fill:#5cacee;stroke:#5cacee;stroke-linejoin:miter;" x="122.635234" xlink:href="#m9e90654f00" y="166.076039"/>
     <use style="fill:#5cacee;stroke:#5cacee;stroke-linejoin:miter;" x="123.770504" xlink:href="#m9e90654f00" y="170.716564"/>
     <use style="fill:#5cacee;stroke:#5cacee;stroke-linejoin:miter;" x="124.905774" xlink:href="#m9e90654f00" y="187.239248"/>
     <use style="fill:#5cacee;stroke:#5cacee;stroke-linejoin:miter;" x="126.041044" xlink:href="#m9e90654f00" y="198.441689"/>
     <use style="fill:#5cacee;stroke:#5cacee;stroke-linejoin:miter;" x="127.176314" xlink:href="#m9e90654f00" y="207.657899"/>
     <use style="fill:#5cacee;stroke:#5cacee;stroke-linejoin:miter;" x="128.311584" xlink:href="#m9e90654f00" y="233.129794"/>
     <use style="fill:#5cacee;stroke:#5cacee;stroke-linejoin:miter;" x="129.446854" xlink:href="#m9e90654f00" y="228.458168"/>
     <use style="fill:#5cacee;stroke:#5cacee;stroke-linejoin:miter;" x="130.582124" xlink:href="#m9e90654f00" y="240.114046"/>
    </g>
   </g>
   <g id="line2d_28">
    <g clip-path="url(#pff6bfa4703)">
     <use style="fill:#5cacee;stroke:#5cacee;stroke-linejoin:miter;" x="104.470914" xlink:href="#m2fa7844617" y="59.634108"/>
     <use style="fill:#5cacee;stroke:#5cacee;stroke-linejoin:miter;" x="108.29316" xlink:href="#m2fa7844617" y="32.706751"/>
     <use style="fill:#5cacee;stroke:#5cacee;stroke-linejoin:miter;" x="112.115405" xlink:href="#m2fa7844617" y="41.572679"/>
     <use style="fill:#5cacee;stroke:#5cacee;stroke-linejoin:miter;" x="115.937651" xlink:href="#m2fa7844617" y="59.756086"/>
     <use style="fill:#5cacee;stroke:#5cacee;stroke-linejoin:miter;" x="119.759897" xlink:href="#m2fa7844617" y="82.314169"/>
     <use style="fill:#5cacee;stroke:#5cacee;stroke-linejoin:miter;" x="123.582143" xlink:href="#m2fa7844617" y="104.961338"/>
     <use style="fill:#5cacee;stroke:#5cacee;stroke-linejoin:miter;" x="127.404388" xlink:href="#m2fa7844617" y="129.537798"/>
     <use style="fill:#5cacee;stroke:#5cacee;stroke-linejoin:miter;" x="131.226634" xlink:href="#m2fa7844617" y="154.565051"/>
     <use style="fill:#5cacee;stroke:#5cacee;stroke-linejoin:miter;" x="135.04888" xlink:href="#m2fa7844617" y="181.902513"/>
     <use style="fill:#5cacee;stroke:#5cacee;stroke-linejoin:miter;" x="138.871126" xlink:href="#m2fa7844617" y="205.665575"/>
     <use style="fill:#5cacee;stroke:#5cacee;stroke-linejoin:miter;" x="142.693371" xlink:href="#m2fa7844617" y="229.035688"/>
     <use style="fill:#5cacee;stroke:#5cacee;stroke-linejoin:miter;" x="146.515617" xlink:href="#m2fa7844617" y="249.637406"/>
     <use style="fill:#5cacee;stroke:#5cacee;stroke-linejoin:miter;" x="150.337863" xlink:href="#m2fa7844617" y="277.968983"/>
     <use style="fill:#5cacee;stroke:#5cacee;stroke-linejoin:miter;" x="154.160109" xlink:href="#m2fa7844617" y="317.822239"/>
     <use style="fill:#5cacee;stroke:#5cacee;stroke-linejoin:miter;" x="157.982354" xlink:href="#m2fa7844617" y="347.002349"/>
     <use style="fill:#5cacee;stroke:#5cacee;stroke-linejoin:miter;" x="161.8046" xlink:href="#m2fa7844617" y="358.903595"/>
     <use style="fill:#5cacee;stroke:#5cacee;stroke-linejoin:miter;" x="165.626846" xlink:href="#m2fa7844617" y="381.614258"/>
     <use style="fill:#5cacee;stroke:#5cacee;stroke-linejoin:miter;" x="169.449091" xlink:href="#m2fa7844617" y="394.03878"/>
     <use style="fill:#5cacee;stroke:#5cacee;stroke-linejoin:miter;" x="173.271337" xlink:href="#m2fa7844617" y="437.430644"/>
     <use style="fill:#5cacee;stroke:#5cacee;stroke-linejoin:miter;" x="177.093583" xlink:href="#m2fa7844617" y="437.430644"/>
     <use style="fill:#5cacee;stroke:#5cacee;stroke-linejoin:miter;" x="180.915829" xlink:href="#m2fa7844617" y="418.229439"/>
     <use style="fill:#5cacee;stroke:#5cacee;stroke-linejoin:miter;" x="188.56032" xlink:href="#m2fa7844617" y="470.255322"/>
    </g>
   </g>
   <g id="line2d_29">
    <g clip-path="url(#pff6bfa4703)">
     <use style="fill:#cd6889;stroke:#cd6889;" x="104.470914" xlink:href="#m4064941889" y="139.883383"/>
     <use style="fill:#cd6889;stroke:#cd6889;" x="105.619846" xlink:href="#m4064941889" y="84.741834"/>
     <use style="fill:#cd6889;stroke:#cd6889;" x="106.768779" xlink:href="#m4064941889" y="62.148291"/>
     <use style="fill:#cd6889;stroke:#cd6889;" x="107.917712" xlink:href="#m4064941889" y="54.607312"/>
     <use style="fill:#cd6889;stroke:#cd6889;" x="109.066644" xlink:href="#m4064941889" y="55.499387"/>
     <use style="fill:#cd6889;stroke:#cd6889;" x="110.215577" xlink:href="#m4064941889" y="56.946494"/>
     <use style="fill:#cd6889;stroke:#cd6889;" x="111.364509" xlink:href="#m4064941889" y="65.244846"/>
     <use style="fill:#cd6889;stroke:#cd6889;" x="112.513442" xlink:href="#m4064941889" y="73.135915"/>
     <use style="fill:#cd6889;stroke:#cd6889;" x="113.662375" xlink:href="#m4064941889" y="80.054884"/>
     <use style="fill:#cd6889;stroke:#cd6889;" x="114.811307" xlink:href="#m4064941889" y="93.609657"/>
     <use style="fill:#cd6889;stroke:#cd6889;" x="115.96024" xlink:href="#m4064941889" y="102.248669"/>
     <use style="fill:#cd6889;stroke:#cd6889;" x="117.109173" xlink:href="#m4064941889" y="113.756375"/>
     <use style="fill:#cd6889;stroke:#cd6889;" x="118.258105" xlink:href="#m4064941889" y="125.242874"/>
     <use style="fill:#cd6889;stroke:#cd6889;" x="119.407038" xlink:href="#m4064941889" y="134.340053"/>
     <use style="fill:#cd6889;stroke:#cd6889;" x="120.55597" xlink:href="#m4064941889" y="149.050997"/>
     <use style="fill:#cd6889;stroke:#cd6889;" x="121.704903" xlink:href="#m4064941889" y="160.532485"/>
     <use style="fill:#cd6889;stroke:#cd6889;" x="122.853836" xlink:href="#m4064941889" y="175.297955"/>
     <use style="fill:#cd6889;stroke:#cd6889;" x="124.002768" xlink:href="#m4064941889" y="184.894413"/>
     <use style="fill:#cd6889;stroke:#cd6889;" x="125.151701" xlink:href="#m4064941889" y="192.644519"/>
     <use style="fill:#cd6889;stroke:#cd6889;" x="126.300633" xlink:href="#m4064941889" y="210.61563"/>
     <use style="fill:#cd6889;stroke:#cd6889;" x="127.449566" xlink:href="#m4064941889" y="226.628437"/>
     <use style="fill:#cd6889;stroke:#cd6889;" x="128.598499" xlink:href="#m4064941889" y="234.251647"/>
     <use style="fill:#cd6889;stroke:#cd6889;" x="129.747431" xlink:href="#m4064941889" y="253.860043"/>
     <use style="fill:#cd6889;stroke:#cd6889;" x="130.896364" xlink:href="#m4064941889" y="259.315252"/>
    </g>
   </g>
   <g id="line2d_30">
    <g clip-path="url(#pff6bfa4703)">
     <use style="fill:#cd6889;stroke:#cd6889;stroke-linejoin:miter;" x="104.470914" xlink:href="#mc05c60afa4" y="101.33871"/>
     <use style="fill:#cd6889;stroke:#cd6889;stroke-linejoin:miter;" x="106.729249" xlink:href="#mc05c60afa4" y="59.760158"/>
     <use style="fill:#cd6889;stroke:#cd6889;stroke-linejoin:miter;" x="108.987583" xlink:href="#mc05c60afa4" y="53.882535"/>
     <use style="fill:#cd6889;stroke:#cd6889;stroke-linejoin:miter;" x="111.245918" xlink:href="#mc05c60afa4" y="57.634393"/>
     <use style="fill:#cd6889;stroke:#cd6889;stroke-linejoin:miter;" x="113.504253" xlink:href="#mc05c60afa4" y="67.813889"/>
     <use style="fill:#cd6889;stroke:#cd6889;stroke-linejoin:miter;" x="115.762588" xlink:href="#mc05c60afa4" y="79.37233"/>
     <use style="fill:#cd6889;stroke:#cd6889;stroke-linejoin:miter;" x="118.020923" xlink:href="#mc05c60afa4" y="92.393859"/>
     <use style="fill:#cd6889;stroke:#cd6889;stroke-linejoin:miter;" x="120.279257" xlink:href="#mc05c60afa4" y="103.523988"/>
     <use style="fill:#cd6889;stroke:#cd6889;stroke-linejoin:miter;" x="122.537592" xlink:href="#mc05c60afa4" y="118.408883"/>
     <use style="fill:#cd6889;stroke:#cd6889;stroke-linejoin:miter;" x="124.795927" xlink:href="#mc05c60afa4" y="133.987379"/>
     <use style="fill:#cd6889;stroke:#cd6889;stroke-linejoin:miter;" x="127.054262" xlink:href="#mc05c60afa4" y="147.571827"/>
     <use style="fill:#cd6889;stroke:#cd6889;stroke-linejoin:miter;" x="129.312597" xlink:href="#mc05c60afa4" y="166.578392"/>
     <use style="fill:#cd6889;stroke:#cd6889;stroke-linejoin:miter;" x="131.570931" xlink:href="#mc05c60afa4" y="176.816514"/>
     <use style="fill:#cd6889;stroke:#cd6889;stroke-linejoin:miter;" x="133.829266" xlink:href="#mc05c60afa4" y="209.256963"/>
     <use style="fill:#cd6889;stroke:#cd6889;stroke-linejoin:miter;" x="136.087601" xlink:href="#mc05c60afa4" y="213.665353"/>
     <use style="fill:#cd6889;stroke:#cd6889;stroke-linejoin:miter;" x="138.345936" xlink:href="#mc05c60afa4" y="226.905373"/>
     <use style="fill:#cd6889;stroke:#cd6889;stroke-linejoin:miter;" x="140.60427" xlink:href="#mc05c60afa4" y="248.748066"/>
     <use style="fill:#cd6889;stroke:#cd6889;stroke-linejoin:miter;" x="142.862605" xlink:href="#mc05c60afa4" y="252.410257"/>
     <use style="fill:#cd6889;stroke:#cd6889;stroke-linejoin:miter;" x="145.12094" xlink:href="#mc05c60afa4" y="279.209822"/>
     <use style="fill:#cd6889;stroke:#cd6889;stroke-linejoin:miter;" x="147.379275" xlink:href="#mc05c60afa4" y="287.927732"/>
     <use style="fill:#cd6889;stroke:#cd6889;stroke-linejoin:miter;" x="149.63761" xlink:href="#mc05c60afa4" y="301.216532"/>
     <use style="fill:#cd6889;stroke:#cd6889;stroke-linejoin:miter;" x="151.895944" xlink:href="#mc05c60afa4" y="332.081371"/>
     <use style="fill:#cd6889;stroke:#cd6889;stroke-linejoin:miter;" x="154.154279" xlink:href="#mc05c60afa4" y="338.956611"/>
     <use style="fill:#cd6889;stroke:#cd6889;stroke-linejoin:miter;" x="156.412614" xlink:href="#mc05c60afa4" y="333.378877"/>
    </g>
   </g>
   <g id="line2d_31">
    <g clip-path="url(#pff6bfa4703)">
     <use style="fill:#36648b;stroke:#36648b;stroke-linejoin:miter;" x="104.470914" xlink:href="#mec1ba1fb9c" y="92.670415"/>
     <use style="fill:#36648b;stroke:#36648b;stroke-linejoin:miter;" x="106.231384" xlink:href="#mec1ba1fb9c" y="38.817535"/>
     <use style="fill:#36648b;stroke:#36648b;stroke-linejoin:miter;" x="107.991854" xlink:href="#mec1ba1fb9c" y="30.450261"/>
     <use style="fill:#36648b;stroke:#36648b;stroke-linejoin:miter;" x="109.752324" xlink:href="#mec1ba1fb9c" y="35.039915"/>
     <use style="fill:#36648b;stroke:#36648b;stroke-linejoin:miter;" x="111.512794" xlink:href="#mec1ba1fb9c" y="45.247316"/>
     <use style="fill:#36648b;stroke:#36648b;stroke-linejoin:miter;" x="113.273264" xlink:href="#mec1ba1fb9c" y="60.672775"/>
     <use style="fill:#36648b;stroke:#36648b;stroke-linejoin:miter;" x="115.033734" xlink:href="#mec1ba1fb9c" y="76.440187"/>
     <use style="fill:#36648b;stroke:#36648b;stroke-linejoin:miter;" x="116.794204" xlink:href="#mec1ba1fb9c" y="96.668717"/>
     <use style="fill:#36648b;stroke:#36648b;stroke-linejoin:miter;" x="118.554674" xlink:href="#mec1ba1fb9c" y="114.734148"/>
     <use style="fill:#36648b;stroke:#36648b;stroke-linejoin:miter;" x="120.315144" xlink:href="#mec1ba1fb9c" y="134.379401"/>
     <use style="fill:#36648b;stroke:#36648b;stroke-linejoin:miter;" x="122.075614" xlink:href="#mec1ba1fb9c" y="150.274032"/>
     <use style="fill:#36648b;stroke:#36648b;stroke-linejoin:miter;" x="123.836085" xlink:href="#mec1ba1fb9c" y="168.927763"/>
     <use style="fill:#36648b;stroke:#36648b;stroke-linejoin:miter;" x="125.596555" xlink:href="#mec1ba1fb9c" y="185.585754"/>
     <use style="fill:#36648b;stroke:#36648b;stroke-linejoin:miter;" x="127.357025" xlink:href="#mec1ba1fb9c" y="204.786959"/>
     <use style="fill:#36648b;stroke:#36648b;stroke-linejoin:miter;" x="129.117495" xlink:href="#mec1ba1fb9c" y="236.578375"/>
     <use style="fill:#36648b;stroke:#36648b;stroke-linejoin:miter;" x="130.877965" xlink:href="#mec1ba1fb9c" y="255.103054"/>
     <use style="fill:#36648b;stroke:#36648b;stroke-linejoin:miter;" x="132.638435" xlink:href="#mec1ba1fb9c" y="280.91653"/>
     <use style="fill:#36648b;stroke:#36648b;stroke-linejoin:miter;" x="134.398905" xlink:href="#mec1ba1fb9c" y="284.059787"/>
     <use style="fill:#36648b;stroke:#36648b;stroke-linejoin:miter;" x="136.159375" xlink:href="#mec1ba1fb9c" y="289.987013"/>
     <use style="fill:#36648b;stroke:#36648b;stroke-linejoin:miter;" x="137.919845" xlink:href="#mec1ba1fb9c" y="368.910349"/>
     <use style="fill:#36648b;stroke:#36648b;stroke-linejoin:miter;" x="139.680315" xlink:href="#mec1ba1fb9c" y="389.525271"/>
     <use style="fill:#36648b;stroke:#36648b;stroke-linejoin:miter;" x="141.440785" xlink:href="#mec1ba1fb9c" y="350.646916"/>
     <use style="fill:#36648b;stroke:#36648b;stroke-linejoin:miter;" x="143.201255" xlink:href="#mec1ba1fb9c" y="410.929479"/>
    </g>
   </g>
   <g id="line2d_32">
    <g clip-path="url(#pff6bfa4703)">
     <use style="fill:#36648b;stroke:#36648b;stroke-linejoin:miter;" x="104.470914" xlink:href="#mc6c42b55d8" y="125.356613"/>
     <use style="fill:#36648b;stroke:#36648b;stroke-linejoin:miter;" x="106.176734" xlink:href="#mc6c42b55d8" y="74.272732"/>
     <use style="fill:#36648b;stroke:#36648b;stroke-linejoin:miter;" x="107.882553" xlink:href="#mc6c42b55d8" y="63.187316"/>
     <use style="fill:#36648b;stroke:#36648b;stroke-linejoin:miter;" x="109.588373" xlink:href="#mc6c42b55d8" y="59.862055"/>
     <use style="fill:#36648b;stroke:#36648b;stroke-linejoin:miter;" x="111.294193" xlink:href="#mc6c42b55d8" y="66.425162"/>
     <use style="fill:#36648b;stroke:#36648b;stroke-linejoin:miter;" x="113.000012" xlink:href="#mc6c42b55d8" y="73.542686"/>
     <use style="fill:#36648b;stroke:#36648b;stroke-linejoin:miter;" x="114.705832" xlink:href="#mc6c42b55d8" y="83.522533"/>
     <use style="fill:#36648b;stroke:#36648b;stroke-linejoin:miter;" x="116.411652" xlink:href="#mc6c42b55d8" y="93.5847"/>
     <use style="fill:#36648b;stroke:#36648b;stroke-linejoin:miter;" x="118.117472" xlink:href="#mc6c42b55d8" y="105.375579"/>
     <use style="fill:#36648b;stroke:#36648b;stroke-linejoin:miter;" x="119.823291" xlink:href="#mc6c42b55d8" y="117.476895"/>
     <use style="fill:#36648b;stroke:#36648b;stroke-linejoin:miter;" x="121.529111" xlink:href="#mc6c42b55d8" y="130.907918"/>
     <use style="fill:#36648b;stroke:#36648b;stroke-linejoin:miter;" x="123.234931" xlink:href="#mc6c42b55d8" y="136.636795"/>
     <use style="fill:#36648b;stroke:#36648b;stroke-linejoin:miter;" x="124.94075" xlink:href="#mc6c42b55d8" y="150.136569"/>
     <use style="fill:#36648b;stroke:#36648b;stroke-linejoin:miter;" x="126.64657" xlink:href="#mc6c42b55d8" y="159.051438"/>
     <use style="fill:#36648b;stroke:#36648b;stroke-linejoin:miter;" x="128.35239" xlink:href="#mc6c42b55d8" y="176.384475"/>
     <use style="fill:#36648b;stroke:#36648b;stroke-linejoin:miter;" x="130.05821" xlink:href="#mc6c42b55d8" y="191.447253"/>
     <use style="fill:#36648b;stroke:#36648b;stroke-linejoin:miter;" x="131.764029" xlink:href="#mc6c42b55d8" y="194.709788"/>
     <use style="fill:#36648b;stroke:#36648b;stroke-linejoin:miter;" x="133.469849" xlink:href="#mc6c42b55d8" y="210.419131"/>
     <use style="fill:#36648b;stroke:#36648b;stroke-linejoin:miter;" x="135.175669" xlink:href="#mc6c42b55d8" y="219.585579"/>
     <use style="fill:#36648b;stroke:#36648b;stroke-linejoin:miter;" x="136.881488" xlink:href="#mc6c42b55d8" y="235.901849"/>
     <use style="fill:#36648b;stroke:#36648b;stroke-linejoin:miter;" x="138.587308" xlink:href="#mc6c42b55d8" y="251.936693"/>
     <use style="fill:#36648b;stroke:#36648b;stroke-linejoin:miter;" x="140.293128" xlink:href="#mc6c42b55d8" y="267.076325"/>
     <use style="fill:#36648b;stroke:#36648b;stroke-linejoin:miter;" x="141.998947" xlink:href="#mc6c42b55d8" y="267.401797"/>
     <use style="fill:#36648b;stroke:#36648b;stroke-linejoin:miter;" x="143.704767" xlink:href="#mc6c42b55d8" y="263.036973"/>
    </g>
   </g>
   <g id="line2d_33">
    <path clip-path="url(#pff6bfa4703)" d="M 104.470914 126.282138 
L 118.070108 136.562123 
L 131.669302 146.842108 
L 145.268496 157.122093 
L 158.86769 167.402078 
L 172.466884 177.682063 
L 186.066078 187.962048 
L 199.665272 198.242034 
L 213.264466 208.522019 
L 226.86366 218.802004 
L 240.462854 229.081989 
L 254.062048 239.361974 
L 267.661242 249.641959 
L 281.260436 259.921944 
L 294.85963 270.201929 
L 308.458824 280.481914 
L 322.058018 290.761899 
L 335.657212 301.041884 
L 349.256406 311.321869 
L 362.8556 321.601854 
L 376.454795 331.881839 
L 390.053989 342.161824 
L 403.653183 352.441809 
L 417.252377 362.721794 
" style="fill:none;stroke:#4682b4;stroke-linecap:square;stroke-width:2;"/>
   </g>
   <g id="line2d_34">
    <path clip-path="url(#pff6bfa4703)" d="M 104.470914 91.50841 
L 114.619667 104.756787 
L 124.76842 118.005165 
L 134.917172 131.253542 
L 145.065925 144.501919 
L 155.214678 157.750297 
L 165.363431 170.998674 
L 175.512184 184.247051 
L 185.660937 197.495429 
L 195.80969 210.743806 
L 205.958443 223.992183 
L 216.107195 237.240561 
L 226.255948 250.488938 
L 236.404701 263.737315 
L 246.553454 276.985693 
L 256.702207 290.23407 
L 266.85096 303.482447 
L 276.999713 316.730825 
L 287.148465 329.979202 
L 297.297218 343.227579 
L 307.445971 356.475957 
L 317.594724 369.724334 
L 327.743477 382.972711 
" style="fill:none;stroke:#4682b4;stroke-linecap:square;stroke-width:2;"/>
   </g>
   <g id="line2d_35">
    <path clip-path="url(#pff6bfa4703)" d="M 104.470914 74.981626 
L 110.719635 88.086275 
L 116.968357 101.190923 
L 123.217078 114.295571 
L 129.4658 127.400219 
L 135.714521 140.504868 
L 141.963243 153.609516 
L 148.211964 166.714164 
L 154.460685 179.818813 
L 160.709407 192.923461 
L 166.958128 206.028109 
L 173.20685 219.132757 
L 179.455571 232.237406 
L 185.704293 245.342054 
L 191.953014 258.446702 
L 198.201736 271.55135 
L 204.450457 284.655999 
L 210.699179 297.760647 
L 216.9479 310.865295 
L 223.196621 323.969944 
L 229.445343 337.074592 
L 235.694064 350.17924 
L 241.942786 363.283888 
L 248.191507 376.388537 
" style="fill:none;stroke:#ff82ab;stroke-linecap:square;stroke-width:2;"/>
   </g>
   <g id="line2d_36">
    <path clip-path="url(#pff6bfa4703)" d="M 104.470914 58.27114 
L 108.672433 70.985234 
L 112.873952 83.699328 
L 117.075471 96.413422 
L 121.276991 109.127516 
L 125.47851 121.84161 
L 129.680029 134.555705 
L 133.881548 147.269799 
L 138.083067 159.983893 
L 142.284587 172.697987 
L 146.486106 185.412081 
L 150.687625 198.126175 
L 154.889144 210.840269 
L 159.090663 223.554363 
L 163.292183 236.268457 
L 167.493702 248.982552 
L 171.695221 261.696646 
L 175.89674 274.41074 
L 180.098259 287.124834 
L 184.299779 299.838928 
L 188.501298 312.553022 
L 192.702817 325.267116 
L 196.904336 337.98121 
L 201.105855 350.695305 
" style="fill:none;stroke:#ff82ab;stroke-linecap:square;stroke-width:2;"/>
   </g>
   <g id="line2d_37">
    <path clip-path="url(#pff6bfa4703)" d="M 104.470914 47.429492 
L 105.606184 54.919019 
L 106.741454 62.408545 
L 107.876724 69.898072 
L 109.011994 77.387599 
L 110.147264 84.877125 
L 111.282534 92.366652 
L 112.417804 99.856178 
L 113.553074 107.345705 
L 114.688344 114.835231 
L 115.823614 122.324758 
L 116.958884 129.814284 
L 118.094154 137.303811 
L 119.229424 144.793338 
L 120.364694 152.282864 
L 121.499964 159.772391 
L 122.635234 167.261917 
L 123.770504 174.751444 
L 124.905774 182.24097 
L 126.041044 189.730497 
L 127.176314 197.220024 
L 128.311584 204.70955 
L 129.446854 212.199077 
L 130.582124 219.688603 
" style="fill:none;stroke:#5cacee;stroke-linecap:square;stroke-width:2;"/>
   </g>
   <g id="line2d_38">
    <path clip-path="url(#pff6bfa4703)" d="M 104.470914 10.490924 
L 108.29316 32.651205 
L 112.115405 54.811485 
L 115.937651 76.971766 
L 119.759897 99.132046 
L 123.582143 121.292327 
L 127.404388 143.452607 
L 131.226634 165.612888 
L 135.04888 187.773168 
L 138.871126 209.933449 
L 142.693371 232.09373 
L 146.515617 254.25401 
L 150.337863 276.414291 
L 154.160109 298.574571 
L 157.982354 320.734852 
L 161.8046 342.895132 
L 165.626846 365.055413 
L 169.449091 387.215693 
L 173.271337 409.375974 
L 177.093583 431.536254 
L 180.915829 453.696535 
L 188.56032 498.017096 
" style="fill:none;stroke:#5cacee;stroke-linecap:square;stroke-width:2;"/>
   </g>
   <g id="line2d_39">
    <path clip-path="url(#pff6bfa4703)" d="M 104.470914 38.185621 
L 105.619846 46.780173 
L 106.768779 55.374726 
L 107.917712 63.969278 
L 109.066644 72.56383 
L 110.215577 81.158383 
L 111.364509 89.752935 
L 112.513442 98.347487 
L 113.662375 106.94204 
L 114.811307 115.536592 
L 115.96024 124.131144 
L 117.109173 132.725697 
L 118.258105 141.320249 
L 119.407038 149.914801 
L 120.55597 158.509354 
L 121.704903 167.103906 
L 122.853836 175.698458 
L 124.002768 184.293011 
L 125.151701 192.887563 
L 126.300633 201.482116 
L 127.449566 210.076668 
L 128.598499 218.67122 
L 129.747431 227.265773 
L 130.896364 235.860325 
" style="fill:none;stroke:#cd6889;stroke-linecap:square;stroke-width:2;"/>
   </g>
   <g id="line2d_40">
    <path clip-path="url(#pff6bfa4703)" d="M 104.470914 27.884953 
L 106.729249 41.340029 
L 108.987583 54.795104 
L 111.245918 68.25018 
L 113.504253 81.705256 
L 115.762588 95.160332 
L 118.020923 108.615408 
L 120.279257 122.070484 
L 122.537592 135.52556 
L 124.795927 148.980636 
L 127.054262 162.435712 
L 129.312597 175.890788 
L 131.570931 189.345863 
L 133.829266 202.800939 
L 136.087601 216.256015 
L 138.345936 229.711091 
L 140.60427 243.166167 
L 142.862605 256.621243 
L 145.12094 270.076319 
L 147.379275 283.531395 
L 149.63761 296.986471 
L 151.895944 310.441547 
L 154.154279 323.896622 
L 156.412614 337.351698 
" style="fill:none;stroke:#cd6889;stroke-linecap:square;stroke-width:2;"/>
   </g>
   <g id="line2d_41">
    <path clip-path="url(#pff6bfa4703)" d="M 104.989176 -1 
L 106.231384 11.392174 
L 107.991854 28.954487 
L 109.752324 46.5168 
L 111.512794 64.079112 
L 113.273264 81.641425 
L 115.033734 99.203738 
L 116.794204 116.766051 
L 118.554674 134.328364 
L 120.315144 151.890677 
L 122.075614 169.45299 
L 123.836085 187.015302 
L 125.596555 204.577615 
L 127.357025 222.139928 
L 129.117495 239.702241 
L 130.877965 257.264554 
L 132.638435 274.826867 
L 134.398905 292.38918 
L 136.159375 309.951492 
L 137.919845 327.513805 
L 139.680315 345.076118 
L 141.440785 362.638431 
L 143.201255 380.200744 
" style="fill:none;stroke:#36648b;stroke-linecap:square;stroke-width:2;"/>
   </g>
   <g id="line2d_42">
    <path clip-path="url(#pff6bfa4703)" d="M 104.470914 44.369028 
L 106.176734 53.979108 
L 107.882553 63.589189 
L 109.588373 73.199269 
L 111.294193 82.809349 
L 113.000012 92.41943 
L 114.705832 102.02951 
L 116.411652 111.639591 
L 118.117472 121.249671 
L 119.823291 130.859751 
L 121.529111 140.469832 
L 123.234931 150.079912 
L 124.94075 159.689992 
L 126.64657 169.300073 
L 128.35239 178.910153 
L 130.05821 188.520234 
L 131.764029 198.130314 
L 133.469849 207.740394 
L 135.175669 217.350475 
L 136.881488 226.960555 
L 138.587308 236.570635 
L 140.293128 246.180716 
L 141.998947 255.790796 
L 143.704767 265.400877 
" style="fill:none;stroke:#36648b;stroke-linecap:square;stroke-width:2;"/>
   </g>
   <g id="patch_3">
    <path d="M 78.23 503.08 
L 78.23 29.52 
" style="fill:none;stroke:#000000;stroke-linecap:square;stroke-linejoin:miter;stroke-width:0.8;"/>
   </g>
   <g id="patch_4">
    <path d="M 541.665 503.08 
L 541.665 29.52 
" style="fill:none;stroke:#000000;stroke-linecap:square;stroke-linejoin:miter;stroke-width:0.8;"/>
   </g>
   <g id="patch_5">
    <path d="M 78.23 503.08 
L 541.665 503.08 
" style="fill:none;stroke:#000000;stroke-linecap:square;stroke-linejoin:miter;stroke-width:0.8;"/>
   </g>
   <g id="patch_6">
    <path d="M 78.23 29.52 
L 541.665 29.52 
" style="fill:none;stroke:#000000;stroke-linecap:square;stroke-linejoin:miter;stroke-width:0.8;"/>
   </g>
   <g id="legend_1">
    <g id="line2d_43">
     <path d="M 338.805625 55.716875 
L 378.805625 55.716875 
" style="fill:none;stroke:#4682b4;stroke-linecap:square;stroke-width:1.5;"/>
    </g>
    <g id="line2d_44">
     <g>
      <use style="fill:#4682b4;stroke:#4682b4;" x="358.805625" xlink:href="#m62eb77f1ce" y="55.716875"/>
     </g>
    </g>
    <g id="text_15">
     <!-- p=0.05, h=1 -->
     <defs>
      <path d="M 18.109375 8.203125 
L 18.109375 -20.796875 
L 9.078125 -20.796875 
L 9.078125 54.6875 
L 18.109375 54.6875 
L 18.109375 46.390625 
Q 20.953125 51.265625 25.265625 53.625 
Q 29.59375 56 35.59375 56 
Q 45.5625 56 51.78125 48.09375 
Q 58.015625 40.1875 58.015625 27.296875 
Q 58.015625 14.40625 51.78125 6.484375 
Q 45.5625 -1.421875 35.59375 -1.421875 
Q 29.59375 -1.421875 25.265625 0.953125 
Q 20.953125 3.328125 18.109375 8.203125 
z
M 48.6875 27.296875 
Q 48.6875 37.203125 44.609375 42.84375 
Q 40.53125 48.484375 33.40625 48.484375 
Q 26.265625 48.484375 22.1875 42.84375 
Q 18.109375 37.203125 18.109375 27.296875 
Q 18.109375 17.390625 22.1875 11.75 
Q 26.265625 6.109375 33.40625 6.109375 
Q 40.53125 6.109375 44.609375 11.75 
Q 48.6875 17.390625 48.6875 27.296875 
z
" id="DejaVuSans-112"/>
      <path d="M 10.59375 45.40625 
L 73.1875 45.40625 
L 73.1875 37.203125 
L 10.59375 37.203125 
z
M 10.59375 25.484375 
L 73.1875 25.484375 
L 73.1875 17.1875 
L 10.59375 17.1875 
z
" id="DejaVuSans-61"/>
      <path d="M 10.6875 12.40625 
L 21 12.40625 
L 21 0 
L 10.6875 0 
z
" id="DejaVuSans-46"/>
      <path d="M 11.71875 12.40625 
L 22.015625 12.40625 
L 22.015625 4 
L 14.015625 -11.625 
L 7.71875 -11.625 
L 11.71875 4 
z
" id="DejaVuSans-44"/>
      <path d="M 54.890625 33.015625 
L 54.890625 0 
L 45.90625 0 
L 45.90625 32.71875 
Q 45.90625 40.484375 42.875 44.328125 
Q 39.84375 48.1875 33.796875 48.1875 
Q 26.515625 48.1875 22.3125 43.546875 
Q 18.109375 38.921875 18.109375 30.90625 
L 18.109375 0 
L 9.078125 0 
L 9.078125 75.984375 
L 18.109375 75.984375 
L 18.109375 46.1875 
Q 21.34375 51.125 25.703125 53.5625 
Q 30.078125 56 35.796875 56 
Q 45.21875 56 50.046875 50.171875 
Q 54.890625 44.34375 54.890625 33.015625 
z
" id="DejaVuSans-104"/>
     </defs>
     <g transform="translate(394.805625 62.716875)scale(0.2 -0.2)">
      <use xlink:href="#DejaVuSans-112"/>
      <use x="63.476562" xlink:href="#DejaVuSans-61"/>
      <use x="147.265625" xlink:href="#DejaVuSans-48"/>
      <use x="210.888672" xlink:href="#DejaVuSans-46"/>
      <use x="242.675781" xlink:href="#DejaVuSans-48"/>
      <use x="306.298828" xlink:href="#DejaVuSans-53"/>
      <use x="369.921875" xlink:href="#DejaVuSans-44"/>
      <use x="401.708984" xlink:href="#DejaVuSans-32"/>
      <use x="433.496094" xlink:href="#DejaVuSans-104"/>
      <use x="496.875" xlink:href="#DejaVuSans-61"/>
      <use x="580.664062" xlink:href="#DejaVuSans-49"/>
     </g>
    </g>
    <g id="line2d_45">
     <path d="M 338.805625 85.073125 
L 378.805625 85.073125 
" style="fill:none;stroke:#4682b4;stroke-linecap:square;stroke-width:1.5;"/>
    </g>
    <g id="line2d_46">
     <g>
      <use style="fill:#4682b4;stroke:#4682b4;" x="358.805625" xlink:href="#me73f625c03" y="85.073125"/>
     </g>
    </g>
    <g id="text_16">
     <!-- p=0.1, h=1 -->
     <g transform="translate(394.805625 92.073125)scale(0.2 -0.2)">
      <use xlink:href="#DejaVuSans-112"/>
      <use x="63.476562" xlink:href="#DejaVuSans-61"/>
      <use x="147.265625" xlink:href="#DejaVuSans-48"/>
      <use x="210.888672" xlink:href="#DejaVuSans-46"/>
      <use x="242.675781" xlink:href="#DejaVuSans-49"/>
      <use x="306.298828" xlink:href="#DejaVuSans-44"/>
      <use x="338.085938" xlink:href="#DejaVuSans-32"/>
      <use x="369.873047" xlink:href="#DejaVuSans-104"/>
      <use x="433.251953" xlink:href="#DejaVuSans-61"/>
      <use x="517.041016" xlink:href="#DejaVuSans-49"/>
     </g>
    </g>
    <g id="line2d_47">
     <path d="M 338.805625 114.429375 
L 378.805625 114.429375 
" style="fill:none;stroke:#ff82ab;stroke-linecap:square;stroke-width:1.5;"/>
    </g>
    <g id="line2d_48">
     <g>
      <use style="fill:#ff82ab;stroke:#ff82ab;stroke-linejoin:miter;" x="358.805625" xlink:href="#m27b1803a37" y="114.429375"/>
     </g>
    </g>
    <g id="text_17">
     <!-- p=0.05, h=2 -->
     <g transform="translate(394.805625 121.429375)scale(0.2 -0.2)">
      <use xlink:href="#DejaVuSans-112"/>
      <use x="63.476562" xlink:href="#DejaVuSans-61"/>
      <use x="147.265625" xlink:href="#DejaVuSans-48"/>
      <use x="210.888672" xlink:href="#DejaVuSans-46"/>
      <use x="242.675781" xlink:href="#DejaVuSans-48"/>
      <use x="306.298828" xlink:href="#DejaVuSans-53"/>
      <use x="369.921875" xlink:href="#DejaVuSans-44"/>
      <use x="401.708984" xlink:href="#DejaVuSans-32"/>
      <use x="433.496094" xlink:href="#DejaVuSans-104"/>
      <use x="496.875" xlink:href="#DejaVuSans-61"/>
      <use x="580.664062" xlink:href="#DejaVuSans-50"/>
     </g>
    </g>
    <g id="line2d_49">
     <path d="M 338.805625 143.785625 
L 378.805625 143.785625 
" style="fill:none;stroke:#ff82ab;stroke-linecap:square;stroke-width:1.5;"/>
    </g>
    <g id="line2d_50">
     <g>
      <use style="fill:#ff82ab;stroke:#ff82ab;stroke-linejoin:miter;" x="358.805625" xlink:href="#m5fcad9d0fd" y="143.785625"/>
     </g>
    </g>
    <g id="text_18">
     <!-- p=0.1, h=2 -->
     <g transform="translate(394.805625 150.785625)scale(0.2 -0.2)">
      <use xlink:href="#DejaVuSans-112"/>
      <use x="63.476562" xlink:href="#DejaVuSans-61"/>
      <use x="147.265625" xlink:href="#DejaVuSans-48"/>
      <use x="210.888672" xlink:href="#DejaVuSans-46"/>
      <use x="242.675781" xlink:href="#DejaVuSans-49"/>
      <use x="306.298828" xlink:href="#DejaVuSans-44"/>
      <use x="338.085938" xlink:href="#DejaVuSans-32"/>
      <use x="369.873047" xlink:href="#DejaVuSans-104"/>
      <use x="433.251953" xlink:href="#DejaVuSans-61"/>
      <use x="517.041016" xlink:href="#DejaVuSans-50"/>
     </g>
    </g>
    <g id="line2d_51">
     <path d="M 338.805625 173.141875 
L 378.805625 173.141875 
" style="fill:none;stroke:#5cacee;stroke-linecap:square;stroke-width:1.5;"/>
    </g>
    <g id="line2d_52">
     <g>
      <use style="fill:#5cacee;stroke:#5cacee;stroke-linejoin:miter;" x="358.805625" xlink:href="#m9e90654f00" y="173.141875"/>
     </g>
    </g>
    <g id="text_19">
     <!-- p=0.05, h=3 -->
     <g transform="translate(394.805625 180.141875)scale(0.2 -0.2)">
      <use xlink:href="#DejaVuSans-112"/>
      <use x="63.476562" xlink:href="#DejaVuSans-61"/>
      <use x="147.265625" xlink:href="#DejaVuSans-48"/>
      <use x="210.888672" xlink:href="#DejaVuSans-46"/>
      <use x="242.675781" xlink:href="#DejaVuSans-48"/>
      <use x="306.298828" xlink:href="#DejaVuSans-53"/>
      <use x="369.921875" xlink:href="#DejaVuSans-44"/>
      <use x="401.708984" xlink:href="#DejaVuSans-32"/>
      <use x="433.496094" xlink:href="#DejaVuSans-104"/>
      <use x="496.875" xlink:href="#DejaVuSans-61"/>
      <use x="580.664062" xlink:href="#DejaVuSans-51"/>
     </g>
    </g>
    <g id="line2d_53">
     <path d="M 338.805625 202.498125 
L 378.805625 202.498125 
" style="fill:none;stroke:#5cacee;stroke-linecap:square;stroke-width:1.5;"/>
    </g>
    <g id="line2d_54">
     <g>
      <use style="fill:#5cacee;stroke:#5cacee;stroke-linejoin:miter;" x="358.805625" xlink:href="#m2fa7844617" y="202.498125"/>
     </g>
    </g>
    <g id="text_20">
     <!-- p=0.1, h=3 -->
     <g transform="translate(394.805625 209.498125)scale(0.2 -0.2)">
      <use xlink:href="#DejaVuSans-112"/>
      <use x="63.476562" xlink:href="#DejaVuSans-61"/>
      <use x="147.265625" xlink:href="#DejaVuSans-48"/>
      <use x="210.888672" xlink:href="#DejaVuSans-46"/>
      <use x="242.675781" xlink:href="#DejaVuSans-49"/>
      <use x="306.298828" xlink:href="#DejaVuSans-44"/>
      <use x="338.085938" xlink:href="#DejaVuSans-32"/>
      <use x="369.873047" xlink:href="#DejaVuSans-104"/>
      <use x="433.251953" xlink:href="#DejaVuSans-61"/>
      <use x="517.041016" xlink:href="#DejaVuSans-51"/>
     </g>
    </g>
    <g id="line2d_55">
     <path d="M 338.805625 231.854375 
L 378.805625 231.854375 
" style="fill:none;stroke:#cd6889;stroke-linecap:square;stroke-width:1.5;"/>
    </g>
    <g id="line2d_56">
     <g>
      <use style="fill:#cd6889;stroke:#cd6889;" x="358.805625" xlink:href="#m4064941889" y="231.854375"/>
     </g>
    </g>
    <g id="text_21">
     <!-- p=0.05, h=4 -->
     <g transform="translate(394.805625 238.854375)scale(0.2 -0.2)">
      <use xlink:href="#DejaVuSans-112"/>
      <use x="63.476562" xlink:href="#DejaVuSans-61"/>
      <use x="147.265625" xlink:href="#DejaVuSans-48"/>
      <use x="210.888672" xlink:href="#DejaVuSans-46"/>
      <use x="242.675781" xlink:href="#DejaVuSans-48"/>
      <use x="306.298828" xlink:href="#DejaVuSans-53"/>
      <use x="369.921875" xlink:href="#DejaVuSans-44"/>
      <use x="401.708984" xlink:href="#DejaVuSans-32"/>
      <use x="433.496094" xlink:href="#DejaVuSans-104"/>
      <use x="496.875" xlink:href="#DejaVuSans-61"/>
      <use x="580.664062" xlink:href="#DejaVuSans-52"/>
     </g>
    </g>
    <g id="line2d_57">
     <path d="M 338.805625 261.210625 
L 378.805625 261.210625 
" style="fill:none;stroke:#cd6889;stroke-linecap:square;stroke-width:1.5;"/>
    </g>
    <g id="line2d_58">
     <g>
      <use style="fill:#cd6889;stroke:#cd6889;stroke-linejoin:miter;" x="358.805625" xlink:href="#mc05c60afa4" y="261.210625"/>
     </g>
    </g>
    <g id="text_22">
     <!-- p=0.1, h=4 -->
     <g transform="translate(394.805625 268.210625)scale(0.2 -0.2)">
      <use xlink:href="#DejaVuSans-112"/>
      <use x="63.476562" xlink:href="#DejaVuSans-61"/>
      <use x="147.265625" xlink:href="#DejaVuSans-48"/>
      <use x="210.888672" xlink:href="#DejaVuSans-46"/>
      <use x="242.675781" xlink:href="#DejaVuSans-49"/>
      <use x="306.298828" xlink:href="#DejaVuSans-44"/>
      <use x="338.085938" xlink:href="#DejaVuSans-32"/>
      <use x="369.873047" xlink:href="#DejaVuSans-104"/>
      <use x="433.251953" xlink:href="#DejaVuSans-61"/>
      <use x="517.041016" xlink:href="#DejaVuSans-52"/>
     </g>
    </g>
    <g id="line2d_59">
     <path d="M 338.805625 290.566875 
L 378.805625 290.566875 
" style="fill:none;stroke:#36648b;stroke-linecap:square;stroke-width:1.5;"/>
    </g>
    <g id="line2d_60">
     <g>
      <use style="fill:#36648b;stroke:#36648b;stroke-linejoin:miter;" x="358.805625" xlink:href="#mec1ba1fb9c" y="290.566875"/>
     </g>
    </g>
    <g id="text_23">
     <!-- p=0.05, h=5 -->
     <g transform="translate(394.805625 297.566875)scale(0.2 -0.2)">
      <use xlink:href="#DejaVuSans-112"/>
      <use x="63.476562" xlink:href="#DejaVuSans-61"/>
      <use x="147.265625" xlink:href="#DejaVuSans-48"/>
      <use x="210.888672" xlink:href="#DejaVuSans-46"/>
      <use x="242.675781" xlink:href="#DejaVuSans-48"/>
      <use x="306.298828" xlink:href="#DejaVuSans-53"/>
      <use x="369.921875" xlink:href="#DejaVuSans-44"/>
      <use x="401.708984" xlink:href="#DejaVuSans-32"/>
      <use x="433.496094" xlink:href="#DejaVuSans-104"/>
      <use x="496.875" xlink:href="#DejaVuSans-61"/>
      <use x="580.664062" xlink:href="#DejaVuSans-53"/>
     </g>
    </g>
    <g id="line2d_61">
     <path d="M 338.805625 319.923125 
L 378.805625 319.923125 
" style="fill:none;stroke:#36648b;stroke-linecap:square;stroke-width:1.5;"/>
    </g>
    <g id="line2d_62">
     <g>
      <use style="fill:#36648b;stroke:#36648b;stroke-linejoin:miter;" x="358.805625" xlink:href="#mc6c42b55d8" y="319.923125"/>
     </g>
    </g>
    <g id="text_24">
     <!-- p=0.1, h=5 -->
     <g transform="translate(394.805625 326.923125)scale(0.2 -0.2)">
      <use xlink:href="#DejaVuSans-112"/>
      <use x="63.476562" xlink:href="#DejaVuSans-61"/>
      <use x="147.265625" xlink:href="#DejaVuSans-48"/>
      <use x="210.888672" xlink:href="#DejaVuSans-46"/>
      <use x="242.675781" xlink:href="#DejaVuSans-49"/>
      <use x="306.298828" xlink:href="#DejaVuSans-44"/>
      <use x="338.085938" xlink:href="#DejaVuSans-32"/>
      <use x="369.873047" xlink:href="#DejaVuSans-104"/>
      <use x="433.251953" xlink:href="#DejaVuSans-61"/>
      <use x="517.041016" xlink:href="#DejaVuSans-53"/>
     </g>
    </g>
   </g>
  </g>
 </g>
 <defs>
  <clipPath id="pff6bfa4703">
   <rect height="473.56" width="463.435" x="78.23" y="29.52"/>
  </clipPath>
 </defs>
</svg>
