<?xml version="1.0" encoding="utf-8" standalone="no"?>
<!DOCTYPE svg PUBLIC "-//W3C//DTD SVG 1.1//EN"
  "http://www.w3.org/Graphics/SVG/1.1/DTD/svg11.dtd">
<!-- Created with matplotlib (https://matplotlib.org/) -->
<svg height="576pt" version="1.1" viewBox="0 0 576 576" width="576pt" xmlns="http://www.w3.org/2000/svg" xmlns:xlink="http://www.w3.org/1999/xlink">
 <defs>
  <style type="text/css">
*{stroke-linecap:butt;stroke-linejoin:round;}
  </style>
 </defs>
 <g id="figure_1">
  <g id="patch_1">
   <path d="M 0 576 
L 576 576 
L 576 0 
L 0 0 
z
" style="fill:#ffffff;"/>
  </g>
  <g id="axes_1">
   <g id="patch_2">
    <path d="M 13.32 562.68 
L 562.68 562.68 
L 562.68 13.32 
L 13.32 13.32 
z
" style="fill:#ffffff;"/>
   </g>
   <g id="patch_3">
    <path clip-path="url(#pb893ac6b3e)" d="M 331.169933 504.83167 
C 345.346701 504.83167 358.944734 502.877522 368.969223 499.399603 
C 378.993711 495.921685 384.626201 491.203953 384.626201 486.285433 
C 384.626201 481.366914 378.993711 476.649182 368.969223 473.171263 
C 358.944734 469.693344 345.346701 467.739196 331.169933 467.739196 
C 316.993166 467.739196 303.395133 469.693344 293.370644 473.171263 
C 283.346155 476.649182 277.713666 481.366914 277.713666 486.285433 
C 277.713666 491.203953 283.346155 495.921685 293.370644 499.399603 
C 303.395133 502.877522 316.993166 504.83167 331.169933 504.83167 
z
" style="fill:none;stroke:#666666;stroke-linejoin:miter;"/>
   </g>
   <g id="patch_4">
    <path clip-path="url(#pb893ac6b3e)" d="M 331.169933 467.739196 
L 355.693538 463.797777 
L 356.812956 465.123765 
L 406.760999 460.048194 
L 406.776025 460.065992 
L 356.827981 465.141564 
L 357.947399 466.467553 
z
" style="fill:#666666;stroke:#666666;stroke-linejoin:miter;"/>
   </g>
   <g id="patch_5">
    <path clip-path="url(#pb893ac6b3e)" d="M 331.169933 467.739196 
L 304.392468 466.467553 
L 305.511885 465.141564 
L 255.563842 460.065992 
L 255.578868 460.048194 
L 305.526911 465.123765 
L 306.646328 463.797777 
z
" style="fill:#666666;stroke:#666666;stroke-linejoin:miter;"/>
   </g>
   <g id="patch_6">
    <path clip-path="url(#pb893ac6b3e)" d="M 255.571355 460.057093 
L 233.836764 454.483571 
L 236.652811 453.506565 
L 217.753166 446.94948 
L 217.790965 446.936366 
L 236.69061 453.493451 
L 239.506657 452.516445 
z
" style="fill:#666666;stroke:#666666;stroke-linejoin:miter;"/>
   </g>
   <g id="patch_7">
    <path clip-path="url(#pb893ac6b3e)" d="M 331.169933 428.396686 
C 345.346701 428.396686 358.944734 426.442537 368.969223 422.964618 
C 378.993711 419.4867 384.626201 414.768968 384.626201 409.850448 
C 384.626201 404.931929 378.993711 400.214197 368.969223 396.736278 
C 358.944734 393.25836 345.346701 391.304211 331.169933 391.304211 
C 316.993166 391.304211 303.395133 393.25836 293.370644 396.736278 
C 283.346155 400.214197 277.713666 404.931929 277.713666 409.850448 
C 277.713666 414.768968 283.346155 419.4867 293.370644 422.964618 
C 303.395133 426.442537 316.993166 428.396686 331.169933 428.396686 
z
" style="fill:none;stroke:#666666;stroke-linejoin:miter;"/>
   </g>
   <g id="patch_8">
    <path clip-path="url(#pb893ac6b3e)" d="M 331.169933 391.304211 
L 327.160713 382.031092 
L 331.143205 382.031092 
L 331.143205 372.757974 
L 331.196662 372.757974 
L 331.196662 382.031092 
L 335.179153 382.031092 
z
" style="fill:#666666;stroke:#666666;stroke-linejoin:miter;"/>
   </g>
   <g id="patch_9">
    <path clip-path="url(#pb893ac6b3e)" d="M 331.169933 372.757974 
L 358.174111 373.144525 
L 357.421491 374.501323 
L 470.058442 382.021986 
L 470.048339 382.040199 
L 357.411389 374.519535 
L 356.658768 375.876332 
z
" style="fill:#666666;stroke:#666666;stroke-linejoin:miter;"/>
   </g>
   <g id="patch_10">
    <path clip-path="url(#pb893ac6b3e)" d="M 331.169933 372.757974 
L 327.160713 363.484855 
L 331.143205 363.484855 
L 331.143205 354.211737 
L 331.196662 354.211737 
L 331.196662 363.484855 
L 335.179153 363.484855 
z
" style="fill:#666666;stroke:#666666;stroke-linejoin:miter;"/>
   </g>
   <g id="patch_11">
    <path clip-path="url(#pb893ac6b3e)" d="M 331.169933 372.757974 
L 305.681098 375.876332 
L 304.928478 374.519535 
L 192.291528 382.040199 
L 192.281425 382.021986 
L 304.918376 374.501323 
L 304.165756 373.144525 
z
" style="fill:#666666;stroke:#666666;stroke-linejoin:miter;"/>
   </g>
   <g id="patch_12">
    <path clip-path="url(#pb893ac6b3e)" d="M 470.05339 382.031092 
L 496.525491 383.921685 
L 495.15278 385.218706 
L 537.718304 390.641266 
L 537.699878 390.658676 
L 495.134354 385.236116 
L 493.761643 386.533137 
z
" style="fill:#666666;stroke:#666666;stroke-linejoin:miter;"/>
   </g>
   <g id="patch_13">
    <path clip-path="url(#pb893ac6b3e)" d="M 470.05339 382.031092 
L 470.669665 372.65667 
L 474.593602 372.892734 
L 482.340755 357.392184 
L 482.393426 357.395352 
L 474.646272 372.895903 
L 478.570209 373.131968 
z
" style="fill:#666666;stroke:#666666;stroke-linejoin:miter;"/>
   </g>
   <g id="patch_14">
    <path clip-path="url(#pb893ac6b3e)" d="M 192.286476 382.031092 
L 183.769658 373.131968 
L 187.693595 372.895903 
L 179.946441 357.395352 
L 179.999111 357.392184 
L 187.746265 372.892734 
L 191.670201 372.65667 
z
" style="fill:#666666;stroke:#666666;stroke-linejoin:miter;"/>
   </g>
   <g id="patch_15">
    <path clip-path="url(#pb893ac6b3e)" d="M 192.286476 382.031092 
L 168.578224 386.533137 
L 167.205513 385.236116 
L 124.639989 390.658676 
L 124.621563 390.641266 
L 167.187087 385.218706 
L 165.814376 383.921685 
z
" style="fill:#666666;stroke:#666666;stroke-linejoin:miter;"/>
   </g>
   <g id="patch_16">
    <path clip-path="url(#pb893ac6b3e)" d="M 179.972776 357.393768 
L 158.238185 351.820246 
L 161.054232 350.84324 
L 142.154587 344.286155 
L 142.192387 344.273041 
L 161.092031 350.830126 
L 163.908078 349.85312 
z
" style="fill:#666666;stroke:#666666;stroke-linejoin:miter;"/>
   </g>
   <g id="patch_17">
    <path clip-path="url(#pb893ac6b3e)" d="M 142.173487 344.279598 
L 139.992225 334.933325 
L 143.965487 335.02734 
L 147.175735 318.696689 
L 147.229067 318.69795 
L 144.01882 335.028602 
L 147.992082 335.122617 
z
" style="fill:#666666;stroke:#666666;stroke-linejoin:miter;"/>
   </g>
   <g id="patch_18">
    <path clip-path="url(#pb893ac6b3e)" d="M 142.173487 344.279598 
L 120.438896 338.706075 
L 123.254943 337.72907 
L 104.355298 331.171985 
L 104.393097 331.158871 
L 123.292742 337.715956 
L 126.108789 336.73895 
z
" style="fill:#666666;stroke:#666666;stroke-linejoin:miter;"/>
   </g>
   <g id="patch_19">
    <path clip-path="url(#pb893ac6b3e)" d="M 142.173487 344.279598 
L 115.780099 346.298314 
L 115.509118 344.919822 
L 68.438887 346.033592 
L 68.43525 346.015089 
L 115.50548 344.901318 
L 115.234499 343.522826 
z
" style="fill:#666666;stroke:#666666;stroke-linejoin:miter;"/>
   </g>
   <g id="patch_20">
    <path clip-path="url(#pb893ac6b3e)" d="M 147.202401 318.697319 
L 128.587612 311.899052 
L 131.849879 311.106544 
L 116.519251 303.51045 
L 116.56304 303.499813 
L 131.893667 311.095907 
L 135.155934 310.303399 
z
" style="fill:#666666;stroke:#666666;stroke-linejoin:miter;"/>
   </g>
   <g id="patch_21">
    <path clip-path="url(#pb893ac6b3e)" d="M 116.541145 303.505131 
L 105.480411 294.949455 
L 109.315699 294.57727 
L 101.36794 284.719044 
L 101.419421 284.714048 
L 109.367179 294.572274 
L 113.202467 294.20009 
z
" style="fill:#666666;stroke:#666666;stroke-linejoin:miter;"/>
   </g>
   <g id="patch_22">
    <path clip-path="url(#pb893ac6b3e)" d="M 116.541145 303.505131 
L 92.480348 299.234147 
L 94.800155 298.111065 
L 70.817454 292.148232 
L 70.848592 292.133157 
L 94.831293 298.09599 
L 97.1511 296.972907 
z
" style="fill:#666666;stroke:#666666;stroke-linejoin:miter;"/>
   </g>
   <g id="patch_23">
    <path clip-path="url(#pb893ac6b3e)" d="M 70.833023 292.140694 
L 51.381238 285.630602 
L 54.540761 284.78948 
L 38.269704 277.43262 
L 38.312114 277.42133 
L 54.583171 284.77819 
L 57.742694 283.937067 
z
" style="fill:#666666;stroke:#666666;stroke-linejoin:miter;"/>
   </g>
   <g id="patch_24">
    <path clip-path="url(#pb893ac6b3e)" d="M 331.169933 258.880738 
C 345.346701 258.880738 358.944734 256.926589 368.969223 253.448671 
C 378.993711 249.970752 384.626201 245.25302 384.626201 240.334501 
C 384.626201 235.415981 378.993711 230.698249 368.969223 227.22033 
C 358.944734 223.742412 345.346701 221.788263 331.169933 221.788263 
C 316.993166 221.788263 303.395133 223.742412 293.370644 227.22033 
C 283.346155 230.698249 277.713666 235.415981 277.713666 240.334501 
C 277.713666 245.25302 283.346155 249.970752 293.370644 253.448671 
C 303.395133 256.926589 316.993166 258.880738 331.169933 258.880738 
z
" style="fill:none;stroke:#666666;stroke-linejoin:miter;"/>
   </g>
   <g id="patch_25">
    <path clip-path="url(#pb893ac6b3e)" d="M 368.969223 227.22033 
L 395.458052 225.358155 
L 395.661197 226.738051 
L 429.942873 226.130564 
L 429.9456 226.149086 
L 395.663924 226.756573 
L 395.867069 228.136469 
z
" style="fill:#666666;stroke:#666666;stroke-linejoin:miter;"/>
   </g>
   <g id="patch_26">
    <path clip-path="url(#pb893ac6b3e)" d="M 368.969223 227.22033 
L 366.328614 217.888331 
L 370.305921 217.958811 
L 372.056896 206.06505 
L 372.110283 206.065996 
L 370.359308 217.959757 
L 374.336615 218.030237 
z
" style="fill:#666666;stroke:#666666;stroke-linejoin:miter;"/>
   </g>
   <g id="patch_27">
    <path clip-path="url(#pb893ac6b3e)" d="M 429.944236 226.139825 
L 453.10355 221.30607 
L 454.627584 222.582589 
L 479.321159 219.03392 
L 479.341616 219.051055 
L 454.64804 222.599724 
L 456.172074 223.876243 
z
" style="fill:#666666;stroke:#666666;stroke-linejoin:miter;"/>
   </g>
   <g id="patch_28">
    <path clip-path="url(#pb893ac6b3e)" d="M 293.370644 227.22033 
L 271.636053 221.646808 
L 274.4521 220.669802 
L 255.552455 214.112717 
L 255.590254 214.099603 
L 274.489899 220.656688 
L 277.305946 219.679683 
z
" style="fill:#666666;stroke:#666666;stroke-linejoin:miter;"/>
   </g>
   <g id="patch_29">
    <path clip-path="url(#pb893ac6b3e)" d="M 255.571355 214.10616 
L 233.836764 208.532638 
L 236.652811 207.555632 
L 217.753166 200.998547 
L 217.790965 200.985433 
L 236.69061 207.542518 
L 239.506657 206.565513 
z
" style="fill:#666666;stroke:#666666;stroke-linejoin:miter;"/>
   </g>
   <g id="patch_30">
    <path clip-path="url(#pb893ac6b3e)" d="M 331.169933 182.445753 
C 345.346701 182.445753 358.944734 180.491604 368.969223 177.013686 
C 378.993711 173.535767 384.626201 168.818035 384.626201 163.899516 
C 384.626201 158.980996 378.993711 154.263264 368.969223 150.785346 
C 358.944734 147.307427 345.346701 145.353279 331.169933 145.353279 
C 316.993166 145.353279 303.395133 147.307427 293.370644 150.785346 
C 283.346155 154.263264 277.713666 158.980996 277.713666 163.899516 
C 277.713666 168.818035 283.346155 173.535767 293.370644 177.013686 
C 303.395133 180.491604 316.993166 182.445753 331.169933 182.445753 
z
" style="fill:none;stroke:#666666;stroke-linejoin:miter;"/>
   </g>
   <g id="patch_31">
    <path clip-path="url(#pb893ac6b3e)" d="M 331.169933 145.353279 
L 327.160713 136.08016 
L 331.143205 136.08016 
L 331.143205 126.807041 
L 331.196662 126.807041 
L 331.196662 136.08016 
L 335.179153 136.08016 
z
" style="fill:#666666;stroke:#666666;stroke-linejoin:miter;"/>
   </g>
   <g id="patch_32">
    <path clip-path="url(#pb893ac6b3e)" d="M 331.169933 126.807041 
L 327.160713 117.533923 
L 331.143205 117.533923 
L 331.143205 108.260804 
L 331.196662 108.260804 
L 331.196662 117.533923 
L 335.179153 117.533923 
z
" style="fill:#666666;stroke:#666666;stroke-linejoin:miter;"/>
   </g>
   <g id="patch_33">
    <path clip-path="url(#pb893ac6b3e)" d="M 331.169933 89.714567 
C 345.346701 89.714567 358.944734 87.760418 368.969223 84.2825 
C 378.993711 80.804581 384.626201 76.086849 384.626201 71.16833 
C 384.626201 66.24981 378.993711 61.532078 368.969223 58.05416 
C 358.944734 54.576241 345.346701 52.622092 331.169933 52.622092 
C 316.993166 52.622092 303.395133 54.576241 293.370644 58.05416 
C 283.346155 61.532078 277.713666 66.24981 277.713666 71.16833 
C 277.713666 76.086849 283.346155 80.804581 293.370644 84.2825 
C 303.395133 87.760418 316.993166 89.714567 331.169933 89.714567 
z
" style="fill:none;stroke:#666666;stroke-linejoin:miter;"/>
   </g>
   <g id="matplotlib.axis_1"/>
   <g id="matplotlib.axis_2"/>
   <g id="line2d_1">
    <defs>
     <path d="M 0 6 
C 1.591219 6 3.117479 5.367802 4.242641 4.242641 
C 5.367802 3.117479 6 1.591219 6 0 
C 6 -1.591219 5.367802 -3.117479 4.242641 -4.242641 
C 3.117479 -5.367802 1.591219 -6 0 -6 
C -1.591219 -6 -3.117479 -5.367802 -4.242641 -4.242641 
C -5.367802 -3.117479 -6 -1.591219 -6 0 
C -6 1.591219 -5.367802 3.117479 -4.242641 4.242641 
C -3.117479 5.367802 -1.591219 6 0 6 
z
" id="m92a42ffb1c" style="stroke:#000000;"/>
    </defs>
    <g clip-path="url(#pb893ac6b3e)">
     <use style="stroke:#000000;" x="331.169933" xlink:href="#m92a42ffb1c" y="467.739196"/>
    </g>
   </g>
   <g id="line2d_2">
    <path clip-path="url(#pb893ac6b3e)" d="M 331.169933 467.739196 
" style="fill:none;stroke:#ffffff;stroke-linecap:square;stroke-width:1.5;"/>
    <defs>
     <path d="M -0 4 
L 4 -4 
L -4 -4 
z
" id="m7fb4b72aff" style="stroke:#ffffff;stroke-linejoin:miter;"/>
    </defs>
    <g clip-path="url(#pb893ac6b3e)">
     <use style="fill:#ffffff;stroke:#ffffff;stroke-linejoin:miter;" x="331.169933" xlink:href="#m7fb4b72aff" y="467.739196"/>
    </g>
   </g>
   <g id="line2d_3">
    <g clip-path="url(#pb893ac6b3e)">
     <use style="stroke:#000000;" x="406.768512" xlink:href="#m92a42ffb1c" y="460.057093"/>
    </g>
   </g>
   <g id="line2d_4">
    <path clip-path="url(#pb893ac6b3e)" d="M 406.768512 460.057093 
" style="fill:none;stroke:#ffffff;stroke-linecap:square;stroke-width:1.5;"/>
    <defs>
     <path d="M 0 4 
C 1.060812 4 2.078319 3.578535 2.828427 2.828427 
C 3.578535 2.078319 4 1.060812 4 0 
C 4 -1.060812 3.578535 -2.078319 2.828427 -2.828427 
C 2.078319 -3.578535 1.060812 -4 0 -4 
C -1.060812 -4 -2.078319 -3.578535 -2.828427 -2.828427 
C -3.578535 -2.078319 -4 -1.060812 -4 0 
C -4 1.060812 -3.578535 2.078319 -2.828427 2.828427 
C -2.078319 3.578535 -1.060812 4 0 4 
z
" id="m577d25dda6" style="stroke:#ffffff;"/>
    </defs>
    <g clip-path="url(#pb893ac6b3e)">
     <use style="fill:#ffffff;stroke:#ffffff;" x="406.768512" xlink:href="#m577d25dda6" y="460.057093"/>
    </g>
   </g>
   <g id="line2d_5">
    <g clip-path="url(#pb893ac6b3e)">
     <use style="stroke:#000000;" x="255.571355" xlink:href="#m92a42ffb1c" y="460.057093"/>
    </g>
   </g>
   <g id="line2d_6">
    <path clip-path="url(#pb893ac6b3e)" d="M 255.571355 460.057093 
" style="fill:none;stroke:#000000;stroke-linecap:square;stroke-width:1.5;"/>
    <defs>
     <path d="M 0 4 
C 1.060812 4 2.078319 3.578535 2.828427 2.828427 
C 3.578535 2.078319 4 1.060812 4 0 
C 4 -1.060812 3.578535 -2.078319 2.828427 -2.828427 
C 2.078319 -3.578535 1.060812 -4 0 -4 
C -1.060812 -4 -2.078319 -3.578535 -2.828427 -2.828427 
C -3.578535 -2.078319 -4 -1.060812 -4 0 
C -4 1.060812 -3.578535 2.078319 -2.828427 2.828427 
C -2.078319 3.578535 -1.060812 4 0 4 
z
" id="mad97d0e8fb" style="stroke:#000000;"/>
    </defs>
    <g clip-path="url(#pb893ac6b3e)">
     <use style="stroke:#000000;" x="255.571355" xlink:href="#mad97d0e8fb" y="460.057093"/>
    </g>
   </g>
   <g id="line2d_7">
    <g clip-path="url(#pb893ac6b3e)">
     <use style="stroke:#000000;" x="217.772066" xlink:href="#m92a42ffb1c" y="446.942923"/>
    </g>
   </g>
   <g id="line2d_8">
    <path clip-path="url(#pb893ac6b3e)" d="M 217.772066 446.942923 
" style="fill:none;stroke:#000000;stroke-linecap:square;stroke-width:1.5;"/>
    <g clip-path="url(#pb893ac6b3e)">
     <use style="stroke:#000000;" x="217.772066" xlink:href="#mad97d0e8fb" y="446.942923"/>
    </g>
   </g>
   <g id="line2d_9">
    <g clip-path="url(#pb893ac6b3e)">
     <use style="stroke:#000000;" x="331.169933" xlink:href="#m92a42ffb1c" y="391.304211"/>
    </g>
   </g>
   <g id="line2d_10">
    <path clip-path="url(#pb893ac6b3e)" d="M 331.169933 391.304211 
" style="fill:none;stroke:#ffffff;stroke-linecap:square;stroke-width:1.5;"/>
    <g clip-path="url(#pb893ac6b3e)">
     <use style="fill:#ffffff;stroke:#ffffff;stroke-linejoin:miter;" x="331.169933" xlink:href="#m7fb4b72aff" y="391.304211"/>
    </g>
   </g>
   <g id="line2d_11">
    <g clip-path="url(#pb893ac6b3e)">
     <use style="stroke:#000000;" x="331.169933" xlink:href="#m92a42ffb1c" y="372.757974"/>
    </g>
   </g>
   <g id="line2d_12">
    <path clip-path="url(#pb893ac6b3e)" d="M 331.169933 372.757974 
" style="fill:none;stroke:#000000;stroke-linecap:square;stroke-width:1.5;"/>
    <g clip-path="url(#pb893ac6b3e)">
     <use style="stroke:#000000;" x="331.169933" xlink:href="#mad97d0e8fb" y="372.757974"/>
    </g>
   </g>
   <g id="line2d_13">
    <g clip-path="url(#pb893ac6b3e)">
     <use style="stroke:#000000;" x="470.05339" xlink:href="#m92a42ffb1c" y="382.031092"/>
    </g>
   </g>
   <g id="line2d_14">
    <path clip-path="url(#pb893ac6b3e)" d="M 470.05339 382.031092 
" style="fill:none;stroke:#000000;stroke-linecap:square;stroke-width:1.5;"/>
    <g clip-path="url(#pb893ac6b3e)">
     <use style="stroke:#000000;" x="470.05339" xlink:href="#mad97d0e8fb" y="382.031092"/>
    </g>
   </g>
   <g id="line2d_15">
    <g clip-path="url(#pb893ac6b3e)">
     <use style="stroke:#000000;" x="331.169933" xlink:href="#m92a42ffb1c" y="354.211737"/>
    </g>
   </g>
   <g id="line2d_16">
    <path clip-path="url(#pb893ac6b3e)" d="M 331.169933 354.211737 
" style="fill:none;stroke:#000000;stroke-linecap:square;stroke-width:1.5;"/>
    <g clip-path="url(#pb893ac6b3e)">
     <use style="stroke:#000000;" x="331.169933" xlink:href="#mad97d0e8fb" y="354.211737"/>
    </g>
   </g>
   <g id="line2d_17">
    <g clip-path="url(#pb893ac6b3e)">
     <use style="stroke:#000000;" x="192.286476" xlink:href="#m92a42ffb1c" y="382.031092"/>
    </g>
   </g>
   <g id="line2d_18">
    <path clip-path="url(#pb893ac6b3e)" d="M 192.286476 382.031092 
" style="fill:none;stroke:#000000;stroke-linecap:square;stroke-width:1.5;"/>
    <g clip-path="url(#pb893ac6b3e)">
     <use style="stroke:#000000;" x="192.286476" xlink:href="#mad97d0e8fb" y="382.031092"/>
    </g>
   </g>
   <g id="line2d_19">
    <g clip-path="url(#pb893ac6b3e)">
     <use style="stroke:#000000;" x="537.709091" xlink:href="#m92a42ffb1c" y="390.649971"/>
    </g>
   </g>
   <g id="line2d_20">
    <path clip-path="url(#pb893ac6b3e)" d="M 537.709091 390.649971 
" style="fill:none;stroke:#000000;stroke-linecap:square;stroke-width:1.5;"/>
    <g clip-path="url(#pb893ac6b3e)">
     <use style="stroke:#000000;" x="537.709091" xlink:href="#mad97d0e8fb" y="390.649971"/>
    </g>
   </g>
   <g id="line2d_21">
    <g clip-path="url(#pb893ac6b3e)">
     <use style="stroke:#000000;" x="482.36709" xlink:href="#m92a42ffb1c" y="357.393768"/>
    </g>
   </g>
   <g id="line2d_22">
    <path clip-path="url(#pb893ac6b3e)" d="M 482.36709 357.393768 
" style="fill:none;stroke:#000000;stroke-linecap:square;stroke-width:1.5;"/>
    <g clip-path="url(#pb893ac6b3e)">
     <use style="stroke:#000000;" x="482.36709" xlink:href="#mad97d0e8fb" y="357.393768"/>
    </g>
   </g>
   <g id="line2d_23">
    <g clip-path="url(#pb893ac6b3e)">
     <use style="stroke:#000000;" x="179.972776" xlink:href="#m92a42ffb1c" y="357.393768"/>
    </g>
   </g>
   <g id="line2d_24">
    <path clip-path="url(#pb893ac6b3e)" d="M 179.972776 357.393768 
" style="fill:none;stroke:#000000;stroke-linecap:square;stroke-width:1.5;"/>
    <g clip-path="url(#pb893ac6b3e)">
     <use style="stroke:#000000;" x="179.972776" xlink:href="#mad97d0e8fb" y="357.393768"/>
    </g>
   </g>
   <g id="line2d_25">
    <g clip-path="url(#pb893ac6b3e)">
     <use style="stroke:#000000;" x="124.630776" xlink:href="#m92a42ffb1c" y="390.649971"/>
    </g>
   </g>
   <g id="line2d_26">
    <path clip-path="url(#pb893ac6b3e)" d="M 124.630776 390.649971 
" style="fill:none;stroke:#000000;stroke-linecap:square;stroke-width:1.5;"/>
    <g clip-path="url(#pb893ac6b3e)">
     <use style="stroke:#000000;" x="124.630776" xlink:href="#mad97d0e8fb" y="390.649971"/>
    </g>
   </g>
   <g id="line2d_27">
    <g clip-path="url(#pb893ac6b3e)">
     <use style="stroke:#000000;" x="142.173487" xlink:href="#m92a42ffb1c" y="344.279598"/>
    </g>
   </g>
   <g id="line2d_28">
    <path clip-path="url(#pb893ac6b3e)" d="M 142.173487 344.279598 
" style="fill:none;stroke:#000000;stroke-linecap:square;stroke-width:1.5;"/>
    <g clip-path="url(#pb893ac6b3e)">
     <use style="stroke:#000000;" x="142.173487" xlink:href="#mad97d0e8fb" y="344.279598"/>
    </g>
   </g>
   <g id="line2d_29">
    <g clip-path="url(#pb893ac6b3e)">
     <use style="stroke:#000000;" x="147.202401" xlink:href="#m92a42ffb1c" y="318.697319"/>
    </g>
   </g>
   <g id="line2d_30">
    <path clip-path="url(#pb893ac6b3e)" d="M 147.202401 318.697319 
" style="fill:none;stroke:#000000;stroke-linecap:square;stroke-width:1.5;"/>
    <g clip-path="url(#pb893ac6b3e)">
     <use style="stroke:#000000;" x="147.202401" xlink:href="#mad97d0e8fb" y="318.697319"/>
    </g>
   </g>
   <g id="line2d_31">
    <g clip-path="url(#pb893ac6b3e)">
     <use style="stroke:#000000;" x="104.374198" xlink:href="#m92a42ffb1c" y="331.165428"/>
    </g>
   </g>
   <g id="line2d_32">
    <path clip-path="url(#pb893ac6b3e)" d="M 104.374198 331.165428 
" style="fill:none;stroke:#000000;stroke-linecap:square;stroke-width:1.5;"/>
    <g clip-path="url(#pb893ac6b3e)">
     <use style="stroke:#000000;" x="104.374198" xlink:href="#mad97d0e8fb" y="331.165428"/>
    </g>
   </g>
   <g id="line2d_33">
    <g clip-path="url(#pb893ac6b3e)">
     <use style="stroke:#000000;" x="68.437068" xlink:href="#m92a42ffb1c" y="346.02434"/>
    </g>
   </g>
   <g id="line2d_34">
    <path clip-path="url(#pb893ac6b3e)" d="M 68.437068 346.02434 
" style="fill:none;stroke:#000000;stroke-linecap:square;stroke-width:1.5;"/>
    <g clip-path="url(#pb893ac6b3e)">
     <use style="stroke:#000000;" x="68.437068" xlink:href="#mad97d0e8fb" y="346.02434"/>
    </g>
   </g>
   <g id="line2d_35">
    <g clip-path="url(#pb893ac6b3e)">
     <use style="stroke:#000000;" x="116.541145" xlink:href="#m92a42ffb1c" y="303.505131"/>
    </g>
   </g>
   <g id="line2d_36">
    <path clip-path="url(#pb893ac6b3e)" d="M 116.541145 303.505131 
" style="fill:none;stroke:#000000;stroke-linecap:square;stroke-width:1.5;"/>
    <g clip-path="url(#pb893ac6b3e)">
     <use style="stroke:#000000;" x="116.541145" xlink:href="#mad97d0e8fb" y="303.505131"/>
    </g>
   </g>
   <g id="line2d_37">
    <g clip-path="url(#pb893ac6b3e)">
     <use style="stroke:#000000;" x="101.393681" xlink:href="#m92a42ffb1c" y="284.716546"/>
    </g>
   </g>
   <g id="line2d_38">
    <path clip-path="url(#pb893ac6b3e)" d="M 101.393681 284.716546 
" style="fill:none;stroke:#000000;stroke-linecap:square;stroke-width:1.5;"/>
    <g clip-path="url(#pb893ac6b3e)">
     <use style="stroke:#000000;" x="101.393681" xlink:href="#mad97d0e8fb" y="284.716546"/>
    </g>
   </g>
   <g id="line2d_39">
    <g clip-path="url(#pb893ac6b3e)">
     <use style="stroke:#000000;" x="70.833023" xlink:href="#m92a42ffb1c" y="292.140694"/>
    </g>
   </g>
   <g id="line2d_40">
    <path clip-path="url(#pb893ac6b3e)" d="M 70.833023 292.140694 
" style="fill:none;stroke:#ffffff;stroke-linecap:square;stroke-width:1.5;"/>
    <g clip-path="url(#pb893ac6b3e)">
     <use style="fill:#ffffff;stroke:#ffffff;" x="70.833023" xlink:href="#m577d25dda6" y="292.140694"/>
    </g>
   </g>
   <g id="line2d_41">
    <g clip-path="url(#pb893ac6b3e)">
     <use style="stroke:#000000;" x="38.290909" xlink:href="#m92a42ffb1c" y="277.426975"/>
    </g>
   </g>
   <g id="line2d_42">
    <path clip-path="url(#pb893ac6b3e)" d="M 38.290909 277.426975 
" style="fill:none;stroke:#000000;stroke-linecap:square;stroke-width:1.5;"/>
    <g clip-path="url(#pb893ac6b3e)">
     <use style="stroke:#000000;" x="38.290909" xlink:href="#mad97d0e8fb" y="277.426975"/>
    </g>
   </g>
   <g id="line2d_43">
    <g clip-path="url(#pb893ac6b3e)">
     <use style="stroke:#000000;" x="368.969223" xlink:href="#m92a42ffb1c" y="227.22033"/>
    </g>
   </g>
   <g id="line2d_44">
    <path clip-path="url(#pb893ac6b3e)" d="M 368.969223 227.22033 
" style="fill:none;stroke:#000000;stroke-linecap:square;stroke-width:1.5;"/>
    <g clip-path="url(#pb893ac6b3e)">
     <use style="stroke:#000000;" x="368.969223" xlink:href="#mad97d0e8fb" y="227.22033"/>
    </g>
   </g>
   <g id="line2d_45">
    <g clip-path="url(#pb893ac6b3e)">
     <use style="stroke:#000000;" x="293.370644" xlink:href="#m92a42ffb1c" y="227.22033"/>
    </g>
   </g>
   <g id="line2d_46">
    <path clip-path="url(#pb893ac6b3e)" d="M 293.370644 227.22033 
" style="fill:none;stroke:#000000;stroke-linecap:square;stroke-width:1.5;"/>
    <g clip-path="url(#pb893ac6b3e)">
     <use style="stroke:#000000;" x="293.370644" xlink:href="#mad97d0e8fb" y="227.22033"/>
    </g>
   </g>
   <g id="line2d_47">
    <g clip-path="url(#pb893ac6b3e)">
     <use style="stroke:#000000;" x="429.944236" xlink:href="#m92a42ffb1c" y="226.139825"/>
    </g>
   </g>
   <g id="line2d_48">
    <path clip-path="url(#pb893ac6b3e)" d="M 429.944236 226.139825 
" style="fill:none;stroke:#000000;stroke-linecap:square;stroke-width:1.5;"/>
    <g clip-path="url(#pb893ac6b3e)">
     <use style="stroke:#000000;" x="429.944236" xlink:href="#mad97d0e8fb" y="226.139825"/>
    </g>
   </g>
   <g id="line2d_49">
    <g clip-path="url(#pb893ac6b3e)">
     <use style="stroke:#000000;" x="372.083589" xlink:href="#m92a42ffb1c" y="206.065523"/>
    </g>
   </g>
   <g id="line2d_50">
    <path clip-path="url(#pb893ac6b3e)" d="M 372.083589 206.065523 
" style="fill:none;stroke:#000000;stroke-linecap:square;stroke-width:1.5;"/>
    <g clip-path="url(#pb893ac6b3e)">
     <use style="stroke:#000000;" x="372.083589" xlink:href="#mad97d0e8fb" y="206.065523"/>
    </g>
   </g>
   <g id="line2d_51">
    <g clip-path="url(#pb893ac6b3e)">
     <use style="stroke:#000000;" x="479.331388" xlink:href="#m92a42ffb1c" y="219.042487"/>
    </g>
   </g>
   <g id="line2d_52">
    <path clip-path="url(#pb893ac6b3e)" d="M 479.331388 219.042487 
" style="fill:none;stroke:#000000;stroke-linecap:square;stroke-width:1.5;"/>
    <g clip-path="url(#pb893ac6b3e)">
     <use style="stroke:#000000;" x="479.331388" xlink:href="#mad97d0e8fb" y="219.042487"/>
    </g>
   </g>
   <g id="line2d_53">
    <g clip-path="url(#pb893ac6b3e)">
     <use style="stroke:#000000;" x="255.571355" xlink:href="#m92a42ffb1c" y="214.10616"/>
    </g>
   </g>
   <g id="line2d_54">
    <path clip-path="url(#pb893ac6b3e)" d="M 255.571355 214.10616 
" style="fill:none;stroke:#000000;stroke-linecap:square;stroke-width:1.5;"/>
    <g clip-path="url(#pb893ac6b3e)">
     <use style="stroke:#000000;" x="255.571355" xlink:href="#mad97d0e8fb" y="214.10616"/>
    </g>
   </g>
   <g id="line2d_55">
    <g clip-path="url(#pb893ac6b3e)">
     <use style="stroke:#000000;" x="217.772066" xlink:href="#m92a42ffb1c" y="200.99199"/>
    </g>
   </g>
   <g id="line2d_56">
    <path clip-path="url(#pb893ac6b3e)" d="M 217.772066 200.99199 
" style="fill:none;stroke:#000000;stroke-linecap:square;stroke-width:1.5;"/>
    <g clip-path="url(#pb893ac6b3e)">
     <use style="stroke:#000000;" x="217.772066" xlink:href="#mad97d0e8fb" y="200.99199"/>
    </g>
   </g>
   <g id="line2d_57">
    <g clip-path="url(#pb893ac6b3e)">
     <use style="stroke:#000000;" x="331.169933" xlink:href="#m92a42ffb1c" y="145.353279"/>
    </g>
   </g>
   <g id="line2d_58">
    <path clip-path="url(#pb893ac6b3e)" d="M 331.169933 145.353279 
" style="fill:none;stroke:#000000;stroke-linecap:square;stroke-width:1.5;"/>
    <g clip-path="url(#pb893ac6b3e)">
     <use style="stroke:#000000;" x="331.169933" xlink:href="#mad97d0e8fb" y="145.353279"/>
    </g>
   </g>
   <g id="line2d_59">
    <g clip-path="url(#pb893ac6b3e)">
     <use style="stroke:#000000;" x="331.169933" xlink:href="#m92a42ffb1c" y="126.807041"/>
    </g>
   </g>
   <g id="line2d_60">
    <path clip-path="url(#pb893ac6b3e)" d="M 331.169933 126.807041 
" style="fill:none;stroke:#000000;stroke-linecap:square;stroke-width:1.5;"/>
    <g clip-path="url(#pb893ac6b3e)">
     <use style="stroke:#000000;" x="331.169933" xlink:href="#mad97d0e8fb" y="126.807041"/>
    </g>
   </g>
   <g id="line2d_61">
    <g clip-path="url(#pb893ac6b3e)">
     <use style="stroke:#000000;" x="331.169933" xlink:href="#m92a42ffb1c" y="108.260804"/>
    </g>
   </g>
   <g id="line2d_62">
    <path clip-path="url(#pb893ac6b3e)" d="M 331.169933 108.260804 
" style="fill:none;stroke:#000000;stroke-linecap:square;stroke-width:1.5;"/>
    <g clip-path="url(#pb893ac6b3e)">
     <use style="stroke:#000000;" x="331.169933" xlink:href="#mad97d0e8fb" y="108.260804"/>
    </g>
   </g>
   <g id="line2d_63">
    <g clip-path="url(#pb893ac6b3e)">
     <use style="stroke:#000000;" x="331.169933" xlink:href="#m92a42ffb1c" y="52.622092"/>
    </g>
   </g>
   <g id="line2d_64">
    <path clip-path="url(#pb893ac6b3e)" d="M 331.169933 52.622092 
" style="fill:none;stroke:#000000;stroke-linecap:square;stroke-width:1.5;"/>
    <g clip-path="url(#pb893ac6b3e)">
     <use style="stroke:#000000;" x="331.169933" xlink:href="#mad97d0e8fb" y="52.622092"/>
    </g>
   </g>
   <g id="patch_34">
    <path d="M 13.32 562.68 
L 13.32 13.32 
" style="fill:none;stroke:#000000;stroke-linecap:square;stroke-linejoin:miter;stroke-width:0.8;"/>
   </g>
   <g id="patch_35">
    <path d="M 562.68 562.68 
L 562.68 13.32 
" style="fill:none;stroke:#000000;stroke-linecap:square;stroke-linejoin:miter;stroke-width:0.8;"/>
   </g>
   <g id="patch_36">
    <path d="M 13.32 562.68 
L 562.68 562.68 
" style="fill:none;stroke:#000000;stroke-linecap:square;stroke-linejoin:miter;stroke-width:0.8;"/>
   </g>
   <g id="patch_37">
    <path d="M 13.32 13.32 
L 562.68 13.32 
" style="fill:none;stroke:#000000;stroke-linecap:square;stroke-linejoin:miter;stroke-width:0.8;"/>
   </g>
   <g id="text_1">
    <g id="patch_38">
     <path d="M 350.114008 517.848226 
L 387.064633 517.848226 
Q 387.064633 517.848226 387.064633 517.848226 
L 387.064633 500.427601 
Q 387.064633 500.427601 387.064633 500.427601 
L 350.114008 500.427601 
Q 350.114008 500.427601 350.114008 500.427601 
L 350.114008 517.848226 
Q 350.114008 517.848226 350.114008 517.848226 
z
" style="fill:#ffffff;opacity:0.6;"/>
    </g>
    <!-- [10] -->
    <defs>
     <path d="M 8.59375 75.984375 
L 29.296875 75.984375 
L 29.296875 69 
L 17.578125 69 
L 17.578125 -6.203125 
L 29.296875 -6.203125 
L 29.296875 -13.1875 
L 8.59375 -13.1875 
z
" id="DejaVuSans-91"/>
     <path d="M 12.40625 8.296875 
L 28.515625 8.296875 
L 28.515625 63.921875 
L 10.984375 60.40625 
L 10.984375 69.390625 
L 28.421875 72.90625 
L 38.28125 72.90625 
L 38.28125 8.296875 
L 54.390625 8.296875 
L 54.390625 0 
L 12.40625 0 
z
" id="DejaVuSans-49"/>
     <path d="M 31.78125 66.40625 
Q 24.171875 66.40625 20.328125 58.90625 
Q 16.5 51.421875 16.5 36.375 
Q 16.5 21.390625 20.328125 13.890625 
Q 24.171875 6.390625 31.78125 6.390625 
Q 39.453125 6.390625 43.28125 13.890625 
Q 47.125 21.390625 47.125 36.375 
Q 47.125 51.421875 43.28125 58.90625 
Q 39.453125 66.40625 31.78125 66.40625 
z
M 31.78125 74.21875 
Q 44.046875 74.21875 50.515625 64.515625 
Q 56.984375 54.828125 56.984375 36.375 
Q 56.984375 17.96875 50.515625 8.265625 
Q 44.046875 -1.421875 31.78125 -1.421875 
Q 19.53125 -1.421875 13.0625 8.265625 
Q 6.59375 17.96875 6.59375 36.375 
Q 6.59375 54.828125 13.0625 64.515625 
Q 19.53125 74.21875 31.78125 74.21875 
z
" id="DejaVuSans-48"/>
     <path d="M 30.421875 75.984375 
L 30.421875 -13.1875 
L 9.71875 -13.1875 
L 9.71875 -6.203125 
L 21.390625 -6.203125 
L 21.390625 69 
L 9.71875 69 
L 9.71875 75.984375 
z
" id="DejaVuSans-93"/>
    </defs>
    <g transform="translate(350.114008 514.104789)scale(0.18 -0.18)">
     <use xlink:href="#DejaVuSans-91"/>
     <use x="39.013672" xlink:href="#DejaVuSans-49"/>
     <use x="102.636719" xlink:href="#DejaVuSans-48"/>
     <use x="166.259766" xlink:href="#DejaVuSans-93"/>
    </g>
   </g>
   <g id="text_2">
    <g id="patch_39">
     <path d="M 414.406329 456.382036 
L 425.858829 456.382036 
Q 425.858829 456.382036 425.858829 456.382036 
L 425.858829 438.961411 
Q 425.858829 438.961411 425.858829 438.961411 
L 414.406329 438.961411 
Q 414.406329 438.961411 414.406329 438.961411 
L 414.406329 456.382036 
Q 414.406329 456.382036 414.406329 456.382036 
z
" style="fill:#ffffff;opacity:0.6;"/>
    </g>
    <!-- 0 -->
    <g transform="translate(414.406329 452.638598)scale(0.18 -0.18)">
     <use xlink:href="#DejaVuSans-48"/>
    </g>
   </g>
   <g id="text_3">
    <g id="patch_40">
     <path d="M 350.114008 441.413242 
L 387.064633 441.413242 
Q 387.064633 441.413242 387.064633 441.413242 
L 387.064633 423.992617 
Q 387.064633 423.992617 387.064633 423.992617 
L 350.114008 423.992617 
Q 350.114008 423.992617 350.114008 423.992617 
L 350.114008 441.413242 
Q 350.114008 441.413242 350.114008 441.413242 
z
" style="fill:#ffffff;opacity:0.6;"/>
    </g>
    <!-- [21] -->
    <defs>
     <path d="M 19.1875 8.296875 
L 53.609375 8.296875 
L 53.609375 0 
L 7.328125 0 
L 7.328125 8.296875 
Q 12.9375 14.109375 22.625 23.890625 
Q 32.328125 33.6875 34.8125 36.53125 
Q 39.546875 41.84375 41.421875 45.53125 
Q 43.3125 49.21875 43.3125 52.78125 
Q 43.3125 58.59375 39.234375 62.25 
Q 35.15625 65.921875 28.609375 65.921875 
Q 23.96875 65.921875 18.8125 64.3125 
Q 13.671875 62.703125 7.8125 59.421875 
L 7.8125 69.390625 
Q 13.765625 71.78125 18.9375 73 
Q 24.125 74.21875 28.421875 74.21875 
Q 39.75 74.21875 46.484375 68.546875 
Q 53.21875 62.890625 53.21875 53.421875 
Q 53.21875 48.921875 51.53125 44.890625 
Q 49.859375 40.875 45.40625 35.40625 
Q 44.1875 33.984375 37.640625 27.21875 
Q 31.109375 20.453125 19.1875 8.296875 
z
" id="DejaVuSans-50"/>
    </defs>
    <g transform="translate(350.114008 437.669804)scale(0.18 -0.18)">
     <use xlink:href="#DejaVuSans-91"/>
     <use x="39.013672" xlink:href="#DejaVuSans-50"/>
     <use x="102.636719" xlink:href="#DejaVuSans-49"/>
     <use x="166.259766" xlink:href="#DejaVuSans-93"/>
    </g>
   </g>
   <g id="text_4">
    <g id="patch_41">
     <path d="M 72.74459 288.465637 
L 95.64959 288.465637 
Q 95.64959 288.465637 95.64959 288.465637 
L 95.64959 271.045012 
Q 95.64959 271.045012 95.64959 271.045012 
L 72.74459 271.045012 
Q 72.74459 271.045012 72.74459 271.045012 
L 72.74459 288.465637 
Q 72.74459 288.465637 72.74459 288.465637 
z
" style="fill:#ffffff;opacity:0.6;"/>
    </g>
    <!-- 16 -->
    <defs>
     <path d="M 33.015625 40.375 
Q 26.375 40.375 22.484375 35.828125 
Q 18.609375 31.296875 18.609375 23.390625 
Q 18.609375 15.53125 22.484375 10.953125 
Q 26.375 6.390625 33.015625 6.390625 
Q 39.65625 6.390625 43.53125 10.953125 
Q 47.40625 15.53125 47.40625 23.390625 
Q 47.40625 31.296875 43.53125 35.828125 
Q 39.65625 40.375 33.015625 40.375 
z
M 52.59375 71.296875 
L 52.59375 62.3125 
Q 48.875 64.0625 45.09375 64.984375 
Q 41.3125 65.921875 37.59375 65.921875 
Q 27.828125 65.921875 22.671875 59.328125 
Q 17.53125 52.734375 16.796875 39.40625 
Q 19.671875 43.65625 24.015625 45.921875 
Q 28.375 48.1875 33.59375 48.1875 
Q 44.578125 48.1875 50.953125 41.515625 
Q 57.328125 34.859375 57.328125 23.390625 
Q 57.328125 12.15625 50.6875 5.359375 
Q 44.046875 -1.421875 33.015625 -1.421875 
Q 20.359375 -1.421875 13.671875 8.265625 
Q 6.984375 17.96875 6.984375 36.375 
Q 6.984375 53.65625 15.1875 63.9375 
Q 23.390625 74.21875 37.203125 74.21875 
Q 40.921875 74.21875 44.703125 73.484375 
Q 48.484375 72.75 52.59375 71.296875 
z
" id="DejaVuSans-54"/>
    </defs>
    <g transform="translate(72.74459 284.722199)scale(0.18 -0.18)">
     <use xlink:href="#DejaVuSans-49"/>
     <use x="63.623047" xlink:href="#DejaVuSans-54"/>
    </g>
   </g>
   <g id="text_5">
    <g id="patch_42">
     <path d="M 338.667133 271.897294 
L 398.511508 271.897294 
Q 398.511508 271.897294 398.511508 271.897294 
L 398.511508 254.476669 
Q 398.511508 254.476669 398.511508 254.476669 
L 338.667133 254.476669 
Q 338.667133 254.476669 338.667133 254.476669 
L 338.667133 271.897294 
Q 338.667133 271.897294 338.667133 271.897294 
z
" style="fill:#ffffff;opacity:0.6;"/>
    </g>
    <!-- [5, 26] -->
    <defs>
     <path d="M 10.796875 72.90625 
L 49.515625 72.90625 
L 49.515625 64.59375 
L 19.828125 64.59375 
L 19.828125 46.734375 
Q 21.96875 47.46875 24.109375 47.828125 
Q 26.265625 48.1875 28.421875 48.1875 
Q 40.625 48.1875 47.75 41.5 
Q 54.890625 34.8125 54.890625 23.390625 
Q 54.890625 11.625 47.5625 5.09375 
Q 40.234375 -1.421875 26.90625 -1.421875 
Q 22.3125 -1.421875 17.546875 -0.640625 
Q 12.796875 0.140625 7.71875 1.703125 
L 7.71875 11.625 
Q 12.109375 9.234375 16.796875 8.0625 
Q 21.484375 6.890625 26.703125 6.890625 
Q 35.15625 6.890625 40.078125 11.328125 
Q 45.015625 15.765625 45.015625 23.390625 
Q 45.015625 31 40.078125 35.4375 
Q 35.15625 39.890625 26.703125 39.890625 
Q 22.75 39.890625 18.8125 39.015625 
Q 14.890625 38.140625 10.796875 36.28125 
z
" id="DejaVuSans-53"/>
     <path d="M 11.71875 12.40625 
L 22.015625 12.40625 
L 22.015625 4 
L 14.015625 -11.625 
L 7.71875 -11.625 
L 11.71875 4 
z
" id="DejaVuSans-44"/>
     <path id="DejaVuSans-32"/>
    </defs>
    <g transform="translate(338.667133 268.153856)scale(0.18 -0.18)">
     <use xlink:href="#DejaVuSans-91"/>
     <use x="39.013672" xlink:href="#DejaVuSans-53"/>
     <use x="102.636719" xlink:href="#DejaVuSans-44"/>
     <use x="134.423828" xlink:href="#DejaVuSans-32"/>
     <use x="166.210938" xlink:href="#DejaVuSans-50"/>
     <use x="229.833984" xlink:href="#DejaVuSans-54"/>
     <use x="293.457031" xlink:href="#DejaVuSans-93"/>
    </g>
   </g>
   <g id="text_6">
    <g id="patch_43">
     <path d="M 350.114008 195.462309 
L 387.064633 195.462309 
Q 387.064633 195.462309 387.064633 195.462309 
L 387.064633 178.041684 
Q 387.064633 178.041684 387.064633 178.041684 
L 350.114008 178.041684 
Q 350.114008 178.041684 350.114008 178.041684 
L 350.114008 195.462309 
Q 350.114008 195.462309 350.114008 195.462309 
z
" style="fill:#ffffff;opacity:0.6;"/>
    </g>
    <!-- [13] -->
    <defs>
     <path d="M 40.578125 39.3125 
Q 47.65625 37.796875 51.625 33 
Q 55.609375 28.21875 55.609375 21.1875 
Q 55.609375 10.40625 48.1875 4.484375 
Q 40.765625 -1.421875 27.09375 -1.421875 
Q 22.515625 -1.421875 17.65625 -0.515625 
Q 12.796875 0.390625 7.625 2.203125 
L 7.625 11.71875 
Q 11.71875 9.328125 16.59375 8.109375 
Q 21.484375 6.890625 26.8125 6.890625 
Q 36.078125 6.890625 40.9375 10.546875 
Q 45.796875 14.203125 45.796875 21.1875 
Q 45.796875 27.640625 41.28125 31.265625 
Q 36.765625 34.90625 28.71875 34.90625 
L 20.21875 34.90625 
L 20.21875 43.015625 
L 29.109375 43.015625 
Q 36.375 43.015625 40.234375 45.921875 
Q 44.09375 48.828125 44.09375 54.296875 
Q 44.09375 59.90625 40.109375 62.90625 
Q 36.140625 65.921875 28.71875 65.921875 
Q 24.65625 65.921875 20.015625 65.03125 
Q 15.375 64.15625 9.8125 62.3125 
L 9.8125 71.09375 
Q 15.4375 72.65625 20.34375 73.4375 
Q 25.25 74.21875 29.59375 74.21875 
Q 40.828125 74.21875 47.359375 69.109375 
Q 53.90625 64.015625 53.90625 55.328125 
Q 53.90625 49.265625 50.4375 45.09375 
Q 46.96875 40.921875 40.578125 39.3125 
z
" id="DejaVuSans-51"/>
    </defs>
    <g transform="translate(350.114008 191.718872)scale(0.18 -0.18)">
     <use xlink:href="#DejaVuSans-91"/>
     <use x="39.013672" xlink:href="#DejaVuSans-49"/>
     <use x="102.636719" xlink:href="#DejaVuSans-51"/>
     <use x="166.259766" xlink:href="#DejaVuSans-93"/>
    </g>
   </g>
   <g id="text_7">
    <g id="patch_44">
     <path d="M 350.114008 102.731123 
L 387.064633 102.731123 
Q 387.064633 102.731123 387.064633 102.731123 
L 387.064633 85.310498 
Q 387.064633 85.310498 387.064633 85.310498 
L 350.114008 85.310498 
Q 350.114008 85.310498 350.114008 85.310498 
L 350.114008 102.731123 
Q 350.114008 102.731123 350.114008 102.731123 
z
" style="fill:#ffffff;opacity:0.6;"/>
    </g>
    <!-- [22] -->
    <g transform="translate(350.114008 98.987685)scale(0.18 -0.18)">
     <use xlink:href="#DejaVuSans-91"/>
     <use x="39.013672" xlink:href="#DejaVuSans-50"/>
     <use x="102.636719" xlink:href="#DejaVuSans-50"/>
     <use x="166.259766" xlink:href="#DejaVuSans-93"/>
    </g>
   </g>
  </g>
 </g>
 <defs>
  <clipPath id="pb893ac6b3e">
   <rect height="549.36" width="549.36" x="13.32" y="13.32"/>
  </clipPath>
 </defs>
</svg>
