<?xml version="1.0" encoding="utf-8" standalone="no"?>
<!DOCTYPE svg PUBLIC "-//W3C//DTD SVG 1.1//EN"
  "http://www.w3.org/Graphics/SVG/1.1/DTD/svg11.dtd">
<!-- Created with matplotlib (https://matplotlib.org/) -->
<svg height="576pt" version="1.1" viewBox="0 0 576 576" width="576pt" xmlns="http://www.w3.org/2000/svg" xmlns:xlink="http://www.w3.org/1999/xlink">
 <defs>
  <style type="text/css">
*{stroke-linecap:butt;stroke-linejoin:round;}
  </style>
 </defs>
 <g id="figure_1">
  <g id="patch_1">
   <path d="M 0 576 
L 576 576 
L 576 0 
L 0 0 
z
" style="fill:#ffffff;"/>
  </g>
  <g id="axes_1">
   <g id="patch_2">
    <path d="M 78.23 503.08 
L 535.275 503.08 
L 535.275 29.52 
L 78.23 29.52 
z
" style="fill:#ffffff;"/>
   </g>
   <g id="matplotlib.axis_1">
    <g id="xtick_1">
     <g id="line2d_1">
      <defs>
       <path d="M 0 0 
L 0 3.5 
" id="m09f9fc9a71" style="stroke:#000000;stroke-width:0.8;"/>
      </defs>
      <g>
       <use style="stroke:#000000;stroke-width:0.8;" x="99.994048" xlink:href="#m09f9fc9a71" y="503.08"/>
      </g>
     </g>
     <g id="text_1">
      <!-- 0 -->
      <defs>
       <path d="M 31.78125 66.40625 
Q 24.171875 66.40625 20.328125 58.90625 
Q 16.5 51.421875 16.5 36.375 
Q 16.5 21.390625 20.328125 13.890625 
Q 24.171875 6.390625 31.78125 6.390625 
Q 39.453125 6.390625 43.28125 13.890625 
Q 47.125 21.390625 47.125 36.375 
Q 47.125 51.421875 43.28125 58.90625 
Q 39.453125 66.40625 31.78125 66.40625 
z
M 31.78125 74.21875 
Q 44.046875 74.21875 50.515625 64.515625 
Q 56.984375 54.828125 56.984375 36.375 
Q 56.984375 17.96875 50.515625 8.265625 
Q 44.046875 -1.421875 31.78125 -1.421875 
Q 19.53125 -1.421875 13.0625 8.265625 
Q 6.59375 17.96875 6.59375 36.375 
Q 6.59375 54.828125 13.0625 64.515625 
Q 19.53125 74.21875 31.78125 74.21875 
z
" id="DejaVuSans-48"/>
      </defs>
      <g transform="translate(93.631548 525.276875)scale(0.2 -0.2)">
       <use xlink:href="#DejaVuSans-48"/>
      </g>
     </g>
    </g>
    <g id="xtick_2">
     <g id="line2d_2">
      <g>
       <use style="stroke:#000000;stroke-width:0.8;" x="187.050238" xlink:href="#m09f9fc9a71" y="503.08"/>
      </g>
     </g>
     <g id="text_2">
      <!-- 20 -->
      <defs>
       <path d="M 19.1875 8.296875 
L 53.609375 8.296875 
L 53.609375 0 
L 7.328125 0 
L 7.328125 8.296875 
Q 12.9375 14.109375 22.625 23.890625 
Q 32.328125 33.6875 34.8125 36.53125 
Q 39.546875 41.84375 41.421875 45.53125 
Q 43.3125 49.21875 43.3125 52.78125 
Q 43.3125 58.59375 39.234375 62.25 
Q 35.15625 65.921875 28.609375 65.921875 
Q 23.96875 65.921875 18.8125 64.3125 
Q 13.671875 62.703125 7.8125 59.421875 
L 7.8125 69.390625 
Q 13.765625 71.78125 18.9375 73 
Q 24.125 74.21875 28.421875 74.21875 
Q 39.75 74.21875 46.484375 68.546875 
Q 53.21875 62.890625 53.21875 53.421875 
Q 53.21875 48.921875 51.53125 44.890625 
Q 49.859375 40.875 45.40625 35.40625 
Q 44.1875 33.984375 37.640625 27.21875 
Q 31.109375 20.453125 19.1875 8.296875 
z
" id="DejaVuSans-50"/>
      </defs>
      <g transform="translate(174.325238 525.276875)scale(0.2 -0.2)">
       <use xlink:href="#DejaVuSans-50"/>
       <use x="63.623047" xlink:href="#DejaVuSans-48"/>
      </g>
     </g>
    </g>
    <g id="xtick_3">
     <g id="line2d_3">
      <g>
       <use style="stroke:#000000;stroke-width:0.8;" x="274.106429" xlink:href="#m09f9fc9a71" y="503.08"/>
      </g>
     </g>
     <g id="text_3">
      <!-- 40 -->
      <defs>
       <path d="M 37.796875 64.3125 
L 12.890625 25.390625 
L 37.796875 25.390625 
z
M 35.203125 72.90625 
L 47.609375 72.90625 
L 47.609375 25.390625 
L 58.015625 25.390625 
L 58.015625 17.1875 
L 47.609375 17.1875 
L 47.609375 0 
L 37.796875 0 
L 37.796875 17.1875 
L 4.890625 17.1875 
L 4.890625 26.703125 
z
" id="DejaVuSans-52"/>
      </defs>
      <g transform="translate(261.381429 525.276875)scale(0.2 -0.2)">
       <use xlink:href="#DejaVuSans-52"/>
       <use x="63.623047" xlink:href="#DejaVuSans-48"/>
      </g>
     </g>
    </g>
    <g id="xtick_4">
     <g id="line2d_4">
      <g>
       <use style="stroke:#000000;stroke-width:0.8;" x="361.162619" xlink:href="#m09f9fc9a71" y="503.08"/>
      </g>
     </g>
     <g id="text_4">
      <!-- 60 -->
      <defs>
       <path d="M 33.015625 40.375 
Q 26.375 40.375 22.484375 35.828125 
Q 18.609375 31.296875 18.609375 23.390625 
Q 18.609375 15.53125 22.484375 10.953125 
Q 26.375 6.390625 33.015625 6.390625 
Q 39.65625 6.390625 43.53125 10.953125 
Q 47.40625 15.53125 47.40625 23.390625 
Q 47.40625 31.296875 43.53125 35.828125 
Q 39.65625 40.375 33.015625 40.375 
z
M 52.59375 71.296875 
L 52.59375 62.3125 
Q 48.875 64.0625 45.09375 64.984375 
Q 41.3125 65.921875 37.59375 65.921875 
Q 27.828125 65.921875 22.671875 59.328125 
Q 17.53125 52.734375 16.796875 39.40625 
Q 19.671875 43.65625 24.015625 45.921875 
Q 28.375 48.1875 33.59375 48.1875 
Q 44.578125 48.1875 50.953125 41.515625 
Q 57.328125 34.859375 57.328125 23.390625 
Q 57.328125 12.15625 50.6875 5.359375 
Q 44.046875 -1.421875 33.015625 -1.421875 
Q 20.359375 -1.421875 13.671875 8.265625 
Q 6.984375 17.96875 6.984375 36.375 
Q 6.984375 53.65625 15.1875 63.9375 
Q 23.390625 74.21875 37.203125 74.21875 
Q 40.921875 74.21875 44.703125 73.484375 
Q 48.484375 72.75 52.59375 71.296875 
z
" id="DejaVuSans-54"/>
      </defs>
      <g transform="translate(348.437619 525.276875)scale(0.2 -0.2)">
       <use xlink:href="#DejaVuSans-54"/>
       <use x="63.623047" xlink:href="#DejaVuSans-48"/>
      </g>
     </g>
    </g>
    <g id="xtick_5">
     <g id="line2d_5">
      <g>
       <use style="stroke:#000000;stroke-width:0.8;" x="448.21881" xlink:href="#m09f9fc9a71" y="503.08"/>
      </g>
     </g>
     <g id="text_5">
      <!-- 80 -->
      <defs>
       <path d="M 31.78125 34.625 
Q 24.75 34.625 20.71875 30.859375 
Q 16.703125 27.09375 16.703125 20.515625 
Q 16.703125 13.921875 20.71875 10.15625 
Q 24.75 6.390625 31.78125 6.390625 
Q 38.8125 6.390625 42.859375 10.171875 
Q 46.921875 13.96875 46.921875 20.515625 
Q 46.921875 27.09375 42.890625 30.859375 
Q 38.875 34.625 31.78125 34.625 
z
M 21.921875 38.8125 
Q 15.578125 40.375 12.03125 44.71875 
Q 8.5 49.078125 8.5 55.328125 
Q 8.5 64.0625 14.71875 69.140625 
Q 20.953125 74.21875 31.78125 74.21875 
Q 42.671875 74.21875 48.875 69.140625 
Q 55.078125 64.0625 55.078125 55.328125 
Q 55.078125 49.078125 51.53125 44.71875 
Q 48 40.375 41.703125 38.8125 
Q 48.828125 37.15625 52.796875 32.3125 
Q 56.78125 27.484375 56.78125 20.515625 
Q 56.78125 9.90625 50.3125 4.234375 
Q 43.84375 -1.421875 31.78125 -1.421875 
Q 19.734375 -1.421875 13.25 4.234375 
Q 6.78125 9.90625 6.78125 20.515625 
Q 6.78125 27.484375 10.78125 32.3125 
Q 14.796875 37.15625 21.921875 38.8125 
z
M 18.3125 54.390625 
Q 18.3125 48.734375 21.84375 45.5625 
Q 25.390625 42.390625 31.78125 42.390625 
Q 38.140625 42.390625 41.71875 45.5625 
Q 45.3125 48.734375 45.3125 54.390625 
Q 45.3125 60.0625 41.71875 63.234375 
Q 38.140625 66.40625 31.78125 66.40625 
Q 25.390625 66.40625 21.84375 63.234375 
Q 18.3125 60.0625 18.3125 54.390625 
z
" id="DejaVuSans-56"/>
      </defs>
      <g transform="translate(435.49381 525.276875)scale(0.2 -0.2)">
       <use xlink:href="#DejaVuSans-56"/>
       <use x="63.623047" xlink:href="#DejaVuSans-48"/>
      </g>
     </g>
    </g>
    <g id="xtick_6">
     <g id="line2d_6">
      <g>
       <use style="stroke:#000000;stroke-width:0.8;" x="535.275" xlink:href="#m09f9fc9a71" y="503.08"/>
      </g>
     </g>
     <g id="text_6">
      <!-- 100 -->
      <defs>
       <path d="M 12.40625 8.296875 
L 28.515625 8.296875 
L 28.515625 63.921875 
L 10.984375 60.40625 
L 10.984375 69.390625 
L 28.421875 72.90625 
L 38.28125 72.90625 
L 38.28125 8.296875 
L 54.390625 8.296875 
L 54.390625 0 
L 12.40625 0 
z
" id="DejaVuSans-49"/>
      </defs>
      <g transform="translate(516.1875 525.276875)scale(0.2 -0.2)">
       <use xlink:href="#DejaVuSans-49"/>
       <use x="63.623047" xlink:href="#DejaVuSans-48"/>
       <use x="127.246094" xlink:href="#DejaVuSans-48"/>
      </g>
     </g>
    </g>
    <g id="text_7">
     <!-- 1000 generations -->
     <defs>
      <path id="DejaVuSans-32"/>
      <path d="M 45.40625 27.984375 
Q 45.40625 37.75 41.375 43.109375 
Q 37.359375 48.484375 30.078125 48.484375 
Q 22.859375 48.484375 18.828125 43.109375 
Q 14.796875 37.75 14.796875 27.984375 
Q 14.796875 18.265625 18.828125 12.890625 
Q 22.859375 7.515625 30.078125 7.515625 
Q 37.359375 7.515625 41.375 12.890625 
Q 45.40625 18.265625 45.40625 27.984375 
z
M 54.390625 6.78125 
Q 54.390625 -7.171875 48.1875 -13.984375 
Q 42 -20.796875 29.203125 -20.796875 
Q 24.46875 -20.796875 20.265625 -20.09375 
Q 16.0625 -19.390625 12.109375 -17.921875 
L 12.109375 -9.1875 
Q 16.0625 -11.328125 19.921875 -12.34375 
Q 23.78125 -13.375 27.78125 -13.375 
Q 36.625 -13.375 41.015625 -8.765625 
Q 45.40625 -4.15625 45.40625 5.171875 
L 45.40625 9.625 
Q 42.625 4.78125 38.28125 2.390625 
Q 33.9375 0 27.875 0 
Q 17.828125 0 11.671875 7.65625 
Q 5.515625 15.328125 5.515625 27.984375 
Q 5.515625 40.671875 11.671875 48.328125 
Q 17.828125 56 27.875 56 
Q 33.9375 56 38.28125 53.609375 
Q 42.625 51.21875 45.40625 46.390625 
L 45.40625 54.6875 
L 54.390625 54.6875 
z
" id="DejaVuSans-103"/>
      <path d="M 56.203125 29.59375 
L 56.203125 25.203125 
L 14.890625 25.203125 
Q 15.484375 15.921875 20.484375 11.0625 
Q 25.484375 6.203125 34.421875 6.203125 
Q 39.59375 6.203125 44.453125 7.46875 
Q 49.3125 8.734375 54.109375 11.28125 
L 54.109375 2.78125 
Q 49.265625 0.734375 44.1875 -0.34375 
Q 39.109375 -1.421875 33.890625 -1.421875 
Q 20.796875 -1.421875 13.15625 6.1875 
Q 5.515625 13.8125 5.515625 26.8125 
Q 5.515625 40.234375 12.765625 48.109375 
Q 20.015625 56 32.328125 56 
Q 43.359375 56 49.78125 48.890625 
Q 56.203125 41.796875 56.203125 29.59375 
z
M 47.21875 32.234375 
Q 47.125 39.59375 43.09375 43.984375 
Q 39.0625 48.390625 32.421875 48.390625 
Q 24.90625 48.390625 20.390625 44.140625 
Q 15.875 39.890625 15.1875 32.171875 
z
" id="DejaVuSans-101"/>
      <path d="M 54.890625 33.015625 
L 54.890625 0 
L 45.90625 0 
L 45.90625 32.71875 
Q 45.90625 40.484375 42.875 44.328125 
Q 39.84375 48.1875 33.796875 48.1875 
Q 26.515625 48.1875 22.3125 43.546875 
Q 18.109375 38.921875 18.109375 30.90625 
L 18.109375 0 
L 9.078125 0 
L 9.078125 54.6875 
L 18.109375 54.6875 
L 18.109375 46.1875 
Q 21.34375 51.125 25.703125 53.5625 
Q 30.078125 56 35.796875 56 
Q 45.21875 56 50.046875 50.171875 
Q 54.890625 44.34375 54.890625 33.015625 
z
" id="DejaVuSans-110"/>
      <path d="M 41.109375 46.296875 
Q 39.59375 47.171875 37.8125 47.578125 
Q 36.03125 48 33.890625 48 
Q 26.265625 48 22.1875 43.046875 
Q 18.109375 38.09375 18.109375 28.8125 
L 18.109375 0 
L 9.078125 0 
L 9.078125 54.6875 
L 18.109375 54.6875 
L 18.109375 46.1875 
Q 20.953125 51.171875 25.484375 53.578125 
Q 30.03125 56 36.53125 56 
Q 37.453125 56 38.578125 55.875 
Q 39.703125 55.765625 41.0625 55.515625 
z
" id="DejaVuSans-114"/>
      <path d="M 34.28125 27.484375 
Q 23.390625 27.484375 19.1875 25 
Q 14.984375 22.515625 14.984375 16.5 
Q 14.984375 11.71875 18.140625 8.90625 
Q 21.296875 6.109375 26.703125 6.109375 
Q 34.1875 6.109375 38.703125 11.40625 
Q 43.21875 16.703125 43.21875 25.484375 
L 43.21875 27.484375 
z
M 52.203125 31.203125 
L 52.203125 0 
L 43.21875 0 
L 43.21875 8.296875 
Q 40.140625 3.328125 35.546875 0.953125 
Q 30.953125 -1.421875 24.3125 -1.421875 
Q 15.921875 -1.421875 10.953125 3.296875 
Q 6 8.015625 6 15.921875 
Q 6 25.140625 12.171875 29.828125 
Q 18.359375 34.515625 30.609375 34.515625 
L 43.21875 34.515625 
L 43.21875 35.40625 
Q 43.21875 41.609375 39.140625 45 
Q 35.0625 48.390625 27.6875 48.390625 
Q 23 48.390625 18.546875 47.265625 
Q 14.109375 46.140625 10.015625 43.890625 
L 10.015625 52.203125 
Q 14.9375 54.109375 19.578125 55.046875 
Q 24.21875 56 28.609375 56 
Q 40.484375 56 46.34375 49.84375 
Q 52.203125 43.703125 52.203125 31.203125 
z
" id="DejaVuSans-97"/>
      <path d="M 18.3125 70.21875 
L 18.3125 54.6875 
L 36.8125 54.6875 
L 36.8125 47.703125 
L 18.3125 47.703125 
L 18.3125 18.015625 
Q 18.3125 11.328125 20.140625 9.421875 
Q 21.96875 7.515625 27.59375 7.515625 
L 36.8125 7.515625 
L 36.8125 0 
L 27.59375 0 
Q 17.1875 0 13.234375 3.875 
Q 9.28125 7.765625 9.28125 18.015625 
L 9.28125 47.703125 
L 2.6875 47.703125 
L 2.6875 54.6875 
L 9.28125 54.6875 
L 9.28125 70.21875 
z
" id="DejaVuSans-116"/>
      <path d="M 9.421875 54.6875 
L 18.40625 54.6875 
L 18.40625 0 
L 9.421875 0 
z
M 9.421875 75.984375 
L 18.40625 75.984375 
L 18.40625 64.59375 
L 9.421875 64.59375 
z
" id="DejaVuSans-105"/>
      <path d="M 30.609375 48.390625 
Q 23.390625 48.390625 19.1875 42.75 
Q 14.984375 37.109375 14.984375 27.296875 
Q 14.984375 17.484375 19.15625 11.84375 
Q 23.34375 6.203125 30.609375 6.203125 
Q 37.796875 6.203125 41.984375 11.859375 
Q 46.1875 17.53125 46.1875 27.296875 
Q 46.1875 37.015625 41.984375 42.703125 
Q 37.796875 48.390625 30.609375 48.390625 
z
M 30.609375 56 
Q 42.328125 56 49.015625 48.375 
Q 55.71875 40.765625 55.71875 27.296875 
Q 55.71875 13.875 49.015625 6.21875 
Q 42.328125 -1.421875 30.609375 -1.421875 
Q 18.84375 -1.421875 12.171875 6.21875 
Q 5.515625 13.875 5.515625 27.296875 
Q 5.515625 40.765625 12.171875 48.375 
Q 18.84375 56 30.609375 56 
z
" id="DejaVuSans-111"/>
      <path d="M 44.28125 53.078125 
L 44.28125 44.578125 
Q 40.484375 46.53125 36.375 47.5 
Q 32.28125 48.484375 27.875 48.484375 
Q 21.1875 48.484375 17.84375 46.4375 
Q 14.5 44.390625 14.5 40.28125 
Q 14.5 37.15625 16.890625 35.375 
Q 19.28125 33.59375 26.515625 31.984375 
L 29.59375 31.296875 
Q 39.15625 29.25 43.1875 25.515625 
Q 47.21875 21.78125 47.21875 15.09375 
Q 47.21875 7.46875 41.1875 3.015625 
Q 35.15625 -1.421875 24.609375 -1.421875 
Q 20.21875 -1.421875 15.453125 -0.5625 
Q 10.6875 0.296875 5.421875 2 
L 5.421875 11.28125 
Q 10.40625 8.6875 15.234375 7.390625 
Q 20.0625 6.109375 24.8125 6.109375 
Q 31.15625 6.109375 34.5625 8.28125 
Q 37.984375 10.453125 37.984375 14.40625 
Q 37.984375 18.0625 35.515625 20.015625 
Q 33.0625 21.96875 24.703125 23.78125 
L 21.578125 24.515625 
Q 13.234375 26.265625 9.515625 29.90625 
Q 5.8125 33.546875 5.8125 39.890625 
Q 5.8125 47.609375 11.28125 51.796875 
Q 16.75 56 26.8125 56 
Q 31.78125 56 36.171875 55.265625 
Q 40.578125 54.546875 44.28125 53.078125 
z
" id="DejaVuSans-115"/>
     </defs>
     <g transform="translate(218.529063 548.633125)scale(0.2 -0.2)">
      <use xlink:href="#DejaVuSans-49"/>
      <use x="63.623047" xlink:href="#DejaVuSans-48"/>
      <use x="127.246094" xlink:href="#DejaVuSans-48"/>
      <use x="190.869141" xlink:href="#DejaVuSans-48"/>
      <use x="254.492188" xlink:href="#DejaVuSans-32"/>
      <use x="286.279297" xlink:href="#DejaVuSans-103"/>
      <use x="349.755859" xlink:href="#DejaVuSans-101"/>
      <use x="411.279297" xlink:href="#DejaVuSans-110"/>
      <use x="474.658203" xlink:href="#DejaVuSans-101"/>
      <use x="536.181641" xlink:href="#DejaVuSans-114"/>
      <use x="577.294922" xlink:href="#DejaVuSans-97"/>
      <use x="638.574219" xlink:href="#DejaVuSans-116"/>
      <use x="677.783203" xlink:href="#DejaVuSans-105"/>
      <use x="705.566406" xlink:href="#DejaVuSans-111"/>
      <use x="766.748047" xlink:href="#DejaVuSans-110"/>
      <use x="830.126953" xlink:href="#DejaVuSans-115"/>
     </g>
    </g>
   </g>
   <g id="matplotlib.axis_2">
    <g id="ytick_1">
     <g id="line2d_7">
      <defs>
       <path d="M 0 0 
L -3.5 0 
" id="m925b59e0cf" style="stroke:#000000;stroke-width:0.8;"/>
      </defs>
      <g>
       <use style="stroke:#000000;stroke-width:0.8;" x="78.23" xlink:href="#m925b59e0cf" y="503.08"/>
      </g>
     </g>
     <g id="text_8">
      <!-- 0 -->
      <g transform="translate(58.505 510.678437)scale(0.2 -0.2)">
       <use xlink:href="#DejaVuSans-48"/>
      </g>
     </g>
    </g>
    <g id="ytick_2">
     <g id="line2d_8">
      <g>
       <use style="stroke:#000000;stroke-width:0.8;" x="78.23" xlink:href="#m925b59e0cf" y="408.368"/>
      </g>
     </g>
     <g id="text_9">
      <!-- 2 -->
      <g transform="translate(58.505 415.966437)scale(0.2 -0.2)">
       <use xlink:href="#DejaVuSans-50"/>
      </g>
     </g>
    </g>
    <g id="ytick_3">
     <g id="line2d_9">
      <g>
       <use style="stroke:#000000;stroke-width:0.8;" x="78.23" xlink:href="#m925b59e0cf" y="313.656"/>
      </g>
     </g>
     <g id="text_10">
      <!-- 4 -->
      <g transform="translate(58.505 321.254437)scale(0.2 -0.2)">
       <use xlink:href="#DejaVuSans-52"/>
      </g>
     </g>
    </g>
    <g id="ytick_4">
     <g id="line2d_10">
      <g>
       <use style="stroke:#000000;stroke-width:0.8;" x="78.23" xlink:href="#m925b59e0cf" y="218.944"/>
      </g>
     </g>
     <g id="text_11">
      <!-- 6 -->
      <g transform="translate(58.505 226.542437)scale(0.2 -0.2)">
       <use xlink:href="#DejaVuSans-54"/>
      </g>
     </g>
    </g>
    <g id="ytick_5">
     <g id="line2d_11">
      <g>
       <use style="stroke:#000000;stroke-width:0.8;" x="78.23" xlink:href="#m925b59e0cf" y="124.232"/>
      </g>
     </g>
     <g id="text_12">
      <!-- 8 -->
      <g transform="translate(58.505 131.830437)scale(0.2 -0.2)">
       <use xlink:href="#DejaVuSans-56"/>
      </g>
     </g>
    </g>
    <g id="ytick_6">
     <g id="line2d_12">
      <g>
       <use style="stroke:#000000;stroke-width:0.8;" x="78.23" xlink:href="#m925b59e0cf" y="29.52"/>
      </g>
     </g>
     <g id="text_13">
      <!-- 10 -->
      <g transform="translate(45.78 37.118438)scale(0.2 -0.2)">
       <use xlink:href="#DejaVuSans-49"/>
       <use x="63.623047" xlink:href="#DejaVuSans-48"/>
      </g>
     </g>
    </g>
    <g id="text_14">
     <!-- log (evolutions) -->
     <defs>
      <path d="M 9.421875 75.984375 
L 18.40625 75.984375 
L 18.40625 0 
L 9.421875 0 
z
" id="DejaVuSans-108"/>
      <path d="M 31 75.875 
Q 24.46875 64.65625 21.28125 53.65625 
Q 18.109375 42.671875 18.109375 31.390625 
Q 18.109375 20.125 21.3125 9.0625 
Q 24.515625 -2 31 -13.1875 
L 23.1875 -13.1875 
Q 15.875 -1.703125 12.234375 9.375 
Q 8.59375 20.453125 8.59375 31.390625 
Q 8.59375 42.28125 12.203125 53.3125 
Q 15.828125 64.359375 23.1875 75.875 
z
" id="DejaVuSans-40"/>
      <path d="M 2.984375 54.6875 
L 12.5 54.6875 
L 29.59375 8.796875 
L 46.6875 54.6875 
L 56.203125 54.6875 
L 35.6875 0 
L 23.484375 0 
z
" id="DejaVuSans-118"/>
      <path d="M 8.5 21.578125 
L 8.5 54.6875 
L 17.484375 54.6875 
L 17.484375 21.921875 
Q 17.484375 14.15625 20.5 10.265625 
Q 23.53125 6.390625 29.59375 6.390625 
Q 36.859375 6.390625 41.078125 11.03125 
Q 45.3125 15.671875 45.3125 23.6875 
L 45.3125 54.6875 
L 54.296875 54.6875 
L 54.296875 0 
L 45.3125 0 
L 45.3125 8.40625 
Q 42.046875 3.421875 37.71875 1 
Q 33.40625 -1.421875 27.6875 -1.421875 
Q 18.265625 -1.421875 13.375 4.4375 
Q 8.5 10.296875 8.5 21.578125 
z
M 31.109375 56 
z
" id="DejaVuSans-117"/>
      <path d="M 8.015625 75.875 
L 15.828125 75.875 
Q 23.140625 64.359375 26.78125 53.3125 
Q 30.421875 42.28125 30.421875 31.390625 
Q 30.421875 20.453125 26.78125 9.375 
Q 23.140625 -1.703125 15.828125 -13.1875 
L 8.015625 -13.1875 
Q 14.5 -2 17.703125 9.0625 
Q 20.90625 20.125 20.90625 31.390625 
Q 20.90625 42.671875 17.703125 53.65625 
Q 14.5 64.65625 8.015625 75.875 
z
" id="DejaVuSans-41"/>
     </defs>
     <g transform="translate(37.620625 344.196875)rotate(-90)scale(0.2 -0.2)">
      <use xlink:href="#DejaVuSans-108"/>
      <use x="27.783203" xlink:href="#DejaVuSans-111"/>
      <use x="88.964844" xlink:href="#DejaVuSans-103"/>
      <use x="152.441406" xlink:href="#DejaVuSans-32"/>
      <use x="184.228516" xlink:href="#DejaVuSans-40"/>
      <use x="223.242188" xlink:href="#DejaVuSans-101"/>
      <use x="284.765625" xlink:href="#DejaVuSans-118"/>
      <use x="343.945312" xlink:href="#DejaVuSans-111"/>
      <use x="405.126953" xlink:href="#DejaVuSans-108"/>
      <use x="432.910156" xlink:href="#DejaVuSans-117"/>
      <use x="496.289062" xlink:href="#DejaVuSans-116"/>
      <use x="535.498047" xlink:href="#DejaVuSans-105"/>
      <use x="563.28125" xlink:href="#DejaVuSans-111"/>
      <use x="624.462891" xlink:href="#DejaVuSans-110"/>
      <use x="687.841797" xlink:href="#DejaVuSans-115"/>
      <use x="739.941406" xlink:href="#DejaVuSans-41"/>
     </g>
    </g>
   </g>
   <g id="line2d_13">
    <path clip-path="url(#p5d5932718a)" d="M 99.9984 86.923483 
" style="fill:none;stroke:#3200cd;stroke-linecap:square;stroke-width:1.5;"/>
    <defs>
     <path d="M 0 4 
C 1.060812 4 2.078319 3.578535 2.828427 2.828427 
C 3.578535 2.078319 4 1.060812 4 0 
C 4 -1.060812 3.578535 -2.078319 2.828427 -2.828427 
C 2.078319 -3.578535 1.060812 -4 0 -4 
C -1.060812 -4 -2.078319 -3.578535 -2.828427 -2.828427 
C -3.578535 -2.078319 -4 -1.060812 -4 0 
C -4 1.060812 -3.578535 2.078319 -2.828427 2.828427 
C -2.078319 3.578535 -1.060812 4 0 4 
z
" id="m8ac80fd19c" style="stroke:#3200cd;"/>
    </defs>
    <g clip-path="url(#p5d5932718a)">
     <use style="fill:#3200cd;stroke:#3200cd;" x="99.9984" xlink:href="#m8ac80fd19c" y="86.923483"/>
    </g>
   </g>
   <g id="line2d_14">
    <path clip-path="url(#p5d5932718a)" d="M 99.9984 77.240228 
" style="fill:none;stroke:#660099;stroke-linecap:square;stroke-width:1.5;"/>
    <defs>
     <path d="M -4 4 
L 4 4 
L 4 -4 
L -4 -4 
z
" id="mfce3a1520a" style="stroke:#660099;stroke-linejoin:miter;"/>
    </defs>
    <g clip-path="url(#p5d5932718a)">
     <use style="fill:#660099;stroke:#660099;stroke-linejoin:miter;" x="99.9984" xlink:href="#mfce3a1520a" y="77.240228"/>
    </g>
   </g>
   <g id="line2d_15">
    <path clip-path="url(#p5d5932718a)" d="M 99.9984 85.067259 
" style="fill:none;stroke:#980067;stroke-linecap:square;stroke-width:1.5;"/>
    <defs>
     <path d="M -0 4.5 
L 4.5 -4.5 
L -4.5 -4.5 
z
" id="m0d04947a64" style="stroke:#980067;stroke-linejoin:miter;"/>
    </defs>
    <g clip-path="url(#p5d5932718a)">
     <use style="fill:#980067;stroke:#980067;stroke-linejoin:miter;" x="99.9984" xlink:href="#m0d04947a64" y="85.067259"/>
    </g>
   </g>
   <g id="line2d_16">
    <path clip-path="url(#p5d5932718a)" d="M 99.9984 193.734777 
" style="fill:none;stroke:#cc0033;stroke-linecap:square;stroke-width:1.5;"/>
    <defs>
     <path d="M 0 -4.5 
L -4.5 4.5 
L 4.5 4.5 
z
" id="m00ba50333f" style="stroke:#cc0033;stroke-linejoin:miter;"/>
    </defs>
    <g clip-path="url(#p5d5932718a)">
     <use style="fill:#cc0033;stroke:#cc0033;stroke-linejoin:miter;" x="99.9984" xlink:href="#m00ba50333f" y="193.734777"/>
    </g>
   </g>
   <g id="line2d_17">
    <path clip-path="url(#p5d5932718a)" d="M 99.9984 239.566572 
" style="fill:none;stroke:#fe0100;stroke-linecap:square;stroke-width:1.5;"/>
    <defs>
     <path d="M 0 -4 
L -3.464102 -2 
L -3.464102 2 
L -0 4 
L 3.464102 2 
L 3.464102 -2 
z
" id="me01622c6cd" style="stroke:#fe0100;stroke-linejoin:miter;"/>
    </defs>
    <g clip-path="url(#p5d5932718a)">
     <use style="fill:#fe0100;stroke:#fe0100;stroke-linejoin:miter;" x="99.9984" xlink:href="#me01622c6cd" y="239.566572"/>
    </g>
   </g>
   <g id="line2d_18">
    <g clip-path="url(#p5d5932718a)">
     <use style="fill:#3200cd;stroke:#3200cd;" x="99.9984" xlink:href="#m8ac80fd19c" y="86.923483"/>
     <use style="fill:#3200cd;stroke:#3200cd;" x="101.310138" xlink:href="#m8ac80fd19c" y="48.4008"/>
     <use style="fill:#3200cd;stroke:#3200cd;" x="102.621875" xlink:href="#m8ac80fd19c" y="47.177111"/>
     <use style="fill:#3200cd;stroke:#3200cd;" x="103.933612" xlink:href="#m8ac80fd19c" y="55.258124"/>
     <use style="fill:#3200cd;stroke:#3200cd;" x="105.24535" xlink:href="#m8ac80fd19c" y="68.548332"/>
     <use style="fill:#3200cd;stroke:#3200cd;" x="106.557087" xlink:href="#m8ac80fd19c" y="83.441904"/>
     <use style="fill:#3200cd;stroke:#3200cd;" x="107.868824" xlink:href="#m8ac80fd19c" y="100.929036"/>
     <use style="fill:#3200cd;stroke:#3200cd;" x="109.180561" xlink:href="#m8ac80fd19c" y="117.092777"/>
     <use style="fill:#3200cd;stroke:#3200cd;" x="110.492299" xlink:href="#m8ac80fd19c" y="133.928855"/>
     <use style="fill:#3200cd;stroke:#3200cd;" x="111.804036" xlink:href="#m8ac80fd19c" y="150.633315"/>
     <use style="fill:#3200cd;stroke:#3200cd;" x="113.115773" xlink:href="#m8ac80fd19c" y="169.91782"/>
     <use style="fill:#3200cd;stroke:#3200cd;" x="114.427511" xlink:href="#m8ac80fd19c" y="186.999471"/>
     <use style="fill:#3200cd;stroke:#3200cd;" x="115.739248" xlink:href="#m8ac80fd19c" y="204.26751"/>
     <use style="fill:#3200cd;stroke:#3200cd;" x="117.050985" xlink:href="#m8ac80fd19c" y="226.079376"/>
     <use style="fill:#3200cd;stroke:#3200cd;" x="118.362722" xlink:href="#m8ac80fd19c" y="241.228356"/>
     <use style="fill:#3200cd;stroke:#3200cd;" x="119.67446" xlink:href="#m8ac80fd19c" y="257.162335"/>
     <use style="fill:#3200cd;stroke:#3200cd;" x="120.986197" xlink:href="#m8ac80fd19c" y="272.938724"/>
     <use style="fill:#3200cd;stroke:#3200cd;" x="122.297934" xlink:href="#m8ac80fd19c" y="299.901003"/>
     <use style="fill:#3200cd;stroke:#3200cd;" x="123.609672" xlink:href="#m8ac80fd19c" y="311.617264"/>
     <use style="fill:#3200cd;stroke:#3200cd;" x="124.921409" xlink:href="#m8ac80fd19c" y="326.078918"/>
     <use style="fill:#3200cd;stroke:#3200cd;" x="126.233146" xlink:href="#m8ac80fd19c" y="333.378877"/>
     <use style="fill:#3200cd;stroke:#3200cd;" x="127.544883" xlink:href="#m8ac80fd19c" y="399.028233"/>
     <use style="fill:#3200cd;stroke:#3200cd;" x="128.856621" xlink:href="#m8ac80fd19c" y="394.03878"/>
     <use style="fill:#3200cd;stroke:#3200cd;" x="130.168358" xlink:href="#m8ac80fd19c" y="410.929479"/>
    </g>
   </g>
   <g id="line2d_19">
    <g clip-path="url(#p5d5932718a)">
     <use style="fill:#660099;stroke:#660099;stroke-linejoin:miter;" x="99.9984" xlink:href="#mfce3a1520a" y="77.240228"/>
     <use style="fill:#660099;stroke:#660099;stroke-linejoin:miter;" x="104.043883" xlink:href="#mfce3a1520a" y="66.05169"/>
     <use style="fill:#660099;stroke:#660099;stroke-linejoin:miter;" x="108.089366" xlink:href="#mfce3a1520a" y="81.98102"/>
     <use style="fill:#660099;stroke:#660099;stroke-linejoin:miter;" x="112.13485" xlink:href="#mfce3a1520a" y="102.912408"/>
     <use style="fill:#660099;stroke:#660099;stroke-linejoin:miter;" x="116.180333" xlink:href="#mfce3a1520a" y="126.978326"/>
     <use style="fill:#660099;stroke:#660099;stroke-linejoin:miter;" x="120.225816" xlink:href="#mfce3a1520a" y="145.287333"/>
     <use style="fill:#660099;stroke:#660099;stroke-linejoin:miter;" x="124.271299" xlink:href="#mfce3a1520a" y="167.639085"/>
     <use style="fill:#660099;stroke:#660099;stroke-linejoin:miter;" x="128.316782" xlink:href="#mfce3a1520a" y="187.299383"/>
     <use style="fill:#660099;stroke:#660099;stroke-linejoin:miter;" x="132.362265" xlink:href="#mfce3a1520a" y="207.565497"/>
     <use style="fill:#660099;stroke:#660099;stroke-linejoin:miter;" x="136.407748" xlink:href="#mfce3a1520a" y="229.473497"/>
     <use style="fill:#660099;stroke:#660099;stroke-linejoin:miter;" x="140.453231" xlink:href="#mfce3a1520a" y="254.35334"/>
     <use style="fill:#660099;stroke:#660099;stroke-linejoin:miter;" x="144.498714" xlink:href="#mfce3a1520a" y="269.063581"/>
     <use style="fill:#660099;stroke:#660099;stroke-linejoin:miter;" x="148.544197" xlink:href="#mfce3a1520a" y="282.687054"/>
     <use style="fill:#660099;stroke:#660099;stroke-linejoin:miter;" x="152.58968" xlink:href="#mfce3a1520a" y="299.256693"/>
     <use style="fill:#660099;stroke:#660099;stroke-linejoin:miter;" x="156.635163" xlink:href="#mfce3a1520a" y="306.877712"/>
     <use style="fill:#660099;stroke:#660099;stroke-linejoin:miter;" x="160.680646" xlink:href="#mfce3a1520a" y="326.078918"/>
     <use style="fill:#660099;stroke:#660099;stroke-linejoin:miter;" x="164.726129" xlink:href="#mfce3a1520a" y="343.618339"/>
     <use style="fill:#660099;stroke:#660099;stroke-linejoin:miter;" x="168.771612" xlink:href="#mfce3a1520a" y="363.643148"/>
     <use style="fill:#660099;stroke:#660099;stroke-linejoin:miter;" x="172.817095" xlink:href="#mfce3a1520a" y="374.837575"/>
     <use style="fill:#660099;stroke:#660099;stroke-linejoin:miter;" x="176.862578" xlink:href="#mfce3a1520a" y="426.863458"/>
     <use style="fill:#660099;stroke:#660099;stroke-linejoin:miter;" x="180.908061" xlink:href="#mfce3a1520a" y="399.028233"/>
     <use style="fill:#660099;stroke:#660099;stroke-linejoin:miter;" x="184.953544" xlink:href="#mfce3a1520a" y="418.229439"/>
     <use style="fill:#660099;stroke:#660099;stroke-linejoin:miter;" x="188.999027" xlink:href="#mfce3a1520a" y="451.054116"/>
     <use style="fill:#660099;stroke:#660099;stroke-linejoin:miter;" x="193.04451" xlink:href="#mfce3a1520a" y="437.430644"/>
    </g>
   </g>
   <g id="line2d_20">
    <g clip-path="url(#p5d5932718a)">
     <use style="fill:#980067;stroke:#980067;stroke-linejoin:miter;" x="99.9984" xlink:href="#m0d04947a64" y="85.067259"/>
     <use style="fill:#980067;stroke:#980067;stroke-linejoin:miter;" x="114.316333" xlink:href="#m0d04947a64" y="99.825117"/>
     <use style="fill:#980067;stroke:#980067;stroke-linejoin:miter;" x="128.634265" xlink:href="#m0d04947a64" y="130.163854"/>
     <use style="fill:#980067;stroke:#980067;stroke-linejoin:miter;" x="142.952197" xlink:href="#m0d04947a64" y="162.061352"/>
     <use style="fill:#980067;stroke:#980067;stroke-linejoin:miter;" x="157.270129" xlink:href="#m0d04947a64" y="192.914739"/>
     <use style="fill:#980067;stroke:#980067;stroke-linejoin:miter;" x="171.588061" xlink:href="#m0d04947a64" y="226.628437"/>
     <use style="fill:#980067;stroke:#980067;stroke-linejoin:miter;" x="185.905993" xlink:href="#m0d04947a64" y="259.869129"/>
     <use style="fill:#980067;stroke:#980067;stroke-linejoin:miter;" x="200.223925" xlink:href="#m0d04947a64" y="295.564747"/>
     <use style="fill:#980067;stroke:#980067;stroke-linejoin:miter;" x="214.541858" xlink:href="#m0d04947a64" y="309.984137"/>
     <use style="fill:#980067;stroke:#980067;stroke-linejoin:miter;" x="228.85979" xlink:href="#m0d04947a64" y="337.499388"/>
     <use style="fill:#980067;stroke:#980067;stroke-linejoin:miter;" x="243.177722" xlink:href="#m0d04947a64" y="350.646916"/>
     <use style="fill:#980067;stroke:#980067;stroke-linejoin:miter;" x="257.495654" xlink:href="#m0d04947a64" y="378.104801"/>
     <use style="fill:#980067;stroke:#980067;stroke-linejoin:miter;" x="271.813586" xlink:href="#m0d04947a64" y="404.605966"/>
     <use style="fill:#980067;stroke:#980067;stroke-linejoin:miter;" x="286.131518" xlink:href="#m0d04947a64" y="418.229439"/>
     <use style="fill:#980067;stroke:#980067;stroke-linejoin:miter;" x="300.44945" xlink:href="#m0d04947a64" y="410.929479"/>
     <use style="fill:#980067;stroke:#980067;stroke-linejoin:miter;" x="314.767383" xlink:href="#m0d04947a64" y="426.863458"/>
     <use style="fill:#980067;stroke:#980067;stroke-linejoin:miter;" x="329.085315" xlink:href="#m0d04947a64" y="470.255322"/>
     <use style="fill:#980067;stroke:#980067;stroke-linejoin:miter;" x="343.403247" xlink:href="#m0d04947a64" y="503.08"/>
     <use style="fill:#980067;stroke:#980067;stroke-linejoin:miter;" x="414.992908" xlink:href="#m0d04947a64" y="503.08"/>
    </g>
   </g>
   <g id="line2d_21">
    <g clip-path="url(#p5d5932718a)">
     <use style="fill:#cc0033;stroke:#cc0033;stroke-linejoin:miter;" x="99.9984" xlink:href="#m00ba50333f" y="193.734777"/>
     <use style="fill:#cc0033;stroke:#cc0033;stroke-linejoin:miter;" x="111.28188" xlink:href="#m00ba50333f" y="185.701965"/>
     <use style="fill:#cc0033;stroke:#cc0033;stroke-linejoin:miter;" x="122.56536" xlink:href="#m00ba50333f" y="191.316073"/>
     <use style="fill:#cc0033;stroke:#cc0033;stroke-linejoin:miter;" x="133.84884" xlink:href="#m00ba50333f" y="202.909539"/>
     <use style="fill:#cc0033;stroke:#cc0033;stroke-linejoin:miter;" x="145.13232" xlink:href="#m00ba50333f" y="207.381232"/>
     <use style="fill:#cc0033;stroke:#cc0033;stroke-linejoin:miter;" x="156.415799" xlink:href="#m00ba50333f" y="211.309866"/>
     <use style="fill:#cc0033;stroke:#cc0033;stroke-linejoin:miter;" x="167.699279" xlink:href="#m00ba50333f" y="222.02715"/>
     <use style="fill:#cc0033;stroke:#cc0033;stroke-linejoin:miter;" x="178.982759" xlink:href="#m00ba50333f" y="227.183939"/>
     <use style="fill:#cc0033;stroke:#cc0033;stroke-linejoin:miter;" x="190.266239" xlink:href="#m00ba50333f" y="236.920297"/>
     <use style="fill:#cc0033;stroke:#cc0033;stroke-linejoin:miter;" x="201.549719" xlink:href="#m00ba50333f" y="248.091852"/>
     <use style="fill:#cc0033;stroke:#cc0033;stroke-linejoin:miter;" x="212.833198" xlink:href="#m00ba50333f" y="253.860043"/>
     <use style="fill:#cc0033;stroke:#cc0033;stroke-linejoin:miter;" x="224.116678" xlink:href="#m00ba50333f" y="257.426158"/>
     <use style="fill:#cc0033;stroke:#cc0033;stroke-linejoin:miter;" x="235.400158" xlink:href="#m00ba50333f" y="257.426158"/>
     <use style="fill:#cc0033;stroke:#cc0033;stroke-linejoin:miter;" x="246.683638" xlink:href="#m00ba50333f" y="276.363541"/>
     <use style="fill:#cc0033;stroke:#cc0033;stroke-linejoin:miter;" x="257.967118" xlink:href="#m00ba50333f" y="280.055488"/>
     <use style="fill:#cc0033;stroke:#cc0033;stroke-linejoin:miter;" x="269.250597" xlink:href="#m00ba50333f" y="293.25424"/>
     <use style="fill:#cc0033;stroke:#cc0033;stroke-linejoin:miter;" x="280.534077" xlink:href="#m00ba50333f" y="309.984137"/>
     <use style="fill:#cc0033;stroke:#cc0033;stroke-linejoin:miter;" x="291.817557" xlink:href="#m00ba50333f" y="307.635424"/>
     <use style="fill:#cc0033;stroke:#cc0033;stroke-linejoin:miter;" x="303.101037" xlink:href="#m00ba50333f" y="324.964607"/>
     <use style="fill:#cc0033;stroke:#cc0033;stroke-linejoin:miter;" x="314.384517" xlink:href="#m00ba50333f" y="330.81847"/>
     <use style="fill:#cc0033;stroke:#cc0033;stroke-linejoin:miter;" x="325.667997" xlink:href="#m00ba50333f" y="342.012897"/>
     <use style="fill:#cc0033;stroke:#cc0033;stroke-linejoin:miter;" x="336.951476" xlink:href="#m00ba50333f" y="366.203555"/>
     <use style="fill:#cc0033;stroke:#cc0033;stroke-linejoin:miter;" x="348.234956" xlink:href="#m00ba50333f" y="366.203555"/>
     <use style="fill:#cc0033;stroke:#cc0033;stroke-linejoin:miter;" x="359.518436" xlink:href="#m00ba50333f" y="366.203555"/>
    </g>
   </g>
   <g id="line2d_22">
    <g clip-path="url(#p5d5932718a)">
     <use style="fill:#fe0100;stroke:#fe0100;stroke-linejoin:miter;" x="99.9984" xlink:href="#me01622c6cd" y="239.566572"/>
     <use style="fill:#fe0100;stroke:#fe0100;stroke-linejoin:miter;" x="144.727418" xlink:href="#me01622c6cd" y="248.091852"/>
     <use style="fill:#fe0100;stroke:#fe0100;stroke-linejoin:miter;" x="189.456435" xlink:href="#me01622c6cd" y="254.601928"/>
     <use style="fill:#fe0100;stroke:#fe0100;stroke-linejoin:miter;" x="234.185452" xlink:href="#me01622c6cd" y="262.151788"/>
     <use style="fill:#fe0100;stroke:#fe0100;stroke-linejoin:miter;" x="278.914469" xlink:href="#me01622c6cd" y="274.053034"/>
     <use style="fill:#fe0100;stroke:#fe0100;stroke-linejoin:miter;" x="323.643487" xlink:href="#me01622c6cd" y="284.059787"/>
     <use style="fill:#fe0100;stroke:#fe0100;stroke-linejoin:miter;" x="368.372504" xlink:href="#me01622c6cd" y="288.94618"/>
     <use style="fill:#fe0100;stroke:#fe0100;stroke-linejoin:miter;" x="413.101521" xlink:href="#me01622c6cd" y="289.987013"/>
     <use style="fill:#fe0100;stroke:#fe0100;stroke-linejoin:miter;" x="457.830538" xlink:href="#me01622c6cd" y="298.621033"/>
     <use style="fill:#fe0100;stroke:#fe0100;stroke-linejoin:miter;" x="502.559556" xlink:href="#me01622c6cd" y="315.062856"/>
     <use style="fill:#fe0100;stroke:#fe0100;stroke-linejoin:miter;" x="547.288573" xlink:href="#me01622c6cd" y="313.30873"/>
     <use style="fill:#fe0100;stroke:#fe0100;stroke-linejoin:miter;" x="592.01759" xlink:href="#me01622c6cd" y="336.085671"/>
     <use style="fill:#fe0100;stroke:#fe0100;stroke-linejoin:miter;" x="636.746607" xlink:href="#me01622c6cd" y="347.002349"/>
     <use style="fill:#fe0100;stroke:#fe0100;stroke-linejoin:miter;" x="681.475625" xlink:href="#me01622c6cd" y="352.580083"/>
     <use style="fill:#fe0100;stroke:#fe0100;stroke-linejoin:miter;" x="726.204642" xlink:href="#me01622c6cd" y="378.104801"/>
     <use style="fill:#fe0100;stroke:#fe0100;stroke-linejoin:miter;" x="770.933659" xlink:href="#me01622c6cd" y="348.78958"/>
     <use style="fill:#fe0100;stroke:#fe0100;stroke-linejoin:miter;" x="815.662676" xlink:href="#me01622c6cd" y="358.903595"/>
     <use style="fill:#fe0100;stroke:#fe0100;stroke-linejoin:miter;" x="860.391694" xlink:href="#me01622c6cd" y="366.203555"/>
     <use style="fill:#fe0100;stroke:#fe0100;stroke-linejoin:miter;" x="905.120711" xlink:href="#me01622c6cd" y="378.104801"/>
     <use style="fill:#fe0100;stroke:#fe0100;stroke-linejoin:miter;" x="949.849728" xlink:href="#me01622c6cd" y="399.028233"/>
     <use style="fill:#fe0100;stroke:#fe0100;stroke-linejoin:miter;" x="994.578745" xlink:href="#me01622c6cd" y="426.863458"/>
     <use style="fill:#fe0100;stroke:#fe0100;stroke-linejoin:miter;" x="1039.307763" xlink:href="#me01622c6cd" y="418.229439"/>
     <use style="fill:#fe0100;stroke:#fe0100;stroke-linejoin:miter;" x="1084.03678" xlink:href="#me01622c6cd" y="437.430644"/>
     <use style="fill:#fe0100;stroke:#fe0100;stroke-linejoin:miter;" x="1128.765797" xlink:href="#me01622c6cd" y="418.229439"/>
    </g>
   </g>
   <g id="line2d_23">
    <path clip-path="url(#p5d5932718a)" d="M 99.9984 15.017501 
L 101.310138 31.559095 
L 102.621875 48.100688 
L 103.933612 64.642282 
L 105.24535 81.183876 
L 106.557087 97.725469 
L 107.868824 114.267063 
L 109.180561 130.808657 
L 110.492299 147.35025 
L 111.804036 163.891844 
L 113.115773 180.433438 
L 114.427511 196.975032 
L 115.739248 213.516625 
L 117.050985 230.058219 
L 118.362722 246.599813 
L 119.67446 263.141406 
L 120.986197 279.683 
L 122.297934 296.224594 
L 123.609672 312.766187 
L 124.921409 329.307781 
L 126.233146 345.849375 
L 127.544883 362.390969 
L 128.856621 378.932562 
L 130.168358 395.474156 
" style="fill:none;stroke:#3200cd;stroke-linecap:square;stroke-width:2;"/>
   </g>
   <g id="line2d_24">
    <path clip-path="url(#p5d5932718a)" d="M 99.9984 63.381712 
L 104.043883 80.861023 
L 108.089366 98.340333 
L 112.13485 115.819643 
L 116.180333 133.298953 
L 120.225816 150.778263 
L 124.271299 168.257574 
L 128.316782 185.736884 
L 132.362265 203.216194 
L 136.407748 220.695504 
L 140.453231 238.174814 
L 144.498714 255.654125 
L 148.544197 273.133435 
L 152.58968 290.612745 
L 156.635163 308.092055 
L 160.680646 325.571366 
L 164.726129 343.050676 
L 168.771612 360.529986 
L 172.817095 378.009296 
L 176.862578 395.488606 
L 180.908061 412.967917 
L 184.953544 430.447227 
L 188.999027 447.926537 
L 193.04451 465.405847 
" style="fill:none;stroke:#660099;stroke-linecap:square;stroke-width:2;"/>
   </g>
   <g id="line2d_25">
    <path clip-path="url(#p5d5932718a)" d="M 99.9984 98.367634 
L 114.316333 122.536485 
L 128.634265 146.705336 
L 142.952197 170.874187 
L 157.270129 195.043039 
L 171.588061 219.21189 
L 185.905993 243.380741 
L 200.223925 267.549592 
L 214.541858 291.718444 
L 228.85979 315.887295 
L 243.177722 340.056146 
L 257.495654 364.224997 
L 271.813586 388.393848 
L 286.131518 412.5627 
L 300.44945 436.731551 
L 314.767383 460.900402 
L 329.085315 485.069253 
" style="fill:none;stroke:#980067;stroke-linecap:square;stroke-width:2;"/>
   </g>
   <g id="line2d_26">
    <path clip-path="url(#p5d5932718a)" d="M 99.9984 173.711703 
L 111.28188 182.008469 
L 122.56536 190.305236 
L 133.84884 198.602003 
L 145.13232 206.89877 
L 156.415799 215.195537 
L 167.699279 223.492304 
L 178.982759 231.789071 
L 190.266239 240.085838 
L 201.549719 248.382604 
L 212.833198 256.679371 
L 224.116678 264.976138 
L 235.400158 273.272905 
L 246.683638 281.569672 
L 257.967118 289.866439 
L 269.250597 298.163206 
L 280.534077 306.459972 
L 291.817557 314.756739 
L 303.101037 323.053506 
L 314.384517 331.350273 
L 325.667997 339.64704 
L 336.951476 347.943807 
L 348.234956 356.240574 
L 359.518436 364.537341 
" style="fill:none;stroke:#cc0033;stroke-linecap:square;stroke-width:2;"/>
   </g>
   <g id="line2d_27">
    <path clip-path="url(#p5d5932718a)" d="M 99.9984 237.96629 
L 144.727418 246.382288 
L 189.456435 254.798286 
L 234.185452 263.214284 
L 278.914469 271.630282 
L 323.643487 280.04628 
L 368.372504 288.462278 
L 413.101521 296.878276 
L 457.830538 305.294274 
L 502.559556 313.710272 
L 547.288573 322.126271 
L 577 327.716631 
" style="fill:none;stroke:#fe0100;stroke-linecap:square;stroke-width:2;"/>
   </g>
   <g id="patch_3">
    <path d="M 78.23 503.08 
L 78.23 29.52 
" style="fill:none;stroke:#000000;stroke-linecap:square;stroke-linejoin:miter;stroke-width:0.8;"/>
   </g>
   <g id="patch_4">
    <path d="M 535.275 503.08 
L 535.275 29.52 
" style="fill:none;stroke:#000000;stroke-linecap:square;stroke-linejoin:miter;stroke-width:0.8;"/>
   </g>
   <g id="patch_5">
    <path d="M 78.23 503.08 
L 535.275 503.08 
" style="fill:none;stroke:#000000;stroke-linecap:square;stroke-linejoin:miter;stroke-width:0.8;"/>
   </g>
   <g id="patch_6">
    <path d="M 78.23 29.52 
L 535.275 29.52 
" style="fill:none;stroke:#000000;stroke-linecap:square;stroke-linejoin:miter;stroke-width:0.8;"/>
   </g>
   <g id="legend_1">
    <g id="line2d_28">
     <path d="M 387.2875 55.716875 
L 427.2875 55.716875 
" style="fill:none;stroke:#3200cd;stroke-linecap:square;stroke-width:1.5;"/>
    </g>
    <g id="line2d_29">
     <g>
      <use style="fill:#3200cd;stroke:#3200cd;" x="407.2875" xlink:href="#m8ac80fd19c" y="55.716875"/>
     </g>
    </g>
    <g id="text_15">
     <!-- p=0.10 -->
     <defs>
      <path d="M 18.109375 8.203125 
L 18.109375 -20.796875 
L 9.078125 -20.796875 
L 9.078125 54.6875 
L 18.109375 54.6875 
L 18.109375 46.390625 
Q 20.953125 51.265625 25.265625 53.625 
Q 29.59375 56 35.59375 56 
Q 45.5625 56 51.78125 48.09375 
Q 58.015625 40.1875 58.015625 27.296875 
Q 58.015625 14.40625 51.78125 6.484375 
Q 45.5625 -1.421875 35.59375 -1.421875 
Q 29.59375 -1.421875 25.265625 0.953125 
Q 20.953125 3.328125 18.109375 8.203125 
z
M 48.6875 27.296875 
Q 48.6875 37.203125 44.609375 42.84375 
Q 40.53125 48.484375 33.40625 48.484375 
Q 26.265625 48.484375 22.1875 42.84375 
Q 18.109375 37.203125 18.109375 27.296875 
Q 18.109375 17.390625 22.1875 11.75 
Q 26.265625 6.109375 33.40625 6.109375 
Q 40.53125 6.109375 44.609375 11.75 
Q 48.6875 17.390625 48.6875 27.296875 
z
" id="DejaVuSans-112"/>
      <path d="M 10.59375 45.40625 
L 73.1875 45.40625 
L 73.1875 37.203125 
L 10.59375 37.203125 
z
M 10.59375 25.484375 
L 73.1875 25.484375 
L 73.1875 17.1875 
L 10.59375 17.1875 
z
" id="DejaVuSans-61"/>
      <path d="M 10.6875 12.40625 
L 21 12.40625 
L 21 0 
L 10.6875 0 
z
" id="DejaVuSans-46"/>
     </defs>
     <g transform="translate(443.2875 62.716875)scale(0.2 -0.2)">
      <use xlink:href="#DejaVuSans-112"/>
      <use x="63.476562" xlink:href="#DejaVuSans-61"/>
      <use x="147.265625" xlink:href="#DejaVuSans-48"/>
      <use x="210.888672" xlink:href="#DejaVuSans-46"/>
      <use x="242.675781" xlink:href="#DejaVuSans-49"/>
      <use x="306.298828" xlink:href="#DejaVuSans-48"/>
     </g>
    </g>
    <g id="line2d_30">
     <path d="M 387.2875 85.073125 
L 427.2875 85.073125 
" style="fill:none;stroke:#660099;stroke-linecap:square;stroke-width:1.5;"/>
    </g>
    <g id="line2d_31">
     <g>
      <use style="fill:#660099;stroke:#660099;stroke-linejoin:miter;" x="407.2875" xlink:href="#mfce3a1520a" y="85.073125"/>
     </g>
    </g>
    <g id="text_16">
     <!-- p=0.20 -->
     <g transform="translate(443.2875 92.073125)scale(0.2 -0.2)">
      <use xlink:href="#DejaVuSans-112"/>
      <use x="63.476562" xlink:href="#DejaVuSans-61"/>
      <use x="147.265625" xlink:href="#DejaVuSans-48"/>
      <use x="210.888672" xlink:href="#DejaVuSans-46"/>
      <use x="242.675781" xlink:href="#DejaVuSans-50"/>
      <use x="306.298828" xlink:href="#DejaVuSans-48"/>
     </g>
    </g>
    <g id="line2d_32">
     <path d="M 387.2875 114.429375 
L 427.2875 114.429375 
" style="fill:none;stroke:#980067;stroke-linecap:square;stroke-width:1.5;"/>
    </g>
    <g id="line2d_33">
     <g>
      <use style="fill:#980067;stroke:#980067;stroke-linejoin:miter;" x="407.2875" xlink:href="#m0d04947a64" y="114.429375"/>
     </g>
    </g>
    <g id="text_17">
     <!-- p=0.30 -->
     <defs>
      <path d="M 40.578125 39.3125 
Q 47.65625 37.796875 51.625 33 
Q 55.609375 28.21875 55.609375 21.1875 
Q 55.609375 10.40625 48.1875 4.484375 
Q 40.765625 -1.421875 27.09375 -1.421875 
Q 22.515625 -1.421875 17.65625 -0.515625 
Q 12.796875 0.390625 7.625 2.203125 
L 7.625 11.71875 
Q 11.71875 9.328125 16.59375 8.109375 
Q 21.484375 6.890625 26.8125 6.890625 
Q 36.078125 6.890625 40.9375 10.546875 
Q 45.796875 14.203125 45.796875 21.1875 
Q 45.796875 27.640625 41.28125 31.265625 
Q 36.765625 34.90625 28.71875 34.90625 
L 20.21875 34.90625 
L 20.21875 43.015625 
L 29.109375 43.015625 
Q 36.375 43.015625 40.234375 45.921875 
Q 44.09375 48.828125 44.09375 54.296875 
Q 44.09375 59.90625 40.109375 62.90625 
Q 36.140625 65.921875 28.71875 65.921875 
Q 24.65625 65.921875 20.015625 65.03125 
Q 15.375 64.15625 9.8125 62.3125 
L 9.8125 71.09375 
Q 15.4375 72.65625 20.34375 73.4375 
Q 25.25 74.21875 29.59375 74.21875 
Q 40.828125 74.21875 47.359375 69.109375 
Q 53.90625 64.015625 53.90625 55.328125 
Q 53.90625 49.265625 50.4375 45.09375 
Q 46.96875 40.921875 40.578125 39.3125 
z
" id="DejaVuSans-51"/>
     </defs>
     <g transform="translate(443.2875 121.429375)scale(0.2 -0.2)">
      <use xlink:href="#DejaVuSans-112"/>
      <use x="63.476562" xlink:href="#DejaVuSans-61"/>
      <use x="147.265625" xlink:href="#DejaVuSans-48"/>
      <use x="210.888672" xlink:href="#DejaVuSans-46"/>
      <use x="242.675781" xlink:href="#DejaVuSans-51"/>
      <use x="306.298828" xlink:href="#DejaVuSans-48"/>
     </g>
    </g>
    <g id="line2d_34">
     <path d="M 387.2875 143.785625 
L 427.2875 143.785625 
" style="fill:none;stroke:#cc0033;stroke-linecap:square;stroke-width:1.5;"/>
    </g>
    <g id="line2d_35">
     <g>
      <use style="fill:#cc0033;stroke:#cc0033;stroke-linejoin:miter;" x="407.2875" xlink:href="#m00ba50333f" y="143.785625"/>
     </g>
    </g>
    <g id="text_18">
     <!-- p=0.40 -->
     <g transform="translate(443.2875 150.785625)scale(0.2 -0.2)">
      <use xlink:href="#DejaVuSans-112"/>
      <use x="63.476562" xlink:href="#DejaVuSans-61"/>
      <use x="147.265625" xlink:href="#DejaVuSans-48"/>
      <use x="210.888672" xlink:href="#DejaVuSans-46"/>
      <use x="242.675781" xlink:href="#DejaVuSans-52"/>
      <use x="306.298828" xlink:href="#DejaVuSans-48"/>
     </g>
    </g>
    <g id="line2d_36">
     <path d="M 387.2875 173.141875 
L 427.2875 173.141875 
" style="fill:none;stroke:#fe0100;stroke-linecap:square;stroke-width:1.5;"/>
    </g>
    <g id="line2d_37">
     <g>
      <use style="fill:#fe0100;stroke:#fe0100;stroke-linejoin:miter;" x="407.2875" xlink:href="#me01622c6cd" y="173.141875"/>
     </g>
    </g>
    <g id="text_19">
     <!-- p=0.50 -->
     <defs>
      <path d="M 10.796875 72.90625 
L 49.515625 72.90625 
L 49.515625 64.59375 
L 19.828125 64.59375 
L 19.828125 46.734375 
Q 21.96875 47.46875 24.109375 47.828125 
Q 26.265625 48.1875 28.421875 48.1875 
Q 40.625 48.1875 47.75 41.5 
Q 54.890625 34.8125 54.890625 23.390625 
Q 54.890625 11.625 47.5625 5.09375 
Q 40.234375 -1.421875 26.90625 -1.421875 
Q 22.3125 -1.421875 17.546875 -0.640625 
Q 12.796875 0.140625 7.71875 1.703125 
L 7.71875 11.625 
Q 12.109375 9.234375 16.796875 8.0625 
Q 21.484375 6.890625 26.703125 6.890625 
Q 35.15625 6.890625 40.078125 11.328125 
Q 45.015625 15.765625 45.015625 23.390625 
Q 45.015625 31 40.078125 35.4375 
Q 35.15625 39.890625 26.703125 39.890625 
Q 22.75 39.890625 18.8125 39.015625 
Q 14.890625 38.140625 10.796875 36.28125 
z
" id="DejaVuSans-53"/>
     </defs>
     <g transform="translate(443.2875 180.141875)scale(0.2 -0.2)">
      <use xlink:href="#DejaVuSans-112"/>
      <use x="63.476562" xlink:href="#DejaVuSans-61"/>
      <use x="147.265625" xlink:href="#DejaVuSans-48"/>
      <use x="210.888672" xlink:href="#DejaVuSans-46"/>
      <use x="242.675781" xlink:href="#DejaVuSans-53"/>
      <use x="306.298828" xlink:href="#DejaVuSans-48"/>
     </g>
    </g>
   </g>
  </g>
 </g>
 <defs>
  <clipPath id="p5d5932718a">
   <rect height="473.56" width="457.045" x="78.23" y="29.52"/>
  </clipPath>
 </defs>
</svg>
