<?xml version="1.0" encoding="utf-8" standalone="no"?>
<!DOCTYPE svg PUBLIC "-//W3C//DTD SVG 1.1//EN"
  "http://www.w3.org/Graphics/SVG/1.1/DTD/svg11.dtd">
<!-- Created with matplotlib (http://matplotlib.org/) -->
<svg height="576pt" version="1.1" viewBox="0 0 576 576" width="576pt" xmlns="http://www.w3.org/2000/svg" xmlns:xlink="http://www.w3.org/1999/xlink">
 <defs>
  <style type="text/css">
*{stroke-linecap:butt;stroke-linejoin:round;}
  </style>
 </defs>
 <g id="figure_1">
  <g id="patch_1">
   <path d="M 0 576 
L 576 576 
L 576 0 
L 0 0 
z
" style="fill:#ffffff;"/>
  </g>
  <g id="axes_1">
   <g id="patch_2">
    <path d="M 65.54 503.08 
L 535.275 503.08 
L 535.275 29.52 
L 65.54 29.52 
z
" style="fill:#ffffff;"/>
   </g>
   <g id="matplotlib.axis_1">
    <g id="xtick_1">
     <g id="line2d_1">
      <defs>
       <path d="M 0 0 
L 0 3.5 
" id="m79f9362129" style="stroke:#000000;stroke-width:0.8;"/>
      </defs>
      <g>
       <use style="stroke:#000000;stroke-width:0.8;" x="72.481897" xlink:href="#m79f9362129" y="503.08"/>
      </g>
     </g>
     <g id="text_1">
      <!-- 0 -->
      <defs>
       <path d="M 31.78125 66.40625 
Q 24.171875 66.40625 20.328125 58.90625 
Q 16.5 51.421875 16.5 36.375 
Q 16.5 21.390625 20.328125 13.890625 
Q 24.171875 6.390625 31.78125 6.390625 
Q 39.453125 6.390625 43.28125 13.890625 
Q 47.125 21.390625 47.125 36.375 
Q 47.125 51.421875 43.28125 58.90625 
Q 39.453125 66.40625 31.78125 66.40625 
z
M 31.78125 74.21875 
Q 44.046875 74.21875 50.515625 64.515625 
Q 56.984375 54.828125 56.984375 36.375 
Q 56.984375 17.96875 50.515625 8.265625 
Q 44.046875 -1.421875 31.78125 -1.421875 
Q 19.53125 -1.421875 13.0625 8.265625 
Q 6.59375 17.96875 6.59375 36.375 
Q 6.59375 54.828125 13.0625 64.515625 
Q 19.53125 74.21875 31.78125 74.21875 
z
" id="DejaVuSans-30"/>
      </defs>
      <g transform="translate(66.119397 525.276875)scale(0.2 -0.2)">
       <use xlink:href="#DejaVuSans-30"/>
      </g>
     </g>
    </g>
    <g id="xtick_2">
     <g id="line2d_2">
      <g>
       <use style="stroke:#000000;stroke-width:0.8;" x="188.180172" xlink:href="#m79f9362129" y="503.08"/>
      </g>
     </g>
     <g id="text_2">
      <!-- 50 -->
      <defs>
       <path d="M 10.796875 72.90625 
L 49.515625 72.90625 
L 49.515625 64.59375 
L 19.828125 64.59375 
L 19.828125 46.734375 
Q 21.96875 47.46875 24.109375 47.828125 
Q 26.265625 48.1875 28.421875 48.1875 
Q 40.625 48.1875 47.75 41.5 
Q 54.890625 34.8125 54.890625 23.390625 
Q 54.890625 11.625 47.5625 5.09375 
Q 40.234375 -1.421875 26.90625 -1.421875 
Q 22.3125 -1.421875 17.546875 -0.640625 
Q 12.796875 0.140625 7.71875 1.703125 
L 7.71875 11.625 
Q 12.109375 9.234375 16.796875 8.0625 
Q 21.484375 6.890625 26.703125 6.890625 
Q 35.15625 6.890625 40.078125 11.328125 
Q 45.015625 15.765625 45.015625 23.390625 
Q 45.015625 31 40.078125 35.4375 
Q 35.15625 39.890625 26.703125 39.890625 
Q 22.75 39.890625 18.8125 39.015625 
Q 14.890625 38.140625 10.796875 36.28125 
z
" id="DejaVuSans-35"/>
      </defs>
      <g transform="translate(175.455172 525.276875)scale(0.2 -0.2)">
       <use xlink:href="#DejaVuSans-35"/>
       <use x="63.623047" xlink:href="#DejaVuSans-30"/>
      </g>
     </g>
    </g>
    <g id="xtick_3">
     <g id="line2d_3">
      <g>
       <use style="stroke:#000000;stroke-width:0.8;" x="303.878448" xlink:href="#m79f9362129" y="503.08"/>
      </g>
     </g>
     <g id="text_3">
      <!-- 100 -->
      <defs>
       <path d="M 12.40625 8.296875 
L 28.515625 8.296875 
L 28.515625 63.921875 
L 10.984375 60.40625 
L 10.984375 69.390625 
L 28.421875 72.90625 
L 38.28125 72.90625 
L 38.28125 8.296875 
L 54.390625 8.296875 
L 54.390625 0 
L 12.40625 0 
z
" id="DejaVuSans-31"/>
      </defs>
      <g transform="translate(284.790948 525.276875)scale(0.2 -0.2)">
       <use xlink:href="#DejaVuSans-31"/>
       <use x="63.623047" xlink:href="#DejaVuSans-30"/>
       <use x="127.246094" xlink:href="#DejaVuSans-30"/>
      </g>
     </g>
    </g>
    <g id="xtick_4">
     <g id="line2d_4">
      <g>
       <use style="stroke:#000000;stroke-width:0.8;" x="419.576724" xlink:href="#m79f9362129" y="503.08"/>
      </g>
     </g>
     <g id="text_4">
      <!-- 150 -->
      <g transform="translate(400.489224 525.276875)scale(0.2 -0.2)">
       <use xlink:href="#DejaVuSans-31"/>
       <use x="63.623047" xlink:href="#DejaVuSans-35"/>
       <use x="127.246094" xlink:href="#DejaVuSans-30"/>
      </g>
     </g>
    </g>
    <g id="xtick_5">
     <g id="line2d_5">
      <g>
       <use style="stroke:#000000;stroke-width:0.8;" x="535.275" xlink:href="#m79f9362129" y="503.08"/>
      </g>
     </g>
     <g id="text_5">
      <!-- 200 -->
      <defs>
       <path d="M 19.1875 8.296875 
L 53.609375 8.296875 
L 53.609375 0 
L 7.328125 0 
L 7.328125 8.296875 
Q 12.9375 14.109375 22.625 23.890625 
Q 32.328125 33.6875 34.8125 36.53125 
Q 39.546875 41.84375 41.421875 45.53125 
Q 43.3125 49.21875 43.3125 52.78125 
Q 43.3125 58.59375 39.234375 62.25 
Q 35.15625 65.921875 28.609375 65.921875 
Q 23.96875 65.921875 18.8125 64.3125 
Q 13.671875 62.703125 7.8125 59.421875 
L 7.8125 69.390625 
Q 13.765625 71.78125 18.9375 73 
Q 24.125 74.21875 28.421875 74.21875 
Q 39.75 74.21875 46.484375 68.546875 
Q 53.21875 62.890625 53.21875 53.421875 
Q 53.21875 48.921875 51.53125 44.890625 
Q 49.859375 40.875 45.40625 35.40625 
Q 44.1875 33.984375 37.640625 27.21875 
Q 31.109375 20.453125 19.1875 8.296875 
z
" id="DejaVuSans-32"/>
      </defs>
      <g transform="translate(516.1875 525.276875)scale(0.2 -0.2)">
       <use xlink:href="#DejaVuSans-32"/>
       <use x="63.623047" xlink:href="#DejaVuSans-30"/>
       <use x="127.246094" xlink:href="#DejaVuSans-30"/>
      </g>
     </g>
    </g>
    <g id="text_6">
     <!-- 1000 generations -->
     <defs>
      <path id="DejaVuSans-20"/>
      <path d="M 45.40625 27.984375 
Q 45.40625 37.75 41.375 43.109375 
Q 37.359375 48.484375 30.078125 48.484375 
Q 22.859375 48.484375 18.828125 43.109375 
Q 14.796875 37.75 14.796875 27.984375 
Q 14.796875 18.265625 18.828125 12.890625 
Q 22.859375 7.515625 30.078125 7.515625 
Q 37.359375 7.515625 41.375 12.890625 
Q 45.40625 18.265625 45.40625 27.984375 
z
M 54.390625 6.78125 
Q 54.390625 -7.171875 48.1875 -13.984375 
Q 42 -20.796875 29.203125 -20.796875 
Q 24.46875 -20.796875 20.265625 -20.09375 
Q 16.0625 -19.390625 12.109375 -17.921875 
L 12.109375 -9.1875 
Q 16.0625 -11.328125 19.921875 -12.34375 
Q 23.78125 -13.375 27.78125 -13.375 
Q 36.625 -13.375 41.015625 -8.765625 
Q 45.40625 -4.15625 45.40625 5.171875 
L 45.40625 9.625 
Q 42.625 4.78125 38.28125 2.390625 
Q 33.9375 0 27.875 0 
Q 17.828125 0 11.671875 7.65625 
Q 5.515625 15.328125 5.515625 27.984375 
Q 5.515625 40.671875 11.671875 48.328125 
Q 17.828125 56 27.875 56 
Q 33.9375 56 38.28125 53.609375 
Q 42.625 51.21875 45.40625 46.390625 
L 45.40625 54.6875 
L 54.390625 54.6875 
z
" id="DejaVuSans-67"/>
      <path d="M 56.203125 29.59375 
L 56.203125 25.203125 
L 14.890625 25.203125 
Q 15.484375 15.921875 20.484375 11.0625 
Q 25.484375 6.203125 34.421875 6.203125 
Q 39.59375 6.203125 44.453125 7.46875 
Q 49.3125 8.734375 54.109375 11.28125 
L 54.109375 2.78125 
Q 49.265625 0.734375 44.1875 -0.34375 
Q 39.109375 -1.421875 33.890625 -1.421875 
Q 20.796875 -1.421875 13.15625 6.1875 
Q 5.515625 13.8125 5.515625 26.8125 
Q 5.515625 40.234375 12.765625 48.109375 
Q 20.015625 56 32.328125 56 
Q 43.359375 56 49.78125 48.890625 
Q 56.203125 41.796875 56.203125 29.59375 
z
M 47.21875 32.234375 
Q 47.125 39.59375 43.09375 43.984375 
Q 39.0625 48.390625 32.421875 48.390625 
Q 24.90625 48.390625 20.390625 44.140625 
Q 15.875 39.890625 15.1875 32.171875 
z
" id="DejaVuSans-65"/>
      <path d="M 54.890625 33.015625 
L 54.890625 0 
L 45.90625 0 
L 45.90625 32.71875 
Q 45.90625 40.484375 42.875 44.328125 
Q 39.84375 48.1875 33.796875 48.1875 
Q 26.515625 48.1875 22.3125 43.546875 
Q 18.109375 38.921875 18.109375 30.90625 
L 18.109375 0 
L 9.078125 0 
L 9.078125 54.6875 
L 18.109375 54.6875 
L 18.109375 46.1875 
Q 21.34375 51.125 25.703125 53.5625 
Q 30.078125 56 35.796875 56 
Q 45.21875 56 50.046875 50.171875 
Q 54.890625 44.34375 54.890625 33.015625 
z
" id="DejaVuSans-6e"/>
      <path d="M 41.109375 46.296875 
Q 39.59375 47.171875 37.8125 47.578125 
Q 36.03125 48 33.890625 48 
Q 26.265625 48 22.1875 43.046875 
Q 18.109375 38.09375 18.109375 28.8125 
L 18.109375 0 
L 9.078125 0 
L 9.078125 54.6875 
L 18.109375 54.6875 
L 18.109375 46.1875 
Q 20.953125 51.171875 25.484375 53.578125 
Q 30.03125 56 36.53125 56 
Q 37.453125 56 38.578125 55.875 
Q 39.703125 55.765625 41.0625 55.515625 
z
" id="DejaVuSans-72"/>
      <path d="M 34.28125 27.484375 
Q 23.390625 27.484375 19.1875 25 
Q 14.984375 22.515625 14.984375 16.5 
Q 14.984375 11.71875 18.140625 8.90625 
Q 21.296875 6.109375 26.703125 6.109375 
Q 34.1875 6.109375 38.703125 11.40625 
Q 43.21875 16.703125 43.21875 25.484375 
L 43.21875 27.484375 
z
M 52.203125 31.203125 
L 52.203125 0 
L 43.21875 0 
L 43.21875 8.296875 
Q 40.140625 3.328125 35.546875 0.953125 
Q 30.953125 -1.421875 24.3125 -1.421875 
Q 15.921875 -1.421875 10.953125 3.296875 
Q 6 8.015625 6 15.921875 
Q 6 25.140625 12.171875 29.828125 
Q 18.359375 34.515625 30.609375 34.515625 
L 43.21875 34.515625 
L 43.21875 35.40625 
Q 43.21875 41.609375 39.140625 45 
Q 35.0625 48.390625 27.6875 48.390625 
Q 23 48.390625 18.546875 47.265625 
Q 14.109375 46.140625 10.015625 43.890625 
L 10.015625 52.203125 
Q 14.9375 54.109375 19.578125 55.046875 
Q 24.21875 56 28.609375 56 
Q 40.484375 56 46.34375 49.84375 
Q 52.203125 43.703125 52.203125 31.203125 
z
" id="DejaVuSans-61"/>
      <path d="M 18.3125 70.21875 
L 18.3125 54.6875 
L 36.8125 54.6875 
L 36.8125 47.703125 
L 18.3125 47.703125 
L 18.3125 18.015625 
Q 18.3125 11.328125 20.140625 9.421875 
Q 21.96875 7.515625 27.59375 7.515625 
L 36.8125 7.515625 
L 36.8125 0 
L 27.59375 0 
Q 17.1875 0 13.234375 3.875 
Q 9.28125 7.765625 9.28125 18.015625 
L 9.28125 47.703125 
L 2.6875 47.703125 
L 2.6875 54.6875 
L 9.28125 54.6875 
L 9.28125 70.21875 
z
" id="DejaVuSans-74"/>
      <path d="M 9.421875 54.6875 
L 18.40625 54.6875 
L 18.40625 0 
L 9.421875 0 
z
M 9.421875 75.984375 
L 18.40625 75.984375 
L 18.40625 64.59375 
L 9.421875 64.59375 
z
" id="DejaVuSans-69"/>
      <path d="M 30.609375 48.390625 
Q 23.390625 48.390625 19.1875 42.75 
Q 14.984375 37.109375 14.984375 27.296875 
Q 14.984375 17.484375 19.15625 11.84375 
Q 23.34375 6.203125 30.609375 6.203125 
Q 37.796875 6.203125 41.984375 11.859375 
Q 46.1875 17.53125 46.1875 27.296875 
Q 46.1875 37.015625 41.984375 42.703125 
Q 37.796875 48.390625 30.609375 48.390625 
z
M 30.609375 56 
Q 42.328125 56 49.015625 48.375 
Q 55.71875 40.765625 55.71875 27.296875 
Q 55.71875 13.875 49.015625 6.21875 
Q 42.328125 -1.421875 30.609375 -1.421875 
Q 18.84375 -1.421875 12.171875 6.21875 
Q 5.515625 13.875 5.515625 27.296875 
Q 5.515625 40.765625 12.171875 48.375 
Q 18.84375 56 30.609375 56 
z
" id="DejaVuSans-6f"/>
      <path d="M 44.28125 53.078125 
L 44.28125 44.578125 
Q 40.484375 46.53125 36.375 47.5 
Q 32.28125 48.484375 27.875 48.484375 
Q 21.1875 48.484375 17.84375 46.4375 
Q 14.5 44.390625 14.5 40.28125 
Q 14.5 37.15625 16.890625 35.375 
Q 19.28125 33.59375 26.515625 31.984375 
L 29.59375 31.296875 
Q 39.15625 29.25 43.1875 25.515625 
Q 47.21875 21.78125 47.21875 15.09375 
Q 47.21875 7.46875 41.1875 3.015625 
Q 35.15625 -1.421875 24.609375 -1.421875 
Q 20.21875 -1.421875 15.453125 -0.5625 
Q 10.6875 0.296875 5.421875 2 
L 5.421875 11.28125 
Q 10.40625 8.6875 15.234375 7.390625 
Q 20.0625 6.109375 24.8125 6.109375 
Q 31.15625 6.109375 34.5625 8.28125 
Q 37.984375 10.453125 37.984375 14.40625 
Q 37.984375 18.0625 35.515625 20.015625 
Q 33.0625 21.96875 24.703125 23.78125 
L 21.578125 24.515625 
Q 13.234375 26.265625 9.515625 29.90625 
Q 5.8125 33.546875 5.8125 39.890625 
Q 5.8125 47.609375 11.28125 51.796875 
Q 16.75 56 26.8125 56 
Q 31.78125 56 36.171875 55.265625 
Q 40.578125 54.546875 44.28125 53.078125 
z
" id="DejaVuSans-73"/>
     </defs>
     <g transform="translate(212.184063 548.633125)scale(0.2 -0.2)">
      <use xlink:href="#DejaVuSans-31"/>
      <use x="63.623047" xlink:href="#DejaVuSans-30"/>
      <use x="127.246094" xlink:href="#DejaVuSans-30"/>
      <use x="190.869141" xlink:href="#DejaVuSans-30"/>
      <use x="254.492188" xlink:href="#DejaVuSans-20"/>
      <use x="286.279297" xlink:href="#DejaVuSans-67"/>
      <use x="349.755859" xlink:href="#DejaVuSans-65"/>
      <use x="411.279297" xlink:href="#DejaVuSans-6e"/>
      <use x="474.658203" xlink:href="#DejaVuSans-65"/>
      <use x="536.181641" xlink:href="#DejaVuSans-72"/>
      <use x="577.294922" xlink:href="#DejaVuSans-61"/>
      <use x="638.574219" xlink:href="#DejaVuSans-74"/>
      <use x="677.783203" xlink:href="#DejaVuSans-69"/>
      <use x="705.566406" xlink:href="#DejaVuSans-6f"/>
      <use x="766.748047" xlink:href="#DejaVuSans-6e"/>
      <use x="830.126953" xlink:href="#DejaVuSans-73"/>
     </g>
    </g>
   </g>
   <g id="matplotlib.axis_2">
    <g id="ytick_1">
     <g id="line2d_6">
      <defs>
       <path d="M 0 0 
L -3.5 0 
" id="m47136274cf" style="stroke:#000000;stroke-width:0.8;"/>
      </defs>
      <g>
       <use style="stroke:#000000;stroke-width:0.8;" x="65.54" xlink:href="#m47136274cf" y="503.08"/>
      </g>
     </g>
     <g id="text_7">
      <!-- 0 -->
      <g transform="translate(45.815 510.678437)scale(0.2 -0.2)">
       <use xlink:href="#DejaVuSans-30"/>
      </g>
     </g>
    </g>
    <g id="ytick_2">
     <g id="line2d_7">
      <g>
       <use style="stroke:#000000;stroke-width:0.8;" x="65.54" xlink:href="#m47136274cf" y="424.153333"/>
      </g>
     </g>
     <g id="text_8">
      <!-- 1 -->
      <g transform="translate(45.815 431.751771)scale(0.2 -0.2)">
       <use xlink:href="#DejaVuSans-31"/>
      </g>
     </g>
    </g>
    <g id="ytick_3">
     <g id="line2d_8">
      <g>
       <use style="stroke:#000000;stroke-width:0.8;" x="65.54" xlink:href="#m47136274cf" y="345.226667"/>
      </g>
     </g>
     <g id="text_9">
      <!-- 2 -->
      <g transform="translate(45.815 352.825104)scale(0.2 -0.2)">
       <use xlink:href="#DejaVuSans-32"/>
      </g>
     </g>
    </g>
    <g id="ytick_4">
     <g id="line2d_9">
      <g>
       <use style="stroke:#000000;stroke-width:0.8;" x="65.54" xlink:href="#m47136274cf" y="266.3"/>
      </g>
     </g>
     <g id="text_10">
      <!-- 3 -->
      <defs>
       <path d="M 40.578125 39.3125 
Q 47.65625 37.796875 51.625 33 
Q 55.609375 28.21875 55.609375 21.1875 
Q 55.609375 10.40625 48.1875 4.484375 
Q 40.765625 -1.421875 27.09375 -1.421875 
Q 22.515625 -1.421875 17.65625 -0.515625 
Q 12.796875 0.390625 7.625 2.203125 
L 7.625 11.71875 
Q 11.71875 9.328125 16.59375 8.109375 
Q 21.484375 6.890625 26.8125 6.890625 
Q 36.078125 6.890625 40.9375 10.546875 
Q 45.796875 14.203125 45.796875 21.1875 
Q 45.796875 27.640625 41.28125 31.265625 
Q 36.765625 34.90625 28.71875 34.90625 
L 20.21875 34.90625 
L 20.21875 43.015625 
L 29.109375 43.015625 
Q 36.375 43.015625 40.234375 45.921875 
Q 44.09375 48.828125 44.09375 54.296875 
Q 44.09375 59.90625 40.109375 62.90625 
Q 36.140625 65.921875 28.71875 65.921875 
Q 24.65625 65.921875 20.015625 65.03125 
Q 15.375 64.15625 9.8125 62.3125 
L 9.8125 71.09375 
Q 15.4375 72.65625 20.34375 73.4375 
Q 25.25 74.21875 29.59375 74.21875 
Q 40.828125 74.21875 47.359375 69.109375 
Q 53.90625 64.015625 53.90625 55.328125 
Q 53.90625 49.265625 50.4375 45.09375 
Q 46.96875 40.921875 40.578125 39.3125 
z
" id="DejaVuSans-33"/>
      </defs>
      <g transform="translate(45.815 273.898438)scale(0.2 -0.2)">
       <use xlink:href="#DejaVuSans-33"/>
      </g>
     </g>
    </g>
    <g id="ytick_5">
     <g id="line2d_10">
      <g>
       <use style="stroke:#000000;stroke-width:0.8;" x="65.54" xlink:href="#m47136274cf" y="187.373333"/>
      </g>
     </g>
     <g id="text_11">
      <!-- 4 -->
      <defs>
       <path d="M 37.796875 64.3125 
L 12.890625 25.390625 
L 37.796875 25.390625 
z
M 35.203125 72.90625 
L 47.609375 72.90625 
L 47.609375 25.390625 
L 58.015625 25.390625 
L 58.015625 17.1875 
L 47.609375 17.1875 
L 47.609375 0 
L 37.796875 0 
L 37.796875 17.1875 
L 4.890625 17.1875 
L 4.890625 26.703125 
z
" id="DejaVuSans-34"/>
      </defs>
      <g transform="translate(45.815 194.971771)scale(0.2 -0.2)">
       <use xlink:href="#DejaVuSans-34"/>
      </g>
     </g>
    </g>
    <g id="ytick_6">
     <g id="line2d_11">
      <g>
       <use style="stroke:#000000;stroke-width:0.8;" x="65.54" xlink:href="#m47136274cf" y="108.446667"/>
      </g>
     </g>
     <g id="text_12">
      <!-- 5 -->
      <g transform="translate(45.815 116.045104)scale(0.2 -0.2)">
       <use xlink:href="#DejaVuSans-35"/>
      </g>
     </g>
    </g>
    <g id="ytick_7">
     <g id="line2d_12">
      <g>
       <use style="stroke:#000000;stroke-width:0.8;" x="65.54" xlink:href="#m47136274cf" y="29.52"/>
      </g>
     </g>
     <g id="text_13">
      <!-- 6 -->
      <defs>
       <path d="M 33.015625 40.375 
Q 26.375 40.375 22.484375 35.828125 
Q 18.609375 31.296875 18.609375 23.390625 
Q 18.609375 15.53125 22.484375 10.953125 
Q 26.375 6.390625 33.015625 6.390625 
Q 39.65625 6.390625 43.53125 10.953125 
Q 47.40625 15.53125 47.40625 23.390625 
Q 47.40625 31.296875 43.53125 35.828125 
Q 39.65625 40.375 33.015625 40.375 
z
M 52.59375 71.296875 
L 52.59375 62.3125 
Q 48.875 64.0625 45.09375 64.984375 
Q 41.3125 65.921875 37.59375 65.921875 
Q 27.828125 65.921875 22.671875 59.328125 
Q 17.53125 52.734375 16.796875 39.40625 
Q 19.671875 43.65625 24.015625 45.921875 
Q 28.375 48.1875 33.59375 48.1875 
Q 44.578125 48.1875 50.953125 41.515625 
Q 57.328125 34.859375 57.328125 23.390625 
Q 57.328125 12.15625 50.6875 5.359375 
Q 44.046875 -1.421875 33.015625 -1.421875 
Q 20.359375 -1.421875 13.671875 8.265625 
Q 6.984375 17.96875 6.984375 36.375 
Q 6.984375 53.65625 15.1875 63.9375 
Q 23.390625 74.21875 37.203125 74.21875 
Q 40.921875 74.21875 44.703125 73.484375 
Q 48.484375 72.75 52.59375 71.296875 
z
" id="DejaVuSans-36"/>
      </defs>
      <g transform="translate(45.815 37.118438)scale(0.2 -0.2)">
       <use xlink:href="#DejaVuSans-36"/>
      </g>
     </g>
    </g>
    <g id="text_14">
     <!-- log (evolutions) -->
     <defs>
      <path d="M 9.421875 75.984375 
L 18.40625 75.984375 
L 18.40625 0 
L 9.421875 0 
z
" id="DejaVuSans-6c"/>
      <path d="M 31 75.875 
Q 24.46875 64.65625 21.28125 53.65625 
Q 18.109375 42.671875 18.109375 31.390625 
Q 18.109375 20.125 21.3125 9.0625 
Q 24.515625 -2 31 -13.1875 
L 23.1875 -13.1875 
Q 15.875 -1.703125 12.234375 9.375 
Q 8.59375 20.453125 8.59375 31.390625 
Q 8.59375 42.28125 12.203125 53.3125 
Q 15.828125 64.359375 23.1875 75.875 
z
" id="DejaVuSans-28"/>
      <path d="M 2.984375 54.6875 
L 12.5 54.6875 
L 29.59375 8.796875 
L 46.6875 54.6875 
L 56.203125 54.6875 
L 35.6875 0 
L 23.484375 0 
z
" id="DejaVuSans-76"/>
      <path d="M 8.5 21.578125 
L 8.5 54.6875 
L 17.484375 54.6875 
L 17.484375 21.921875 
Q 17.484375 14.15625 20.5 10.265625 
Q 23.53125 6.390625 29.59375 6.390625 
Q 36.859375 6.390625 41.078125 11.03125 
Q 45.3125 15.671875 45.3125 23.6875 
L 45.3125 54.6875 
L 54.296875 54.6875 
L 54.296875 0 
L 45.3125 0 
L 45.3125 8.40625 
Q 42.046875 3.421875 37.71875 1 
Q 33.40625 -1.421875 27.6875 -1.421875 
Q 18.265625 -1.421875 13.375 4.4375 
Q 8.5 10.296875 8.5 21.578125 
z
M 31.109375 56 
z
" id="DejaVuSans-75"/>
      <path d="M 8.015625 75.875 
L 15.828125 75.875 
Q 23.140625 64.359375 26.78125 53.3125 
Q 30.421875 42.28125 30.421875 31.390625 
Q 30.421875 20.453125 26.78125 9.375 
Q 23.140625 -1.703125 15.828125 -13.1875 
L 8.015625 -13.1875 
Q 14.5 -2 17.703125 9.0625 
Q 20.90625 20.125 20.90625 31.390625 
Q 20.90625 42.671875 17.703125 53.65625 
Q 14.5 64.65625 8.015625 75.875 
z
" id="DejaVuSans-29"/>
     </defs>
     <g transform="translate(37.655625 344.196875)rotate(-90)scale(0.2 -0.2)">
      <use xlink:href="#DejaVuSans-6c"/>
      <use x="27.783203" xlink:href="#DejaVuSans-6f"/>
      <use x="88.964844" xlink:href="#DejaVuSans-67"/>
      <use x="152.441406" xlink:href="#DejaVuSans-20"/>
      <use x="184.228516" xlink:href="#DejaVuSans-28"/>
      <use x="223.242188" xlink:href="#DejaVuSans-65"/>
      <use x="284.765625" xlink:href="#DejaVuSans-76"/>
      <use x="343.945312" xlink:href="#DejaVuSans-6f"/>
      <use x="405.126953" xlink:href="#DejaVuSans-6c"/>
      <use x="432.910156" xlink:href="#DejaVuSans-75"/>
      <use x="496.289062" xlink:href="#DejaVuSans-74"/>
      <use x="535.498047" xlink:href="#DejaVuSans-69"/>
      <use x="563.28125" xlink:href="#DejaVuSans-6f"/>
      <use x="624.462891" xlink:href="#DejaVuSans-6e"/>
      <use x="687.841797" xlink:href="#DejaVuSans-73"/>
      <use x="739.941406" xlink:href="#DejaVuSans-29"/>
     </g>
    </g>
   </g>
   <g id="line2d_13">
    <path clip-path="url(#p6e3d0ba632)" d="M 72.484211 95.440659 
" style="fill:none;stroke:#3200cd;stroke-linecap:square;stroke-width:1.5;"/>
    <defs>
     <path d="M 0 4.5 
C 1.193414 4.5 2.338109 4.025852 3.181981 3.181981 
C 4.025852 2.338109 4.5 1.193414 4.5 0 
C 4.5 -1.193414 4.025852 -2.338109 3.181981 -3.181981 
C 2.338109 -4.025852 1.193414 -4.5 0 -4.5 
C -1.193414 -4.5 -2.338109 -4.025852 -3.181981 -3.181981 
C -4.025852 -2.338109 -4.5 -1.193414 -4.5 0 
C -4.5 1.193414 -4.025852 2.338109 -3.181981 3.181981 
C -2.338109 4.025852 -1.193414 4.5 0 4.5 
z
" id="m8589cf00dc" style="stroke:#3200cd;"/>
    </defs>
    <g clip-path="url(#p6e3d0ba632)">
     <use style="fill:#3200cd;stroke:#3200cd;" x="72.484211" xlink:href="#m8589cf00dc" y="95.440659"/>
    </g>
   </g>
   <g id="line2d_14">
    <path clip-path="url(#p6e3d0ba632)" d="M 72.484211 88.123415 
" style="fill:none;stroke:#660099;stroke-linecap:square;stroke-width:1.5;"/>
    <defs>
     <path d="M -4.5 4.5 
L 4.5 4.5 
L 4.5 -4.5 
L -4.5 -4.5 
z
" id="m36656313c1" style="stroke:#660099;stroke-linejoin:miter;"/>
    </defs>
    <g clip-path="url(#p6e3d0ba632)">
     <use style="fill:#660099;stroke:#660099;stroke-linejoin:miter;" x="72.484211" xlink:href="#m36656313c1" y="88.123415"/>
    </g>
   </g>
   <g id="line2d_15">
    <path clip-path="url(#p6e3d0ba632)" d="M 72.484211 68.562533 
" style="fill:none;stroke:#980067;stroke-linecap:square;stroke-width:1.5;"/>
    <defs>
     <path d="M -0 4.5 
L 4.5 -4.5 
L -4.5 -4.5 
z
" id="md4a44be8c6" style="stroke:#980067;stroke-linejoin:miter;"/>
    </defs>
    <g clip-path="url(#p6e3d0ba632)">
     <use style="fill:#980067;stroke:#980067;stroke-linejoin:miter;" x="72.484211" xlink:href="#md4a44be8c6" y="68.562533"/>
    </g>
   </g>
   <g id="line2d_16">
    <path clip-path="url(#p6e3d0ba632)" d="M 72.484211 70.511439 
" style="fill:none;stroke:#cc0033;stroke-linecap:square;stroke-width:1.5;"/>
    <defs>
     <path d="M 0 -4.5 
L -4.5 4.5 
L 4.5 4.5 
z
" id="m6aabedf9b2" style="stroke:#cc0033;stroke-linejoin:miter;"/>
    </defs>
    <g clip-path="url(#p6e3d0ba632)">
     <use style="fill:#cc0033;stroke:#cc0033;stroke-linejoin:miter;" x="72.484211" xlink:href="#m6aabedf9b2" y="70.511439"/>
    </g>
   </g>
   <g id="line2d_17">
    <path clip-path="url(#p6e3d0ba632)" d="M 72.484211 83.338516 
" style="fill:none;stroke:#fe0100;stroke-linecap:square;stroke-width:1.5;"/>
    <defs>
     <path d="M 0 -4.5 
L -3.897114 -2.25 
L -3.897114 2.25 
L -0 4.5 
L 3.897114 2.25 
L 3.897114 -2.25 
z
" id="m6a71fa50c1" style="stroke:#fe0100;stroke-linejoin:miter;"/>
    </defs>
    <g clip-path="url(#p6e3d0ba632)">
     <use style="fill:#fe0100;stroke:#fe0100;stroke-linejoin:miter;" x="72.484211" xlink:href="#m6a71fa50c1" y="83.338516"/>
    </g>
   </g>
   <g id="line2d_18">
    <g clip-path="url(#p6e3d0ba632)">
     <use style="fill:#3200cd;stroke:#3200cd;" x="72.484211" xlink:href="#m8589cf00dc" y="95.440659"/>
     <use style="fill:#3200cd;stroke:#3200cd;" x="89.803278" xlink:href="#m8589cf00dc" y="95.892962"/>
     <use style="fill:#3200cd;stroke:#3200cd;" x="107.122346" xlink:href="#m8589cf00dc" y="99.133808"/>
     <use style="fill:#3200cd;stroke:#3200cd;" x="124.441414" xlink:href="#m8589cf00dc" y="108.666693"/>
     <use style="fill:#3200cd;stroke:#3200cd;" x="141.760481" xlink:href="#m8589cf00dc" y="120.744461"/>
     <use style="fill:#3200cd;stroke:#3200cd;" x="159.079549" xlink:href="#m8589cf00dc" y="132.807549"/>
     <use style="fill:#3200cd;stroke:#3200cd;" x="176.398617" xlink:href="#m8589cf00dc" y="135.010297"/>
     <use style="fill:#3200cd;stroke:#3200cd;" x="193.717685" xlink:href="#m8589cf00dc" y="142.831212"/>
     <use style="fill:#3200cd;stroke:#3200cd;" x="211.036752" xlink:href="#m8589cf00dc" y="162.315055"/>
     <use style="fill:#3200cd;stroke:#3200cd;" x="228.35582" xlink:href="#m8589cf00dc" y="171.217627"/>
     <use style="fill:#3200cd;stroke:#3200cd;" x="245.674888" xlink:href="#m8589cf00dc" y="183.97544"/>
     <use style="fill:#3200cd;stroke:#3200cd;" x="262.993956" xlink:href="#m8589cf00dc" y="208.078196"/>
     <use style="fill:#3200cd;stroke:#3200cd;" x="280.313023" xlink:href="#m8589cf00dc" y="202.632819"/>
     <use style="fill:#3200cd;stroke:#3200cd;" x="297.632091" xlink:href="#m8589cf00dc" y="191.221504"/>
     <use style="fill:#3200cd;stroke:#3200cd;" x="314.951159" xlink:href="#m8589cf00dc" y="227.112313"/>
     <use style="fill:#3200cd;stroke:#3200cd;" x="332.270227" xlink:href="#m8589cf00dc" y="242.950582"/>
     <use style="fill:#3200cd;stroke:#3200cd;" x="349.589294" xlink:href="#m8589cf00dc" y="237.310564"/>
     <use style="fill:#3200cd;stroke:#3200cd;" x="366.908362" xlink:href="#m8589cf00dc" y="227.112313"/>
     <use style="fill:#3200cd;stroke:#3200cd;" x="384.22743" xlink:href="#m8589cf00dc" y="255.605893"/>
     <use style="fill:#3200cd;stroke:#3200cd;" x="401.546498" xlink:href="#m8589cf00dc" y="259.114323"/>
     <use style="fill:#3200cd;stroke:#3200cd;" x="418.865565" xlink:href="#m8589cf00dc" y="274.952592"/>
     <use style="fill:#3200cd;stroke:#3200cd;" x="436.184633" xlink:href="#m8589cf00dc" y="321.344634"/>
     <use style="fill:#3200cd;stroke:#3200cd;" x="453.503701" xlink:href="#m8589cf00dc" y="306.954601"/>
     <use style="fill:#3200cd;stroke:#3200cd;" x="470.822769" xlink:href="#m8589cf00dc" y="321.344634"/>
    </g>
   </g>
   <g id="line2d_19">
    <g clip-path="url(#p6e3d0ba632)">
     <use style="fill:#660099;stroke:#660099;stroke-linejoin:miter;" x="72.484211" xlink:href="#m36656313c1" y="88.123415"/>
     <use style="fill:#660099;stroke:#660099;stroke-linejoin:miter;" x="90.276725" xlink:href="#m36656313c1" y="90.629234"/>
     <use style="fill:#660099;stroke:#660099;stroke-linejoin:miter;" x="108.06924" xlink:href="#m36656313c1" y="108.135198"/>
     <use style="fill:#660099;stroke:#660099;stroke-linejoin:miter;" x="125.861755" xlink:href="#m36656313c1" y="120.125425"/>
     <use style="fill:#660099;stroke:#660099;stroke-linejoin:miter;" x="143.654269" xlink:href="#m36656313c1" y="131.37248"/>
     <use style="fill:#660099;stroke:#660099;stroke-linejoin:miter;" x="161.446784" xlink:href="#m36656313c1" y="133.534989"/>
     <use style="fill:#660099;stroke:#660099;stroke-linejoin:miter;" x="179.239299" xlink:href="#m36656313c1" y="149.69873"/>
     <use style="fill:#660099;stroke:#660099;stroke-linejoin:miter;" x="197.031814" xlink:href="#m36656313c1" y="156.240776"/>
     <use style="fill:#660099;stroke:#660099;stroke-linejoin:miter;" x="214.824328" xlink:href="#m36656313c1" y="168.896087"/>
     <use style="fill:#660099;stroke:#660099;stroke-linejoin:miter;" x="232.616843" xlink:href="#m36656313c1" y="181.253561"/>
     <use style="fill:#660099;stroke:#660099;stroke-linejoin:miter;" x="250.409358" xlink:href="#m36656313c1" y="195.911597"/>
     <use style="fill:#660099;stroke:#660099;stroke-linejoin:miter;" x="268.201873" xlink:href="#m36656313c1" y="186.794549"/>
     <use style="fill:#660099;stroke:#660099;stroke-linejoin:miter;" x="285.994387" xlink:href="#m36656313c1" y="200.898097"/>
     <use style="fill:#660099;stroke:#660099;stroke-linejoin:miter;" x="303.786902" xlink:href="#m36656313c1" y="202.632819"/>
     <use style="fill:#660099;stroke:#660099;stroke-linejoin:miter;" x="321.579417" xlink:href="#m36656313c1" y="222.468229"/>
     <use style="fill:#660099;stroke:#660099;stroke-linejoin:miter;" x="339.371931" xlink:href="#m36656313c1" y="224.756118"/>
     <use style="fill:#660099;stroke:#660099;stroke-linejoin:miter;" x="357.164446" xlink:href="#m36656313c1" y="262.785992"/>
     <use style="fill:#660099;stroke:#660099;stroke-linejoin:miter;" x="374.956961" xlink:href="#m36656313c1" y="270.685246"/>
     <use style="fill:#660099;stroke:#660099;stroke-linejoin:miter;" x="392.749476" xlink:href="#m36656313c1" y="262.785992"/>
     <use style="fill:#660099;stroke:#660099;stroke-linejoin:miter;" x="410.54199" xlink:href="#m36656313c1" y="245.929301"/>
     <use style="fill:#660099;stroke:#660099;stroke-linejoin:miter;" x="428.334505" xlink:href="#m36656313c1" y="284.248814"/>
     <use style="fill:#660099;stroke:#660099;stroke-linejoin:miter;" x="446.12702" xlink:href="#m36656313c1" y="294.788002"/>
     <use style="fill:#660099;stroke:#660099;stroke-linejoin:miter;" x="463.919535" xlink:href="#m36656313c1" y="279.463915"/>
     <use style="fill:#660099;stroke:#660099;stroke-linejoin:miter;" x="481.712049" xlink:href="#m36656313c1" y="300.637097"/>
    </g>
   </g>
   <g id="line2d_20">
    <g clip-path="url(#p6e3d0ba632)">
     <use style="fill:#980067;stroke:#980067;stroke-linejoin:miter;" x="72.484211" xlink:href="#md4a44be8c6" y="68.562533"/>
     <use style="fill:#980067;stroke:#980067;stroke-linejoin:miter;" x="92.726877" xlink:href="#md4a44be8c6" y="78.827193"/>
     <use style="fill:#980067;stroke:#980067;stroke-linejoin:miter;" x="112.969544" xlink:href="#md4a44be8c6" y="91.912623"/>
     <use style="fill:#980067;stroke:#980067;stroke-linejoin:miter;" x="133.212211" xlink:href="#md4a44be8c6" y="113.052636"/>
     <use style="fill:#980067;stroke:#980067;stroke-linejoin:miter;" x="153.454878" xlink:href="#md4a44be8c6" y="138.823921"/>
     <use style="fill:#980067;stroke:#980067;stroke-linejoin:miter;" x="173.697544" xlink:href="#md4a44be8c6" y="133.534989"/>
     <use style="fill:#980067;stroke:#980067;stroke-linejoin:miter;" x="193.940211" xlink:href="#md4a44be8c6" y="135.758423"/>
     <use style="fill:#980067;stroke:#980067;stroke-linejoin:miter;" x="214.182878" xlink:href="#md4a44be8c6" y="162.315055"/>
     <use style="fill:#980067;stroke:#980067;stroke-linejoin:miter;" x="234.425545" xlink:href="#md4a44be8c6" y="138.823921"/>
     <use style="fill:#980067;stroke:#980067;stroke-linejoin:miter;" x="254.668211" xlink:href="#md4a44be8c6" y="168.896087"/>
     <use style="fill:#980067;stroke:#980067;stroke-linejoin:miter;" x="274.910878" xlink:href="#md4a44be8c6" y="197.539008"/>
     <use style="fill:#980067;stroke:#980067;stroke-linejoin:miter;" x="295.153545" xlink:href="#md4a44be8c6" y="179.927032"/>
     <use style="fill:#980067;stroke:#980067;stroke-linejoin:miter;" x="315.396212" xlink:href="#md4a44be8c6" y="227.112313"/>
     <use style="fill:#980067;stroke:#980067;stroke-linejoin:miter;" x="335.638878" xlink:href="#md4a44be8c6" y="252.246805"/>
     <use style="fill:#980067;stroke:#980067;stroke-linejoin:miter;" x="355.881545" xlink:href="#md4a44be8c6" y="237.310564"/>
     <use style="fill:#980067;stroke:#980067;stroke-linejoin:miter;" x="376.124212" xlink:href="#md4a44be8c6" y="255.605893"/>
     <use style="fill:#980067;stroke:#980067;stroke-linejoin:miter;" x="396.366879" xlink:href="#md4a44be8c6" y="259.114323"/>
     <use style="fill:#980067;stroke:#980067;stroke-linejoin:miter;" x="416.609545" xlink:href="#md4a44be8c6" y="279.463915"/>
     <use style="fill:#980067;stroke:#980067;stroke-linejoin:miter;" x="436.852212" xlink:href="#md4a44be8c6" y="266.636837"/>
     <use style="fill:#980067;stroke:#980067;stroke-linejoin:miter;" x="457.094879" xlink:href="#md4a44be8c6" y="289.342624"/>
     <use style="fill:#980067;stroke:#980067;stroke-linejoin:miter;" x="477.337546" xlink:href="#md4a44be8c6" y="289.342624"/>
     <use style="fill:#980067;stroke:#980067;stroke-linejoin:miter;" x="497.580212" xlink:href="#md4a44be8c6" y="376.05243"/>
     <use style="fill:#980067;stroke:#980067;stroke-linejoin:miter;" x="517.822879" xlink:href="#md4a44be8c6" y="306.954601"/>
     <use style="fill:#980067;stroke:#980067;stroke-linejoin:miter;" x="538.065546" xlink:href="#md4a44be8c6" y="361.662398"/>
    </g>
   </g>
   <g id="line2d_21">
    <g clip-path="url(#p6e3d0ba632)">
     <use style="fill:#cc0033;stroke:#cc0033;stroke-linejoin:miter;" x="72.484211" xlink:href="#m6aabedf9b2" y="70.511439"/>
     <use style="fill:#cc0033;stroke:#cc0033;stroke-linejoin:miter;" x="94.136082" xlink:href="#m6aabedf9b2" y="86.09434"/>
     <use style="fill:#cc0033;stroke:#cc0033;stroke-linejoin:miter;" x="115.787954" xlink:href="#m6aabedf9b2" y="90.629234"/>
     <use style="fill:#cc0033;stroke:#cc0033;stroke-linejoin:miter;" x="137.439826" xlink:href="#m6aabedf9b2" y="121.997291"/>
     <use style="fill:#cc0033;stroke:#cc0033;stroke-linejoin:miter;" x="159.091698" xlink:href="#m6aabedf9b2" y="121.36839"/>
     <use style="fill:#cc0033;stroke:#cc0033;stroke-linejoin:miter;" x="180.743569" xlink:href="#m6aabedf9b2" y="140.402507"/>
     <use style="fill:#cc0033;stroke:#cc0033;stroke-linejoin:miter;" x="202.395441" xlink:href="#m6aabedf9b2" y="140.402507"/>
     <use style="fill:#cc0033;stroke:#cc0033;stroke-linejoin:miter;" x="224.047313" xlink:href="#m6aabedf9b2" y="166.640886"/>
     <use style="fill:#cc0033;stroke:#cc0033;stroke-linejoin:miter;" x="245.699185" xlink:href="#m6aabedf9b2" y="159.219495"/>
     <use style="fill:#cc0033;stroke:#cc0033;stroke-linejoin:miter;" x="267.351056" xlink:href="#m6aabedf9b2" y="183.97544"/>
     <use style="fill:#cc0033;stroke:#cc0033;stroke-linejoin:miter;" x="289.002928" xlink:href="#m6aabedf9b2" y="177.33904"/>
     <use style="fill:#cc0033;stroke:#cc0033;stroke-linejoin:miter;" x="310.6548" xlink:href="#m6aabedf9b2" y="220.244795"/>
     <use style="fill:#cc0033;stroke:#cc0033;stroke-linejoin:miter;" x="332.306672" xlink:href="#m6aabedf9b2" y="218.082286"/>
     <use style="fill:#cc0033;stroke:#cc0033;stroke-linejoin:miter;" x="353.958543" xlink:href="#m6aabedf9b2" y="234.634828"/>
     <use style="fill:#cc0033;stroke:#cc0033;stroke-linejoin:miter;" x="375.610415" xlink:href="#m6aabedf9b2" y="220.244795"/>
     <use style="fill:#cc0033;stroke:#cc0033;stroke-linejoin:miter;" x="397.262287" xlink:href="#m6aabedf9b2" y="262.785992"/>
     <use style="fill:#cc0033;stroke:#cc0033;stroke-linejoin:miter;" x="418.914159" xlink:href="#m6aabedf9b2" y="262.785992"/>
     <use style="fill:#cc0033;stroke:#cc0033;stroke-linejoin:miter;" x="440.56603" xlink:href="#m6aabedf9b2" y="284.248814"/>
     <use style="fill:#cc0033;stroke:#cc0033;stroke-linejoin:miter;" x="462.217902" xlink:href="#m6aabedf9b2" y="289.342624"/>
     <use style="fill:#cc0033;stroke:#cc0033;stroke-linejoin:miter;" x="483.869774" xlink:href="#m6aabedf9b2" y="306.954601"/>
     <use style="fill:#cc0033;stroke:#cc0033;stroke-linejoin:miter;" x="505.521646" xlink:href="#m6aabedf9b2" y="313.822119"/>
     <use style="fill:#cc0033;stroke:#cc0033;stroke-linejoin:miter;" x="527.173517" xlink:href="#m6aabedf9b2" y="306.954601"/>
     <use style="fill:#cc0033;stroke:#cc0033;stroke-linejoin:miter;" x="548.825389" xlink:href="#m6aabedf9b2" y="349.495798"/>
     <use style="fill:#cc0033;stroke:#cc0033;stroke-linejoin:miter;" x="570.477261" xlink:href="#m6aabedf9b2" y="416.370194"/>
    </g>
   </g>
   <g id="line2d_22">
    <g clip-path="url(#p6e3d0ba632)">
     <use style="fill:#fe0100;stroke:#fe0100;stroke-linejoin:miter;" x="72.484211" xlink:href="#m6a71fa50c1" y="83.338516"/>
     <use style="fill:#fe0100;stroke:#fe0100;stroke-linejoin:miter;" x="90.366825" xlink:href="#m6a71fa50c1" y="92.779958"/>
     <use style="fill:#fe0100;stroke:#fe0100;stroke-linejoin:miter;" x="108.24944" xlink:href="#m6a71fa50c1" y="92.779958"/>
     <use style="fill:#fe0100;stroke:#fe0100;stroke-linejoin:miter;" x="126.132055" xlink:href="#m6a71fa50c1" y="108.135198"/>
     <use style="fill:#fe0100;stroke:#fe0100;stroke-linejoin:miter;" x="144.01467" xlink:href="#m6a71fa50c1" y="118.296926"/>
     <use style="fill:#fe0100;stroke:#fe0100;stroke-linejoin:miter;" x="161.897284" xlink:href="#m6a71fa50c1" y="127.894972"/>
     <use style="fill:#fe0100;stroke:#fe0100;stroke-linejoin:miter;" x="179.779899" xlink:href="#m6a71fa50c1" y="141.2038"/>
     <use style="fill:#fe0100;stroke:#fe0100;stroke-linejoin:miter;" x="197.662514" xlink:href="#m6a71fa50c1" y="152.436345"/>
     <use style="fill:#fe0100;stroke:#fe0100;stroke-linejoin:miter;" x="215.545129" xlink:href="#m6a71fa50c1" y="174.833221"/>
     <use style="fill:#fe0100;stroke:#fe0100;stroke-linejoin:miter;" x="233.427743" xlink:href="#m6a71fa50c1" y="178.622429"/>
     <use style="fill:#fe0100;stroke:#fe0100;stroke-linejoin:miter;" x="251.310358" xlink:href="#m6a71fa50c1" y="202.632819"/>
     <use style="fill:#fe0100;stroke:#fe0100;stroke-linejoin:miter;" x="269.192973" xlink:href="#m6a71fa50c1" y="194.317064"/>
     <use style="fill:#fe0100;stroke:#fe0100;stroke-linejoin:miter;" x="287.075588" xlink:href="#m6a71fa50c1" y="237.310564"/>
     <use style="fill:#fe0100;stroke:#fe0100;stroke-linejoin:miter;" x="304.958202" xlink:href="#m6a71fa50c1" y="227.112313"/>
     <use style="fill:#fe0100;stroke:#fe0100;stroke-linejoin:miter;" x="322.840817" xlink:href="#m6a71fa50c1" y="218.082286"/>
     <use style="fill:#fe0100;stroke:#fe0100;stroke-linejoin:miter;" x="340.723432" xlink:href="#m6a71fa50c1" y="242.950582"/>
     <use style="fill:#fe0100;stroke:#fe0100;stroke-linejoin:miter;" x="358.606047" xlink:href="#m6a71fa50c1" y="242.950582"/>
     <use style="fill:#fe0100;stroke:#fe0100;stroke-linejoin:miter;" x="376.488661" xlink:href="#m6a71fa50c1" y="279.463915"/>
     <use style="fill:#fe0100;stroke:#fe0100;stroke-linejoin:miter;" x="394.371276" xlink:href="#m6a71fa50c1" y="284.248814"/>
     <use style="fill:#fe0100;stroke:#fe0100;stroke-linejoin:miter;" x="412.253891" xlink:href="#m6a71fa50c1" y="270.685246"/>
     <use style="fill:#fe0100;stroke:#fe0100;stroke-linejoin:miter;" x="430.136506" xlink:href="#m6a71fa50c1" y="300.637097"/>
     <use style="fill:#fe0100;stroke:#fe0100;stroke-linejoin:miter;" x="448.019121" xlink:href="#m6a71fa50c1" y="284.248814"/>
     <use style="fill:#fe0100;stroke:#fe0100;stroke-linejoin:miter;" x="465.901735" xlink:href="#m6a71fa50c1" y="284.248814"/>
     <use style="fill:#fe0100;stroke:#fe0100;stroke-linejoin:miter;" x="483.78435" xlink:href="#m6a71fa50c1" y="321.344634"/>
    </g>
   </g>
   <g id="line2d_23">
    <path clip-path="url(#p6e3d0ba632)" d="M 72.484211 81.461133 
L 89.803278 91.492668 
L 107.122346 101.524202 
L 124.441414 111.555737 
L 141.760481 121.587271 
L 159.079549 131.618806 
L 176.398617 141.65034 
L 193.717685 151.681875 
L 211.036752 161.71341 
L 228.35582 171.744944 
L 245.674888 181.776479 
L 262.993956 191.808013 
L 280.313023 201.839548 
L 297.632091 211.871082 
L 314.951159 221.902617 
L 332.270227 231.934151 
L 349.589294 241.965686 
L 366.908362 251.997221 
L 384.22743 262.028755 
L 401.546498 272.06029 
L 418.865565 282.091824 
L 436.184633 292.123359 
L 453.503701 302.154893 
L 470.822769 312.186428 
" style="fill:none;stroke:#3200cd;stroke-linecap:square;stroke-width:2;"/>
   </g>
   <g id="line2d_24">
    <path clip-path="url(#p6e3d0ba632)" d="M 72.484211 90.901926 
L 90.276725 100.253917 
L 108.06924 109.605908 
L 125.861755 118.957898 
L 143.654269 128.309889 
L 161.446784 137.66188 
L 179.239299 147.01387 
L 197.031814 156.365861 
L 214.824328 165.717852 
L 232.616843 175.069843 
L 250.409358 184.421833 
L 268.201873 193.773824 
L 285.994387 203.125815 
L 303.786902 212.477805 
L 321.579417 221.829796 
L 339.371931 231.181787 
L 357.164446 240.533777 
L 374.956961 249.885768 
L 392.749476 259.237759 
L 410.54199 268.58975 
L 428.334505 277.94174 
L 446.12702 287.293731 
L 463.919535 296.645722 
L 481.712049 305.997712 
" style="fill:none;stroke:#660099;stroke-linecap:square;stroke-width:2;"/>
   </g>
   <g id="line2d_25">
    <path clip-path="url(#p6e3d0ba632)" d="M 72.484211 70.008422 
L 92.726877 82.068627 
L 112.969544 94.128832 
L 133.212211 106.189037 
L 153.454878 118.249243 
L 173.697544 130.309448 
L 193.940211 142.369653 
L 214.182878 154.429858 
L 234.425545 166.490063 
L 254.668211 178.550268 
L 274.910878 190.610473 
L 295.153545 202.670679 
L 315.396212 214.730884 
L 335.638878 226.791089 
L 355.881545 238.851294 
L 376.124212 250.911499 
L 396.366879 262.971704 
L 416.609545 275.03191 
L 436.852212 287.092115 
L 457.094879 299.15232 
L 477.337546 311.212525 
L 497.580212 323.27273 
L 517.822879 335.332935 
L 538.065546 347.393141 
" style="fill:none;stroke:#980067;stroke-linecap:square;stroke-width:2;"/>
   </g>
   <g id="line2d_26">
    <path clip-path="url(#p6e3d0ba632)" d="M 72.484211 68.850901 
L 94.136082 81.503533 
L 115.787954 94.156165 
L 137.439826 106.808797 
L 159.091698 119.461429 
L 180.743569 132.11406 
L 202.395441 144.766692 
L 224.047313 157.419324 
L 245.699185 170.071956 
L 267.351056 182.724588 
L 289.002928 195.377219 
L 310.6548 208.029851 
L 332.306672 220.682483 
L 353.958543 233.335115 
L 375.610415 245.987747 
L 397.262287 258.640378 
L 418.914159 271.29301 
L 440.56603 283.945642 
L 462.217902 296.598274 
L 483.869774 309.250906 
L 505.521646 321.903538 
L 527.173517 334.556169 
L 548.825389 347.208801 
L 570.477261 359.861433 
" style="fill:none;stroke:#cc0033;stroke-linecap:square;stroke-width:2;"/>
   </g>
   <g id="line2d_27">
    <path clip-path="url(#p6e3d0ba632)" d="M 72.484211 83.273648 
L 90.366825 93.643168 
L 108.24944 104.012687 
L 126.132055 114.382206 
L 144.01467 124.751725 
L 161.897284 135.121245 
L 179.779899 145.490764 
L 197.662514 155.860283 
L 215.545129 166.229802 
L 233.427743 176.599321 
L 251.310358 186.968841 
L 269.192973 197.33836 
L 287.075588 207.707879 
L 304.958202 218.077398 
L 322.840817 228.446917 
L 340.723432 238.816437 
L 358.606047 249.185956 
L 376.488661 259.555475 
L 394.371276 269.924994 
L 412.253891 280.294514 
L 430.136506 290.664033 
L 448.019121 301.033552 
L 465.901735 311.403071 
L 483.78435 321.77259 
" style="fill:none;stroke:#fe0100;stroke-linecap:square;stroke-width:2;"/>
   </g>
   <g id="patch_3">
    <path d="M 65.54 503.08 
L 65.54 29.52 
" style="fill:none;stroke:#000000;stroke-linecap:square;stroke-linejoin:miter;stroke-width:0.8;"/>
   </g>
   <g id="patch_4">
    <path d="M 535.275 503.08 
L 535.275 29.52 
" style="fill:none;stroke:#000000;stroke-linecap:square;stroke-linejoin:miter;stroke-width:0.8;"/>
   </g>
   <g id="patch_5">
    <path d="M 65.54 503.08 
L 535.275 503.08 
" style="fill:none;stroke:#000000;stroke-linecap:square;stroke-linejoin:miter;stroke-width:0.8;"/>
   </g>
   <g id="patch_6">
    <path d="M 65.54 29.52 
L 535.275 29.52 
" style="fill:none;stroke:#000000;stroke-linecap:square;stroke-linejoin:miter;stroke-width:0.8;"/>
   </g>
   <g id="legend_1">
    <g id="line2d_28">
     <path d="M 357.865625 55.716875 
L 397.865625 55.716875 
" style="fill:none;stroke:#3200cd;stroke-linecap:square;stroke-width:1.5;"/>
    </g>
    <g id="line2d_29">
     <g>
      <use style="fill:#3200cd;stroke:#3200cd;" x="377.865625" xlink:href="#m8589cf00dc" y="55.716875"/>
     </g>
    </g>
    <g id="text_15">
     <!-- p=.5, h=1 -->
     <defs>
      <path d="M 18.109375 8.203125 
L 18.109375 -20.796875 
L 9.078125 -20.796875 
L 9.078125 54.6875 
L 18.109375 54.6875 
L 18.109375 46.390625 
Q 20.953125 51.265625 25.265625 53.625 
Q 29.59375 56 35.59375 56 
Q 45.5625 56 51.78125 48.09375 
Q 58.015625 40.1875 58.015625 27.296875 
Q 58.015625 14.40625 51.78125 6.484375 
Q 45.5625 -1.421875 35.59375 -1.421875 
Q 29.59375 -1.421875 25.265625 0.953125 
Q 20.953125 3.328125 18.109375 8.203125 
z
M 48.6875 27.296875 
Q 48.6875 37.203125 44.609375 42.84375 
Q 40.53125 48.484375 33.40625 48.484375 
Q 26.265625 48.484375 22.1875 42.84375 
Q 18.109375 37.203125 18.109375 27.296875 
Q 18.109375 17.390625 22.1875 11.75 
Q 26.265625 6.109375 33.40625 6.109375 
Q 40.53125 6.109375 44.609375 11.75 
Q 48.6875 17.390625 48.6875 27.296875 
z
" id="DejaVuSans-70"/>
      <path d="M 10.59375 45.40625 
L 73.1875 45.40625 
L 73.1875 37.203125 
L 10.59375 37.203125 
z
M 10.59375 25.484375 
L 73.1875 25.484375 
L 73.1875 17.1875 
L 10.59375 17.1875 
z
" id="DejaVuSans-3d"/>
      <path d="M 10.6875 12.40625 
L 21 12.40625 
L 21 0 
L 10.6875 0 
z
" id="DejaVuSans-2e"/>
      <path d="M 11.71875 12.40625 
L 22.015625 12.40625 
L 22.015625 4 
L 14.015625 -11.625 
L 7.71875 -11.625 
L 11.71875 4 
z
" id="DejaVuSans-2c"/>
      <path d="M 54.890625 33.015625 
L 54.890625 0 
L 45.90625 0 
L 45.90625 32.71875 
Q 45.90625 40.484375 42.875 44.328125 
Q 39.84375 48.1875 33.796875 48.1875 
Q 26.515625 48.1875 22.3125 43.546875 
Q 18.109375 38.921875 18.109375 30.90625 
L 18.109375 0 
L 9.078125 0 
L 9.078125 75.984375 
L 18.109375 75.984375 
L 18.109375 46.1875 
Q 21.34375 51.125 25.703125 53.5625 
Q 30.078125 56 35.796875 56 
Q 45.21875 56 50.046875 50.171875 
Q 54.890625 44.34375 54.890625 33.015625 
z
" id="DejaVuSans-68"/>
     </defs>
     <g transform="translate(413.865625 62.716875)scale(0.2 -0.2)">
      <use xlink:href="#DejaVuSans-70"/>
      <use x="63.476562" xlink:href="#DejaVuSans-3d"/>
      <use x="147.265625" xlink:href="#DejaVuSans-2e"/>
      <use x="179.052734" xlink:href="#DejaVuSans-35"/>
      <use x="242.675781" xlink:href="#DejaVuSans-2c"/>
      <use x="274.462891" xlink:href="#DejaVuSans-20"/>
      <use x="306.25" xlink:href="#DejaVuSans-68"/>
      <use x="369.628906" xlink:href="#DejaVuSans-3d"/>
      <use x="453.417969" xlink:href="#DejaVuSans-31"/>
     </g>
    </g>
    <g id="line2d_30">
     <path d="M 357.865625 85.073125 
L 397.865625 85.073125 
" style="fill:none;stroke:#660099;stroke-linecap:square;stroke-width:1.5;"/>
    </g>
    <g id="line2d_31">
     <g>
      <use style="fill:#660099;stroke:#660099;stroke-linejoin:miter;" x="377.865625" xlink:href="#m36656313c1" y="85.073125"/>
     </g>
    </g>
    <g id="text_16">
     <!-- p=.5, h=2 -->
     <g transform="translate(413.865625 92.073125)scale(0.2 -0.2)">
      <use xlink:href="#DejaVuSans-70"/>
      <use x="63.476562" xlink:href="#DejaVuSans-3d"/>
      <use x="147.265625" xlink:href="#DejaVuSans-2e"/>
      <use x="179.052734" xlink:href="#DejaVuSans-35"/>
      <use x="242.675781" xlink:href="#DejaVuSans-2c"/>
      <use x="274.462891" xlink:href="#DejaVuSans-20"/>
      <use x="306.25" xlink:href="#DejaVuSans-68"/>
      <use x="369.628906" xlink:href="#DejaVuSans-3d"/>
      <use x="453.417969" xlink:href="#DejaVuSans-32"/>
     </g>
    </g>
    <g id="line2d_32">
     <path d="M 357.865625 114.429375 
L 397.865625 114.429375 
" style="fill:none;stroke:#980067;stroke-linecap:square;stroke-width:1.5;"/>
    </g>
    <g id="line2d_33">
     <g>
      <use style="fill:#980067;stroke:#980067;stroke-linejoin:miter;" x="377.865625" xlink:href="#md4a44be8c6" y="114.429375"/>
     </g>
    </g>
    <g id="text_17">
     <!-- p=.5, h=3 -->
     <g transform="translate(413.865625 121.429375)scale(0.2 -0.2)">
      <use xlink:href="#DejaVuSans-70"/>
      <use x="63.476562" xlink:href="#DejaVuSans-3d"/>
      <use x="147.265625" xlink:href="#DejaVuSans-2e"/>
      <use x="179.052734" xlink:href="#DejaVuSans-35"/>
      <use x="242.675781" xlink:href="#DejaVuSans-2c"/>
      <use x="274.462891" xlink:href="#DejaVuSans-20"/>
      <use x="306.25" xlink:href="#DejaVuSans-68"/>
      <use x="369.628906" xlink:href="#DejaVuSans-3d"/>
      <use x="453.417969" xlink:href="#DejaVuSans-33"/>
     </g>
    </g>
    <g id="line2d_34">
     <path d="M 357.865625 143.785625 
L 397.865625 143.785625 
" style="fill:none;stroke:#cc0033;stroke-linecap:square;stroke-width:1.5;"/>
    </g>
    <g id="line2d_35">
     <g>
      <use style="fill:#cc0033;stroke:#cc0033;stroke-linejoin:miter;" x="377.865625" xlink:href="#m6aabedf9b2" y="143.785625"/>
     </g>
    </g>
    <g id="text_18">
     <!-- p=.5, h=4 -->
     <g transform="translate(413.865625 150.785625)scale(0.2 -0.2)">
      <use xlink:href="#DejaVuSans-70"/>
      <use x="63.476562" xlink:href="#DejaVuSans-3d"/>
      <use x="147.265625" xlink:href="#DejaVuSans-2e"/>
      <use x="179.052734" xlink:href="#DejaVuSans-35"/>
      <use x="242.675781" xlink:href="#DejaVuSans-2c"/>
      <use x="274.462891" xlink:href="#DejaVuSans-20"/>
      <use x="306.25" xlink:href="#DejaVuSans-68"/>
      <use x="369.628906" xlink:href="#DejaVuSans-3d"/>
      <use x="453.417969" xlink:href="#DejaVuSans-34"/>
     </g>
    </g>
    <g id="line2d_36">
     <path d="M 357.865625 173.141875 
L 397.865625 173.141875 
" style="fill:none;stroke:#fe0100;stroke-linecap:square;stroke-width:1.5;"/>
    </g>
    <g id="line2d_37">
     <g>
      <use style="fill:#fe0100;stroke:#fe0100;stroke-linejoin:miter;" x="377.865625" xlink:href="#m6a71fa50c1" y="173.141875"/>
     </g>
    </g>
    <g id="text_19">
     <!-- p=.5, h=5 -->
     <g transform="translate(413.865625 180.141875)scale(0.2 -0.2)">
      <use xlink:href="#DejaVuSans-70"/>
      <use x="63.476562" xlink:href="#DejaVuSans-3d"/>
      <use x="147.265625" xlink:href="#DejaVuSans-2e"/>
      <use x="179.052734" xlink:href="#DejaVuSans-35"/>
      <use x="242.675781" xlink:href="#DejaVuSans-2c"/>
      <use x="274.462891" xlink:href="#DejaVuSans-20"/>
      <use x="306.25" xlink:href="#DejaVuSans-68"/>
      <use x="369.628906" xlink:href="#DejaVuSans-3d"/>
      <use x="453.417969" xlink:href="#DejaVuSans-35"/>
     </g>
    </g>
   </g>
  </g>
 </g>
 <defs>
  <clipPath id="p6e3d0ba632">
   <rect height="473.56" width="469.735" x="65.54" y="29.52"/>
  </clipPath>
 </defs>
</svg>
