<?xml version="1.0" encoding="utf-8" standalone="no"?>
<!DOCTYPE svg PUBLIC "-//W3C//DTD SVG 1.1//EN"
  "http://www.w3.org/Graphics/SVG/1.1/DTD/svg11.dtd">
<!-- Created with matplotlib (https://matplotlib.org/) -->
<svg height="576pt" version="1.1" viewBox="0 0 576 576" width="576pt" xmlns="http://www.w3.org/2000/svg" xmlns:xlink="http://www.w3.org/1999/xlink">
 <defs>
  <style type="text/css">
*{stroke-linecap:butt;stroke-linejoin:round;}
  </style>
 </defs>
 <g id="figure_1">
  <g id="patch_1">
   <path d="M 0 576 
L 576 576 
L 576 0 
L 0 0 
z
" style="fill:#ffffff;"/>
  </g>
  <g id="axes_1">
   <g id="patch_2">
    <path d="M 78.23 503.08 
L 535.275 503.08 
L 535.275 29.52 
L 78.23 29.52 
z
" style="fill:#ffffff;"/>
   </g>
   <g id="matplotlib.axis_1">
    <g id="xtick_1">
     <g id="line2d_1">
      <defs>
       <path d="M 0 0 
L 0 3.5 
" id="m66cdcd731d" style="stroke:#000000;stroke-width:0.8;"/>
      </defs>
      <g>
       <use style="stroke:#000000;stroke-width:0.8;" x="89.377439" xlink:href="#m66cdcd731d" y="503.08"/>
      </g>
     </g>
     <g id="text_1">
      <!-- 0 -->
      <defs>
       <path d="M 31.78125 66.40625 
Q 24.171875 66.40625 20.328125 58.90625 
Q 16.5 51.421875 16.5 36.375 
Q 16.5 21.390625 20.328125 13.890625 
Q 24.171875 6.390625 31.78125 6.390625 
Q 39.453125 6.390625 43.28125 13.890625 
Q 47.125 21.390625 47.125 36.375 
Q 47.125 51.421875 43.28125 58.90625 
Q 39.453125 66.40625 31.78125 66.40625 
z
M 31.78125 74.21875 
Q 44.046875 74.21875 50.515625 64.515625 
Q 56.984375 54.828125 56.984375 36.375 
Q 56.984375 17.96875 50.515625 8.265625 
Q 44.046875 -1.421875 31.78125 -1.421875 
Q 19.53125 -1.421875 13.0625 8.265625 
Q 6.59375 17.96875 6.59375 36.375 
Q 6.59375 54.828125 13.0625 64.515625 
Q 19.53125 74.21875 31.78125 74.21875 
z
" id="DejaVuSans-48"/>
      </defs>
      <g transform="translate(83.014939 525.276875)scale(0.2 -0.2)">
       <use xlink:href="#DejaVuSans-48"/>
      </g>
     </g>
    </g>
    <g id="xtick_2">
     <g id="line2d_2">
      <g>
       <use style="stroke:#000000;stroke-width:0.8;" x="200.851829" xlink:href="#m66cdcd731d" y="503.08"/>
      </g>
     </g>
     <g id="text_2">
      <!-- 50 -->
      <defs>
       <path d="M 10.796875 72.90625 
L 49.515625 72.90625 
L 49.515625 64.59375 
L 19.828125 64.59375 
L 19.828125 46.734375 
Q 21.96875 47.46875 24.109375 47.828125 
Q 26.265625 48.1875 28.421875 48.1875 
Q 40.625 48.1875 47.75 41.5 
Q 54.890625 34.8125 54.890625 23.390625 
Q 54.890625 11.625 47.5625 5.09375 
Q 40.234375 -1.421875 26.90625 -1.421875 
Q 22.3125 -1.421875 17.546875 -0.640625 
Q 12.796875 0.140625 7.71875 1.703125 
L 7.71875 11.625 
Q 12.109375 9.234375 16.796875 8.0625 
Q 21.484375 6.890625 26.703125 6.890625 
Q 35.15625 6.890625 40.078125 11.328125 
Q 45.015625 15.765625 45.015625 23.390625 
Q 45.015625 31 40.078125 35.4375 
Q 35.15625 39.890625 26.703125 39.890625 
Q 22.75 39.890625 18.8125 39.015625 
Q 14.890625 38.140625 10.796875 36.28125 
z
" id="DejaVuSans-53"/>
      </defs>
      <g transform="translate(188.126829 525.276875)scale(0.2 -0.2)">
       <use xlink:href="#DejaVuSans-53"/>
       <use x="63.623047" xlink:href="#DejaVuSans-48"/>
      </g>
     </g>
    </g>
    <g id="xtick_3">
     <g id="line2d_3">
      <g>
       <use style="stroke:#000000;stroke-width:0.8;" x="312.32622" xlink:href="#m66cdcd731d" y="503.08"/>
      </g>
     </g>
     <g id="text_3">
      <!-- 100 -->
      <defs>
       <path d="M 12.40625 8.296875 
L 28.515625 8.296875 
L 28.515625 63.921875 
L 10.984375 60.40625 
L 10.984375 69.390625 
L 28.421875 72.90625 
L 38.28125 72.90625 
L 38.28125 8.296875 
L 54.390625 8.296875 
L 54.390625 0 
L 12.40625 0 
z
" id="DejaVuSans-49"/>
      </defs>
      <g transform="translate(293.23872 525.276875)scale(0.2 -0.2)">
       <use xlink:href="#DejaVuSans-49"/>
       <use x="63.623047" xlink:href="#DejaVuSans-48"/>
       <use x="127.246094" xlink:href="#DejaVuSans-48"/>
      </g>
     </g>
    </g>
    <g id="xtick_4">
     <g id="line2d_4">
      <g>
       <use style="stroke:#000000;stroke-width:0.8;" x="423.80061" xlink:href="#m66cdcd731d" y="503.08"/>
      </g>
     </g>
     <g id="text_4">
      <!-- 150 -->
      <g transform="translate(404.71311 525.276875)scale(0.2 -0.2)">
       <use xlink:href="#DejaVuSans-49"/>
       <use x="63.623047" xlink:href="#DejaVuSans-53"/>
       <use x="127.246094" xlink:href="#DejaVuSans-48"/>
      </g>
     </g>
    </g>
    <g id="xtick_5">
     <g id="line2d_5">
      <g>
       <use style="stroke:#000000;stroke-width:0.8;" x="535.275" xlink:href="#m66cdcd731d" y="503.08"/>
      </g>
     </g>
     <g id="text_5">
      <!-- 200 -->
      <defs>
       <path d="M 19.1875 8.296875 
L 53.609375 8.296875 
L 53.609375 0 
L 7.328125 0 
L 7.328125 8.296875 
Q 12.9375 14.109375 22.625 23.890625 
Q 32.328125 33.6875 34.8125 36.53125 
Q 39.546875 41.84375 41.421875 45.53125 
Q 43.3125 49.21875 43.3125 52.78125 
Q 43.3125 58.59375 39.234375 62.25 
Q 35.15625 65.921875 28.609375 65.921875 
Q 23.96875 65.921875 18.8125 64.3125 
Q 13.671875 62.703125 7.8125 59.421875 
L 7.8125 69.390625 
Q 13.765625 71.78125 18.9375 73 
Q 24.125 74.21875 28.421875 74.21875 
Q 39.75 74.21875 46.484375 68.546875 
Q 53.21875 62.890625 53.21875 53.421875 
Q 53.21875 48.921875 51.53125 44.890625 
Q 49.859375 40.875 45.40625 35.40625 
Q 44.1875 33.984375 37.640625 27.21875 
Q 31.109375 20.453125 19.1875 8.296875 
z
" id="DejaVuSans-50"/>
      </defs>
      <g transform="translate(516.1875 525.276875)scale(0.2 -0.2)">
       <use xlink:href="#DejaVuSans-50"/>
       <use x="63.623047" xlink:href="#DejaVuSans-48"/>
       <use x="127.246094" xlink:href="#DejaVuSans-48"/>
      </g>
     </g>
    </g>
    <g id="text_6">
     <!-- 1000 generations -->
     <defs>
      <path id="DejaVuSans-32"/>
      <path d="M 45.40625 27.984375 
Q 45.40625 37.75 41.375 43.109375 
Q 37.359375 48.484375 30.078125 48.484375 
Q 22.859375 48.484375 18.828125 43.109375 
Q 14.796875 37.75 14.796875 27.984375 
Q 14.796875 18.265625 18.828125 12.890625 
Q 22.859375 7.515625 30.078125 7.515625 
Q 37.359375 7.515625 41.375 12.890625 
Q 45.40625 18.265625 45.40625 27.984375 
z
M 54.390625 6.78125 
Q 54.390625 -7.171875 48.1875 -13.984375 
Q 42 -20.796875 29.203125 -20.796875 
Q 24.46875 -20.796875 20.265625 -20.09375 
Q 16.0625 -19.390625 12.109375 -17.921875 
L 12.109375 -9.1875 
Q 16.0625 -11.328125 19.921875 -12.34375 
Q 23.78125 -13.375 27.78125 -13.375 
Q 36.625 -13.375 41.015625 -8.765625 
Q 45.40625 -4.15625 45.40625 5.171875 
L 45.40625 9.625 
Q 42.625 4.78125 38.28125 2.390625 
Q 33.9375 0 27.875 0 
Q 17.828125 0 11.671875 7.65625 
Q 5.515625 15.328125 5.515625 27.984375 
Q 5.515625 40.671875 11.671875 48.328125 
Q 17.828125 56 27.875 56 
Q 33.9375 56 38.28125 53.609375 
Q 42.625 51.21875 45.40625 46.390625 
L 45.40625 54.6875 
L 54.390625 54.6875 
z
" id="DejaVuSans-103"/>
      <path d="M 56.203125 29.59375 
L 56.203125 25.203125 
L 14.890625 25.203125 
Q 15.484375 15.921875 20.484375 11.0625 
Q 25.484375 6.203125 34.421875 6.203125 
Q 39.59375 6.203125 44.453125 7.46875 
Q 49.3125 8.734375 54.109375 11.28125 
L 54.109375 2.78125 
Q 49.265625 0.734375 44.1875 -0.34375 
Q 39.109375 -1.421875 33.890625 -1.421875 
Q 20.796875 -1.421875 13.15625 6.1875 
Q 5.515625 13.8125 5.515625 26.8125 
Q 5.515625 40.234375 12.765625 48.109375 
Q 20.015625 56 32.328125 56 
Q 43.359375 56 49.78125 48.890625 
Q 56.203125 41.796875 56.203125 29.59375 
z
M 47.21875 32.234375 
Q 47.125 39.59375 43.09375 43.984375 
Q 39.0625 48.390625 32.421875 48.390625 
Q 24.90625 48.390625 20.390625 44.140625 
Q 15.875 39.890625 15.1875 32.171875 
z
" id="DejaVuSans-101"/>
      <path d="M 54.890625 33.015625 
L 54.890625 0 
L 45.90625 0 
L 45.90625 32.71875 
Q 45.90625 40.484375 42.875 44.328125 
Q 39.84375 48.1875 33.796875 48.1875 
Q 26.515625 48.1875 22.3125 43.546875 
Q 18.109375 38.921875 18.109375 30.90625 
L 18.109375 0 
L 9.078125 0 
L 9.078125 54.6875 
L 18.109375 54.6875 
L 18.109375 46.1875 
Q 21.34375 51.125 25.703125 53.5625 
Q 30.078125 56 35.796875 56 
Q 45.21875 56 50.046875 50.171875 
Q 54.890625 44.34375 54.890625 33.015625 
z
" id="DejaVuSans-110"/>
      <path d="M 41.109375 46.296875 
Q 39.59375 47.171875 37.8125 47.578125 
Q 36.03125 48 33.890625 48 
Q 26.265625 48 22.1875 43.046875 
Q 18.109375 38.09375 18.109375 28.8125 
L 18.109375 0 
L 9.078125 0 
L 9.078125 54.6875 
L 18.109375 54.6875 
L 18.109375 46.1875 
Q 20.953125 51.171875 25.484375 53.578125 
Q 30.03125 56 36.53125 56 
Q 37.453125 56 38.578125 55.875 
Q 39.703125 55.765625 41.0625 55.515625 
z
" id="DejaVuSans-114"/>
      <path d="M 34.28125 27.484375 
Q 23.390625 27.484375 19.1875 25 
Q 14.984375 22.515625 14.984375 16.5 
Q 14.984375 11.71875 18.140625 8.90625 
Q 21.296875 6.109375 26.703125 6.109375 
Q 34.1875 6.109375 38.703125 11.40625 
Q 43.21875 16.703125 43.21875 25.484375 
L 43.21875 27.484375 
z
M 52.203125 31.203125 
L 52.203125 0 
L 43.21875 0 
L 43.21875 8.296875 
Q 40.140625 3.328125 35.546875 0.953125 
Q 30.953125 -1.421875 24.3125 -1.421875 
Q 15.921875 -1.421875 10.953125 3.296875 
Q 6 8.015625 6 15.921875 
Q 6 25.140625 12.171875 29.828125 
Q 18.359375 34.515625 30.609375 34.515625 
L 43.21875 34.515625 
L 43.21875 35.40625 
Q 43.21875 41.609375 39.140625 45 
Q 35.0625 48.390625 27.6875 48.390625 
Q 23 48.390625 18.546875 47.265625 
Q 14.109375 46.140625 10.015625 43.890625 
L 10.015625 52.203125 
Q 14.9375 54.109375 19.578125 55.046875 
Q 24.21875 56 28.609375 56 
Q 40.484375 56 46.34375 49.84375 
Q 52.203125 43.703125 52.203125 31.203125 
z
" id="DejaVuSans-97"/>
      <path d="M 18.3125 70.21875 
L 18.3125 54.6875 
L 36.8125 54.6875 
L 36.8125 47.703125 
L 18.3125 47.703125 
L 18.3125 18.015625 
Q 18.3125 11.328125 20.140625 9.421875 
Q 21.96875 7.515625 27.59375 7.515625 
L 36.8125 7.515625 
L 36.8125 0 
L 27.59375 0 
Q 17.1875 0 13.234375 3.875 
Q 9.28125 7.765625 9.28125 18.015625 
L 9.28125 47.703125 
L 2.6875 47.703125 
L 2.6875 54.6875 
L 9.28125 54.6875 
L 9.28125 70.21875 
z
" id="DejaVuSans-116"/>
      <path d="M 9.421875 54.6875 
L 18.40625 54.6875 
L 18.40625 0 
L 9.421875 0 
z
M 9.421875 75.984375 
L 18.40625 75.984375 
L 18.40625 64.59375 
L 9.421875 64.59375 
z
" id="DejaVuSans-105"/>
      <path d="M 30.609375 48.390625 
Q 23.390625 48.390625 19.1875 42.75 
Q 14.984375 37.109375 14.984375 27.296875 
Q 14.984375 17.484375 19.15625 11.84375 
Q 23.34375 6.203125 30.609375 6.203125 
Q 37.796875 6.203125 41.984375 11.859375 
Q 46.1875 17.53125 46.1875 27.296875 
Q 46.1875 37.015625 41.984375 42.703125 
Q 37.796875 48.390625 30.609375 48.390625 
z
M 30.609375 56 
Q 42.328125 56 49.015625 48.375 
Q 55.71875 40.765625 55.71875 27.296875 
Q 55.71875 13.875 49.015625 6.21875 
Q 42.328125 -1.421875 30.609375 -1.421875 
Q 18.84375 -1.421875 12.171875 6.21875 
Q 5.515625 13.875 5.515625 27.296875 
Q 5.515625 40.765625 12.171875 48.375 
Q 18.84375 56 30.609375 56 
z
" id="DejaVuSans-111"/>
      <path d="M 44.28125 53.078125 
L 44.28125 44.578125 
Q 40.484375 46.53125 36.375 47.5 
Q 32.28125 48.484375 27.875 48.484375 
Q 21.1875 48.484375 17.84375 46.4375 
Q 14.5 44.390625 14.5 40.28125 
Q 14.5 37.15625 16.890625 35.375 
Q 19.28125 33.59375 26.515625 31.984375 
L 29.59375 31.296875 
Q 39.15625 29.25 43.1875 25.515625 
Q 47.21875 21.78125 47.21875 15.09375 
Q 47.21875 7.46875 41.1875 3.015625 
Q 35.15625 -1.421875 24.609375 -1.421875 
Q 20.21875 -1.421875 15.453125 -0.5625 
Q 10.6875 0.296875 5.421875 2 
L 5.421875 11.28125 
Q 10.40625 8.6875 15.234375 7.390625 
Q 20.0625 6.109375 24.8125 6.109375 
Q 31.15625 6.109375 34.5625 8.28125 
Q 37.984375 10.453125 37.984375 14.40625 
Q 37.984375 18.0625 35.515625 20.015625 
Q 33.0625 21.96875 24.703125 23.78125 
L 21.578125 24.515625 
Q 13.234375 26.265625 9.515625 29.90625 
Q 5.8125 33.546875 5.8125 39.890625 
Q 5.8125 47.609375 11.28125 51.796875 
Q 16.75 56 26.8125 56 
Q 31.78125 56 36.171875 55.265625 
Q 40.578125 54.546875 44.28125 53.078125 
z
" id="DejaVuSans-115"/>
     </defs>
     <g transform="translate(218.529063 548.633125)scale(0.2 -0.2)">
      <use xlink:href="#DejaVuSans-49"/>
      <use x="63.623047" xlink:href="#DejaVuSans-48"/>
      <use x="127.246094" xlink:href="#DejaVuSans-48"/>
      <use x="190.869141" xlink:href="#DejaVuSans-48"/>
      <use x="254.492188" xlink:href="#DejaVuSans-32"/>
      <use x="286.279297" xlink:href="#DejaVuSans-103"/>
      <use x="349.755859" xlink:href="#DejaVuSans-101"/>
      <use x="411.279297" xlink:href="#DejaVuSans-110"/>
      <use x="474.658203" xlink:href="#DejaVuSans-101"/>
      <use x="536.181641" xlink:href="#DejaVuSans-114"/>
      <use x="577.294922" xlink:href="#DejaVuSans-97"/>
      <use x="638.574219" xlink:href="#DejaVuSans-116"/>
      <use x="677.783203" xlink:href="#DejaVuSans-105"/>
      <use x="705.566406" xlink:href="#DejaVuSans-111"/>
      <use x="766.748047" xlink:href="#DejaVuSans-110"/>
      <use x="830.126953" xlink:href="#DejaVuSans-115"/>
     </g>
    </g>
   </g>
   <g id="matplotlib.axis_2">
    <g id="ytick_1">
     <g id="line2d_6">
      <defs>
       <path d="M 0 0 
L -3.5 0 
" id="mbfd715d77b" style="stroke:#000000;stroke-width:0.8;"/>
      </defs>
      <g>
       <use style="stroke:#000000;stroke-width:0.8;" x="78.23" xlink:href="#mbfd715d77b" y="503.08"/>
      </g>
     </g>
     <g id="text_7">
      <!-- 0 -->
      <g transform="translate(58.505 510.678437)scale(0.2 -0.2)">
       <use xlink:href="#DejaVuSans-48"/>
      </g>
     </g>
    </g>
    <g id="ytick_2">
     <g id="line2d_7">
      <g>
       <use style="stroke:#000000;stroke-width:0.8;" x="78.23" xlink:href="#mbfd715d77b" y="408.368"/>
      </g>
     </g>
     <g id="text_8">
      <!-- 2 -->
      <g transform="translate(58.505 415.966437)scale(0.2 -0.2)">
       <use xlink:href="#DejaVuSans-50"/>
      </g>
     </g>
    </g>
    <g id="ytick_3">
     <g id="line2d_8">
      <g>
       <use style="stroke:#000000;stroke-width:0.8;" x="78.23" xlink:href="#mbfd715d77b" y="313.656"/>
      </g>
     </g>
     <g id="text_9">
      <!-- 4 -->
      <defs>
       <path d="M 37.796875 64.3125 
L 12.890625 25.390625 
L 37.796875 25.390625 
z
M 35.203125 72.90625 
L 47.609375 72.90625 
L 47.609375 25.390625 
L 58.015625 25.390625 
L 58.015625 17.1875 
L 47.609375 17.1875 
L 47.609375 0 
L 37.796875 0 
L 37.796875 17.1875 
L 4.890625 17.1875 
L 4.890625 26.703125 
z
" id="DejaVuSans-52"/>
      </defs>
      <g transform="translate(58.505 321.254437)scale(0.2 -0.2)">
       <use xlink:href="#DejaVuSans-52"/>
      </g>
     </g>
    </g>
    <g id="ytick_4">
     <g id="line2d_9">
      <g>
       <use style="stroke:#000000;stroke-width:0.8;" x="78.23" xlink:href="#mbfd715d77b" y="218.944"/>
      </g>
     </g>
     <g id="text_10">
      <!-- 6 -->
      <defs>
       <path d="M 33.015625 40.375 
Q 26.375 40.375 22.484375 35.828125 
Q 18.609375 31.296875 18.609375 23.390625 
Q 18.609375 15.53125 22.484375 10.953125 
Q 26.375 6.390625 33.015625 6.390625 
Q 39.65625 6.390625 43.53125 10.953125 
Q 47.40625 15.53125 47.40625 23.390625 
Q 47.40625 31.296875 43.53125 35.828125 
Q 39.65625 40.375 33.015625 40.375 
z
M 52.59375 71.296875 
L 52.59375 62.3125 
Q 48.875 64.0625 45.09375 64.984375 
Q 41.3125 65.921875 37.59375 65.921875 
Q 27.828125 65.921875 22.671875 59.328125 
Q 17.53125 52.734375 16.796875 39.40625 
Q 19.671875 43.65625 24.015625 45.921875 
Q 28.375 48.1875 33.59375 48.1875 
Q 44.578125 48.1875 50.953125 41.515625 
Q 57.328125 34.859375 57.328125 23.390625 
Q 57.328125 12.15625 50.6875 5.359375 
Q 44.046875 -1.421875 33.015625 -1.421875 
Q 20.359375 -1.421875 13.671875 8.265625 
Q 6.984375 17.96875 6.984375 36.375 
Q 6.984375 53.65625 15.1875 63.9375 
Q 23.390625 74.21875 37.203125 74.21875 
Q 40.921875 74.21875 44.703125 73.484375 
Q 48.484375 72.75 52.59375 71.296875 
z
" id="DejaVuSans-54"/>
      </defs>
      <g transform="translate(58.505 226.542437)scale(0.2 -0.2)">
       <use xlink:href="#DejaVuSans-54"/>
      </g>
     </g>
    </g>
    <g id="ytick_5">
     <g id="line2d_10">
      <g>
       <use style="stroke:#000000;stroke-width:0.8;" x="78.23" xlink:href="#mbfd715d77b" y="124.232"/>
      </g>
     </g>
     <g id="text_11">
      <!-- 8 -->
      <defs>
       <path d="M 31.78125 34.625 
Q 24.75 34.625 20.71875 30.859375 
Q 16.703125 27.09375 16.703125 20.515625 
Q 16.703125 13.921875 20.71875 10.15625 
Q 24.75 6.390625 31.78125 6.390625 
Q 38.8125 6.390625 42.859375 10.171875 
Q 46.921875 13.96875 46.921875 20.515625 
Q 46.921875 27.09375 42.890625 30.859375 
Q 38.875 34.625 31.78125 34.625 
z
M 21.921875 38.8125 
Q 15.578125 40.375 12.03125 44.71875 
Q 8.5 49.078125 8.5 55.328125 
Q 8.5 64.0625 14.71875 69.140625 
Q 20.953125 74.21875 31.78125 74.21875 
Q 42.671875 74.21875 48.875 69.140625 
Q 55.078125 64.0625 55.078125 55.328125 
Q 55.078125 49.078125 51.53125 44.71875 
Q 48 40.375 41.703125 38.8125 
Q 48.828125 37.15625 52.796875 32.3125 
Q 56.78125 27.484375 56.78125 20.515625 
Q 56.78125 9.90625 50.3125 4.234375 
Q 43.84375 -1.421875 31.78125 -1.421875 
Q 19.734375 -1.421875 13.25 4.234375 
Q 6.78125 9.90625 6.78125 20.515625 
Q 6.78125 27.484375 10.78125 32.3125 
Q 14.796875 37.15625 21.921875 38.8125 
z
M 18.3125 54.390625 
Q 18.3125 48.734375 21.84375 45.5625 
Q 25.390625 42.390625 31.78125 42.390625 
Q 38.140625 42.390625 41.71875 45.5625 
Q 45.3125 48.734375 45.3125 54.390625 
Q 45.3125 60.0625 41.71875 63.234375 
Q 38.140625 66.40625 31.78125 66.40625 
Q 25.390625 66.40625 21.84375 63.234375 
Q 18.3125 60.0625 18.3125 54.390625 
z
" id="DejaVuSans-56"/>
      </defs>
      <g transform="translate(58.505 131.830437)scale(0.2 -0.2)">
       <use xlink:href="#DejaVuSans-56"/>
      </g>
     </g>
    </g>
    <g id="ytick_6">
     <g id="line2d_11">
      <g>
       <use style="stroke:#000000;stroke-width:0.8;" x="78.23" xlink:href="#mbfd715d77b" y="29.52"/>
      </g>
     </g>
     <g id="text_12">
      <!-- 10 -->
      <g transform="translate(45.78 37.118438)scale(0.2 -0.2)">
       <use xlink:href="#DejaVuSans-49"/>
       <use x="63.623047" xlink:href="#DejaVuSans-48"/>
      </g>
     </g>
    </g>
    <g id="text_13">
     <!-- log (evolutions) -->
     <defs>
      <path d="M 9.421875 75.984375 
L 18.40625 75.984375 
L 18.40625 0 
L 9.421875 0 
z
" id="DejaVuSans-108"/>
      <path d="M 31 75.875 
Q 24.46875 64.65625 21.28125 53.65625 
Q 18.109375 42.671875 18.109375 31.390625 
Q 18.109375 20.125 21.3125 9.0625 
Q 24.515625 -2 31 -13.1875 
L 23.1875 -13.1875 
Q 15.875 -1.703125 12.234375 9.375 
Q 8.59375 20.453125 8.59375 31.390625 
Q 8.59375 42.28125 12.203125 53.3125 
Q 15.828125 64.359375 23.1875 75.875 
z
" id="DejaVuSans-40"/>
      <path d="M 2.984375 54.6875 
L 12.5 54.6875 
L 29.59375 8.796875 
L 46.6875 54.6875 
L 56.203125 54.6875 
L 35.6875 0 
L 23.484375 0 
z
" id="DejaVuSans-118"/>
      <path d="M 8.5 21.578125 
L 8.5 54.6875 
L 17.484375 54.6875 
L 17.484375 21.921875 
Q 17.484375 14.15625 20.5 10.265625 
Q 23.53125 6.390625 29.59375 6.390625 
Q 36.859375 6.390625 41.078125 11.03125 
Q 45.3125 15.671875 45.3125 23.6875 
L 45.3125 54.6875 
L 54.296875 54.6875 
L 54.296875 0 
L 45.3125 0 
L 45.3125 8.40625 
Q 42.046875 3.421875 37.71875 1 
Q 33.40625 -1.421875 27.6875 -1.421875 
Q 18.265625 -1.421875 13.375 4.4375 
Q 8.5 10.296875 8.5 21.578125 
z
M 31.109375 56 
z
" id="DejaVuSans-117"/>
      <path d="M 8.015625 75.875 
L 15.828125 75.875 
Q 23.140625 64.359375 26.78125 53.3125 
Q 30.421875 42.28125 30.421875 31.390625 
Q 30.421875 20.453125 26.78125 9.375 
Q 23.140625 -1.703125 15.828125 -13.1875 
L 8.015625 -13.1875 
Q 14.5 -2 17.703125 9.0625 
Q 20.90625 20.125 20.90625 31.390625 
Q 20.90625 42.671875 17.703125 53.65625 
Q 14.5 64.65625 8.015625 75.875 
z
" id="DejaVuSans-41"/>
     </defs>
     <g transform="translate(37.620625 344.196875)rotate(-90)scale(0.2 -0.2)">
      <use xlink:href="#DejaVuSans-108"/>
      <use x="27.783203" xlink:href="#DejaVuSans-111"/>
      <use x="88.964844" xlink:href="#DejaVuSans-103"/>
      <use x="152.441406" xlink:href="#DejaVuSans-32"/>
      <use x="184.228516" xlink:href="#DejaVuSans-40"/>
      <use x="223.242188" xlink:href="#DejaVuSans-101"/>
      <use x="284.765625" xlink:href="#DejaVuSans-118"/>
      <use x="343.945312" xlink:href="#DejaVuSans-111"/>
      <use x="405.126953" xlink:href="#DejaVuSans-108"/>
      <use x="432.910156" xlink:href="#DejaVuSans-117"/>
      <use x="496.289062" xlink:href="#DejaVuSans-116"/>
      <use x="535.498047" xlink:href="#DejaVuSans-105"/>
      <use x="563.28125" xlink:href="#DejaVuSans-111"/>
      <use x="624.462891" xlink:href="#DejaVuSans-110"/>
      <use x="687.841797" xlink:href="#DejaVuSans-115"/>
      <use x="739.941406" xlink:href="#DejaVuSans-41"/>
     </g>
    </g>
   </g>
   <g id="line2d_12">
    <path clip-path="url(#pe481b7392d)" d="M 89.379669 13.501713 
" style="fill:none;stroke:#3200cd;stroke-linecap:square;stroke-width:1.5;"/>
    <defs>
     <path d="M 0 4.5 
C 1.193414 4.5 2.338109 4.025852 3.181981 3.181981 
C 4.025852 2.338109 4.5 1.193414 4.5 0 
C 4.5 -1.193414 4.025852 -2.338109 3.181981 -3.181981 
C 2.338109 -4.025852 1.193414 -4.5 0 -4.5 
C -1.193414 -4.5 -2.338109 -4.025852 -3.181981 -3.181981 
C -4.025852 -2.338109 -4.5 -1.193414 -4.5 0 
C -4.5 1.193414 -4.025852 2.338109 -3.181981 3.181981 
C -2.338109 4.025852 -1.193414 4.5 0 4.5 
z
" id="m6de2c80a2c" style="stroke:#3200cd;"/>
    </defs>
    <g clip-path="url(#pe481b7392d)">
     <use style="fill:#3200cd;stroke:#3200cd;" x="89.379669" xlink:href="#m6de2c80a2c" y="13.501713"/>
    </g>
   </g>
   <g id="line2d_13">
    <path clip-path="url(#pe481b7392d)" d="M 89.379669 148.836837 
" style="fill:none;stroke:#660099;stroke-linecap:square;stroke-width:1.5;"/>
    <defs>
     <path d="M -4.5 4.5 
L 4.5 4.5 
L 4.5 -4.5 
L -4.5 -4.5 
z
" id="m04a8d155c2" style="stroke:#660099;stroke-linejoin:miter;"/>
    </defs>
    <g clip-path="url(#pe481b7392d)">
     <use style="fill:#660099;stroke:#660099;stroke-linejoin:miter;" x="89.379669" xlink:href="#m04a8d155c2" y="148.836837"/>
    </g>
   </g>
   <g id="line2d_14">
    <path clip-path="url(#pe481b7392d)" d="M 89.379669 167.322321 
" style="fill:none;stroke:#980067;stroke-linecap:square;stroke-width:1.5;"/>
    <defs>
     <path d="M -0 4.5 
L 4.5 -4.5 
L -4.5 -4.5 
z
" id="m8479e3e0b7" style="stroke:#980067;stroke-linejoin:miter;"/>
    </defs>
    <g clip-path="url(#pe481b7392d)">
     <use style="fill:#980067;stroke:#980067;stroke-linejoin:miter;" x="89.379669" xlink:href="#m8479e3e0b7" y="167.322321"/>
    </g>
   </g>
   <g id="line2d_15">
    <path clip-path="url(#pe481b7392d)" d="M 89.379669 218.99436 
" style="fill:none;stroke:#cc0033;stroke-linecap:square;stroke-width:1.5;"/>
    <defs>
     <path d="M 0 -4.5 
L -4.5 4.5 
L 4.5 4.5 
z
" id="m83a229d762" style="stroke:#cc0033;stroke-linejoin:miter;"/>
    </defs>
    <g clip-path="url(#pe481b7392d)">
     <use style="fill:#cc0033;stroke:#cc0033;stroke-linejoin:miter;" x="89.379669" xlink:href="#m83a229d762" y="218.99436"/>
    </g>
   </g>
   <g id="line2d_16">
    <path clip-path="url(#pe481b7392d)" d="M 89.379669 327.220081 
" style="fill:none;stroke:#fe0100;stroke-linecap:square;stroke-width:1.5;"/>
    <defs>
     <path d="M 0 -4.5 
L -3.897114 -2.25 
L -3.897114 2.25 
L -0 4.5 
L 3.897114 2.25 
L 3.897114 -2.25 
z
" id="mefe6f212ab" style="stroke:#fe0100;stroke-linejoin:miter;"/>
    </defs>
    <g clip-path="url(#pe481b7392d)">
     <use style="fill:#fe0100;stroke:#fe0100;stroke-linejoin:miter;" x="89.379669" xlink:href="#mefe6f212ab" y="327.220081"/>
    </g>
   </g>
   <g id="line2d_17">
    <g clip-path="url(#pe481b7392d)">
     <use style="fill:#3200cd;stroke:#3200cd;" x="89.379669" xlink:href="#m6de2c80a2c" y="13.501713"/>
     <use style="fill:#3200cd;stroke:#3200cd;" x="103.61518" xlink:href="#m6de2c80a2c" y="141.662962"/>
     <use style="fill:#3200cd;stroke:#3200cd;" x="117.850692" xlink:href="#m6de2c80a2c" y="218.0635"/>
     <use style="fill:#3200cd;stroke:#3200cd;" x="132.086204" xlink:href="#m6de2c80a2c" y="240.114046"/>
     <use style="fill:#3200cd;stroke:#3200cd;" x="146.321716" xlink:href="#m6de2c80a2c" y="286.439987"/>
     <use style="fill:#3200cd;stroke:#3200cd;" x="160.557228" xlink:href="#m6de2c80a2c" y="348.78958"/>
     <use style="fill:#3200cd;stroke:#3200cd;" x="174.79274" xlink:href="#m6de2c80a2c" y="322.811691"/>
     <use style="fill:#3200cd;stroke:#3200cd;" x="189.028252" xlink:href="#m6de2c80a2c" y="385.404761"/>
     <use style="fill:#3200cd;stroke:#3200cd;" x="203.263763" xlink:href="#m6de2c80a2c" y="358.903595"/>
     <use style="fill:#3200cd;stroke:#3200cd;" x="217.499275" xlink:href="#m6de2c80a2c" y="503.08"/>
     <use style="fill:#3200cd;stroke:#3200cd;" x="231.734787" xlink:href="#m6de2c80a2c" y="399.028233"/>
     <use style="fill:#3200cd;stroke:#3200cd;" x="245.970299" xlink:href="#m6de2c80a2c" y="470.255322"/>
     <use style="fill:#3200cd;stroke:#3200cd;" x="288.676835" xlink:href="#m6de2c80a2c" y="394.03878"/>
     <use style="fill:#3200cd;stroke:#3200cd;" x="302.912347" xlink:href="#m6de2c80a2c" y="399.028233"/>
     <use style="fill:#3200cd;stroke:#3200cd;" x="359.854394" xlink:href="#m6de2c80a2c" y="394.03878"/>
    </g>
   </g>
   <g id="line2d_18">
    <g clip-path="url(#pe481b7392d)">
     <use style="fill:#660099;stroke:#660099;stroke-linejoin:miter;" x="89.379669" xlink:href="#m04a8d155c2" y="148.836837"/>
     <use style="fill:#660099;stroke:#660099;stroke-linejoin:miter;" x="90.529759" xlink:href="#m04a8d155c2" y="102.029474"/>
     <use style="fill:#660099;stroke:#660099;stroke-linejoin:miter;" x="91.67985" xlink:href="#m04a8d155c2" y="96.935762"/>
     <use style="fill:#660099;stroke:#660099;stroke-linejoin:miter;" x="92.82994" xlink:href="#m04a8d155c2" y="98.321625"/>
     <use style="fill:#660099;stroke:#660099;stroke-linejoin:miter;" x="93.980031" xlink:href="#m04a8d155c2" y="105.535873"/>
     <use style="fill:#660099;stroke:#660099;stroke-linejoin:miter;" x="95.130121" xlink:href="#m04a8d155c2" y="119.4026"/>
     <use style="fill:#660099;stroke:#660099;stroke-linejoin:miter;" x="96.280212" xlink:href="#m04a8d155c2" y="131.03613"/>
     <use style="fill:#660099;stroke:#660099;stroke-linejoin:miter;" x="97.430303" xlink:href="#m04a8d155c2" y="136.864419"/>
     <use style="fill:#660099;stroke:#660099;stroke-linejoin:miter;" x="98.580393" xlink:href="#m04a8d155c2" y="157.135507"/>
     <use style="fill:#660099;stroke:#660099;stroke-linejoin:miter;" x="99.730484" xlink:href="#m04a8d155c2" y="175.909009"/>
     <use style="fill:#660099;stroke:#660099;stroke-linejoin:miter;" x="100.880574" xlink:href="#m04a8d155c2" y="186.052319"/>
     <use style="fill:#660099;stroke:#660099;stroke-linejoin:miter;" x="102.030665" xlink:href="#m04a8d155c2" y="198.670647"/>
     <use style="fill:#660099;stroke:#660099;stroke-linejoin:miter;" x="103.180755" xlink:href="#m04a8d155c2" y="224.469385"/>
     <use style="fill:#660099;stroke:#660099;stroke-linejoin:miter;" x="104.330846" xlink:href="#m04a8d155c2" y="227.604884"/>
     <use style="fill:#660099;stroke:#660099;stroke-linejoin:miter;" x="105.480937" xlink:href="#m04a8d155c2" y="221.77725"/>
     <use style="fill:#660099;stroke:#660099;stroke-linejoin:miter;" x="106.631027" xlink:href="#m04a8d155c2" y="242.36952"/>
     <use style="fill:#660099;stroke:#660099;stroke-linejoin:miter;" x="107.781118" xlink:href="#m04a8d155c2" y="249.637406"/>
     <use style="fill:#660099;stroke:#660099;stroke-linejoin:miter;" x="108.931208" xlink:href="#m04a8d155c2" y="261.282846"/>
     <use style="fill:#660099;stroke:#660099;stroke-linejoin:miter;" x="110.081299" xlink:href="#m04a8d155c2" y="263.939019"/>
     <use style="fill:#660099;stroke:#660099;stroke-linejoin:miter;" x="111.231389" xlink:href="#m04a8d155c2" y="321.770858"/>
     <use style="fill:#660099;stroke:#660099;stroke-linejoin:miter;" x="112.38148" xlink:href="#m04a8d155c2" y="296.160427"/>
     <use style="fill:#660099;stroke:#660099;stroke-linejoin:miter;" x="113.531571" xlink:href="#m04a8d155c2" y="303.962576"/>
     <use style="fill:#660099;stroke:#660099;stroke-linejoin:miter;" x="114.681661" xlink:href="#m04a8d155c2" y="311.617264"/>
     <use style="fill:#660099;stroke:#660099;stroke-linejoin:miter;" x="115.831752" xlink:href="#m04a8d155c2" y="354.595536"/>
    </g>
   </g>
   <g id="line2d_19">
    <g clip-path="url(#pe481b7392d)">
     <use style="fill:#980067;stroke:#980067;stroke-linejoin:miter;" x="89.379669" xlink:href="#m8479e3e0b7" y="167.322321"/>
     <use style="fill:#980067;stroke:#980067;stroke-linejoin:miter;" x="93.461814" xlink:href="#m8479e3e0b7" y="138.661225"/>
     <use style="fill:#980067;stroke:#980067;stroke-linejoin:miter;" x="97.54396" xlink:href="#m8479e3e0b7" y="136.98904"/>
     <use style="fill:#980067;stroke:#980067;stroke-linejoin:miter;" x="101.626106" xlink:href="#m8479e3e0b7" y="146.746879"/>
     <use style="fill:#980067;stroke:#980067;stroke-linejoin:miter;" x="105.708251" xlink:href="#m8479e3e0b7" y="160.0562"/>
     <use style="fill:#980067;stroke:#980067;stroke-linejoin:miter;" x="109.790397" xlink:href="#m8479e3e0b7" y="177.398767"/>
     <use style="fill:#980067;stroke:#980067;stroke-linejoin:miter;" x="113.872543" xlink:href="#m8479e3e0b7" y="192.779437"/>
     <use style="fill:#980067;stroke:#980067;stroke-linejoin:miter;" x="117.954689" xlink:href="#m8479e3e0b7" y="202.576044"/>
     <use style="fill:#980067;stroke:#980067;stroke-linejoin:miter;" x="122.036834" xlink:href="#m8479e3e0b7" y="221.404855"/>
     <use style="fill:#980067;stroke:#980067;stroke-linejoin:miter;" x="126.11898" xlink:href="#m8479e3e0b7" y="230.66117"/>
     <use style="fill:#980067;stroke:#980067;stroke-linejoin:miter;" x="130.201126" xlink:href="#m8479e3e0b7" y="245.760661"/>
     <use style="fill:#980067;stroke:#980067;stroke-linejoin:miter;" x="134.283271" xlink:href="#m8479e3e0b7" y="248.96884"/>
     <use style="fill:#980067;stroke:#980067;stroke-linejoin:miter;" x="138.365417" xlink:href="#m8479e3e0b7" y="277.968983"/>
     <use style="fill:#980067;stroke:#980067;stroke-linejoin:miter;" x="142.447563" xlink:href="#m8479e3e0b7" y="305.397716"/>
     <use style="fill:#980067;stroke:#980067;stroke-linejoin:miter;" x="146.529709" xlink:href="#m8479e3e0b7" y="330.81847"/>
     <use style="fill:#980067;stroke:#980067;stroke-linejoin:miter;" x="150.611854" xlink:href="#m8479e3e0b7" y="329.588375"/>
     <use style="fill:#980067;stroke:#980067;stroke-linejoin:miter;" x="154.694" xlink:href="#m8479e3e0b7" y="337.499388"/>
     <use style="fill:#980067;stroke:#980067;stroke-linejoin:miter;" x="158.776146" xlink:href="#m8479e3e0b7" y="343.618339"/>
     <use style="fill:#980067;stroke:#980067;stroke-linejoin:miter;" x="162.858292" xlink:href="#m8479e3e0b7" y="399.028233"/>
     <use style="fill:#980067;stroke:#980067;stroke-linejoin:miter;" x="166.940437" xlink:href="#m8479e3e0b7" y="354.595536"/>
     <use style="fill:#980067;stroke:#980067;stroke-linejoin:miter;" x="171.022583" xlink:href="#m8479e3e0b7" y="418.229439"/>
     <use style="fill:#980067;stroke:#980067;stroke-linejoin:miter;" x="175.104729" xlink:href="#m8479e3e0b7" y="366.203555"/>
     <use style="fill:#980067;stroke:#980067;stroke-linejoin:miter;" x="179.186874" xlink:href="#m8479e3e0b7" y="399.028233"/>
     <use style="fill:#980067;stroke:#980067;stroke-linejoin:miter;" x="183.26902" xlink:href="#m8479e3e0b7" y="426.863458"/>
    </g>
   </g>
   <g id="line2d_20">
    <g clip-path="url(#pe481b7392d)">
     <use style="fill:#cc0033;stroke:#cc0033;stroke-linejoin:miter;" x="89.379669" xlink:href="#m83a229d762" y="218.99436"/>
     <use style="fill:#cc0033;stroke:#cc0033;stroke-linejoin:miter;" x="103.695767" xlink:href="#m83a229d762" y="223.040152"/>
     <use style="fill:#cc0033;stroke:#cc0033;stroke-linejoin:miter;" x="118.011866" xlink:href="#m83a229d762" y="233.767595"/>
     <use style="fill:#cc0033;stroke:#cc0033;stroke-linejoin:miter;" x="132.327964" xlink:href="#m83a229d762" y="231.879398"/>
     <use style="fill:#cc0033;stroke:#cc0033;stroke-linejoin:miter;" x="146.644063" xlink:href="#m83a229d762" y="257.162335"/>
     <use style="fill:#cc0033;stroke:#cc0033;stroke-linejoin:miter;" x="160.960161" xlink:href="#m83a229d762" y="253.371833"/>
     <use style="fill:#cc0033;stroke:#cc0033;stroke-linejoin:miter;" x="175.27626" xlink:href="#m83a229d762" y="266.113119"/>
     <use style="fill:#cc0033;stroke:#cc0033;stroke-linejoin:miter;" x="189.592358" xlink:href="#m83a229d762" y="265.481696"/>
     <use style="fill:#cc0033;stroke:#cc0033;stroke-linejoin:miter;" x="203.908457" xlink:href="#m83a229d762" y="308.405457"/>
     <use style="fill:#cc0033;stroke:#cc0033;stroke-linejoin:miter;" x="218.224556" xlink:href="#m83a229d762" y="274.430375"/>
     <use style="fill:#cc0033;stroke:#cc0033;stroke-linejoin:miter;" x="232.540654" xlink:href="#m83a229d762" y="276.759828"/>
     <use style="fill:#cc0033;stroke:#cc0033;stroke-linejoin:miter;" x="246.856753" xlink:href="#m83a229d762" y="347.002349"/>
     <use style="fill:#cc0033;stroke:#cc0033;stroke-linejoin:miter;" x="261.172851" xlink:href="#m83a229d762" y="299.256693"/>
     <use style="fill:#cc0033;stroke:#cc0033;stroke-linejoin:miter;" x="275.48895" xlink:href="#m83a229d762" y="324.964607"/>
     <use style="fill:#cc0033;stroke:#cc0033;stroke-linejoin:miter;" x="289.805048" xlink:href="#m83a229d762" y="337.499388"/>
     <use style="fill:#cc0033;stroke:#cc0033;stroke-linejoin:miter;" x="304.121147" xlink:href="#m83a229d762" y="315.964902"/>
     <use style="fill:#cc0033;stroke:#cc0033;stroke-linejoin:miter;" x="318.437246" xlink:href="#m83a229d762" y="451.054116"/>
     <use style="fill:#cc0033;stroke:#cc0033;stroke-linejoin:miter;" x="332.753344" xlink:href="#m83a229d762" y="503.08"/>
     <use style="fill:#cc0033;stroke:#cc0033;stroke-linejoin:miter;" x="347.069443" xlink:href="#m83a229d762" y="358.903595"/>
     <use style="fill:#cc0033;stroke:#cc0033;stroke-linejoin:miter;" x="361.385541" xlink:href="#m83a229d762" y="451.054116"/>
     <use style="fill:#cc0033;stroke:#cc0033;stroke-linejoin:miter;" x="375.70164" xlink:href="#m83a229d762" y="358.903595"/>
     <use style="fill:#cc0033;stroke:#cc0033;stroke-linejoin:miter;" x="390.017738" xlink:href="#m83a229d762" y="385.404761"/>
    </g>
   </g>
   <g id="line2d_21">
    <g clip-path="url(#pe481b7392d)">
     <use style="fill:#fe0100;stroke:#fe0100;stroke-linejoin:miter;" x="89.379669" xlink:href="#mefe6f212ab" y="327.220081"/>
     <use style="fill:#fe0100;stroke:#fe0100;stroke-linejoin:miter;" x="155.792812" xlink:href="#mefe6f212ab" y="333.378877"/>
     <use style="fill:#fe0100;stroke:#fe0100;stroke-linejoin:miter;" x="222.205956" xlink:href="#mefe6f212ab" y="336.085671"/>
     <use style="fill:#fe0100;stroke:#fe0100;stroke-linejoin:miter;" x="288.6191" xlink:href="#mefe6f212ab" y="337.499388"/>
     <use style="fill:#fe0100;stroke:#fe0100;stroke-linejoin:miter;" x="355.032244" xlink:href="#mefe6f212ab" y="368.910349"/>
     <use style="fill:#fe0100;stroke:#fe0100;stroke-linejoin:miter;" x="421.445388" xlink:href="#mefe6f212ab" y="374.837575"/>
     <use style="fill:#fe0100;stroke:#fe0100;stroke-linejoin:miter;" x="487.858532" xlink:href="#mefe6f212ab" y="363.643148"/>
     <use style="fill:#fe0100;stroke:#fe0100;stroke-linejoin:miter;" x="554.271676" xlink:href="#mefe6f212ab" y="374.837575"/>
     <use style="fill:#fe0100;stroke:#fe0100;stroke-linejoin:miter;" x="620.68482" xlink:href="#mefe6f212ab" y="368.910349"/>
     <use style="fill:#fe0100;stroke:#fe0100;stroke-linejoin:miter;" x="687.097964" xlink:href="#mefe6f212ab" y="381.614258"/>
     <use style="fill:#fe0100;stroke:#fe0100;stroke-linejoin:miter;" x="753.511108" xlink:href="#mefe6f212ab" y="410.929479"/>
     <use style="fill:#fe0100;stroke:#fe0100;stroke-linejoin:miter;" x="819.924252" xlink:href="#mefe6f212ab" y="378.104801"/>
     <use style="fill:#fe0100;stroke:#fe0100;stroke-linejoin:miter;" x="886.337396" xlink:href="#mefe6f212ab" y="404.605966"/>
     <use style="fill:#fe0100;stroke:#fe0100;stroke-linejoin:miter;" x="952.75054" xlink:href="#mefe6f212ab" y="381.614258"/>
     <use style="fill:#fe0100;stroke:#fe0100;stroke-linejoin:miter;" x="1019.163683" xlink:href="#mefe6f212ab" y="378.104801"/>
     <use style="fill:#fe0100;stroke:#fe0100;stroke-linejoin:miter;" x="1085.576827" xlink:href="#mefe6f212ab" y="426.863458"/>
     <use style="fill:#fe0100;stroke:#fe0100;stroke-linejoin:miter;" x="1151.989971" xlink:href="#mefe6f212ab" y="399.028233"/>
     <use style="fill:#fe0100;stroke:#fe0100;stroke-linejoin:miter;" x="1218.403115" xlink:href="#mefe6f212ab" y="426.863458"/>
     <use style="fill:#fe0100;stroke:#fe0100;stroke-linejoin:miter;" x="1284.816259" xlink:href="#mefe6f212ab" y="410.929479"/>
     <use style="fill:#fe0100;stroke:#fe0100;stroke-linejoin:miter;" x="1351.229403" xlink:href="#mefe6f212ab" y="470.255322"/>
     <use style="fill:#fe0100;stroke:#fe0100;stroke-linejoin:miter;" x="1417.642547" xlink:href="#mefe6f212ab" y="418.229439"/>
     <use style="fill:#fe0100;stroke:#fe0100;stroke-linejoin:miter;" x="1550.468835" xlink:href="#mefe6f212ab" y="426.863458"/>
     <use style="fill:#fe0100;stroke:#fe0100;stroke-linejoin:miter;" x="1616.881979" xlink:href="#mefe6f212ab" y="399.028233"/>
    </g>
   </g>
   <g id="line2d_22">
    <path clip-path="url(#pe481b7392d)" d="M 89.379669 186.159974 
L 103.61518 202.977513 
L 117.850692 219.795051 
L 132.086204 236.61259 
L 146.321716 253.430128 
L 160.557228 270.247667 
L 174.79274 287.065205 
L 189.028252 303.882744 
L 203.263763 320.700282 
L 231.734787 354.335359 
L 245.970299 371.152898 
L 288.676835 421.605514 
L 302.912347 438.423052 
L 359.854394 505.693206 
" style="fill:none;stroke:#3200cd;stroke-linecap:square;stroke-width:2;"/>
   </g>
   <g id="line2d_23">
    <path clip-path="url(#pe481b7392d)" d="M 89.379669 80.777378 
L 90.529759 91.637016 
L 91.67985 102.496654 
L 92.82994 113.356292 
L 93.980031 124.21593 
L 95.130121 135.075568 
L 96.280212 145.935206 
L 97.430303 156.794845 
L 98.580393 167.654483 
L 99.730484 178.514121 
L 100.880574 189.373759 
L 102.030665 200.233397 
L 103.180755 211.093035 
L 104.330846 221.952673 
L 105.480937 232.812311 
L 106.631027 243.671949 
L 107.781118 254.531587 
L 108.931208 265.391225 
L 110.081299 276.250863 
L 111.231389 287.110501 
L 112.38148 297.970139 
L 113.531571 308.829777 
L 114.681661 319.689415 
L 115.831752 330.549053 
" style="fill:none;stroke:#660099;stroke-linecap:square;stroke-width:2;"/>
   </g>
   <g id="line2d_24">
    <path clip-path="url(#pe481b7392d)" d="M 89.379669 120.525751 
L 93.461814 133.806719 
L 97.54396 147.087687 
L 101.626106 160.368655 
L 105.708251 173.649622 
L 109.790397 186.93059 
L 113.872543 200.211558 
L 117.954689 213.492526 
L 122.036834 226.773494 
L 126.11898 240.054462 
L 130.201126 253.33543 
L 134.283271 266.616398 
L 138.365417 279.897366 
L 142.447563 293.178334 
L 146.529709 306.459302 
L 150.611854 319.740269 
L 154.694 333.021237 
L 158.776146 346.302205 
L 162.858292 359.583173 
L 166.940437 372.864141 
L 171.022583 386.145109 
L 175.104729 399.426077 
L 179.186874 412.707045 
L 183.26902 425.988013 
" style="fill:none;stroke:#980067;stroke-linecap:square;stroke-width:2;"/>
   </g>
   <g id="line2d_25">
    <path clip-path="url(#pe481b7392d)" d="M 89.379669 211.708445 
L 103.695767 221.024038 
L 118.011866 230.339631 
L 132.327964 239.655224 
L 146.644063 248.970817 
L 160.960161 258.286411 
L 175.27626 267.602004 
L 189.592358 276.917597 
L 203.908457 286.23319 
L 218.224556 295.548783 
L 232.540654 304.864376 
L 246.856753 314.179969 
L 261.172851 323.495562 
L 275.48895 332.811156 
L 289.805048 342.126749 
L 304.121147 351.442342 
L 318.437246 360.757935 
L 347.069443 379.389121 
L 361.385541 388.704714 
L 375.70164 398.020307 
L 390.017738 407.335901 
" style="fill:none;stroke:#cc0033;stroke-linecap:square;stroke-width:2;"/>
   </g>
   <g id="line2d_26">
    <path clip-path="url(#pe481b7392d)" d="M 89.379669 338.678561 
L 155.792812 343.026603 
L 222.205956 347.374645 
L 288.6191 351.722688 
L 355.032244 356.07073 
L 421.445388 360.418772 
L 487.858532 364.766814 
L 554.271676 369.114856 
L 577 370.602871 
" style="fill:none;stroke:#fe0100;stroke-linecap:square;stroke-width:2;"/>
   </g>
   <g id="patch_3">
    <path d="M 78.23 503.08 
L 78.23 29.52 
" style="fill:none;stroke:#000000;stroke-linecap:square;stroke-linejoin:miter;stroke-width:0.8;"/>
   </g>
   <g id="patch_4">
    <path d="M 535.275 503.08 
L 535.275 29.52 
" style="fill:none;stroke:#000000;stroke-linecap:square;stroke-linejoin:miter;stroke-width:0.8;"/>
   </g>
   <g id="patch_5">
    <path d="M 78.23 503.08 
L 535.275 503.08 
" style="fill:none;stroke:#000000;stroke-linecap:square;stroke-linejoin:miter;stroke-width:0.8;"/>
   </g>
   <g id="patch_6">
    <path d="M 78.23 29.52 
L 535.275 29.52 
" style="fill:none;stroke:#000000;stroke-linecap:square;stroke-linejoin:miter;stroke-width:0.8;"/>
   </g>
   <g id="legend_1">
    <g id="line2d_27">
     <path d="M 412.7375 55.716875 
L 452.7375 55.716875 
" style="fill:none;stroke:#3200cd;stroke-linecap:square;stroke-width:1.5;"/>
    </g>
    <g id="line2d_28">
     <g>
      <use style="fill:#3200cd;stroke:#3200cd;" x="432.7375" xlink:href="#m6de2c80a2c" y="55.716875"/>
     </g>
    </g>
    <g id="text_14">
     <!-- p=.1 -->
     <defs>
      <path d="M 18.109375 8.203125 
L 18.109375 -20.796875 
L 9.078125 -20.796875 
L 9.078125 54.6875 
L 18.109375 54.6875 
L 18.109375 46.390625 
Q 20.953125 51.265625 25.265625 53.625 
Q 29.59375 56 35.59375 56 
Q 45.5625 56 51.78125 48.09375 
Q 58.015625 40.1875 58.015625 27.296875 
Q 58.015625 14.40625 51.78125 6.484375 
Q 45.5625 -1.421875 35.59375 -1.421875 
Q 29.59375 -1.421875 25.265625 0.953125 
Q 20.953125 3.328125 18.109375 8.203125 
z
M 48.6875 27.296875 
Q 48.6875 37.203125 44.609375 42.84375 
Q 40.53125 48.484375 33.40625 48.484375 
Q 26.265625 48.484375 22.1875 42.84375 
Q 18.109375 37.203125 18.109375 27.296875 
Q 18.109375 17.390625 22.1875 11.75 
Q 26.265625 6.109375 33.40625 6.109375 
Q 40.53125 6.109375 44.609375 11.75 
Q 48.6875 17.390625 48.6875 27.296875 
z
" id="DejaVuSans-112"/>
      <path d="M 10.59375 45.40625 
L 73.1875 45.40625 
L 73.1875 37.203125 
L 10.59375 37.203125 
z
M 10.59375 25.484375 
L 73.1875 25.484375 
L 73.1875 17.1875 
L 10.59375 17.1875 
z
" id="DejaVuSans-61"/>
      <path d="M 10.6875 12.40625 
L 21 12.40625 
L 21 0 
L 10.6875 0 
z
" id="DejaVuSans-46"/>
     </defs>
     <g transform="translate(468.7375 62.716875)scale(0.2 -0.2)">
      <use xlink:href="#DejaVuSans-112"/>
      <use x="63.476562" xlink:href="#DejaVuSans-61"/>
      <use x="147.265625" xlink:href="#DejaVuSans-46"/>
      <use x="179.052734" xlink:href="#DejaVuSans-49"/>
     </g>
    </g>
    <g id="line2d_29">
     <path d="M 412.7375 85.073125 
L 452.7375 85.073125 
" style="fill:none;stroke:#660099;stroke-linecap:square;stroke-width:1.5;"/>
    </g>
    <g id="line2d_30">
     <g>
      <use style="fill:#660099;stroke:#660099;stroke-linejoin:miter;" x="432.7375" xlink:href="#m04a8d155c2" y="85.073125"/>
     </g>
    </g>
    <g id="text_15">
     <!-- p=.2 -->
     <g transform="translate(468.7375 92.073125)scale(0.2 -0.2)">
      <use xlink:href="#DejaVuSans-112"/>
      <use x="63.476562" xlink:href="#DejaVuSans-61"/>
      <use x="147.265625" xlink:href="#DejaVuSans-46"/>
      <use x="179.052734" xlink:href="#DejaVuSans-50"/>
     </g>
    </g>
    <g id="line2d_31">
     <path d="M 412.7375 114.429375 
L 452.7375 114.429375 
" style="fill:none;stroke:#980067;stroke-linecap:square;stroke-width:1.5;"/>
    </g>
    <g id="line2d_32">
     <g>
      <use style="fill:#980067;stroke:#980067;stroke-linejoin:miter;" x="432.7375" xlink:href="#m8479e3e0b7" y="114.429375"/>
     </g>
    </g>
    <g id="text_16">
     <!-- p=.3 -->
     <defs>
      <path d="M 40.578125 39.3125 
Q 47.65625 37.796875 51.625 33 
Q 55.609375 28.21875 55.609375 21.1875 
Q 55.609375 10.40625 48.1875 4.484375 
Q 40.765625 -1.421875 27.09375 -1.421875 
Q 22.515625 -1.421875 17.65625 -0.515625 
Q 12.796875 0.390625 7.625 2.203125 
L 7.625 11.71875 
Q 11.71875 9.328125 16.59375 8.109375 
Q 21.484375 6.890625 26.8125 6.890625 
Q 36.078125 6.890625 40.9375 10.546875 
Q 45.796875 14.203125 45.796875 21.1875 
Q 45.796875 27.640625 41.28125 31.265625 
Q 36.765625 34.90625 28.71875 34.90625 
L 20.21875 34.90625 
L 20.21875 43.015625 
L 29.109375 43.015625 
Q 36.375 43.015625 40.234375 45.921875 
Q 44.09375 48.828125 44.09375 54.296875 
Q 44.09375 59.90625 40.109375 62.90625 
Q 36.140625 65.921875 28.71875 65.921875 
Q 24.65625 65.921875 20.015625 65.03125 
Q 15.375 64.15625 9.8125 62.3125 
L 9.8125 71.09375 
Q 15.4375 72.65625 20.34375 73.4375 
Q 25.25 74.21875 29.59375 74.21875 
Q 40.828125 74.21875 47.359375 69.109375 
Q 53.90625 64.015625 53.90625 55.328125 
Q 53.90625 49.265625 50.4375 45.09375 
Q 46.96875 40.921875 40.578125 39.3125 
z
" id="DejaVuSans-51"/>
     </defs>
     <g transform="translate(468.7375 121.429375)scale(0.2 -0.2)">
      <use xlink:href="#DejaVuSans-112"/>
      <use x="63.476562" xlink:href="#DejaVuSans-61"/>
      <use x="147.265625" xlink:href="#DejaVuSans-46"/>
      <use x="179.052734" xlink:href="#DejaVuSans-51"/>
     </g>
    </g>
    <g id="line2d_33">
     <path d="M 412.7375 143.785625 
L 452.7375 143.785625 
" style="fill:none;stroke:#cc0033;stroke-linecap:square;stroke-width:1.5;"/>
    </g>
    <g id="line2d_34">
     <g>
      <use style="fill:#cc0033;stroke:#cc0033;stroke-linejoin:miter;" x="432.7375" xlink:href="#m83a229d762" y="143.785625"/>
     </g>
    </g>
    <g id="text_17">
     <!-- p=.4 -->
     <g transform="translate(468.7375 150.785625)scale(0.2 -0.2)">
      <use xlink:href="#DejaVuSans-112"/>
      <use x="63.476562" xlink:href="#DejaVuSans-61"/>
      <use x="147.265625" xlink:href="#DejaVuSans-46"/>
      <use x="179.052734" xlink:href="#DejaVuSans-52"/>
     </g>
    </g>
    <g id="line2d_35">
     <path d="M 412.7375 173.141875 
L 452.7375 173.141875 
" style="fill:none;stroke:#fe0100;stroke-linecap:square;stroke-width:1.5;"/>
    </g>
    <g id="line2d_36">
     <g>
      <use style="fill:#fe0100;stroke:#fe0100;stroke-linejoin:miter;" x="432.7375" xlink:href="#mefe6f212ab" y="173.141875"/>
     </g>
    </g>
    <g id="text_18">
     <!-- p=.5 -->
     <g transform="translate(468.7375 180.141875)scale(0.2 -0.2)">
      <use xlink:href="#DejaVuSans-112"/>
      <use x="63.476562" xlink:href="#DejaVuSans-61"/>
      <use x="147.265625" xlink:href="#DejaVuSans-46"/>
      <use x="179.052734" xlink:href="#DejaVuSans-53"/>
     </g>
    </g>
   </g>
  </g>
 </g>
 <defs>
  <clipPath id="pe481b7392d">
   <rect height="473.56" width="457.045" x="78.23" y="29.52"/>
  </clipPath>
 </defs>
</svg>
