<?xml version="1.0" encoding="utf-8" standalone="no"?>
<!DOCTYPE svg PUBLIC "-//W3C//DTD SVG 1.1//EN"
  "http://www.w3.org/Graphics/SVG/1.1/DTD/svg11.dtd">
<!-- Created with matplotlib (http://matplotlib.org/) -->
<svg height="576pt" version="1.1" viewBox="0 0 576 576" width="576pt" xmlns="http://www.w3.org/2000/svg" xmlns:xlink="http://www.w3.org/1999/xlink">
 <defs>
  <style type="text/css">
*{stroke-linecap:butt;stroke-linejoin:round;}
  </style>
 </defs>
 <g id="figure_1">
  <g id="patch_1">
   <path d="M 0 576 
L 576 576 
L 576 0 
L 0 0 
z
" style="fill:#ffffff;"/>
  </g>
  <g id="axes_1">
   <g id="patch_2">
    <path d="M 78.23 503.08 
L 551.88 503.08 
L 551.88 29.52 
L 78.23 29.52 
z
" style="fill:#ffffff;"/>
   </g>
   <g id="matplotlib.axis_1">
    <g id="xtick_1">
     <g id="line2d_1">
      <defs>
       <path d="M 0 0 
L 0 3.5 
" id="me069594754" style="stroke:#000000;stroke-width:0.8;"/>
      </defs>
      <g>
       <use style="stroke:#000000;stroke-width:0.8;" x="124.067097" xlink:href="#me069594754" y="503.08"/>
      </g>
     </g>
     <g id="text_1">
      <!-- 0 -->
      <defs>
       <path d="M 31.78125 66.40625 
Q 24.171875 66.40625 20.328125 58.90625 
Q 16.5 51.421875 16.5 36.375 
Q 16.5 21.390625 20.328125 13.890625 
Q 24.171875 6.390625 31.78125 6.390625 
Q 39.453125 6.390625 43.28125 13.890625 
Q 47.125 21.390625 47.125 36.375 
Q 47.125 51.421875 43.28125 58.90625 
Q 39.453125 66.40625 31.78125 66.40625 
z
M 31.78125 74.21875 
Q 44.046875 74.21875 50.515625 64.515625 
Q 56.984375 54.828125 56.984375 36.375 
Q 56.984375 17.96875 50.515625 8.265625 
Q 44.046875 -1.421875 31.78125 -1.421875 
Q 19.53125 -1.421875 13.0625 8.265625 
Q 6.59375 17.96875 6.59375 36.375 
Q 6.59375 54.828125 13.0625 64.515625 
Q 19.53125 74.21875 31.78125 74.21875 
z
" id="DejaVuSans-30"/>
      </defs>
      <g transform="translate(117.704597 525.276875)scale(0.2 -0.2)">
       <use xlink:href="#DejaVuSans-30"/>
      </g>
     </g>
    </g>
    <g id="xtick_2">
     <g id="line2d_2">
      <g>
       <use style="stroke:#000000;stroke-width:0.8;" x="200.462258" xlink:href="#me069594754" y="503.08"/>
      </g>
     </g>
     <g id="text_2">
      <!-- 5 -->
      <defs>
       <path d="M 10.796875 72.90625 
L 49.515625 72.90625 
L 49.515625 64.59375 
L 19.828125 64.59375 
L 19.828125 46.734375 
Q 21.96875 47.46875 24.109375 47.828125 
Q 26.265625 48.1875 28.421875 48.1875 
Q 40.625 48.1875 47.75 41.5 
Q 54.890625 34.8125 54.890625 23.390625 
Q 54.890625 11.625 47.5625 5.09375 
Q 40.234375 -1.421875 26.90625 -1.421875 
Q 22.3125 -1.421875 17.546875 -0.640625 
Q 12.796875 0.140625 7.71875 1.703125 
L 7.71875 11.625 
Q 12.109375 9.234375 16.796875 8.0625 
Q 21.484375 6.890625 26.703125 6.890625 
Q 35.15625 6.890625 40.078125 11.328125 
Q 45.015625 15.765625 45.015625 23.390625 
Q 45.015625 31 40.078125 35.4375 
Q 35.15625 39.890625 26.703125 39.890625 
Q 22.75 39.890625 18.8125 39.015625 
Q 14.890625 38.140625 10.796875 36.28125 
z
" id="DejaVuSans-35"/>
      </defs>
      <g transform="translate(194.099758 525.276875)scale(0.2 -0.2)">
       <use xlink:href="#DejaVuSans-35"/>
      </g>
     </g>
    </g>
    <g id="xtick_3">
     <g id="line2d_3">
      <g>
       <use style="stroke:#000000;stroke-width:0.8;" x="276.857419" xlink:href="#me069594754" y="503.08"/>
      </g>
     </g>
     <g id="text_3">
      <!-- 10 -->
      <defs>
       <path d="M 12.40625 8.296875 
L 28.515625 8.296875 
L 28.515625 63.921875 
L 10.984375 60.40625 
L 10.984375 69.390625 
L 28.421875 72.90625 
L 38.28125 72.90625 
L 38.28125 8.296875 
L 54.390625 8.296875 
L 54.390625 0 
L 12.40625 0 
z
" id="DejaVuSans-31"/>
      </defs>
      <g transform="translate(264.132419 525.276875)scale(0.2 -0.2)">
       <use xlink:href="#DejaVuSans-31"/>
       <use x="63.623047" xlink:href="#DejaVuSans-30"/>
      </g>
     </g>
    </g>
    <g id="xtick_4">
     <g id="line2d_4">
      <g>
       <use style="stroke:#000000;stroke-width:0.8;" x="353.252581" xlink:href="#me069594754" y="503.08"/>
      </g>
     </g>
     <g id="text_4">
      <!-- 15 -->
      <g transform="translate(340.527581 525.276875)scale(0.2 -0.2)">
       <use xlink:href="#DejaVuSans-31"/>
       <use x="63.623047" xlink:href="#DejaVuSans-35"/>
      </g>
     </g>
    </g>
    <g id="xtick_5">
     <g id="line2d_5">
      <g>
       <use style="stroke:#000000;stroke-width:0.8;" x="429.647742" xlink:href="#me069594754" y="503.08"/>
      </g>
     </g>
     <g id="text_5">
      <!-- 20 -->
      <defs>
       <path d="M 19.1875 8.296875 
L 53.609375 8.296875 
L 53.609375 0 
L 7.328125 0 
L 7.328125 8.296875 
Q 12.9375 14.109375 22.625 23.890625 
Q 32.328125 33.6875 34.8125 36.53125 
Q 39.546875 41.84375 41.421875 45.53125 
Q 43.3125 49.21875 43.3125 52.78125 
Q 43.3125 58.59375 39.234375 62.25 
Q 35.15625 65.921875 28.609375 65.921875 
Q 23.96875 65.921875 18.8125 64.3125 
Q 13.671875 62.703125 7.8125 59.421875 
L 7.8125 69.390625 
Q 13.765625 71.78125 18.9375 73 
Q 24.125 74.21875 28.421875 74.21875 
Q 39.75 74.21875 46.484375 68.546875 
Q 53.21875 62.890625 53.21875 53.421875 
Q 53.21875 48.921875 51.53125 44.890625 
Q 49.859375 40.875 45.40625 35.40625 
Q 44.1875 33.984375 37.640625 27.21875 
Q 31.109375 20.453125 19.1875 8.296875 
z
" id="DejaVuSans-32"/>
      </defs>
      <g transform="translate(416.922742 525.276875)scale(0.2 -0.2)">
       <use xlink:href="#DejaVuSans-32"/>
       <use x="63.623047" xlink:href="#DejaVuSans-30"/>
      </g>
     </g>
    </g>
    <g id="xtick_6">
     <g id="line2d_6">
      <g>
       <use style="stroke:#000000;stroke-width:0.8;" x="506.042903" xlink:href="#me069594754" y="503.08"/>
      </g>
     </g>
     <g id="text_6">
      <!-- 25 -->
      <g transform="translate(493.317903 525.276875)scale(0.2 -0.2)">
       <use xlink:href="#DejaVuSans-32"/>
       <use x="63.623047" xlink:href="#DejaVuSans-35"/>
      </g>
     </g>
    </g>
    <g id="text_7">
     <!-- 1000 generations -->
     <defs>
      <path id="DejaVuSans-20"/>
      <path d="M 45.40625 27.984375 
Q 45.40625 37.75 41.375 43.109375 
Q 37.359375 48.484375 30.078125 48.484375 
Q 22.859375 48.484375 18.828125 43.109375 
Q 14.796875 37.75 14.796875 27.984375 
Q 14.796875 18.265625 18.828125 12.890625 
Q 22.859375 7.515625 30.078125 7.515625 
Q 37.359375 7.515625 41.375 12.890625 
Q 45.40625 18.265625 45.40625 27.984375 
z
M 54.390625 6.78125 
Q 54.390625 -7.171875 48.1875 -13.984375 
Q 42 -20.796875 29.203125 -20.796875 
Q 24.46875 -20.796875 20.265625 -20.09375 
Q 16.0625 -19.390625 12.109375 -17.921875 
L 12.109375 -9.1875 
Q 16.0625 -11.328125 19.921875 -12.34375 
Q 23.78125 -13.375 27.78125 -13.375 
Q 36.625 -13.375 41.015625 -8.765625 
Q 45.40625 -4.15625 45.40625 5.171875 
L 45.40625 9.625 
Q 42.625 4.78125 38.28125 2.390625 
Q 33.9375 0 27.875 0 
Q 17.828125 0 11.671875 7.65625 
Q 5.515625 15.328125 5.515625 27.984375 
Q 5.515625 40.671875 11.671875 48.328125 
Q 17.828125 56 27.875 56 
Q 33.9375 56 38.28125 53.609375 
Q 42.625 51.21875 45.40625 46.390625 
L 45.40625 54.6875 
L 54.390625 54.6875 
z
" id="DejaVuSans-67"/>
      <path d="M 56.203125 29.59375 
L 56.203125 25.203125 
L 14.890625 25.203125 
Q 15.484375 15.921875 20.484375 11.0625 
Q 25.484375 6.203125 34.421875 6.203125 
Q 39.59375 6.203125 44.453125 7.46875 
Q 49.3125 8.734375 54.109375 11.28125 
L 54.109375 2.78125 
Q 49.265625 0.734375 44.1875 -0.34375 
Q 39.109375 -1.421875 33.890625 -1.421875 
Q 20.796875 -1.421875 13.15625 6.1875 
Q 5.515625 13.8125 5.515625 26.8125 
Q 5.515625 40.234375 12.765625 48.109375 
Q 20.015625 56 32.328125 56 
Q 43.359375 56 49.78125 48.890625 
Q 56.203125 41.796875 56.203125 29.59375 
z
M 47.21875 32.234375 
Q 47.125 39.59375 43.09375 43.984375 
Q 39.0625 48.390625 32.421875 48.390625 
Q 24.90625 48.390625 20.390625 44.140625 
Q 15.875 39.890625 15.1875 32.171875 
z
" id="DejaVuSans-65"/>
      <path d="M 54.890625 33.015625 
L 54.890625 0 
L 45.90625 0 
L 45.90625 32.71875 
Q 45.90625 40.484375 42.875 44.328125 
Q 39.84375 48.1875 33.796875 48.1875 
Q 26.515625 48.1875 22.3125 43.546875 
Q 18.109375 38.921875 18.109375 30.90625 
L 18.109375 0 
L 9.078125 0 
L 9.078125 54.6875 
L 18.109375 54.6875 
L 18.109375 46.1875 
Q 21.34375 51.125 25.703125 53.5625 
Q 30.078125 56 35.796875 56 
Q 45.21875 56 50.046875 50.171875 
Q 54.890625 44.34375 54.890625 33.015625 
z
" id="DejaVuSans-6e"/>
      <path d="M 41.109375 46.296875 
Q 39.59375 47.171875 37.8125 47.578125 
Q 36.03125 48 33.890625 48 
Q 26.265625 48 22.1875 43.046875 
Q 18.109375 38.09375 18.109375 28.8125 
L 18.109375 0 
L 9.078125 0 
L 9.078125 54.6875 
L 18.109375 54.6875 
L 18.109375 46.1875 
Q 20.953125 51.171875 25.484375 53.578125 
Q 30.03125 56 36.53125 56 
Q 37.453125 56 38.578125 55.875 
Q 39.703125 55.765625 41.0625 55.515625 
z
" id="DejaVuSans-72"/>
      <path d="M 34.28125 27.484375 
Q 23.390625 27.484375 19.1875 25 
Q 14.984375 22.515625 14.984375 16.5 
Q 14.984375 11.71875 18.140625 8.90625 
Q 21.296875 6.109375 26.703125 6.109375 
Q 34.1875 6.109375 38.703125 11.40625 
Q 43.21875 16.703125 43.21875 25.484375 
L 43.21875 27.484375 
z
M 52.203125 31.203125 
L 52.203125 0 
L 43.21875 0 
L 43.21875 8.296875 
Q 40.140625 3.328125 35.546875 0.953125 
Q 30.953125 -1.421875 24.3125 -1.421875 
Q 15.921875 -1.421875 10.953125 3.296875 
Q 6 8.015625 6 15.921875 
Q 6 25.140625 12.171875 29.828125 
Q 18.359375 34.515625 30.609375 34.515625 
L 43.21875 34.515625 
L 43.21875 35.40625 
Q 43.21875 41.609375 39.140625 45 
Q 35.0625 48.390625 27.6875 48.390625 
Q 23 48.390625 18.546875 47.265625 
Q 14.109375 46.140625 10.015625 43.890625 
L 10.015625 52.203125 
Q 14.9375 54.109375 19.578125 55.046875 
Q 24.21875 56 28.609375 56 
Q 40.484375 56 46.34375 49.84375 
Q 52.203125 43.703125 52.203125 31.203125 
z
" id="DejaVuSans-61"/>
      <path d="M 18.3125 70.21875 
L 18.3125 54.6875 
L 36.8125 54.6875 
L 36.8125 47.703125 
L 18.3125 47.703125 
L 18.3125 18.015625 
Q 18.3125 11.328125 20.140625 9.421875 
Q 21.96875 7.515625 27.59375 7.515625 
L 36.8125 7.515625 
L 36.8125 0 
L 27.59375 0 
Q 17.1875 0 13.234375 3.875 
Q 9.28125 7.765625 9.28125 18.015625 
L 9.28125 47.703125 
L 2.6875 47.703125 
L 2.6875 54.6875 
L 9.28125 54.6875 
L 9.28125 70.21875 
z
" id="DejaVuSans-74"/>
      <path d="M 9.421875 54.6875 
L 18.40625 54.6875 
L 18.40625 0 
L 9.421875 0 
z
M 9.421875 75.984375 
L 18.40625 75.984375 
L 18.40625 64.59375 
L 9.421875 64.59375 
z
" id="DejaVuSans-69"/>
      <path d="M 30.609375 48.390625 
Q 23.390625 48.390625 19.1875 42.75 
Q 14.984375 37.109375 14.984375 27.296875 
Q 14.984375 17.484375 19.15625 11.84375 
Q 23.34375 6.203125 30.609375 6.203125 
Q 37.796875 6.203125 41.984375 11.859375 
Q 46.1875 17.53125 46.1875 27.296875 
Q 46.1875 37.015625 41.984375 42.703125 
Q 37.796875 48.390625 30.609375 48.390625 
z
M 30.609375 56 
Q 42.328125 56 49.015625 48.375 
Q 55.71875 40.765625 55.71875 27.296875 
Q 55.71875 13.875 49.015625 6.21875 
Q 42.328125 -1.421875 30.609375 -1.421875 
Q 18.84375 -1.421875 12.171875 6.21875 
Q 5.515625 13.875 5.515625 27.296875 
Q 5.515625 40.765625 12.171875 48.375 
Q 18.84375 56 30.609375 56 
z
" id="DejaVuSans-6f"/>
      <path d="M 44.28125 53.078125 
L 44.28125 44.578125 
Q 40.484375 46.53125 36.375 47.5 
Q 32.28125 48.484375 27.875 48.484375 
Q 21.1875 48.484375 17.84375 46.4375 
Q 14.5 44.390625 14.5 40.28125 
Q 14.5 37.15625 16.890625 35.375 
Q 19.28125 33.59375 26.515625 31.984375 
L 29.59375 31.296875 
Q 39.15625 29.25 43.1875 25.515625 
Q 47.21875 21.78125 47.21875 15.09375 
Q 47.21875 7.46875 41.1875 3.015625 
Q 35.15625 -1.421875 24.609375 -1.421875 
Q 20.21875 -1.421875 15.453125 -0.5625 
Q 10.6875 0.296875 5.421875 2 
L 5.421875 11.28125 
Q 10.40625 8.6875 15.234375 7.390625 
Q 20.0625 6.109375 24.8125 6.109375 
Q 31.15625 6.109375 34.5625 8.28125 
Q 37.984375 10.453125 37.984375 14.40625 
Q 37.984375 18.0625 35.515625 20.015625 
Q 33.0625 21.96875 24.703125 23.78125 
L 21.578125 24.515625 
Q 13.234375 26.265625 9.515625 29.90625 
Q 5.8125 33.546875 5.8125 39.890625 
Q 5.8125 47.609375 11.28125 51.796875 
Q 16.75 56 26.8125 56 
Q 31.78125 56 36.171875 55.265625 
Q 40.578125 54.546875 44.28125 53.078125 
z
" id="DejaVuSans-73"/>
     </defs>
     <g transform="translate(226.831563 548.633125)scale(0.2 -0.2)">
      <use xlink:href="#DejaVuSans-31"/>
      <use x="63.623047" xlink:href="#DejaVuSans-30"/>
      <use x="127.246094" xlink:href="#DejaVuSans-30"/>
      <use x="190.869141" xlink:href="#DejaVuSans-30"/>
      <use x="254.492188" xlink:href="#DejaVuSans-20"/>
      <use x="286.279297" xlink:href="#DejaVuSans-67"/>
      <use x="349.755859" xlink:href="#DejaVuSans-65"/>
      <use x="411.279297" xlink:href="#DejaVuSans-6e"/>
      <use x="474.658203" xlink:href="#DejaVuSans-65"/>
      <use x="536.181641" xlink:href="#DejaVuSans-72"/>
      <use x="577.294922" xlink:href="#DejaVuSans-61"/>
      <use x="638.574219" xlink:href="#DejaVuSans-74"/>
      <use x="677.783203" xlink:href="#DejaVuSans-69"/>
      <use x="705.566406" xlink:href="#DejaVuSans-6f"/>
      <use x="766.748047" xlink:href="#DejaVuSans-6e"/>
      <use x="830.126953" xlink:href="#DejaVuSans-73"/>
     </g>
    </g>
   </g>
   <g id="matplotlib.axis_2">
    <g id="ytick_1">
     <g id="line2d_7">
      <defs>
       <path d="M 0 0 
L -3.5 0 
" id="maae43a6d7c" style="stroke:#000000;stroke-width:0.8;"/>
      </defs>
      <g>
       <use style="stroke:#000000;stroke-width:0.8;" x="78.23" xlink:href="#maae43a6d7c" y="503.08"/>
      </g>
     </g>
     <g id="text_8">
      <!-- 0 -->
      <g transform="translate(58.505 510.678437)scale(0.2 -0.2)">
       <use xlink:href="#DejaVuSans-30"/>
      </g>
     </g>
    </g>
    <g id="ytick_2">
     <g id="line2d_8">
      <g>
       <use style="stroke:#000000;stroke-width:0.8;" x="78.23" xlink:href="#maae43a6d7c" y="408.368"/>
      </g>
     </g>
     <g id="text_9">
      <!-- 2 -->
      <g transform="translate(58.505 415.966437)scale(0.2 -0.2)">
       <use xlink:href="#DejaVuSans-32"/>
      </g>
     </g>
    </g>
    <g id="ytick_3">
     <g id="line2d_9">
      <g>
       <use style="stroke:#000000;stroke-width:0.8;" x="78.23" xlink:href="#maae43a6d7c" y="313.656"/>
      </g>
     </g>
     <g id="text_10">
      <!-- 4 -->
      <defs>
       <path d="M 37.796875 64.3125 
L 12.890625 25.390625 
L 37.796875 25.390625 
z
M 35.203125 72.90625 
L 47.609375 72.90625 
L 47.609375 25.390625 
L 58.015625 25.390625 
L 58.015625 17.1875 
L 47.609375 17.1875 
L 47.609375 0 
L 37.796875 0 
L 37.796875 17.1875 
L 4.890625 17.1875 
L 4.890625 26.703125 
z
" id="DejaVuSans-34"/>
      </defs>
      <g transform="translate(58.505 321.254437)scale(0.2 -0.2)">
       <use xlink:href="#DejaVuSans-34"/>
      </g>
     </g>
    </g>
    <g id="ytick_4">
     <g id="line2d_10">
      <g>
       <use style="stroke:#000000;stroke-width:0.8;" x="78.23" xlink:href="#maae43a6d7c" y="218.944"/>
      </g>
     </g>
     <g id="text_11">
      <!-- 6 -->
      <defs>
       <path d="M 33.015625 40.375 
Q 26.375 40.375 22.484375 35.828125 
Q 18.609375 31.296875 18.609375 23.390625 
Q 18.609375 15.53125 22.484375 10.953125 
Q 26.375 6.390625 33.015625 6.390625 
Q 39.65625 6.390625 43.53125 10.953125 
Q 47.40625 15.53125 47.40625 23.390625 
Q 47.40625 31.296875 43.53125 35.828125 
Q 39.65625 40.375 33.015625 40.375 
z
M 52.59375 71.296875 
L 52.59375 62.3125 
Q 48.875 64.0625 45.09375 64.984375 
Q 41.3125 65.921875 37.59375 65.921875 
Q 27.828125 65.921875 22.671875 59.328125 
Q 17.53125 52.734375 16.796875 39.40625 
Q 19.671875 43.65625 24.015625 45.921875 
Q 28.375 48.1875 33.59375 48.1875 
Q 44.578125 48.1875 50.953125 41.515625 
Q 57.328125 34.859375 57.328125 23.390625 
Q 57.328125 12.15625 50.6875 5.359375 
Q 44.046875 -1.421875 33.015625 -1.421875 
Q 20.359375 -1.421875 13.671875 8.265625 
Q 6.984375 17.96875 6.984375 36.375 
Q 6.984375 53.65625 15.1875 63.9375 
Q 23.390625 74.21875 37.203125 74.21875 
Q 40.921875 74.21875 44.703125 73.484375 
Q 48.484375 72.75 52.59375 71.296875 
z
" id="DejaVuSans-36"/>
      </defs>
      <g transform="translate(58.505 226.542437)scale(0.2 -0.2)">
       <use xlink:href="#DejaVuSans-36"/>
      </g>
     </g>
    </g>
    <g id="ytick_5">
     <g id="line2d_11">
      <g>
       <use style="stroke:#000000;stroke-width:0.8;" x="78.23" xlink:href="#maae43a6d7c" y="124.232"/>
      </g>
     </g>
     <g id="text_12">
      <!-- 8 -->
      <defs>
       <path d="M 31.78125 34.625 
Q 24.75 34.625 20.71875 30.859375 
Q 16.703125 27.09375 16.703125 20.515625 
Q 16.703125 13.921875 20.71875 10.15625 
Q 24.75 6.390625 31.78125 6.390625 
Q 38.8125 6.390625 42.859375 10.171875 
Q 46.921875 13.96875 46.921875 20.515625 
Q 46.921875 27.09375 42.890625 30.859375 
Q 38.875 34.625 31.78125 34.625 
z
M 21.921875 38.8125 
Q 15.578125 40.375 12.03125 44.71875 
Q 8.5 49.078125 8.5 55.328125 
Q 8.5 64.0625 14.71875 69.140625 
Q 20.953125 74.21875 31.78125 74.21875 
Q 42.671875 74.21875 48.875 69.140625 
Q 55.078125 64.0625 55.078125 55.328125 
Q 55.078125 49.078125 51.53125 44.71875 
Q 48 40.375 41.703125 38.8125 
Q 48.828125 37.15625 52.796875 32.3125 
Q 56.78125 27.484375 56.78125 20.515625 
Q 56.78125 9.90625 50.3125 4.234375 
Q 43.84375 -1.421875 31.78125 -1.421875 
Q 19.734375 -1.421875 13.25 4.234375 
Q 6.78125 9.90625 6.78125 20.515625 
Q 6.78125 27.484375 10.78125 32.3125 
Q 14.796875 37.15625 21.921875 38.8125 
z
M 18.3125 54.390625 
Q 18.3125 48.734375 21.84375 45.5625 
Q 25.390625 42.390625 31.78125 42.390625 
Q 38.140625 42.390625 41.71875 45.5625 
Q 45.3125 48.734375 45.3125 54.390625 
Q 45.3125 60.0625 41.71875 63.234375 
Q 38.140625 66.40625 31.78125 66.40625 
Q 25.390625 66.40625 21.84375 63.234375 
Q 18.3125 60.0625 18.3125 54.390625 
z
" id="DejaVuSans-38"/>
      </defs>
      <g transform="translate(58.505 131.830437)scale(0.2 -0.2)">
       <use xlink:href="#DejaVuSans-38"/>
      </g>
     </g>
    </g>
    <g id="ytick_6">
     <g id="line2d_12">
      <g>
       <use style="stroke:#000000;stroke-width:0.8;" x="78.23" xlink:href="#maae43a6d7c" y="29.52"/>
      </g>
     </g>
     <g id="text_13">
      <!-- 10 -->
      <g transform="translate(45.78 37.118438)scale(0.2 -0.2)">
       <use xlink:href="#DejaVuSans-31"/>
       <use x="63.623047" xlink:href="#DejaVuSans-30"/>
      </g>
     </g>
    </g>
    <g id="text_14">
     <!-- log (evolutions) -->
     <defs>
      <path d="M 9.421875 75.984375 
L 18.40625 75.984375 
L 18.40625 0 
L 9.421875 0 
z
" id="DejaVuSans-6c"/>
      <path d="M 31 75.875 
Q 24.46875 64.65625 21.28125 53.65625 
Q 18.109375 42.671875 18.109375 31.390625 
Q 18.109375 20.125 21.3125 9.0625 
Q 24.515625 -2 31 -13.1875 
L 23.1875 -13.1875 
Q 15.875 -1.703125 12.234375 9.375 
Q 8.59375 20.453125 8.59375 31.390625 
Q 8.59375 42.28125 12.203125 53.3125 
Q 15.828125 64.359375 23.1875 75.875 
z
" id="DejaVuSans-28"/>
      <path d="M 2.984375 54.6875 
L 12.5 54.6875 
L 29.59375 8.796875 
L 46.6875 54.6875 
L 56.203125 54.6875 
L 35.6875 0 
L 23.484375 0 
z
" id="DejaVuSans-76"/>
      <path d="M 8.5 21.578125 
L 8.5 54.6875 
L 17.484375 54.6875 
L 17.484375 21.921875 
Q 17.484375 14.15625 20.5 10.265625 
Q 23.53125 6.390625 29.59375 6.390625 
Q 36.859375 6.390625 41.078125 11.03125 
Q 45.3125 15.671875 45.3125 23.6875 
L 45.3125 54.6875 
L 54.296875 54.6875 
L 54.296875 0 
L 45.3125 0 
L 45.3125 8.40625 
Q 42.046875 3.421875 37.71875 1 
Q 33.40625 -1.421875 27.6875 -1.421875 
Q 18.265625 -1.421875 13.375 4.4375 
Q 8.5 10.296875 8.5 21.578125 
z
M 31.109375 56 
z
" id="DejaVuSans-75"/>
      <path d="M 8.015625 75.875 
L 15.828125 75.875 
Q 23.140625 64.359375 26.78125 53.3125 
Q 30.421875 42.28125 30.421875 31.390625 
Q 30.421875 20.453125 26.78125 9.375 
Q 23.140625 -1.703125 15.828125 -13.1875 
L 8.015625 -13.1875 
Q 14.5 -2 17.703125 9.0625 
Q 20.90625 20.125 20.90625 31.390625 
Q 20.90625 42.671875 17.703125 53.65625 
Q 14.5 64.65625 8.015625 75.875 
z
" id="DejaVuSans-29"/>
     </defs>
     <g transform="translate(37.620625 344.196875)rotate(-90)scale(0.2 -0.2)">
      <use xlink:href="#DejaVuSans-6c"/>
      <use x="27.783203" xlink:href="#DejaVuSans-6f"/>
      <use x="88.964844" xlink:href="#DejaVuSans-67"/>
      <use x="152.441406" xlink:href="#DejaVuSans-20"/>
      <use x="184.228516" xlink:href="#DejaVuSans-28"/>
      <use x="223.242188" xlink:href="#DejaVuSans-65"/>
      <use x="284.765625" xlink:href="#DejaVuSans-76"/>
      <use x="343.945312" xlink:href="#DejaVuSans-6f"/>
      <use x="405.126953" xlink:href="#DejaVuSans-6c"/>
      <use x="432.910156" xlink:href="#DejaVuSans-75"/>
      <use x="496.289062" xlink:href="#DejaVuSans-74"/>
      <use x="535.498047" xlink:href="#DejaVuSans-69"/>
      <use x="563.28125" xlink:href="#DejaVuSans-6f"/>
      <use x="624.462891" xlink:href="#DejaVuSans-6e"/>
      <use x="687.841797" xlink:href="#DejaVuSans-73"/>
      <use x="739.941406" xlink:href="#DejaVuSans-29"/>
     </g>
    </g>
   </g>
   <g id="line2d_13">
    <path clip-path="url(#pbcef3ceff9)" d="M 124.082376 72.237232 
" style="fill:none;stroke:#3200cd;stroke-linecap:square;stroke-width:1.5;"/>
    <defs>
     <path d="M 0 4.5 
C 1.193414 4.5 2.338109 4.025852 3.181981 3.181981 
C 4.025852 2.338109 4.5 1.193414 4.5 0 
C 4.5 -1.193414 4.025852 -2.338109 3.181981 -3.181981 
C 2.338109 -4.025852 1.193414 -4.5 0 -4.5 
C -1.193414 -4.5 -2.338109 -4.025852 -3.181981 -3.181981 
C -4.025852 -2.338109 -4.5 -1.193414 -4.5 0 
C -4.5 1.193414 -4.025852 2.338109 -3.181981 3.181981 
C -2.338109 4.025852 -1.193414 4.5 0 4.5 
z
" id="m86d56b7a07" style="stroke:#3200cd;"/>
    </defs>
    <g clip-path="url(#pbcef3ceff9)">
     <use style="fill:#3200cd;stroke:#3200cd;" x="124.082376" xlink:href="#m86d56b7a07" y="72.237232"/>
    </g>
   </g>
   <g id="line2d_14">
    <path clip-path="url(#pbcef3ceff9)" d="M 124.082376 73.35785 
" style="fill:none;stroke:#660099;stroke-linecap:square;stroke-width:1.5;"/>
    <defs>
     <path d="M -4.5 4.5 
L 4.5 4.5 
L 4.5 -4.5 
L -4.5 -4.5 
z
" id="m239e7659f1" style="stroke:#660099;stroke-linejoin:miter;"/>
    </defs>
    <g clip-path="url(#pbcef3ceff9)">
     <use style="fill:#660099;stroke:#660099;stroke-linejoin:miter;" x="124.082376" xlink:href="#m239e7659f1" y="73.35785"/>
    </g>
   </g>
   <g id="line2d_15">
    <path clip-path="url(#pbcef3ceff9)" d="M 124.082376 59.634108 
" style="fill:none;stroke:#980067;stroke-linecap:square;stroke-width:1.5;"/>
    <defs>
     <path d="M -0 4.5 
L 4.5 -4.5 
L -4.5 -4.5 
z
" id="mebcb545a06" style="stroke:#980067;stroke-linejoin:miter;"/>
    </defs>
    <g clip-path="url(#pbcef3ceff9)">
     <use style="fill:#980067;stroke:#980067;stroke-linejoin:miter;" x="124.082376" xlink:href="#mebcb545a06" y="59.634108"/>
    </g>
   </g>
   <g id="line2d_16">
    <path clip-path="url(#pbcef3ceff9)" d="M 124.082376 101.33871 
" style="fill:none;stroke:#cc0033;stroke-linecap:square;stroke-width:1.5;"/>
    <defs>
     <path d="M 0 -4.5 
L -4.5 4.5 
L 4.5 4.5 
z
" id="m94f59a81da" style="stroke:#cc0033;stroke-linejoin:miter;"/>
    </defs>
    <g clip-path="url(#pbcef3ceff9)">
     <use style="fill:#cc0033;stroke:#cc0033;stroke-linejoin:miter;" x="124.082376" xlink:href="#m94f59a81da" y="101.33871"/>
    </g>
   </g>
   <g id="line2d_17">
    <path clip-path="url(#pbcef3ceff9)" d="M 124.082376 125.356613 
" style="fill:none;stroke:#fe0100;stroke-linecap:square;stroke-width:1.5;"/>
    <defs>
     <path d="M 0 -4.5 
L -3.897114 -2.25 
L -3.897114 2.25 
L -0 4.5 
L 3.897114 2.25 
L 3.897114 -2.25 
z
" id="m28de9a620b" style="stroke:#fe0100;stroke-linejoin:miter;"/>
    </defs>
    <g clip-path="url(#pbcef3ceff9)">
     <use style="fill:#fe0100;stroke:#fe0100;stroke-linejoin:miter;" x="124.082376" xlink:href="#m28de9a620b" y="125.356613"/>
    </g>
   </g>
   <g id="line2d_18">
    <g clip-path="url(#pbcef3ceff9)">
     <use style="fill:#3200cd;stroke:#3200cd;" x="124.082376" xlink:href="#m86d56b7a07" y="72.237232"/>
     <use style="fill:#3200cd;stroke:#3200cd;" x="141.815921" xlink:href="#m86d56b7a07" y="89.897951"/>
     <use style="fill:#3200cd;stroke:#3200cd;" x="159.549466" xlink:href="#m86d56b7a07" y="118.733096"/>
     <use style="fill:#3200cd;stroke:#3200cd;" x="177.283011" xlink:href="#m86d56b7a07" y="136.205256"/>
     <use style="fill:#3200cd;stroke:#3200cd;" x="195.016556" xlink:href="#m86d56b7a07" y="150.246507"/>
     <use style="fill:#3200cd;stroke:#3200cd;" x="212.750101" xlink:href="#m86d56b7a07" y="167.282874"/>
     <use style="fill:#3200cd;stroke:#3200cd;" x="230.483647" xlink:href="#m86d56b7a07" y="174.5106"/>
     <use style="fill:#3200cd;stroke:#3200cd;" x="248.217192" xlink:href="#m86d56b7a07" y="187.965953"/>
     <use style="fill:#3200cd;stroke:#3200cd;" x="265.950737" xlink:href="#m86d56b7a07" y="200.463763"/>
     <use style="fill:#3200cd;stroke:#3200cd;" x="283.684282" xlink:href="#m86d56b7a07" y="212.524189"/>
     <use style="fill:#3200cd;stroke:#3200cd;" x="301.417827" xlink:href="#m86d56b7a07" y="228.458168"/>
     <use style="fill:#3200cd;stroke:#3200cd;" x="319.151372" xlink:href="#m86d56b7a07" y="239.205074"/>
     <use style="fill:#3200cd;stroke:#3200cd;" x="336.884917" xlink:href="#m86d56b7a07" y="250.088419"/>
     <use style="fill:#3200cd;stroke:#3200cd;" x="354.618462" xlink:href="#m86d56b7a07" y="260.429562"/>
     <use style="fill:#3200cd;stroke:#3200cd;" x="372.352008" xlink:href="#m86d56b7a07" y="275.580779"/>
     <use style="fill:#3200cd;stroke:#3200cd;" x="390.085553" xlink:href="#m86d56b7a07" y="299.901003"/>
     <use style="fill:#3200cd;stroke:#3200cd;" x="407.819098" xlink:href="#m86d56b7a07" y="309.984137"/>
     <use style="fill:#3200cd;stroke:#3200cd;" x="425.552643" xlink:href="#m86d56b7a07" y="321.770858"/>
     <use style="fill:#3200cd;stroke:#3200cd;" x="443.286188" xlink:href="#m86d56b7a07" y="327.220081"/>
     <use style="fill:#3200cd;stroke:#3200cd;" x="461.019733" xlink:href="#m86d56b7a07" y="361.214102"/>
     <use style="fill:#3200cd;stroke:#3200cd;" x="478.753278" xlink:href="#m86d56b7a07" y="347.002349"/>
     <use style="fill:#3200cd;stroke:#3200cd;" x="496.486823" xlink:href="#m86d56b7a07" y="368.910349"/>
     <use style="fill:#3200cd;stroke:#3200cd;" x="514.220369" xlink:href="#m86d56b7a07" y="356.700594"/>
     <use style="fill:#3200cd;stroke:#3200cd;" x="531.953914" xlink:href="#m86d56b7a07" y="503.08"/>
    </g>
   </g>
   <g id="line2d_19">
    <g clip-path="url(#pbcef3ceff9)">
     <use style="fill:#660099;stroke:#660099;stroke-linejoin:miter;" x="124.082376" xlink:href="#m239e7659f1" y="73.35785"/>
     <use style="fill:#660099;stroke:#660099;stroke-linejoin:miter;" x="131.423951" xlink:href="#m239e7659f1" y="50.751684"/>
     <use style="fill:#660099;stroke:#660099;stroke-linejoin:miter;" x="138.765526" xlink:href="#m239e7659f1" y="62.651968"/>
     <use style="fill:#660099;stroke:#660099;stroke-linejoin:miter;" x="146.107101" xlink:href="#m239e7659f1" y="79.712378"/>
     <use style="fill:#660099;stroke:#660099;stroke-linejoin:miter;" x="153.448676" xlink:href="#m239e7659f1" y="101.045725"/>
     <use style="fill:#660099;stroke:#660099;stroke-linejoin:miter;" x="160.790251" xlink:href="#m239e7659f1" y="118.888942"/>
     <use style="fill:#660099;stroke:#660099;stroke-linejoin:miter;" x="168.131826" xlink:href="#m239e7659f1" y="137.680381"/>
     <use style="fill:#660099;stroke:#660099;stroke-linejoin:miter;" x="175.473401" xlink:href="#m239e7659f1" y="156.629021"/>
     <use style="fill:#660099;stroke:#660099;stroke-linejoin:miter;" x="182.814976" xlink:href="#m239e7659f1" y="168.480814"/>
     <use style="fill:#660099;stroke:#660099;stroke-linejoin:miter;" x="190.156551" xlink:href="#m239e7659f1" y="183.875965"/>
     <use style="fill:#660099;stroke:#660099;stroke-linejoin:miter;" x="197.498126" xlink:href="#m239e7659f1" y="196.502432"/>
     <use style="fill:#660099;stroke:#660099;stroke-linejoin:miter;" x="204.839701" xlink:href="#m239e7659f1" y="212.115945"/>
     <use style="fill:#660099;stroke:#660099;stroke-linejoin:miter;" x="212.181276" xlink:href="#m239e7659f1" y="215.813385"/>
     <use style="fill:#660099;stroke:#660099;stroke-linejoin:miter;" x="219.522851" xlink:href="#m239e7659f1" y="231.114341"/>
     <use style="fill:#660099;stroke:#660099;stroke-linejoin:miter;" x="226.864426" xlink:href="#m239e7659f1" y="241.040807"/>
     <use style="fill:#660099;stroke:#660099;stroke-linejoin:miter;" x="234.206001" xlink:href="#m239e7659f1" y="247.875119"/>
     <use style="fill:#660099;stroke:#660099;stroke-linejoin:miter;" x="241.547576" xlink:href="#m239e7659f1" y="274.810746"/>
     <use style="fill:#660099;stroke:#660099;stroke-linejoin:miter;" x="248.889151" xlink:href="#m239e7659f1" y="286.930727"/>
     <use style="fill:#660099;stroke:#660099;stroke-linejoin:miter;" x="256.230726" xlink:href="#m239e7659f1" y="289.987013"/>
     <use style="fill:#660099;stroke:#660099;stroke-linejoin:miter;" x="263.572301" xlink:href="#m239e7659f1" y="314.177671"/>
     <use style="fill:#660099;stroke:#660099;stroke-linejoin:miter;" x="270.913876" xlink:href="#m239e7659f1" y="286.930727"/>
     <use style="fill:#660099;stroke:#660099;stroke-linejoin:miter;" x="278.255451" xlink:href="#m239e7659f1" y="310.793661"/>
     <use style="fill:#660099;stroke:#660099;stroke-linejoin:miter;" x="285.597026" xlink:href="#m239e7659f1" y="322.811691"/>
     <use style="fill:#660099;stroke:#660099;stroke-linejoin:miter;" x="292.938601" xlink:href="#m239e7659f1" y="343.618339"/>
    </g>
   </g>
   <g id="line2d_20">
    <g clip-path="url(#pbcef3ceff9)">
     <use style="fill:#980067;stroke:#980067;stroke-linejoin:miter;" x="124.082376" xlink:href="#mebcb545a06" y="59.634108"/>
     <use style="fill:#980067;stroke:#980067;stroke-linejoin:miter;" x="130.761223" xlink:href="#mebcb545a06" y="32.706751"/>
     <use style="fill:#980067;stroke:#980067;stroke-linejoin:miter;" x="137.44007" xlink:href="#mebcb545a06" y="41.572679"/>
     <use style="fill:#980067;stroke:#980067;stroke-linejoin:miter;" x="144.118917" xlink:href="#mebcb545a06" y="59.756086"/>
     <use style="fill:#980067;stroke:#980067;stroke-linejoin:miter;" x="150.797764" xlink:href="#mebcb545a06" y="82.314169"/>
     <use style="fill:#980067;stroke:#980067;stroke-linejoin:miter;" x="157.476611" xlink:href="#mebcb545a06" y="104.961338"/>
     <use style="fill:#980067;stroke:#980067;stroke-linejoin:miter;" x="164.155458" xlink:href="#mebcb545a06" y="129.537798"/>
     <use style="fill:#980067;stroke:#980067;stroke-linejoin:miter;" x="170.834305" xlink:href="#mebcb545a06" y="154.565051"/>
     <use style="fill:#980067;stroke:#980067;stroke-linejoin:miter;" x="177.513152" xlink:href="#mebcb545a06" y="181.902513"/>
     <use style="fill:#980067;stroke:#980067;stroke-linejoin:miter;" x="184.191999" xlink:href="#mebcb545a06" y="205.665575"/>
     <use style="fill:#980067;stroke:#980067;stroke-linejoin:miter;" x="190.870846" xlink:href="#mebcb545a06" y="229.035688"/>
     <use style="fill:#980067;stroke:#980067;stroke-linejoin:miter;" x="197.549693" xlink:href="#mebcb545a06" y="249.637406"/>
     <use style="fill:#980067;stroke:#980067;stroke-linejoin:miter;" x="204.22854" xlink:href="#mebcb545a06" y="277.968983"/>
     <use style="fill:#980067;stroke:#980067;stroke-linejoin:miter;" x="210.907386" xlink:href="#mebcb545a06" y="317.822239"/>
     <use style="fill:#980067;stroke:#980067;stroke-linejoin:miter;" x="217.586233" xlink:href="#mebcb545a06" y="347.002349"/>
     <use style="fill:#980067;stroke:#980067;stroke-linejoin:miter;" x="224.26508" xlink:href="#mebcb545a06" y="358.903595"/>
     <use style="fill:#980067;stroke:#980067;stroke-linejoin:miter;" x="230.943927" xlink:href="#mebcb545a06" y="381.614258"/>
     <use style="fill:#980067;stroke:#980067;stroke-linejoin:miter;" x="237.622774" xlink:href="#mebcb545a06" y="394.03878"/>
     <use style="fill:#980067;stroke:#980067;stroke-linejoin:miter;" x="244.301621" xlink:href="#mebcb545a06" y="437.430644"/>
     <use style="fill:#980067;stroke:#980067;stroke-linejoin:miter;" x="250.980468" xlink:href="#mebcb545a06" y="437.430644"/>
     <use style="fill:#980067;stroke:#980067;stroke-linejoin:miter;" x="257.659315" xlink:href="#mebcb545a06" y="418.229439"/>
     <use style="fill:#980067;stroke:#980067;stroke-linejoin:miter;" x="271.017009" xlink:href="#mebcb545a06" y="470.255322"/>
    </g>
   </g>
   <g id="line2d_21">
    <g clip-path="url(#pbcef3ceff9)">
     <use style="fill:#cc0033;stroke:#cc0033;stroke-linejoin:miter;" x="124.082376" xlink:href="#m94f59a81da" y="101.33871"/>
     <use style="fill:#cc0033;stroke:#cc0033;stroke-linejoin:miter;" x="128.028504" xlink:href="#m94f59a81da" y="59.760158"/>
     <use style="fill:#cc0033;stroke:#cc0033;stroke-linejoin:miter;" x="131.974633" xlink:href="#m94f59a81da" y="53.882535"/>
     <use style="fill:#cc0033;stroke:#cc0033;stroke-linejoin:miter;" x="135.920761" xlink:href="#m94f59a81da" y="57.634393"/>
     <use style="fill:#cc0033;stroke:#cc0033;stroke-linejoin:miter;" x="139.866889" xlink:href="#m94f59a81da" y="67.813889"/>
     <use style="fill:#cc0033;stroke:#cc0033;stroke-linejoin:miter;" x="143.813018" xlink:href="#m94f59a81da" y="79.37233"/>
     <use style="fill:#cc0033;stroke:#cc0033;stroke-linejoin:miter;" x="147.759146" xlink:href="#m94f59a81da" y="92.393859"/>
     <use style="fill:#cc0033;stroke:#cc0033;stroke-linejoin:miter;" x="151.705275" xlink:href="#m94f59a81da" y="103.523988"/>
     <use style="fill:#cc0033;stroke:#cc0033;stroke-linejoin:miter;" x="155.651403" xlink:href="#m94f59a81da" y="118.408883"/>
     <use style="fill:#cc0033;stroke:#cc0033;stroke-linejoin:miter;" x="159.597531" xlink:href="#m94f59a81da" y="133.987379"/>
     <use style="fill:#cc0033;stroke:#cc0033;stroke-linejoin:miter;" x="163.54366" xlink:href="#m94f59a81da" y="147.571827"/>
     <use style="fill:#cc0033;stroke:#cc0033;stroke-linejoin:miter;" x="167.489788" xlink:href="#m94f59a81da" y="166.578392"/>
     <use style="fill:#cc0033;stroke:#cc0033;stroke-linejoin:miter;" x="171.435917" xlink:href="#m94f59a81da" y="176.816514"/>
     <use style="fill:#cc0033;stroke:#cc0033;stroke-linejoin:miter;" x="175.382045" xlink:href="#m94f59a81da" y="209.256963"/>
     <use style="fill:#cc0033;stroke:#cc0033;stroke-linejoin:miter;" x="179.328173" xlink:href="#m94f59a81da" y="213.665353"/>
     <use style="fill:#cc0033;stroke:#cc0033;stroke-linejoin:miter;" x="183.274302" xlink:href="#m94f59a81da" y="226.905373"/>
     <use style="fill:#cc0033;stroke:#cc0033;stroke-linejoin:miter;" x="187.22043" xlink:href="#m94f59a81da" y="248.748066"/>
     <use style="fill:#cc0033;stroke:#cc0033;stroke-linejoin:miter;" x="191.166559" xlink:href="#m94f59a81da" y="252.410257"/>
     <use style="fill:#cc0033;stroke:#cc0033;stroke-linejoin:miter;" x="195.112687" xlink:href="#m94f59a81da" y="279.209822"/>
     <use style="fill:#cc0033;stroke:#cc0033;stroke-linejoin:miter;" x="199.058815" xlink:href="#m94f59a81da" y="287.927732"/>
     <use style="fill:#cc0033;stroke:#cc0033;stroke-linejoin:miter;" x="203.004944" xlink:href="#m94f59a81da" y="301.216532"/>
     <use style="fill:#cc0033;stroke:#cc0033;stroke-linejoin:miter;" x="206.951072" xlink:href="#m94f59a81da" y="332.081371"/>
     <use style="fill:#cc0033;stroke:#cc0033;stroke-linejoin:miter;" x="210.8972" xlink:href="#m94f59a81da" y="338.956611"/>
     <use style="fill:#cc0033;stroke:#cc0033;stroke-linejoin:miter;" x="214.843329" xlink:href="#m94f59a81da" y="333.378877"/>
    </g>
   </g>
   <g id="line2d_22">
    <g clip-path="url(#pbcef3ceff9)">
     <use style="fill:#fe0100;stroke:#fe0100;stroke-linejoin:miter;" x="124.082376" xlink:href="#m28de9a620b" y="125.356613"/>
     <use style="fill:#fe0100;stroke:#fe0100;stroke-linejoin:miter;" x="127.06306" xlink:href="#m28de9a620b" y="74.272732"/>
     <use style="fill:#fe0100;stroke:#fe0100;stroke-linejoin:miter;" x="130.043745" xlink:href="#m28de9a620b" y="63.187316"/>
     <use style="fill:#fe0100;stroke:#fe0100;stroke-linejoin:miter;" x="133.024429" xlink:href="#m28de9a620b" y="59.862055"/>
     <use style="fill:#fe0100;stroke:#fe0100;stroke-linejoin:miter;" x="136.005114" xlink:href="#m28de9a620b" y="66.425162"/>
     <use style="fill:#fe0100;stroke:#fe0100;stroke-linejoin:miter;" x="138.985799" xlink:href="#m28de9a620b" y="73.542686"/>
     <use style="fill:#fe0100;stroke:#fe0100;stroke-linejoin:miter;" x="141.966483" xlink:href="#m28de9a620b" y="83.522533"/>
     <use style="fill:#fe0100;stroke:#fe0100;stroke-linejoin:miter;" x="144.947168" xlink:href="#m28de9a620b" y="93.5847"/>
     <use style="fill:#fe0100;stroke:#fe0100;stroke-linejoin:miter;" x="147.927852" xlink:href="#m28de9a620b" y="105.375579"/>
     <use style="fill:#fe0100;stroke:#fe0100;stroke-linejoin:miter;" x="150.908537" xlink:href="#m28de9a620b" y="117.476895"/>
     <use style="fill:#fe0100;stroke:#fe0100;stroke-linejoin:miter;" x="153.889221" xlink:href="#m28de9a620b" y="130.907918"/>
     <use style="fill:#fe0100;stroke:#fe0100;stroke-linejoin:miter;" x="156.869906" xlink:href="#m28de9a620b" y="136.636795"/>
     <use style="fill:#fe0100;stroke:#fe0100;stroke-linejoin:miter;" x="159.85059" xlink:href="#m28de9a620b" y="150.136569"/>
     <use style="fill:#fe0100;stroke:#fe0100;stroke-linejoin:miter;" x="162.831275" xlink:href="#m28de9a620b" y="159.051438"/>
     <use style="fill:#fe0100;stroke:#fe0100;stroke-linejoin:miter;" x="165.811959" xlink:href="#m28de9a620b" y="176.384475"/>
     <use style="fill:#fe0100;stroke:#fe0100;stroke-linejoin:miter;" x="168.792644" xlink:href="#m28de9a620b" y="191.447253"/>
     <use style="fill:#fe0100;stroke:#fe0100;stroke-linejoin:miter;" x="171.773328" xlink:href="#m28de9a620b" y="194.709788"/>
     <use style="fill:#fe0100;stroke:#fe0100;stroke-linejoin:miter;" x="174.754013" xlink:href="#m28de9a620b" y="210.419131"/>
     <use style="fill:#fe0100;stroke:#fe0100;stroke-linejoin:miter;" x="177.734698" xlink:href="#m28de9a620b" y="219.585579"/>
     <use style="fill:#fe0100;stroke:#fe0100;stroke-linejoin:miter;" x="180.715382" xlink:href="#m28de9a620b" y="235.901849"/>
     <use style="fill:#fe0100;stroke:#fe0100;stroke-linejoin:miter;" x="183.696067" xlink:href="#m28de9a620b" y="251.936693"/>
     <use style="fill:#fe0100;stroke:#fe0100;stroke-linejoin:miter;" x="186.676751" xlink:href="#m28de9a620b" y="267.076325"/>
     <use style="fill:#fe0100;stroke:#fe0100;stroke-linejoin:miter;" x="189.657436" xlink:href="#m28de9a620b" y="267.401797"/>
     <use style="fill:#fe0100;stroke:#fe0100;stroke-linejoin:miter;" x="192.63812" xlink:href="#m28de9a620b" y="263.036973"/>
    </g>
   </g>
   <g id="line2d_23">
    <path clip-path="url(#pbcef3ceff9)" d="M 124.082376 91.50841 
L 141.815921 104.756787 
L 159.549466 118.005165 
L 177.283011 131.253542 
L 195.016556 144.501919 
L 212.750101 157.750297 
L 230.483647 170.998674 
L 248.217192 184.247051 
L 265.950737 197.495429 
L 283.684282 210.743806 
L 301.417827 223.992183 
L 319.151372 237.240561 
L 336.884917 250.488938 
L 354.618462 263.737315 
L 372.352008 276.985693 
L 390.085553 290.23407 
L 407.819098 303.482447 
L 425.552643 316.730825 
L 443.286188 329.979202 
L 461.019733 343.227579 
L 478.753278 356.475957 
L 496.486823 369.724334 
L 514.220369 382.972711 
" style="fill:none;stroke:#3200cd;stroke-linecap:square;stroke-width:2;"/>
   </g>
   <g id="line2d_24">
    <path clip-path="url(#pbcef3ceff9)" d="M 124.082376 58.27114 
L 131.423951 70.985234 
L 138.765526 83.699328 
L 146.107101 96.413422 
L 153.448676 109.127516 
L 160.790251 121.84161 
L 168.131826 134.555705 
L 175.473401 147.269799 
L 182.814976 159.983893 
L 190.156551 172.697987 
L 197.498126 185.412081 
L 204.839701 198.126175 
L 212.181276 210.840269 
L 219.522851 223.554363 
L 226.864426 236.268457 
L 234.206001 248.982552 
L 241.547576 261.696646 
L 248.889151 274.41074 
L 256.230726 287.124834 
L 263.572301 299.838928 
L 270.913876 312.553022 
L 278.255451 325.267116 
L 285.597026 337.98121 
L 292.938601 350.695305 
" style="fill:none;stroke:#660099;stroke-linecap:square;stroke-width:2;"/>
   </g>
   <g id="line2d_25">
    <path clip-path="url(#pbcef3ceff9)" d="M 124.082376 10.490924 
L 130.761223 32.651205 
L 137.44007 54.811485 
L 144.118917 76.971766 
L 150.797764 99.132046 
L 157.476611 121.292327 
L 164.155458 143.452607 
L 170.834305 165.612888 
L 177.513152 187.773168 
L 184.191999 209.933449 
L 190.870846 232.09373 
L 197.549693 254.25401 
L 204.22854 276.414291 
L 210.907386 298.574571 
L 217.586233 320.734852 
L 224.26508 342.895132 
L 230.943927 365.055413 
L 237.622774 387.215693 
L 244.301621 409.375974 
L 250.980468 431.536254 
L 257.659315 453.696535 
L 271.017009 498.017096 
" style="fill:none;stroke:#980067;stroke-linecap:square;stroke-width:2;"/>
   </g>
   <g id="line2d_26">
    <path clip-path="url(#pbcef3ceff9)" d="M 124.082376 27.884953 
L 128.028504 41.340029 
L 131.974633 54.795104 
L 135.920761 68.25018 
L 139.866889 81.705256 
L 143.813018 95.160332 
L 147.759146 108.615408 
L 151.705275 122.070484 
L 155.651403 135.52556 
L 159.597531 148.980636 
L 163.54366 162.435712 
L 167.489788 175.890788 
L 171.435917 189.345863 
L 175.382045 202.800939 
L 179.328173 216.256015 
L 183.274302 229.711091 
L 187.22043 243.166167 
L 191.166559 256.621243 
L 195.112687 270.076319 
L 199.058815 283.531395 
L 203.004944 296.986471 
L 206.951072 310.441547 
L 210.8972 323.896622 
L 214.843329 337.351698 
" style="fill:none;stroke:#cc0033;stroke-linecap:square;stroke-width:2;"/>
   </g>
   <g id="line2d_27">
    <path clip-path="url(#pbcef3ceff9)" d="M 124.082376 44.369028 
L 127.06306 53.979108 
L 130.043745 63.589189 
L 133.024429 73.199269 
L 136.005114 82.809349 
L 138.985799 92.41943 
L 141.966483 102.02951 
L 144.947168 111.639591 
L 147.927852 121.249671 
L 150.908537 130.859751 
L 153.889221 140.469832 
L 156.869906 150.079912 
L 159.85059 159.689992 
L 162.831275 169.300073 
L 165.811959 178.910153 
L 168.792644 188.520234 
L 171.773328 198.130314 
L 174.754013 207.740394 
L 177.734698 217.350475 
L 180.715382 226.960555 
L 183.696067 236.570635 
L 186.676751 246.180716 
L 189.657436 255.790796 
L 192.63812 265.400877 
" style="fill:none;stroke:#fe0100;stroke-linecap:square;stroke-width:2;"/>
   </g>
   <g id="patch_3">
    <path d="M 78.23 503.08 
L 78.23 29.52 
" style="fill:none;stroke:#000000;stroke-linecap:square;stroke-linejoin:miter;stroke-width:0.8;"/>
   </g>
   <g id="patch_4">
    <path d="M 551.88 503.08 
L 551.88 29.52 
" style="fill:none;stroke:#000000;stroke-linecap:square;stroke-linejoin:miter;stroke-width:0.8;"/>
   </g>
   <g id="patch_5">
    <path d="M 78.23 503.08 
L 551.88 503.08 
" style="fill:none;stroke:#000000;stroke-linecap:square;stroke-linejoin:miter;stroke-width:0.8;"/>
   </g>
   <g id="patch_6">
    <path d="M 78.23 29.52 
L 551.88 29.52 
" style="fill:none;stroke:#000000;stroke-linecap:square;stroke-linejoin:miter;stroke-width:0.8;"/>
   </g>
   <g id="legend_1">
    <g id="line2d_28">
     <path d="M 374.470625 55.716875 
L 414.470625 55.716875 
" style="fill:none;stroke:#3200cd;stroke-linecap:square;stroke-width:1.5;"/>
    </g>
    <g id="line2d_29">
     <g>
      <use style="fill:#3200cd;stroke:#3200cd;" x="394.470625" xlink:href="#m86d56b7a07" y="55.716875"/>
     </g>
    </g>
    <g id="text_15">
     <!-- p=.1, h=1 -->
     <defs>
      <path d="M 18.109375 8.203125 
L 18.109375 -20.796875 
L 9.078125 -20.796875 
L 9.078125 54.6875 
L 18.109375 54.6875 
L 18.109375 46.390625 
Q 20.953125 51.265625 25.265625 53.625 
Q 29.59375 56 35.59375 56 
Q 45.5625 56 51.78125 48.09375 
Q 58.015625 40.1875 58.015625 27.296875 
Q 58.015625 14.40625 51.78125 6.484375 
Q 45.5625 -1.421875 35.59375 -1.421875 
Q 29.59375 -1.421875 25.265625 0.953125 
Q 20.953125 3.328125 18.109375 8.203125 
z
M 48.6875 27.296875 
Q 48.6875 37.203125 44.609375 42.84375 
Q 40.53125 48.484375 33.40625 48.484375 
Q 26.265625 48.484375 22.1875 42.84375 
Q 18.109375 37.203125 18.109375 27.296875 
Q 18.109375 17.390625 22.1875 11.75 
Q 26.265625 6.109375 33.40625 6.109375 
Q 40.53125 6.109375 44.609375 11.75 
Q 48.6875 17.390625 48.6875 27.296875 
z
" id="DejaVuSans-70"/>
      <path d="M 10.59375 45.40625 
L 73.1875 45.40625 
L 73.1875 37.203125 
L 10.59375 37.203125 
z
M 10.59375 25.484375 
L 73.1875 25.484375 
L 73.1875 17.1875 
L 10.59375 17.1875 
z
" id="DejaVuSans-3d"/>
      <path d="M 10.6875 12.40625 
L 21 12.40625 
L 21 0 
L 10.6875 0 
z
" id="DejaVuSans-2e"/>
      <path d="M 11.71875 12.40625 
L 22.015625 12.40625 
L 22.015625 4 
L 14.015625 -11.625 
L 7.71875 -11.625 
L 11.71875 4 
z
" id="DejaVuSans-2c"/>
      <path d="M 54.890625 33.015625 
L 54.890625 0 
L 45.90625 0 
L 45.90625 32.71875 
Q 45.90625 40.484375 42.875 44.328125 
Q 39.84375 48.1875 33.796875 48.1875 
Q 26.515625 48.1875 22.3125 43.546875 
Q 18.109375 38.921875 18.109375 30.90625 
L 18.109375 0 
L 9.078125 0 
L 9.078125 75.984375 
L 18.109375 75.984375 
L 18.109375 46.1875 
Q 21.34375 51.125 25.703125 53.5625 
Q 30.078125 56 35.796875 56 
Q 45.21875 56 50.046875 50.171875 
Q 54.890625 44.34375 54.890625 33.015625 
z
" id="DejaVuSans-68"/>
     </defs>
     <g transform="translate(430.470625 62.716875)scale(0.2 -0.2)">
      <use xlink:href="#DejaVuSans-70"/>
      <use x="63.476562" xlink:href="#DejaVuSans-3d"/>
      <use x="147.265625" xlink:href="#DejaVuSans-2e"/>
      <use x="179.052734" xlink:href="#DejaVuSans-31"/>
      <use x="242.675781" xlink:href="#DejaVuSans-2c"/>
      <use x="274.462891" xlink:href="#DejaVuSans-20"/>
      <use x="306.25" xlink:href="#DejaVuSans-68"/>
      <use x="369.628906" xlink:href="#DejaVuSans-3d"/>
      <use x="453.417969" xlink:href="#DejaVuSans-31"/>
     </g>
    </g>
    <g id="line2d_30">
     <path d="M 374.470625 85.073125 
L 414.470625 85.073125 
" style="fill:none;stroke:#660099;stroke-linecap:square;stroke-width:1.5;"/>
    </g>
    <g id="line2d_31">
     <g>
      <use style="fill:#660099;stroke:#660099;stroke-linejoin:miter;" x="394.470625" xlink:href="#m239e7659f1" y="85.073125"/>
     </g>
    </g>
    <g id="text_16">
     <!-- p=.1, h=2 -->
     <g transform="translate(430.470625 92.073125)scale(0.2 -0.2)">
      <use xlink:href="#DejaVuSans-70"/>
      <use x="63.476562" xlink:href="#DejaVuSans-3d"/>
      <use x="147.265625" xlink:href="#DejaVuSans-2e"/>
      <use x="179.052734" xlink:href="#DejaVuSans-31"/>
      <use x="242.675781" xlink:href="#DejaVuSans-2c"/>
      <use x="274.462891" xlink:href="#DejaVuSans-20"/>
      <use x="306.25" xlink:href="#DejaVuSans-68"/>
      <use x="369.628906" xlink:href="#DejaVuSans-3d"/>
      <use x="453.417969" xlink:href="#DejaVuSans-32"/>
     </g>
    </g>
    <g id="line2d_32">
     <path d="M 374.470625 114.429375 
L 414.470625 114.429375 
" style="fill:none;stroke:#980067;stroke-linecap:square;stroke-width:1.5;"/>
    </g>
    <g id="line2d_33">
     <g>
      <use style="fill:#980067;stroke:#980067;stroke-linejoin:miter;" x="394.470625" xlink:href="#mebcb545a06" y="114.429375"/>
     </g>
    </g>
    <g id="text_17">
     <!-- p=.1, h=3 -->
     <defs>
      <path d="M 40.578125 39.3125 
Q 47.65625 37.796875 51.625 33 
Q 55.609375 28.21875 55.609375 21.1875 
Q 55.609375 10.40625 48.1875 4.484375 
Q 40.765625 -1.421875 27.09375 -1.421875 
Q 22.515625 -1.421875 17.65625 -0.515625 
Q 12.796875 0.390625 7.625 2.203125 
L 7.625 11.71875 
Q 11.71875 9.328125 16.59375 8.109375 
Q 21.484375 6.890625 26.8125 6.890625 
Q 36.078125 6.890625 40.9375 10.546875 
Q 45.796875 14.203125 45.796875 21.1875 
Q 45.796875 27.640625 41.28125 31.265625 
Q 36.765625 34.90625 28.71875 34.90625 
L 20.21875 34.90625 
L 20.21875 43.015625 
L 29.109375 43.015625 
Q 36.375 43.015625 40.234375 45.921875 
Q 44.09375 48.828125 44.09375 54.296875 
Q 44.09375 59.90625 40.109375 62.90625 
Q 36.140625 65.921875 28.71875 65.921875 
Q 24.65625 65.921875 20.015625 65.03125 
Q 15.375 64.15625 9.8125 62.3125 
L 9.8125 71.09375 
Q 15.4375 72.65625 20.34375 73.4375 
Q 25.25 74.21875 29.59375 74.21875 
Q 40.828125 74.21875 47.359375 69.109375 
Q 53.90625 64.015625 53.90625 55.328125 
Q 53.90625 49.265625 50.4375 45.09375 
Q 46.96875 40.921875 40.578125 39.3125 
z
" id="DejaVuSans-33"/>
     </defs>
     <g transform="translate(430.470625 121.429375)scale(0.2 -0.2)">
      <use xlink:href="#DejaVuSans-70"/>
      <use x="63.476562" xlink:href="#DejaVuSans-3d"/>
      <use x="147.265625" xlink:href="#DejaVuSans-2e"/>
      <use x="179.052734" xlink:href="#DejaVuSans-31"/>
      <use x="242.675781" xlink:href="#DejaVuSans-2c"/>
      <use x="274.462891" xlink:href="#DejaVuSans-20"/>
      <use x="306.25" xlink:href="#DejaVuSans-68"/>
      <use x="369.628906" xlink:href="#DejaVuSans-3d"/>
      <use x="453.417969" xlink:href="#DejaVuSans-33"/>
     </g>
    </g>
    <g id="line2d_34">
     <path d="M 374.470625 143.785625 
L 414.470625 143.785625 
" style="fill:none;stroke:#cc0033;stroke-linecap:square;stroke-width:1.5;"/>
    </g>
    <g id="line2d_35">
     <g>
      <use style="fill:#cc0033;stroke:#cc0033;stroke-linejoin:miter;" x="394.470625" xlink:href="#m94f59a81da" y="143.785625"/>
     </g>
    </g>
    <g id="text_18">
     <!-- p=.1, h=4 -->
     <g transform="translate(430.470625 150.785625)scale(0.2 -0.2)">
      <use xlink:href="#DejaVuSans-70"/>
      <use x="63.476562" xlink:href="#DejaVuSans-3d"/>
      <use x="147.265625" xlink:href="#DejaVuSans-2e"/>
      <use x="179.052734" xlink:href="#DejaVuSans-31"/>
      <use x="242.675781" xlink:href="#DejaVuSans-2c"/>
      <use x="274.462891" xlink:href="#DejaVuSans-20"/>
      <use x="306.25" xlink:href="#DejaVuSans-68"/>
      <use x="369.628906" xlink:href="#DejaVuSans-3d"/>
      <use x="453.417969" xlink:href="#DejaVuSans-34"/>
     </g>
    </g>
    <g id="line2d_36">
     <path d="M 374.470625 173.141875 
L 414.470625 173.141875 
" style="fill:none;stroke:#fe0100;stroke-linecap:square;stroke-width:1.5;"/>
    </g>
    <g id="line2d_37">
     <g>
      <use style="fill:#fe0100;stroke:#fe0100;stroke-linejoin:miter;" x="394.470625" xlink:href="#m28de9a620b" y="173.141875"/>
     </g>
    </g>
    <g id="text_19">
     <!-- p=.1, h=5 -->
     <g transform="translate(430.470625 180.141875)scale(0.2 -0.2)">
      <use xlink:href="#DejaVuSans-70"/>
      <use x="63.476562" xlink:href="#DejaVuSans-3d"/>
      <use x="147.265625" xlink:href="#DejaVuSans-2e"/>
      <use x="179.052734" xlink:href="#DejaVuSans-31"/>
      <use x="242.675781" xlink:href="#DejaVuSans-2c"/>
      <use x="274.462891" xlink:href="#DejaVuSans-20"/>
      <use x="306.25" xlink:href="#DejaVuSans-68"/>
      <use x="369.628906" xlink:href="#DejaVuSans-3d"/>
      <use x="453.417969" xlink:href="#DejaVuSans-35"/>
     </g>
    </g>
   </g>
  </g>
 </g>
 <defs>
  <clipPath id="pbcef3ceff9">
   <rect height="473.56" width="473.65" x="78.23" y="29.52"/>
  </clipPath>
 </defs>
</svg>
