<?xml version="1.0" encoding="utf-8" standalone="no"?>
<!DOCTYPE svg PUBLIC "-//W3C//DTD SVG 1.1//EN"
  "http://www.w3.org/Graphics/SVG/1.1/DTD/svg11.dtd">
<!-- Created with matplotlib (http://matplotlib.org/) -->
<svg height="576pt" version="1.1" viewBox="0 0 576 576" width="576pt" xmlns="http://www.w3.org/2000/svg" xmlns:xlink="http://www.w3.org/1999/xlink">
 <defs>
  <style type="text/css">
*{stroke-linecap:butt;stroke-linejoin:round;}
  </style>
 </defs>
 <g id="figure_1">
  <g id="patch_1">
   <path d="M 0 576 
L 576 576 
L 576 0 
L 0 0 
z
" style="fill:#ffffff;"/>
  </g>
  <g id="axes_1">
   <g id="patch_2">
    <path d="M 93.89 503.08 
L 551.88 503.08 
L 551.88 29.52 
L 93.89 29.52 
z
" style="fill:#ffffff;"/>
   </g>
   <g id="matplotlib.axis_1">
    <g id="xtick_1">
     <g id="line2d_1">
      <defs>
       <path d="M 0 0 
L 0 3.5 
" id="m855316c362" style="stroke:#000000;stroke-width:0.8;"/>
      </defs>
      <g>
       <use style="stroke:#000000;stroke-width:0.8;" x="97.359621" xlink:href="#m855316c362" y="503.08"/>
      </g>
     </g>
     <g id="text_1">
      <!-- 0.0 -->
      <defs>
       <path d="M 31.78125 66.40625 
Q 24.171875 66.40625 20.328125 58.90625 
Q 16.5 51.421875 16.5 36.375 
Q 16.5 21.390625 20.328125 13.890625 
Q 24.171875 6.390625 31.78125 6.390625 
Q 39.453125 6.390625 43.28125 13.890625 
Q 47.125 21.390625 47.125 36.375 
Q 47.125 51.421875 43.28125 58.90625 
Q 39.453125 66.40625 31.78125 66.40625 
z
M 31.78125 74.21875 
Q 44.046875 74.21875 50.515625 64.515625 
Q 56.984375 54.828125 56.984375 36.375 
Q 56.984375 17.96875 50.515625 8.265625 
Q 44.046875 -1.421875 31.78125 -1.421875 
Q 19.53125 -1.421875 13.0625 8.265625 
Q 6.59375 17.96875 6.59375 36.375 
Q 6.59375 54.828125 13.0625 64.515625 
Q 19.53125 74.21875 31.78125 74.21875 
z
" id="DejaVuSans-30"/>
       <path d="M 10.6875 12.40625 
L 21 12.40625 
L 21 0 
L 10.6875 0 
z
" id="DejaVuSans-2e"/>
      </defs>
      <g transform="translate(81.456496 525.276875)scale(0.2 -0.2)">
       <use xlink:href="#DejaVuSans-30"/>
       <use x="63.623047" xlink:href="#DejaVuSans-2e"/>
       <use x="95.410156" xlink:href="#DejaVuSans-30"/>
      </g>
     </g>
    </g>
    <g id="xtick_2">
     <g id="line2d_2">
      <g>
       <use style="stroke:#000000;stroke-width:0.8;" x="184.100152" xlink:href="#m855316c362" y="503.08"/>
      </g>
     </g>
     <g id="text_2">
      <!-- 0.1 -->
      <defs>
       <path d="M 12.40625 8.296875 
L 28.515625 8.296875 
L 28.515625 63.921875 
L 10.984375 60.40625 
L 10.984375 69.390625 
L 28.421875 72.90625 
L 38.28125 72.90625 
L 38.28125 8.296875 
L 54.390625 8.296875 
L 54.390625 0 
L 12.40625 0 
z
" id="DejaVuSans-31"/>
      </defs>
      <g transform="translate(168.197027 525.276875)scale(0.2 -0.2)">
       <use xlink:href="#DejaVuSans-30"/>
       <use x="63.623047" xlink:href="#DejaVuSans-2e"/>
       <use x="95.410156" xlink:href="#DejaVuSans-31"/>
      </g>
     </g>
    </g>
    <g id="xtick_3">
     <g id="line2d_3">
      <g>
       <use style="stroke:#000000;stroke-width:0.8;" x="270.840682" xlink:href="#m855316c362" y="503.08"/>
      </g>
     </g>
     <g id="text_3">
      <!-- 0.2 -->
      <defs>
       <path d="M 19.1875 8.296875 
L 53.609375 8.296875 
L 53.609375 0 
L 7.328125 0 
L 7.328125 8.296875 
Q 12.9375 14.109375 22.625 23.890625 
Q 32.328125 33.6875 34.8125 36.53125 
Q 39.546875 41.84375 41.421875 45.53125 
Q 43.3125 49.21875 43.3125 52.78125 
Q 43.3125 58.59375 39.234375 62.25 
Q 35.15625 65.921875 28.609375 65.921875 
Q 23.96875 65.921875 18.8125 64.3125 
Q 13.671875 62.703125 7.8125 59.421875 
L 7.8125 69.390625 
Q 13.765625 71.78125 18.9375 73 
Q 24.125 74.21875 28.421875 74.21875 
Q 39.75 74.21875 46.484375 68.546875 
Q 53.21875 62.890625 53.21875 53.421875 
Q 53.21875 48.921875 51.53125 44.890625 
Q 49.859375 40.875 45.40625 35.40625 
Q 44.1875 33.984375 37.640625 27.21875 
Q 31.109375 20.453125 19.1875 8.296875 
z
" id="DejaVuSans-32"/>
      </defs>
      <g transform="translate(254.937557 525.276875)scale(0.2 -0.2)">
       <use xlink:href="#DejaVuSans-30"/>
       <use x="63.623047" xlink:href="#DejaVuSans-2e"/>
       <use x="95.410156" xlink:href="#DejaVuSans-32"/>
      </g>
     </g>
    </g>
    <g id="xtick_4">
     <g id="line2d_4">
      <g>
       <use style="stroke:#000000;stroke-width:0.8;" x="357.581212" xlink:href="#m855316c362" y="503.08"/>
      </g>
     </g>
     <g id="text_4">
      <!-- 0.3 -->
      <defs>
       <path d="M 40.578125 39.3125 
Q 47.65625 37.796875 51.625 33 
Q 55.609375 28.21875 55.609375 21.1875 
Q 55.609375 10.40625 48.1875 4.484375 
Q 40.765625 -1.421875 27.09375 -1.421875 
Q 22.515625 -1.421875 17.65625 -0.515625 
Q 12.796875 0.390625 7.625 2.203125 
L 7.625 11.71875 
Q 11.71875 9.328125 16.59375 8.109375 
Q 21.484375 6.890625 26.8125 6.890625 
Q 36.078125 6.890625 40.9375 10.546875 
Q 45.796875 14.203125 45.796875 21.1875 
Q 45.796875 27.640625 41.28125 31.265625 
Q 36.765625 34.90625 28.71875 34.90625 
L 20.21875 34.90625 
L 20.21875 43.015625 
L 29.109375 43.015625 
Q 36.375 43.015625 40.234375 45.921875 
Q 44.09375 48.828125 44.09375 54.296875 
Q 44.09375 59.90625 40.109375 62.90625 
Q 36.140625 65.921875 28.71875 65.921875 
Q 24.65625 65.921875 20.015625 65.03125 
Q 15.375 64.15625 9.8125 62.3125 
L 9.8125 71.09375 
Q 15.4375 72.65625 20.34375 73.4375 
Q 25.25 74.21875 29.59375 74.21875 
Q 40.828125 74.21875 47.359375 69.109375 
Q 53.90625 64.015625 53.90625 55.328125 
Q 53.90625 49.265625 50.4375 45.09375 
Q 46.96875 40.921875 40.578125 39.3125 
z
" id="DejaVuSans-33"/>
      </defs>
      <g transform="translate(341.678087 525.276875)scale(0.2 -0.2)">
       <use xlink:href="#DejaVuSans-30"/>
       <use x="63.623047" xlink:href="#DejaVuSans-2e"/>
       <use x="95.410156" xlink:href="#DejaVuSans-33"/>
      </g>
     </g>
    </g>
    <g id="xtick_5">
     <g id="line2d_5">
      <g>
       <use style="stroke:#000000;stroke-width:0.8;" x="444.321742" xlink:href="#m855316c362" y="503.08"/>
      </g>
     </g>
     <g id="text_5">
      <!-- 0.4 -->
      <defs>
       <path d="M 37.796875 64.3125 
L 12.890625 25.390625 
L 37.796875 25.390625 
z
M 35.203125 72.90625 
L 47.609375 72.90625 
L 47.609375 25.390625 
L 58.015625 25.390625 
L 58.015625 17.1875 
L 47.609375 17.1875 
L 47.609375 0 
L 37.796875 0 
L 37.796875 17.1875 
L 4.890625 17.1875 
L 4.890625 26.703125 
z
" id="DejaVuSans-34"/>
      </defs>
      <g transform="translate(428.418617 525.276875)scale(0.2 -0.2)">
       <use xlink:href="#DejaVuSans-30"/>
       <use x="63.623047" xlink:href="#DejaVuSans-2e"/>
       <use x="95.410156" xlink:href="#DejaVuSans-34"/>
      </g>
     </g>
    </g>
    <g id="xtick_6">
     <g id="line2d_6">
      <g>
       <use style="stroke:#000000;stroke-width:0.8;" x="531.062273" xlink:href="#m855316c362" y="503.08"/>
      </g>
     </g>
     <g id="text_6">
      <!-- 0.5 -->
      <defs>
       <path d="M 10.796875 72.90625 
L 49.515625 72.90625 
L 49.515625 64.59375 
L 19.828125 64.59375 
L 19.828125 46.734375 
Q 21.96875 47.46875 24.109375 47.828125 
Q 26.265625 48.1875 28.421875 48.1875 
Q 40.625 48.1875 47.75 41.5 
Q 54.890625 34.8125 54.890625 23.390625 
Q 54.890625 11.625 47.5625 5.09375 
Q 40.234375 -1.421875 26.90625 -1.421875 
Q 22.3125 -1.421875 17.546875 -0.640625 
Q 12.796875 0.140625 7.71875 1.703125 
L 7.71875 11.625 
Q 12.109375 9.234375 16.796875 8.0625 
Q 21.484375 6.890625 26.703125 6.890625 
Q 35.15625 6.890625 40.078125 11.328125 
Q 45.015625 15.765625 45.015625 23.390625 
Q 45.015625 31 40.078125 35.4375 
Q 35.15625 39.890625 26.703125 39.890625 
Q 22.75 39.890625 18.8125 39.015625 
Q 14.890625 38.140625 10.796875 36.28125 
z
" id="DejaVuSans-35"/>
      </defs>
      <g transform="translate(515.159148 525.276875)scale(0.2 -0.2)">
       <use xlink:href="#DejaVuSans-30"/>
       <use x="63.623047" xlink:href="#DejaVuSans-2e"/>
       <use x="95.410156" xlink:href="#DejaVuSans-35"/>
      </g>
     </g>
    </g>
    <g id="text_7">
     <!-- p -->
     <defs>
      <path d="M 18.109375 8.203125 
L 18.109375 -20.796875 
L 9.078125 -20.796875 
L 9.078125 54.6875 
L 18.109375 54.6875 
L 18.109375 46.390625 
Q 20.953125 51.265625 25.265625 53.625 
Q 29.59375 56 35.59375 56 
Q 45.5625 56 51.78125 48.09375 
Q 58.015625 40.1875 58.015625 27.296875 
Q 58.015625 14.40625 51.78125 6.484375 
Q 45.5625 -1.421875 35.59375 -1.421875 
Q 29.59375 -1.421875 25.265625 0.953125 
Q 20.953125 3.328125 18.109375 8.203125 
z
M 48.6875 27.296875 
Q 48.6875 37.203125 44.609375 42.84375 
Q 40.53125 48.484375 33.40625 48.484375 
Q 26.265625 48.484375 22.1875 42.84375 
Q 18.109375 37.203125 18.109375 27.296875 
Q 18.109375 17.390625 22.1875 11.75 
Q 26.265625 6.109375 33.40625 6.109375 
Q 40.53125 6.109375 44.609375 11.75 
Q 48.6875 17.390625 48.6875 27.296875 
z
" id="DejaVuSans-70"/>
     </defs>
     <g transform="translate(316.536563 548.633125)scale(0.2 -0.2)">
      <use xlink:href="#DejaVuSans-70"/>
     </g>
    </g>
   </g>
   <g id="matplotlib.axis_2">
    <g id="ytick_1">
     <g id="line2d_7">
      <defs>
       <path d="M 0 0 
L -3.5 0 
" id="m5251dd46fa" style="stroke:#000000;stroke-width:0.8;"/>
      </defs>
      <g>
       <use style="stroke:#000000;stroke-width:0.8;" x="93.89" xlink:href="#m5251dd46fa" y="503.08"/>
      </g>
     </g>
     <g id="text_8">
      <!-- 0 -->
      <g transform="translate(74.165 510.678437)scale(0.2 -0.2)">
       <use xlink:href="#DejaVuSans-30"/>
      </g>
     </g>
    </g>
    <g id="ytick_2">
     <g id="line2d_8">
      <g>
       <use style="stroke:#000000;stroke-width:0.8;" x="93.89" xlink:href="#m5251dd46fa" y="408.368"/>
      </g>
     </g>
     <g id="text_9">
      <!-- 20 -->
      <g transform="translate(61.44 415.966437)scale(0.2 -0.2)">
       <use xlink:href="#DejaVuSans-32"/>
       <use x="63.623047" xlink:href="#DejaVuSans-30"/>
      </g>
     </g>
    </g>
    <g id="ytick_3">
     <g id="line2d_9">
      <g>
       <use style="stroke:#000000;stroke-width:0.8;" x="93.89" xlink:href="#m5251dd46fa" y="313.656"/>
      </g>
     </g>
     <g id="text_10">
      <!-- 40 -->
      <g transform="translate(61.44 321.254437)scale(0.2 -0.2)">
       <use xlink:href="#DejaVuSans-34"/>
       <use x="63.623047" xlink:href="#DejaVuSans-30"/>
      </g>
     </g>
    </g>
    <g id="ytick_4">
     <g id="line2d_10">
      <g>
       <use style="stroke:#000000;stroke-width:0.8;" x="93.89" xlink:href="#m5251dd46fa" y="218.944"/>
      </g>
     </g>
     <g id="text_11">
      <!-- 60 -->
      <defs>
       <path d="M 33.015625 40.375 
Q 26.375 40.375 22.484375 35.828125 
Q 18.609375 31.296875 18.609375 23.390625 
Q 18.609375 15.53125 22.484375 10.953125 
Q 26.375 6.390625 33.015625 6.390625 
Q 39.65625 6.390625 43.53125 10.953125 
Q 47.40625 15.53125 47.40625 23.390625 
Q 47.40625 31.296875 43.53125 35.828125 
Q 39.65625 40.375 33.015625 40.375 
z
M 52.59375 71.296875 
L 52.59375 62.3125 
Q 48.875 64.0625 45.09375 64.984375 
Q 41.3125 65.921875 37.59375 65.921875 
Q 27.828125 65.921875 22.671875 59.328125 
Q 17.53125 52.734375 16.796875 39.40625 
Q 19.671875 43.65625 24.015625 45.921875 
Q 28.375 48.1875 33.59375 48.1875 
Q 44.578125 48.1875 50.953125 41.515625 
Q 57.328125 34.859375 57.328125 23.390625 
Q 57.328125 12.15625 50.6875 5.359375 
Q 44.046875 -1.421875 33.015625 -1.421875 
Q 20.359375 -1.421875 13.671875 8.265625 
Q 6.984375 17.96875 6.984375 36.375 
Q 6.984375 53.65625 15.1875 63.9375 
Q 23.390625 74.21875 37.203125 74.21875 
Q 40.921875 74.21875 44.703125 73.484375 
Q 48.484375 72.75 52.59375 71.296875 
z
" id="DejaVuSans-36"/>
      </defs>
      <g transform="translate(61.44 226.542437)scale(0.2 -0.2)">
       <use xlink:href="#DejaVuSans-36"/>
       <use x="63.623047" xlink:href="#DejaVuSans-30"/>
      </g>
     </g>
    </g>
    <g id="ytick_5">
     <g id="line2d_11">
      <g>
       <use style="stroke:#000000;stroke-width:0.8;" x="93.89" xlink:href="#m5251dd46fa" y="124.232"/>
      </g>
     </g>
     <g id="text_12">
      <!-- 80 -->
      <defs>
       <path d="M 31.78125 34.625 
Q 24.75 34.625 20.71875 30.859375 
Q 16.703125 27.09375 16.703125 20.515625 
Q 16.703125 13.921875 20.71875 10.15625 
Q 24.75 6.390625 31.78125 6.390625 
Q 38.8125 6.390625 42.859375 10.171875 
Q 46.921875 13.96875 46.921875 20.515625 
Q 46.921875 27.09375 42.890625 30.859375 
Q 38.875 34.625 31.78125 34.625 
z
M 21.921875 38.8125 
Q 15.578125 40.375 12.03125 44.71875 
Q 8.5 49.078125 8.5 55.328125 
Q 8.5 64.0625 14.71875 69.140625 
Q 20.953125 74.21875 31.78125 74.21875 
Q 42.671875 74.21875 48.875 69.140625 
Q 55.078125 64.0625 55.078125 55.328125 
Q 55.078125 49.078125 51.53125 44.71875 
Q 48 40.375 41.703125 38.8125 
Q 48.828125 37.15625 52.796875 32.3125 
Q 56.78125 27.484375 56.78125 20.515625 
Q 56.78125 9.90625 50.3125 4.234375 
Q 43.84375 -1.421875 31.78125 -1.421875 
Q 19.734375 -1.421875 13.25 4.234375 
Q 6.78125 9.90625 6.78125 20.515625 
Q 6.78125 27.484375 10.78125 32.3125 
Q 14.796875 37.15625 21.921875 38.8125 
z
M 18.3125 54.390625 
Q 18.3125 48.734375 21.84375 45.5625 
Q 25.390625 42.390625 31.78125 42.390625 
Q 38.140625 42.390625 41.71875 45.5625 
Q 45.3125 48.734375 45.3125 54.390625 
Q 45.3125 60.0625 41.71875 63.234375 
Q 38.140625 66.40625 31.78125 66.40625 
Q 25.390625 66.40625 21.84375 63.234375 
Q 18.3125 60.0625 18.3125 54.390625 
z
" id="DejaVuSans-38"/>
      </defs>
      <g transform="translate(61.44 131.830437)scale(0.2 -0.2)">
       <use xlink:href="#DejaVuSans-38"/>
       <use x="63.623047" xlink:href="#DejaVuSans-30"/>
      </g>
     </g>
    </g>
    <g id="ytick_6">
     <g id="line2d_12">
      <g>
       <use style="stroke:#000000;stroke-width:0.8;" x="93.89" xlink:href="#m5251dd46fa" y="29.52"/>
      </g>
     </g>
     <g id="text_13">
      <!-- 100 -->
      <g transform="translate(48.715 37.118438)scale(0.2 -0.2)">
       <use xlink:href="#DejaVuSans-31"/>
       <use x="63.623047" xlink:href="#DejaVuSans-30"/>
       <use x="127.246094" xlink:href="#DejaVuSans-30"/>
      </g>
     </g>
    </g>
    <g id="text_14">
     <!-- 1000 x $\mu$(p)  -->
     <defs>
      <path id="DejaVuSans-20"/>
      <path d="M 54.890625 54.6875 
L 35.109375 28.078125 
L 55.90625 0 
L 45.3125 0 
L 29.390625 21.484375 
L 13.484375 0 
L 2.875 0 
L 24.125 28.609375 
L 4.6875 54.6875 
L 15.28125 54.6875 
L 29.78125 35.203125 
L 44.28125 54.6875 
z
" id="DejaVuSans-78"/>
      <path d="M -1.3125 -20.796875 
L 13.375 54.6875 
L 22.40625 54.6875 
L 15.765625 20.65625 
Q 15.578125 19.625 15.421875 18.359375 
Q 15.28125 17.09375 15.28125 15.828125 
Q 15.28125 11.28125 18.140625 8.828125 
Q 21 6.390625 26.3125 6.390625 
Q 33.546875 6.390625 37.984375 10.484375 
Q 42.4375 14.59375 44 22.796875 
L 50.203125 54.6875 
L 59.1875 54.6875 
L 51.03125 12.640625 
Q 50.828125 11.71875 50.75 11.03125 
Q 50.6875 10.359375 50.6875 9.8125 
Q 50.6875 8.296875 51.296875 7.59375 
Q 51.90625 6.890625 53.21875 6.890625 
Q 53.71875 6.890625 54.5625 7.125 
Q 55.421875 7.375 56.984375 8.015625 
L 55.609375 0.78125 
Q 53.46875 -0.296875 51.515625 -0.859375 
Q 49.5625 -1.421875 47.703125 -1.421875 
Q 44.484375 -1.421875 42.65625 0.625 
Q 40.828125 2.6875 40.828125 6.296875 
Q 38.09375 2.390625 34.296875 0.484375 
Q 30.515625 -1.421875 25.390625 -1.421875 
Q 20.84375 -1.421875 17.453125 0.671875 
Q 14.0625 2.78125 12.984375 6.203125 
L 7.71875 -20.796875 
z
" id="DejaVuSans-Oblique-3bc"/>
      <path d="M 31 75.875 
Q 24.46875 64.65625 21.28125 53.65625 
Q 18.109375 42.671875 18.109375 31.390625 
Q 18.109375 20.125 21.3125 9.0625 
Q 24.515625 -2 31 -13.1875 
L 23.1875 -13.1875 
Q 15.875 -1.703125 12.234375 9.375 
Q 8.59375 20.453125 8.59375 31.390625 
Q 8.59375 42.28125 12.203125 53.3125 
Q 15.828125 64.359375 23.1875 75.875 
z
" id="DejaVuSans-28"/>
      <path d="M 8.015625 75.875 
L 15.828125 75.875 
Q 23.140625 64.359375 26.78125 53.3125 
Q 30.421875 42.28125 30.421875 31.390625 
Q 30.421875 20.453125 26.78125 9.375 
Q 23.140625 -1.703125 15.828125 -13.1875 
L 8.015625 -13.1875 
Q 14.5 -2 17.703125 9.0625 
Q 20.90625 20.125 20.90625 31.390625 
Q 20.90625 42.671875 17.703125 53.65625 
Q 14.5 64.65625 8.015625 75.875 
z
" id="DejaVuSans-29"/>
     </defs>
     <g transform="translate(40.515 327.8)rotate(-90)scale(0.2 -0.2)">
      <use transform="translate(0 0.125)" xlink:href="#DejaVuSans-31"/>
      <use transform="translate(63.623047 0.125)" xlink:href="#DejaVuSans-30"/>
      <use transform="translate(127.246094 0.125)" xlink:href="#DejaVuSans-30"/>
      <use transform="translate(190.869141 0.125)" xlink:href="#DejaVuSans-30"/>
      <use transform="translate(254.492188 0.125)" xlink:href="#DejaVuSans-20"/>
      <use transform="translate(286.279297 0.125)" xlink:href="#DejaVuSans-78"/>
      <use transform="translate(345.458984 0.125)" xlink:href="#DejaVuSans-20"/>
      <use transform="translate(377.246094 0.125)" xlink:href="#DejaVuSans-Oblique-3bc"/>
      <use transform="translate(440.869141 0.125)" xlink:href="#DejaVuSans-28"/>
      <use transform="translate(479.882812 0.125)" xlink:href="#DejaVuSans-70"/>
      <use transform="translate(543.359375 0.125)" xlink:href="#DejaVuSans-29"/>
      <use transform="translate(582.373047 0.125)" xlink:href="#DejaVuSans-20"/>
     </g>
    </g>
   </g>
   <g id="line2d_13">
    <defs>
     <path d="M 0 5 
C 1.326016 5 2.597899 4.473168 3.535534 3.535534 
C 4.473168 2.597899 5 1.326016 5 0 
C 5 -1.326016 4.473168 -2.597899 3.535534 -3.535534 
C 2.597899 -4.473168 1.326016 -5 0 -5 
C -1.326016 -5 -2.597899 -4.473168 -3.535534 -3.535534 
C -4.473168 -2.597899 -5 -1.326016 -5 0 
C -5 1.326016 -4.473168 2.597899 -3.535534 3.535534 
C -2.597899 4.473168 -1.326016 5 0 5 
z
" id="m73fc204629" style="stroke:#0000cd;"/>
    </defs>
    <g clip-path="url(#p72ae38a870)">
     <use style="fill:#0000cd;stroke:#0000cd;" x="114.707727" xlink:href="#m73fc204629" y="498.136664"/>
     <use style="fill:#0000cd;stroke:#0000cd;" x="123.38178" xlink:href="#m73fc204629" y="498.868481"/>
     <use style="fill:#0000cd;stroke:#0000cd;" x="132.055833" xlink:href="#m73fc204629" y="499.056227"/>
     <use style="fill:#0000cd;stroke:#0000cd;" x="140.729886" xlink:href="#m73fc204629" y="499.025384"/>
     <use style="fill:#0000cd;stroke:#0000cd;" x="158.077992" xlink:href="#m73fc204629" y="498.61589"/>
     <use style="fill:#0000cd;stroke:#0000cd;" x="184.100152" xlink:href="#m73fc204629" y="497.578963"/>
     <use style="fill:#0000cd;stroke:#0000cd;" x="201.448258" xlink:href="#m73fc204629" y="496.690605"/>
     <use style="fill:#0000cd;stroke:#0000cd;" x="227.470417" xlink:href="#m73fc204629" y="495.071227"/>
     <use style="fill:#0000cd;stroke:#0000cd;" x="244.818523" xlink:href="#m73fc204629" y="493.638333"/>
     <use style="fill:#0000cd;stroke:#0000cd;" x="270.840682" xlink:href="#m73fc204629" y="491.466405"/>
     <use style="fill:#0000cd;stroke:#0000cd;" x="314.210947" xlink:href="#m73fc204629" y="485.828301"/>
     <use style="fill:#0000cd;stroke:#0000cd;" x="357.581212" xlink:href="#m73fc204629" y="476.82419"/>
     <use style="fill:#0000cd;stroke:#0000cd;" x="400.951477" xlink:href="#m73fc204629" y="460.01022"/>
     <use style="fill:#0000cd;stroke:#0000cd;" x="444.321742" xlink:href="#m73fc204629" y="427.254226"/>
     <use style="fill:#0000cd;stroke:#0000cd;" x="487.692008" xlink:href="#m73fc204629" y="363.435715"/>
     <use style="fill:#0000cd;stroke:#0000cd;" x="531.062273" xlink:href="#m73fc204629" y="226.311733"/>
    </g>
   </g>
   <g id="line2d_14">
    <path clip-path="url(#p72ae38a870)" d="M 114.707727 500.003142 
L 140.729886 499.110747 
L 164.14983 498.088282 
L 184.967557 496.960286 
L 204.050473 495.703697 
L 221.39858 494.338761 
L 237.011875 492.895639 
L 251.757765 491.314567 
L 265.63625 489.602936 
L 278.64733 487.772793 
L 290.791004 485.841085 
L 302.067273 483.829714 
L 313.343542 481.583664 
L 323.752405 479.278464 
L 333.293864 476.948833 
L 342.835322 474.391183 
L 351.509375 471.849441 
L 360.183428 469.082509 
L 368.857481 466.070434 
L 376.664129 463.132059 
L 384.470777 459.960392 
L 392.277424 456.536911 
L 399.216667 453.266289 
L 406.155909 449.765837 
L 413.095152 446.019406 
L 420.034394 442.00971 
L 426.973636 437.718249 
L 433.045473 433.716554 
L 439.117311 429.46986 
L 445.189148 424.963168 
L 451.260985 420.180558 
L 457.332822 415.105139 
L 463.404659 409.718984 
L 469.476496 404.003067 
L 475.548333 397.937201 
L 480.752765 392.443149 
L 485.957197 386.662015 
L 491.161629 380.578799 
L 496.366061 374.177714 
L 501.570492 367.442153 
L 506.774924 360.354636 
L 511.979356 352.896774 
L 517.183788 345.049214 
L 522.38822 336.791594 
L 527.592652 328.102486 
L 530.194867 323.589124 
L 530.194867 323.589124 
" style="fill:none;stroke:#0000cd;stroke-linecap:square;stroke-width:1.5;"/>
   </g>
   <g id="line2d_15">
    <defs>
     <path d="M -5 5 
L 5 5 
L 5 -5 
L -5 -5 
z
" id="me3e259669b" style="stroke:#9a32cd;stroke-linejoin:miter;"/>
    </defs>
    <g clip-path="url(#p72ae38a870)">
     <use style="fill:#9a32cd;stroke:#9a32cd;stroke-linejoin:miter;" x="114.707727" xlink:href="#me3e259669b" y="488.867909"/>
     <use style="fill:#9a32cd;stroke:#9a32cd;stroke-linejoin:miter;" x="123.38178" xlink:href="#me3e259669b" y="490.054996"/>
     <use style="fill:#9a32cd;stroke:#9a32cd;stroke-linejoin:miter;" x="132.055833" xlink:href="#me3e259669b" y="490.116488"/>
     <use style="fill:#9a32cd;stroke:#9a32cd;stroke-linejoin:miter;" x="140.729886" xlink:href="#me3e259669b" y="488.607984"/>
     <use style="fill:#9a32cd;stroke:#9a32cd;stroke-linejoin:miter;" x="158.077992" xlink:href="#me3e259669b" y="484.569504"/>
     <use style="fill:#9a32cd;stroke:#9a32cd;stroke-linejoin:miter;" x="184.100152" xlink:href="#me3e259669b" y="473.136818"/>
     <use style="fill:#9a32cd;stroke:#9a32cd;stroke-linejoin:miter;" x="201.448258" xlink:href="#me3e259669b" y="462.216153"/>
     <use style="fill:#9a32cd;stroke:#9a32cd;stroke-linejoin:miter;" x="227.470417" xlink:href="#me3e259669b" y="433.000855"/>
     <use style="fill:#9a32cd;stroke:#9a32cd;stroke-linejoin:miter;" x="244.818523" xlink:href="#me3e259669b" y="405.189424"/>
     <use style="fill:#9a32cd;stroke:#9a32cd;stroke-linejoin:miter;" x="270.840682" xlink:href="#me3e259669b" y="332.339527"/>
     <use style="fill:#9a32cd;stroke:#9a32cd;stroke-linejoin:miter;" x="314.210947" xlink:href="#me3e259669b" y="74.368236"/>
     <use style="fill:#9a32cd;stroke:#9a32cd;stroke-linejoin:miter;" x="318.786245" xlink:href="#me3e259669b" y="-1"/>
    </g>
   </g>
   <g id="line2d_16">
    <path clip-path="url(#p72ae38a870)" d="M 114.707727 495.750805 
L 122.514375 494.359219 
L 129.453617 492.901922 
L 136.39286 491.201103 
L 142.464697 489.481291 
L 148.536534 487.512486 
L 153.740966 485.599573 
L 158.945398 483.451605 
L 164.14983 481.039697 
L 168.486856 478.804871 
L 172.823883 476.343441 
L 177.160909 473.632428 
L 181.497936 470.646526 
L 185.834962 467.357862 
L 190.171989 463.735737 
L 193.64161 460.575335 
L 197.111231 457.161068 
L 200.580852 453.472543 
L 204.050473 449.487731 
L 207.520095 445.182832 
L 210.989716 440.532133 
L 214.459337 435.507859 
L 217.928958 430.08 
L 221.39858 424.216138 
L 224.868201 417.88125 
L 228.337822 411.037501 
L 231.807443 403.644014 
L 235.277064 395.656632 
L 238.746686 387.027649 
L 242.216307 377.705526 
L 245.685928 367.634586 
L 249.155549 356.754679 
L 252.62517 345.000823 
L 256.094792 332.302817 
L 259.564413 318.58482 
L 263.034034 303.764898 
L 266.503655 287.754539 
L 269.973277 270.458117 
L 273.442898 251.772328 
L 276.912519 231.585568 
L 280.38214 209.777269 
L 283.851761 186.217177 
L 287.321383 160.764576 
L 290.791004 133.267447 
L 294.260625 103.561561 
L 297.730246 71.469493 
L 301.199867 36.799569 
L 304.699923 -1 
L 304.699923 -1 
" style="fill:none;stroke:#9a32cd;stroke-linecap:square;stroke-width:1.5;"/>
   </g>
   <g id="line2d_17">
    <defs>
     <path d="M 0 -5 
L -5 5 
L 5 5 
z
" id="m7ccb5e09dc" style="stroke:#ff3030;stroke-linejoin:miter;"/>
    </defs>
    <g clip-path="url(#p72ae38a870)">
     <use style="fill:#ff3030;stroke:#ff3030;stroke-linejoin:miter;" x="123.38178" xlink:href="#m7ccb5e09dc" y="468.722208"/>
     <use style="fill:#ff3030;stroke:#ff3030;stroke-linejoin:miter;" x="140.729886" xlink:href="#m7ccb5e09dc" y="456.522422"/>
     <use style="fill:#ff3030;stroke:#ff3030;stroke-linejoin:miter;" x="184.100152" xlink:href="#m7ccb5e09dc" y="348.594994"/>
     <use style="fill:#ff3030;stroke:#ff3030;stroke-linejoin:miter;" x="218.266202" xlink:href="#m7ccb5e09dc" y="-1"/>
    </g>
   </g>
   <g id="line2d_18">
    <path clip-path="url(#p72ae38a870)" d="M 114.707727 480.260915 
L 118.177348 477.694666 
L 121.64697 474.839815 
L 125.116591 471.663906 
L 128.586212 468.130832 
L 132.055833 464.200426 
L 135.525455 459.828005 
L 138.12767 456.228917 
L 140.729886 452.330341 
L 143.332102 448.107357 
L 145.934318 443.53297 
L 148.536534 438.577938 
L 151.13875 433.210588 
L 153.740966 427.39661 
L 156.343182 421.098839 
L 158.945398 414.277017 
L 161.547614 406.887537 
L 164.14983 398.883163 
L 166.752045 390.212729 
L 169.354261 380.82081 
L 171.956477 370.64737 
L 174.558693 359.627377 
L 177.160909 347.690387 
L 179.763125 334.760096 
L 182.365341 320.753849 
L 184.967557 305.582113 
L 187.569773 289.147905 
L 190.171989 271.346173 
L 192.774205 252.063122 
L 195.37642 231.175488 
L 197.978636 208.549751 
L 200.580852 184.04128 
L 203.183068 157.493408 
L 205.785284 128.736433 
L 208.3875 97.586531 
L 210.989716 63.844581 
L 213.591932 27.294893 
L 215.47103 -1 
L 215.47103 -1 
" style="fill:none;stroke:#ff3030;stroke-linecap:square;stroke-width:1.5;"/>
   </g>
   <g id="patch_3">
    <path d="M 93.89 503.08 
L 93.89 29.52 
" style="fill:none;stroke:#000000;stroke-linecap:square;stroke-linejoin:miter;stroke-width:0.8;"/>
   </g>
   <g id="patch_4">
    <path d="M 551.88 503.08 
L 551.88 29.52 
" style="fill:none;stroke:#000000;stroke-linecap:square;stroke-linejoin:miter;stroke-width:0.8;"/>
   </g>
   <g id="patch_5">
    <path d="M 93.89 503.08 
L 551.88 503.08 
" style="fill:none;stroke:#000000;stroke-linecap:square;stroke-linejoin:miter;stroke-width:0.8;"/>
   </g>
   <g id="patch_6">
    <path d="M 93.89 29.52 
L 551.88 29.52 
" style="fill:none;stroke:#000000;stroke-linecap:square;stroke-linejoin:miter;stroke-width:0.8;"/>
   </g>
   <g id="legend_1">
    <g id="line2d_19"/>
    <g id="line2d_20">
     <g>
      <use style="fill:#0000cd;stroke:#0000cd;" x="374.6" xlink:href="#m73fc204629" y="50.4775"/>
     </g>
    </g>
    <g id="text_15">
     <!-- 2 contexts -->
     <defs>
      <path d="M 48.78125 52.59375 
L 48.78125 44.1875 
Q 44.96875 46.296875 41.140625 47.34375 
Q 37.3125 48.390625 33.40625 48.390625 
Q 24.65625 48.390625 19.8125 42.84375 
Q 14.984375 37.3125 14.984375 27.296875 
Q 14.984375 17.28125 19.8125 11.734375 
Q 24.65625 6.203125 33.40625 6.203125 
Q 37.3125 6.203125 41.140625 7.25 
Q 44.96875 8.296875 48.78125 10.40625 
L 48.78125 2.09375 
Q 45.015625 0.34375 40.984375 -0.53125 
Q 36.96875 -1.421875 32.421875 -1.421875 
Q 20.0625 -1.421875 12.78125 6.34375 
Q 5.515625 14.109375 5.515625 27.296875 
Q 5.515625 40.671875 12.859375 48.328125 
Q 20.21875 56 33.015625 56 
Q 37.15625 56 41.109375 55.140625 
Q 45.0625 54.296875 48.78125 52.59375 
z
" id="DejaVuSans-63"/>
      <path d="M 30.609375 48.390625 
Q 23.390625 48.390625 19.1875 42.75 
Q 14.984375 37.109375 14.984375 27.296875 
Q 14.984375 17.484375 19.15625 11.84375 
Q 23.34375 6.203125 30.609375 6.203125 
Q 37.796875 6.203125 41.984375 11.859375 
Q 46.1875 17.53125 46.1875 27.296875 
Q 46.1875 37.015625 41.984375 42.703125 
Q 37.796875 48.390625 30.609375 48.390625 
z
M 30.609375 56 
Q 42.328125 56 49.015625 48.375 
Q 55.71875 40.765625 55.71875 27.296875 
Q 55.71875 13.875 49.015625 6.21875 
Q 42.328125 -1.421875 30.609375 -1.421875 
Q 18.84375 -1.421875 12.171875 6.21875 
Q 5.515625 13.875 5.515625 27.296875 
Q 5.515625 40.765625 12.171875 48.375 
Q 18.84375 56 30.609375 56 
z
" id="DejaVuSans-6f"/>
      <path d="M 54.890625 33.015625 
L 54.890625 0 
L 45.90625 0 
L 45.90625 32.71875 
Q 45.90625 40.484375 42.875 44.328125 
Q 39.84375 48.1875 33.796875 48.1875 
Q 26.515625 48.1875 22.3125 43.546875 
Q 18.109375 38.921875 18.109375 30.90625 
L 18.109375 0 
L 9.078125 0 
L 9.078125 54.6875 
L 18.109375 54.6875 
L 18.109375 46.1875 
Q 21.34375 51.125 25.703125 53.5625 
Q 30.078125 56 35.796875 56 
Q 45.21875 56 50.046875 50.171875 
Q 54.890625 44.34375 54.890625 33.015625 
z
" id="DejaVuSans-6e"/>
      <path d="M 18.3125 70.21875 
L 18.3125 54.6875 
L 36.8125 54.6875 
L 36.8125 47.703125 
L 18.3125 47.703125 
L 18.3125 18.015625 
Q 18.3125 11.328125 20.140625 9.421875 
Q 21.96875 7.515625 27.59375 7.515625 
L 36.8125 7.515625 
L 36.8125 0 
L 27.59375 0 
Q 17.1875 0 13.234375 3.875 
Q 9.28125 7.765625 9.28125 18.015625 
L 9.28125 47.703125 
L 2.6875 47.703125 
L 2.6875 54.6875 
L 9.28125 54.6875 
L 9.28125 70.21875 
z
" id="DejaVuSans-74"/>
      <path d="M 56.203125 29.59375 
L 56.203125 25.203125 
L 14.890625 25.203125 
Q 15.484375 15.921875 20.484375 11.0625 
Q 25.484375 6.203125 34.421875 6.203125 
Q 39.59375 6.203125 44.453125 7.46875 
Q 49.3125 8.734375 54.109375 11.28125 
L 54.109375 2.78125 
Q 49.265625 0.734375 44.1875 -0.34375 
Q 39.109375 -1.421875 33.890625 -1.421875 
Q 20.796875 -1.421875 13.15625 6.1875 
Q 5.515625 13.8125 5.515625 26.8125 
Q 5.515625 40.234375 12.765625 48.109375 
Q 20.015625 56 32.328125 56 
Q 43.359375 56 49.78125 48.890625 
Q 56.203125 41.796875 56.203125 29.59375 
z
M 47.21875 32.234375 
Q 47.125 39.59375 43.09375 43.984375 
Q 39.0625 48.390625 32.421875 48.390625 
Q 24.90625 48.390625 20.390625 44.140625 
Q 15.875 39.890625 15.1875 32.171875 
z
" id="DejaVuSans-65"/>
      <path d="M 44.28125 53.078125 
L 44.28125 44.578125 
Q 40.484375 46.53125 36.375 47.5 
Q 32.28125 48.484375 27.875 48.484375 
Q 21.1875 48.484375 17.84375 46.4375 
Q 14.5 44.390625 14.5 40.28125 
Q 14.5 37.15625 16.890625 35.375 
Q 19.28125 33.59375 26.515625 31.984375 
L 29.59375 31.296875 
Q 39.15625 29.25 43.1875 25.515625 
Q 47.21875 21.78125 47.21875 15.09375 
Q 47.21875 7.46875 41.1875 3.015625 
Q 35.15625 -1.421875 24.609375 -1.421875 
Q 20.21875 -1.421875 15.453125 -0.5625 
Q 10.6875 0.296875 5.421875 2 
L 5.421875 11.28125 
Q 10.40625 8.6875 15.234375 7.390625 
Q 20.0625 6.109375 24.8125 6.109375 
Q 31.15625 6.109375 34.5625 8.28125 
Q 37.984375 10.453125 37.984375 14.40625 
Q 37.984375 18.0625 35.515625 20.015625 
Q 33.0625 21.96875 24.703125 23.78125 
L 21.578125 24.515625 
Q 13.234375 26.265625 9.515625 29.90625 
Q 5.8125 33.546875 5.8125 39.890625 
Q 5.8125 47.609375 11.28125 51.796875 
Q 16.75 56 26.8125 56 
Q 31.78125 56 36.171875 55.265625 
Q 40.578125 54.546875 44.28125 53.078125 
z
" id="DejaVuSans-73"/>
     </defs>
     <g transform="translate(403.4 56.0775)scale(0.16 -0.16)">
      <use xlink:href="#DejaVuSans-32"/>
      <use x="63.623047" xlink:href="#DejaVuSans-20"/>
      <use x="95.410156" xlink:href="#DejaVuSans-63"/>
      <use x="150.390625" xlink:href="#DejaVuSans-6f"/>
      <use x="211.572266" xlink:href="#DejaVuSans-6e"/>
      <use x="274.951172" xlink:href="#DejaVuSans-74"/>
      <use x="314.160156" xlink:href="#DejaVuSans-65"/>
      <use x="375.667969" xlink:href="#DejaVuSans-78"/>
      <use x="434.847656" xlink:href="#DejaVuSans-74"/>
      <use x="474.056641" xlink:href="#DejaVuSans-73"/>
     </g>
    </g>
    <g id="line2d_21">
     <path d="M 358.6 73.9625 
L 390.6 73.9625 
" style="fill:none;stroke:#0000cd;stroke-linecap:square;stroke-width:1.5;"/>
    </g>
    <g id="line2d_22"/>
    <g id="text_16">
     <!-- Fit: 548.3 e$^{8.5p}$ -->
     <defs>
      <path d="M 9.8125 72.90625 
L 51.703125 72.90625 
L 51.703125 64.59375 
L 19.671875 64.59375 
L 19.671875 43.109375 
L 48.578125 43.109375 
L 48.578125 34.8125 
L 19.671875 34.8125 
L 19.671875 0 
L 9.8125 0 
z
" id="DejaVuSans-46"/>
      <path d="M 9.421875 54.6875 
L 18.40625 54.6875 
L 18.40625 0 
L 9.421875 0 
z
M 9.421875 75.984375 
L 18.40625 75.984375 
L 18.40625 64.59375 
L 9.421875 64.59375 
z
" id="DejaVuSans-69"/>
      <path d="M 11.71875 12.40625 
L 22.015625 12.40625 
L 22.015625 0 
L 11.71875 0 
z
M 11.71875 51.703125 
L 22.015625 51.703125 
L 22.015625 39.3125 
L 11.71875 39.3125 
z
" id="DejaVuSans-3a"/>
      <path d="M 49.609375 33.6875 
Q 49.609375 40.875 46.484375 44.671875 
Q 43.359375 48.484375 37.5 48.484375 
Q 33.5 48.484375 29.859375 46.4375 
Q 26.21875 44.390625 23.390625 40.484375 
Q 20.609375 36.625 18.9375 31.15625 
Q 17.28125 25.6875 17.28125 20.3125 
Q 17.28125 13.484375 20.40625 9.796875 
Q 23.53125 6.109375 29.296875 6.109375 
Q 33.546875 6.109375 37.1875 8.109375 
Q 40.828125 10.109375 43.40625 13.921875 
Q 46.1875 17.921875 47.890625 23.34375 
Q 49.609375 28.765625 49.609375 33.6875 
z
M 21.78125 46.390625 
Q 25.390625 51.125 30.296875 53.5625 
Q 35.203125 56 41.21875 56 
Q 49.609375 56 54.25 50.5 
Q 58.890625 45.015625 58.890625 35.109375 
Q 58.890625 27 56 19.65625 
Q 53.125 12.3125 47.703125 6.5 
Q 44.09375 2.640625 39.546875 0.609375 
Q 35.015625 -1.421875 29.984375 -1.421875 
Q 24.171875 -1.421875 20.21875 1 
Q 16.265625 3.421875 14.3125 8.203125 
L 8.6875 -20.796875 
L -0.296875 -20.796875 
L 14.40625 54.6875 
L 23.390625 54.6875 
z
" id="DejaVuSans-Oblique-70"/>
     </defs>
     <g transform="translate(403.4 79.5625)scale(0.16 -0.16)">
      <use transform="translate(0 0.765625)" xlink:href="#DejaVuSans-46"/>
      <use transform="translate(57.519531 0.765625)" xlink:href="#DejaVuSans-69"/>
      <use transform="translate(85.302734 0.765625)" xlink:href="#DejaVuSans-74"/>
      <use transform="translate(124.511719 0.765625)" xlink:href="#DejaVuSans-3a"/>
      <use transform="translate(158.203125 0.765625)" xlink:href="#DejaVuSans-20"/>
      <use transform="translate(189.990234 0.765625)" xlink:href="#DejaVuSans-35"/>
      <use transform="translate(253.613281 0.765625)" xlink:href="#DejaVuSans-34"/>
      <use transform="translate(317.236328 0.765625)" xlink:href="#DejaVuSans-38"/>
      <use transform="translate(380.859375 0.765625)" xlink:href="#DejaVuSans-2e"/>
      <use transform="translate(412.646484 0.765625)" xlink:href="#DejaVuSans-33"/>
      <use transform="translate(476.269531 0.765625)" xlink:href="#DejaVuSans-20"/>
      <use transform="translate(508.056641 0.765625)" xlink:href="#DejaVuSans-65"/>
      <use transform="translate(570.537109 39.046875)scale(0.7)" xlink:href="#DejaVuSans-38"/>
      <use transform="translate(615.073242 39.046875)scale(0.7)" xlink:href="#DejaVuSans-2e"/>
      <use transform="translate(637.324219 39.046875)scale(0.7)" xlink:href="#DejaVuSans-35"/>
      <use transform="translate(681.860352 39.046875)scale(0.7)" xlink:href="#DejaVuSans-Oblique-70"/>
     </g>
    </g>
    <g id="line2d_23"/>
    <g id="line2d_24">
     <g>
      <use style="fill:#9a32cd;stroke:#9a32cd;stroke-linejoin:miter;" x="374.6" xlink:href="#me3e259669b" y="97.4475"/>
     </g>
    </g>
    <g id="text_17">
     <!-- 3 contexts -->
     <g transform="translate(403.4 103.0475)scale(0.16 -0.16)">
      <use xlink:href="#DejaVuSans-33"/>
      <use x="63.623047" xlink:href="#DejaVuSans-20"/>
      <use x="95.410156" xlink:href="#DejaVuSans-63"/>
      <use x="150.390625" xlink:href="#DejaVuSans-6f"/>
      <use x="211.572266" xlink:href="#DejaVuSans-6e"/>
      <use x="274.951172" xlink:href="#DejaVuSans-74"/>
      <use x="314.160156" xlink:href="#DejaVuSans-65"/>
      <use x="375.667969" xlink:href="#DejaVuSans-78"/>
      <use x="434.847656" xlink:href="#DejaVuSans-74"/>
      <use x="474.056641" xlink:href="#DejaVuSans-73"/>
     </g>
    </g>
    <g id="line2d_25">
     <path d="M 358.6 120.9325 
L 390.6 120.9325 
" style="fill:none;stroke:#9a32cd;stroke-linecap:square;stroke-width:1.5;"/>
    </g>
    <g id="line2d_26"/>
    <g id="text_18">
     <!-- Fit: 1051.7 e$^{19.3p}$ -->
     <defs>
      <path d="M 8.203125 72.90625 
L 55.078125 72.90625 
L 55.078125 68.703125 
L 28.609375 0 
L 18.3125 0 
L 43.21875 64.59375 
L 8.203125 64.59375 
z
" id="DejaVuSans-37"/>
      <path d="M 10.984375 1.515625 
L 10.984375 10.5 
Q 14.703125 8.734375 18.5 7.8125 
Q 22.3125 6.890625 25.984375 6.890625 
Q 35.75 6.890625 40.890625 13.453125 
Q 46.046875 20.015625 46.78125 33.40625 
Q 43.953125 29.203125 39.59375 26.953125 
Q 35.25 24.703125 29.984375 24.703125 
Q 19.046875 24.703125 12.671875 31.3125 
Q 6.296875 37.9375 6.296875 49.421875 
Q 6.296875 60.640625 12.9375 67.421875 
Q 19.578125 74.21875 30.609375 74.21875 
Q 43.265625 74.21875 49.921875 64.515625 
Q 56.59375 54.828125 56.59375 36.375 
Q 56.59375 19.140625 48.40625 8.859375 
Q 40.234375 -1.421875 26.421875 -1.421875 
Q 22.703125 -1.421875 18.890625 -0.6875 
Q 15.09375 0.046875 10.984375 1.515625 
z
M 30.609375 32.421875 
Q 37.25 32.421875 41.125 36.953125 
Q 45.015625 41.5 45.015625 49.421875 
Q 45.015625 57.28125 41.125 61.84375 
Q 37.25 66.40625 30.609375 66.40625 
Q 23.96875 66.40625 20.09375 61.84375 
Q 16.21875 57.28125 16.21875 49.421875 
Q 16.21875 41.5 20.09375 36.953125 
Q 23.96875 32.421875 30.609375 32.421875 
z
" id="DejaVuSans-39"/>
     </defs>
     <g transform="translate(403.4 126.5325)scale(0.16 -0.16)">
      <use transform="translate(0 0.765625)" xlink:href="#DejaVuSans-46"/>
      <use transform="translate(57.519531 0.765625)" xlink:href="#DejaVuSans-69"/>
      <use transform="translate(85.302734 0.765625)" xlink:href="#DejaVuSans-74"/>
      <use transform="translate(124.511719 0.765625)" xlink:href="#DejaVuSans-3a"/>
      <use transform="translate(158.203125 0.765625)" xlink:href="#DejaVuSans-20"/>
      <use transform="translate(189.990234 0.765625)" xlink:href="#DejaVuSans-31"/>
      <use transform="translate(253.613281 0.765625)" xlink:href="#DejaVuSans-30"/>
      <use transform="translate(317.236328 0.765625)" xlink:href="#DejaVuSans-35"/>
      <use transform="translate(380.859375 0.765625)" xlink:href="#DejaVuSans-31"/>
      <use transform="translate(444.482422 0.765625)" xlink:href="#DejaVuSans-2e"/>
      <use transform="translate(476.160156 0.765625)" xlink:href="#DejaVuSans-37"/>
      <use transform="translate(539.783203 0.765625)" xlink:href="#DejaVuSans-20"/>
      <use transform="translate(571.570312 0.765625)" xlink:href="#DejaVuSans-65"/>
      <use transform="translate(634.050781 39.046875)scale(0.7)" xlink:href="#DejaVuSans-31"/>
      <use transform="translate(678.586914 39.046875)scale(0.7)" xlink:href="#DejaVuSans-39"/>
      <use transform="translate(723.123047 39.046875)scale(0.7)" xlink:href="#DejaVuSans-2e"/>
      <use transform="translate(745.374023 39.046875)scale(0.7)" xlink:href="#DejaVuSans-33"/>
      <use transform="translate(789.910156 39.046875)scale(0.7)" xlink:href="#DejaVuSans-Oblique-70"/>
     </g>
    </g>
    <g id="line2d_27"/>
    <g id="line2d_28">
     <g>
      <use style="fill:#ff3030;stroke:#ff3030;stroke-linejoin:miter;" x="374.6" xlink:href="#m7ccb5e09dc" y="144.4175"/>
     </g>
    </g>
    <g id="text_19">
     <!-- 4 contexts -->
     <g transform="translate(403.4 150.0175)scale(0.16 -0.16)">
      <use xlink:href="#DejaVuSans-34"/>
      <use x="63.623047" xlink:href="#DejaVuSans-20"/>
      <use x="95.410156" xlink:href="#DejaVuSans-63"/>
      <use x="150.390625" xlink:href="#DejaVuSans-6f"/>
      <use x="211.572266" xlink:href="#DejaVuSans-6e"/>
      <use x="274.951172" xlink:href="#DejaVuSans-74"/>
      <use x="314.160156" xlink:href="#DejaVuSans-65"/>
      <use x="375.667969" xlink:href="#DejaVuSans-78"/>
      <use x="434.847656" xlink:href="#DejaVuSans-74"/>
      <use x="474.056641" xlink:href="#DejaVuSans-73"/>
     </g>
    </g>
    <g id="line2d_29">
     <path d="M 358.6 167.9025 
L 390.6 167.9025 
" style="fill:none;stroke:#ff3030;stroke-linecap:square;stroke-width:1.5;"/>
    </g>
    <g id="line2d_30"/>
    <g id="text_20">
     <!-- Fit: 2828.1 e$^{26.6p}$ -->
     <g transform="translate(403.4 173.5025)scale(0.16 -0.16)">
      <use transform="translate(0 0.765625)" xlink:href="#DejaVuSans-46"/>
      <use transform="translate(57.519531 0.765625)" xlink:href="#DejaVuSans-69"/>
      <use transform="translate(85.302734 0.765625)" xlink:href="#DejaVuSans-74"/>
      <use transform="translate(124.511719 0.765625)" xlink:href="#DejaVuSans-3a"/>
      <use transform="translate(158.203125 0.765625)" xlink:href="#DejaVuSans-20"/>
      <use transform="translate(189.990234 0.765625)" xlink:href="#DejaVuSans-32"/>
      <use transform="translate(253.613281 0.765625)" xlink:href="#DejaVuSans-38"/>
      <use transform="translate(317.236328 0.765625)" xlink:href="#DejaVuSans-32"/>
      <use transform="translate(380.859375 0.765625)" xlink:href="#DejaVuSans-38"/>
      <use transform="translate(444.482422 0.765625)" xlink:href="#DejaVuSans-2e"/>
      <use transform="translate(476.269531 0.765625)" xlink:href="#DejaVuSans-31"/>
      <use transform="translate(539.892578 0.765625)" xlink:href="#DejaVuSans-20"/>
      <use transform="translate(571.679688 0.765625)" xlink:href="#DejaVuSans-65"/>
      <use transform="translate(634.160156 39.046875)scale(0.7)" xlink:href="#DejaVuSans-32"/>
      <use transform="translate(678.696289 39.046875)scale(0.7)" xlink:href="#DejaVuSans-36"/>
      <use transform="translate(723.232422 39.046875)scale(0.7)" xlink:href="#DejaVuSans-2e"/>
      <use transform="translate(745.483398 39.046875)scale(0.7)" xlink:href="#DejaVuSans-36"/>
      <use transform="translate(790.019531 39.046875)scale(0.7)" xlink:href="#DejaVuSans-Oblique-70"/>
     </g>
    </g>
   </g>
  </g>
 </g>
 <defs>
  <clipPath id="p72ae38a870">
   <rect height="473.56" width="457.99" x="93.89" y="29.52"/>
  </clipPath>
 </defs>
</svg>
