<?xml version="1.0" encoding="utf-8" standalone="no"?>
<!DOCTYPE svg PUBLIC "-//W3C//DTD SVG 1.1//EN"
  "http://www.w3.org/Graphics/SVG/1.1/DTD/svg11.dtd">
<!-- Created with matplotlib (http://matplotlib.org/) -->
<svg height="576pt" version="1.1" viewBox="0 0 576 576" width="576pt" xmlns="http://www.w3.org/2000/svg" xmlns:xlink="http://www.w3.org/1999/xlink">
 <defs>
  <style type="text/css">
*{stroke-linecap:butt;stroke-linejoin:round;}
  </style>
 </defs>
 <g id="figure_1">
  <g id="patch_1">
   <path d="M 0 576 
L 576 576 
L 576 0 
L 0 0 
z
" style="fill:#ffffff;"/>
  </g>
  <g id="axes_1">
   <g id="patch_2">
    <path d="M 103.88 500.2 
L 551.88 500.2 
L 551.88 24.12 
L 103.88 24.12 
z
" style="fill:#ffffff;"/>
   </g>
   <g id="matplotlib.axis_1">
    <g id="xtick_1">
     <g id="line2d_1">
      <defs>
       <path d="M 0 0 
L 0 3.5 
" id="m3f3d0e2f16" style="stroke:#000000;stroke-width:0.8;"/>
      </defs>
      <g>
       <use style="stroke:#000000;stroke-width:0.8;" x="124.243636" xlink:href="#m3f3d0e2f16" y="500.2"/>
      </g>
     </g>
     <g id="text_1">
      <!-- 0 -->
      <defs>
       <path d="M 31.78125 66.40625 
Q 24.171875 66.40625 20.328125 58.90625 
Q 16.5 51.421875 16.5 36.375 
Q 16.5 21.390625 20.328125 13.890625 
Q 24.171875 6.390625 31.78125 6.390625 
Q 39.453125 6.390625 43.28125 13.890625 
Q 47.125 21.390625 47.125 36.375 
Q 47.125 51.421875 43.28125 58.90625 
Q 39.453125 66.40625 31.78125 66.40625 
z
M 31.78125 74.21875 
Q 44.046875 74.21875 50.515625 64.515625 
Q 56.984375 54.828125 56.984375 36.375 
Q 56.984375 17.96875 50.515625 8.265625 
Q 44.046875 -1.421875 31.78125 -1.421875 
Q 19.53125 -1.421875 13.0625 8.265625 
Q 6.59375 17.96875 6.59375 36.375 
Q 6.59375 54.828125 13.0625 64.515625 
Q 19.53125 74.21875 31.78125 74.21875 
z
" id="DejaVuSans-30"/>
      </defs>
      <g transform="translate(117.881136 522.396875)scale(0.2 -0.2)">
       <use xlink:href="#DejaVuSans-30"/>
      </g>
     </g>
    </g>
    <g id="xtick_2">
     <g id="line2d_2">
      <g>
       <use style="stroke:#000000;stroke-width:0.8;" x="198.258554" xlink:href="#m3f3d0e2f16" y="500.2"/>
      </g>
     </g>
     <g id="text_2">
      <!-- 1 -->
      <defs>
       <path d="M 12.40625 8.296875 
L 28.515625 8.296875 
L 28.515625 63.921875 
L 10.984375 60.40625 
L 10.984375 69.390625 
L 28.421875 72.90625 
L 38.28125 72.90625 
L 38.28125 8.296875 
L 54.390625 8.296875 
L 54.390625 0 
L 12.40625 0 
z
" id="DejaVuSans-31"/>
      </defs>
      <g transform="translate(191.896054 522.396875)scale(0.2 -0.2)">
       <use xlink:href="#DejaVuSans-31"/>
      </g>
     </g>
    </g>
    <g id="xtick_3">
     <g id="line2d_3">
      <g>
       <use style="stroke:#000000;stroke-width:0.8;" x="272.273472" xlink:href="#m3f3d0e2f16" y="500.2"/>
      </g>
     </g>
     <g id="text_3">
      <!-- 2 -->
      <defs>
       <path d="M 19.1875 8.296875 
L 53.609375 8.296875 
L 53.609375 0 
L 7.328125 0 
L 7.328125 8.296875 
Q 12.9375 14.109375 22.625 23.890625 
Q 32.328125 33.6875 34.8125 36.53125 
Q 39.546875 41.84375 41.421875 45.53125 
Q 43.3125 49.21875 43.3125 52.78125 
Q 43.3125 58.59375 39.234375 62.25 
Q 35.15625 65.921875 28.609375 65.921875 
Q 23.96875 65.921875 18.8125 64.3125 
Q 13.671875 62.703125 7.8125 59.421875 
L 7.8125 69.390625 
Q 13.765625 71.78125 18.9375 73 
Q 24.125 74.21875 28.421875 74.21875 
Q 39.75 74.21875 46.484375 68.546875 
Q 53.21875 62.890625 53.21875 53.421875 
Q 53.21875 48.921875 51.53125 44.890625 
Q 49.859375 40.875 45.40625 35.40625 
Q 44.1875 33.984375 37.640625 27.21875 
Q 31.109375 20.453125 19.1875 8.296875 
z
" id="DejaVuSans-32"/>
      </defs>
      <g transform="translate(265.910972 522.396875)scale(0.2 -0.2)">
       <use xlink:href="#DejaVuSans-32"/>
      </g>
     </g>
    </g>
    <g id="xtick_4">
     <g id="line2d_4">
      <g>
       <use style="stroke:#000000;stroke-width:0.8;" x="346.28839" xlink:href="#m3f3d0e2f16" y="500.2"/>
      </g>
     </g>
     <g id="text_4">
      <!-- 3 -->
      <defs>
       <path d="M 40.578125 39.3125 
Q 47.65625 37.796875 51.625 33 
Q 55.609375 28.21875 55.609375 21.1875 
Q 55.609375 10.40625 48.1875 4.484375 
Q 40.765625 -1.421875 27.09375 -1.421875 
Q 22.515625 -1.421875 17.65625 -0.515625 
Q 12.796875 0.390625 7.625 2.203125 
L 7.625 11.71875 
Q 11.71875 9.328125 16.59375 8.109375 
Q 21.484375 6.890625 26.8125 6.890625 
Q 36.078125 6.890625 40.9375 10.546875 
Q 45.796875 14.203125 45.796875 21.1875 
Q 45.796875 27.640625 41.28125 31.265625 
Q 36.765625 34.90625 28.71875 34.90625 
L 20.21875 34.90625 
L 20.21875 43.015625 
L 29.109375 43.015625 
Q 36.375 43.015625 40.234375 45.921875 
Q 44.09375 48.828125 44.09375 54.296875 
Q 44.09375 59.90625 40.109375 62.90625 
Q 36.140625 65.921875 28.71875 65.921875 
Q 24.65625 65.921875 20.015625 65.03125 
Q 15.375 64.15625 9.8125 62.3125 
L 9.8125 71.09375 
Q 15.4375 72.65625 20.34375 73.4375 
Q 25.25 74.21875 29.59375 74.21875 
Q 40.828125 74.21875 47.359375 69.109375 
Q 53.90625 64.015625 53.90625 55.328125 
Q 53.90625 49.265625 50.4375 45.09375 
Q 46.96875 40.921875 40.578125 39.3125 
z
" id="DejaVuSans-33"/>
      </defs>
      <g transform="translate(339.92589 522.396875)scale(0.2 -0.2)">
       <use xlink:href="#DejaVuSans-33"/>
      </g>
     </g>
    </g>
    <g id="xtick_5">
     <g id="line2d_5">
      <g>
       <use style="stroke:#000000;stroke-width:0.8;" x="420.303307" xlink:href="#m3f3d0e2f16" y="500.2"/>
      </g>
     </g>
     <g id="text_5">
      <!-- 4 -->
      <defs>
       <path d="M 37.796875 64.3125 
L 12.890625 25.390625 
L 37.796875 25.390625 
z
M 35.203125 72.90625 
L 47.609375 72.90625 
L 47.609375 25.390625 
L 58.015625 25.390625 
L 58.015625 17.1875 
L 47.609375 17.1875 
L 47.609375 0 
L 37.796875 0 
L 37.796875 17.1875 
L 4.890625 17.1875 
L 4.890625 26.703125 
z
" id="DejaVuSans-34"/>
      </defs>
      <g transform="translate(413.940807 522.396875)scale(0.2 -0.2)">
       <use xlink:href="#DejaVuSans-34"/>
      </g>
     </g>
    </g>
    <g id="xtick_6">
     <g id="line2d_6">
      <g>
       <use style="stroke:#000000;stroke-width:0.8;" x="494.318225" xlink:href="#m3f3d0e2f16" y="500.2"/>
      </g>
     </g>
     <g id="text_6">
      <!-- 5 -->
      <defs>
       <path d="M 10.796875 72.90625 
L 49.515625 72.90625 
L 49.515625 64.59375 
L 19.828125 64.59375 
L 19.828125 46.734375 
Q 21.96875 47.46875 24.109375 47.828125 
Q 26.265625 48.1875 28.421875 48.1875 
Q 40.625 48.1875 47.75 41.5 
Q 54.890625 34.8125 54.890625 23.390625 
Q 54.890625 11.625 47.5625 5.09375 
Q 40.234375 -1.421875 26.90625 -1.421875 
Q 22.3125 -1.421875 17.546875 -0.640625 
Q 12.796875 0.140625 7.71875 1.703125 
L 7.71875 11.625 
Q 12.109375 9.234375 16.796875 8.0625 
Q 21.484375 6.890625 26.703125 6.890625 
Q 35.15625 6.890625 40.078125 11.328125 
Q 45.015625 15.765625 45.015625 23.390625 
Q 45.015625 31 40.078125 35.4375 
Q 35.15625 39.890625 26.703125 39.890625 
Q 22.75 39.890625 18.8125 39.015625 
Q 14.890625 38.140625 10.796875 36.28125 
z
" id="DejaVuSans-35"/>
      </defs>
      <g transform="translate(487.955725 522.396875)scale(0.2 -0.2)">
       <use xlink:href="#DejaVuSans-35"/>
      </g>
     </g>
    </g>
    <g id="text_7">
     <!-- log$_{10}$ (generations) -->
     <defs>
      <path d="M 9.421875 75.984375 
L 18.40625 75.984375 
L 18.40625 0 
L 9.421875 0 
z
" id="DejaVuSans-6c"/>
      <path d="M 30.609375 48.390625 
Q 23.390625 48.390625 19.1875 42.75 
Q 14.984375 37.109375 14.984375 27.296875 
Q 14.984375 17.484375 19.15625 11.84375 
Q 23.34375 6.203125 30.609375 6.203125 
Q 37.796875 6.203125 41.984375 11.859375 
Q 46.1875 17.53125 46.1875 27.296875 
Q 46.1875 37.015625 41.984375 42.703125 
Q 37.796875 48.390625 30.609375 48.390625 
z
M 30.609375 56 
Q 42.328125 56 49.015625 48.375 
Q 55.71875 40.765625 55.71875 27.296875 
Q 55.71875 13.875 49.015625 6.21875 
Q 42.328125 -1.421875 30.609375 -1.421875 
Q 18.84375 -1.421875 12.171875 6.21875 
Q 5.515625 13.875 5.515625 27.296875 
Q 5.515625 40.765625 12.171875 48.375 
Q 18.84375 56 30.609375 56 
z
" id="DejaVuSans-6f"/>
      <path d="M 45.40625 27.984375 
Q 45.40625 37.75 41.375 43.109375 
Q 37.359375 48.484375 30.078125 48.484375 
Q 22.859375 48.484375 18.828125 43.109375 
Q 14.796875 37.75 14.796875 27.984375 
Q 14.796875 18.265625 18.828125 12.890625 
Q 22.859375 7.515625 30.078125 7.515625 
Q 37.359375 7.515625 41.375 12.890625 
Q 45.40625 18.265625 45.40625 27.984375 
z
M 54.390625 6.78125 
Q 54.390625 -7.171875 48.1875 -13.984375 
Q 42 -20.796875 29.203125 -20.796875 
Q 24.46875 -20.796875 20.265625 -20.09375 
Q 16.0625 -19.390625 12.109375 -17.921875 
L 12.109375 -9.1875 
Q 16.0625 -11.328125 19.921875 -12.34375 
Q 23.78125 -13.375 27.78125 -13.375 
Q 36.625 -13.375 41.015625 -8.765625 
Q 45.40625 -4.15625 45.40625 5.171875 
L 45.40625 9.625 
Q 42.625 4.78125 38.28125 2.390625 
Q 33.9375 0 27.875 0 
Q 17.828125 0 11.671875 7.65625 
Q 5.515625 15.328125 5.515625 27.984375 
Q 5.515625 40.671875 11.671875 48.328125 
Q 17.828125 56 27.875 56 
Q 33.9375 56 38.28125 53.609375 
Q 42.625 51.21875 45.40625 46.390625 
L 45.40625 54.6875 
L 54.390625 54.6875 
z
" id="DejaVuSans-67"/>
      <path id="DejaVuSans-20"/>
      <path d="M 31 75.875 
Q 24.46875 64.65625 21.28125 53.65625 
Q 18.109375 42.671875 18.109375 31.390625 
Q 18.109375 20.125 21.3125 9.0625 
Q 24.515625 -2 31 -13.1875 
L 23.1875 -13.1875 
Q 15.875 -1.703125 12.234375 9.375 
Q 8.59375 20.453125 8.59375 31.390625 
Q 8.59375 42.28125 12.203125 53.3125 
Q 15.828125 64.359375 23.1875 75.875 
z
" id="DejaVuSans-28"/>
      <path d="M 56.203125 29.59375 
L 56.203125 25.203125 
L 14.890625 25.203125 
Q 15.484375 15.921875 20.484375 11.0625 
Q 25.484375 6.203125 34.421875 6.203125 
Q 39.59375 6.203125 44.453125 7.46875 
Q 49.3125 8.734375 54.109375 11.28125 
L 54.109375 2.78125 
Q 49.265625 0.734375 44.1875 -0.34375 
Q 39.109375 -1.421875 33.890625 -1.421875 
Q 20.796875 -1.421875 13.15625 6.1875 
Q 5.515625 13.8125 5.515625 26.8125 
Q 5.515625 40.234375 12.765625 48.109375 
Q 20.015625 56 32.328125 56 
Q 43.359375 56 49.78125 48.890625 
Q 56.203125 41.796875 56.203125 29.59375 
z
M 47.21875 32.234375 
Q 47.125 39.59375 43.09375 43.984375 
Q 39.0625 48.390625 32.421875 48.390625 
Q 24.90625 48.390625 20.390625 44.140625 
Q 15.875 39.890625 15.1875 32.171875 
z
" id="DejaVuSans-65"/>
      <path d="M 54.890625 33.015625 
L 54.890625 0 
L 45.90625 0 
L 45.90625 32.71875 
Q 45.90625 40.484375 42.875 44.328125 
Q 39.84375 48.1875 33.796875 48.1875 
Q 26.515625 48.1875 22.3125 43.546875 
Q 18.109375 38.921875 18.109375 30.90625 
L 18.109375 0 
L 9.078125 0 
L 9.078125 54.6875 
L 18.109375 54.6875 
L 18.109375 46.1875 
Q 21.34375 51.125 25.703125 53.5625 
Q 30.078125 56 35.796875 56 
Q 45.21875 56 50.046875 50.171875 
Q 54.890625 44.34375 54.890625 33.015625 
z
" id="DejaVuSans-6e"/>
      <path d="M 41.109375 46.296875 
Q 39.59375 47.171875 37.8125 47.578125 
Q 36.03125 48 33.890625 48 
Q 26.265625 48 22.1875 43.046875 
Q 18.109375 38.09375 18.109375 28.8125 
L 18.109375 0 
L 9.078125 0 
L 9.078125 54.6875 
L 18.109375 54.6875 
L 18.109375 46.1875 
Q 20.953125 51.171875 25.484375 53.578125 
Q 30.03125 56 36.53125 56 
Q 37.453125 56 38.578125 55.875 
Q 39.703125 55.765625 41.0625 55.515625 
z
" id="DejaVuSans-72"/>
      <path d="M 34.28125 27.484375 
Q 23.390625 27.484375 19.1875 25 
Q 14.984375 22.515625 14.984375 16.5 
Q 14.984375 11.71875 18.140625 8.90625 
Q 21.296875 6.109375 26.703125 6.109375 
Q 34.1875 6.109375 38.703125 11.40625 
Q 43.21875 16.703125 43.21875 25.484375 
L 43.21875 27.484375 
z
M 52.203125 31.203125 
L 52.203125 0 
L 43.21875 0 
L 43.21875 8.296875 
Q 40.140625 3.328125 35.546875 0.953125 
Q 30.953125 -1.421875 24.3125 -1.421875 
Q 15.921875 -1.421875 10.953125 3.296875 
Q 6 8.015625 6 15.921875 
Q 6 25.140625 12.171875 29.828125 
Q 18.359375 34.515625 30.609375 34.515625 
L 43.21875 34.515625 
L 43.21875 35.40625 
Q 43.21875 41.609375 39.140625 45 
Q 35.0625 48.390625 27.6875 48.390625 
Q 23 48.390625 18.546875 47.265625 
Q 14.109375 46.140625 10.015625 43.890625 
L 10.015625 52.203125 
Q 14.9375 54.109375 19.578125 55.046875 
Q 24.21875 56 28.609375 56 
Q 40.484375 56 46.34375 49.84375 
Q 52.203125 43.703125 52.203125 31.203125 
z
" id="DejaVuSans-61"/>
      <path d="M 18.3125 70.21875 
L 18.3125 54.6875 
L 36.8125 54.6875 
L 36.8125 47.703125 
L 18.3125 47.703125 
L 18.3125 18.015625 
Q 18.3125 11.328125 20.140625 9.421875 
Q 21.96875 7.515625 27.59375 7.515625 
L 36.8125 7.515625 
L 36.8125 0 
L 27.59375 0 
Q 17.1875 0 13.234375 3.875 
Q 9.28125 7.765625 9.28125 18.015625 
L 9.28125 47.703125 
L 2.6875 47.703125 
L 2.6875 54.6875 
L 9.28125 54.6875 
L 9.28125 70.21875 
z
" id="DejaVuSans-74"/>
      <path d="M 9.421875 54.6875 
L 18.40625 54.6875 
L 18.40625 0 
L 9.421875 0 
z
M 9.421875 75.984375 
L 18.40625 75.984375 
L 18.40625 64.59375 
L 9.421875 64.59375 
z
" id="DejaVuSans-69"/>
      <path d="M 44.28125 53.078125 
L 44.28125 44.578125 
Q 40.484375 46.53125 36.375 47.5 
Q 32.28125 48.484375 27.875 48.484375 
Q 21.1875 48.484375 17.84375 46.4375 
Q 14.5 44.390625 14.5 40.28125 
Q 14.5 37.15625 16.890625 35.375 
Q 19.28125 33.59375 26.515625 31.984375 
L 29.59375 31.296875 
Q 39.15625 29.25 43.1875 25.515625 
Q 47.21875 21.78125 47.21875 15.09375 
Q 47.21875 7.46875 41.1875 3.015625 
Q 35.15625 -1.421875 24.609375 -1.421875 
Q 20.21875 -1.421875 15.453125 -0.5625 
Q 10.6875 0.296875 5.421875 2 
L 5.421875 11.28125 
Q 10.40625 8.6875 15.234375 7.390625 
Q 20.0625 6.109375 24.8125 6.109375 
Q 31.15625 6.109375 34.5625 8.28125 
Q 37.984375 10.453125 37.984375 14.40625 
Q 37.984375 18.0625 35.515625 20.015625 
Q 33.0625 21.96875 24.703125 23.78125 
L 21.578125 24.515625 
Q 13.234375 26.265625 9.515625 29.90625 
Q 5.8125 33.546875 5.8125 39.890625 
Q 5.8125 47.609375 11.28125 51.796875 
Q 16.75 56 26.8125 56 
Q 31.78125 56 36.171875 55.265625 
Q 40.578125 54.546875 44.28125 53.078125 
z
" id="DejaVuSans-73"/>
      <path d="M 8.015625 75.875 
L 15.828125 75.875 
Q 23.140625 64.359375 26.78125 53.3125 
Q 30.421875 42.28125 30.421875 31.390625 
Q 30.421875 20.453125 26.78125 9.375 
Q 23.140625 -1.703125 15.828125 -13.1875 
L 8.015625 -13.1875 
Q 14.5 -2 17.703125 9.0625 
Q 20.90625 20.125 20.90625 31.390625 
Q 20.90625 42.671875 17.703125 53.65625 
Q 14.5 64.65625 8.015625 75.875 
z
" id="DejaVuSans-29"/>
     </defs>
     <g transform="translate(232.78 545.75625)scale(0.2 -0.2)">
      <use transform="translate(0 0.015625)" xlink:href="#DejaVuSans-6c"/>
      <use transform="translate(27.783203 0.015625)" xlink:href="#DejaVuSans-6f"/>
      <use transform="translate(88.964844 0.015625)" xlink:href="#DejaVuSans-67"/>
      <use transform="translate(153.398438 -16.390625)scale(0.7)" xlink:href="#DejaVuSans-31"/>
      <use transform="translate(197.93457 -16.390625)scale(0.7)" xlink:href="#DejaVuSans-30"/>
      <use transform="translate(245.205078 0.015625)" xlink:href="#DejaVuSans-20"/>
      <use transform="translate(276.992188 0.015625)" xlink:href="#DejaVuSans-28"/>
      <use transform="translate(316.005859 0.015625)" xlink:href="#DejaVuSans-67"/>
      <use transform="translate(379.482422 0.015625)" xlink:href="#DejaVuSans-65"/>
      <use transform="translate(441.005859 0.015625)" xlink:href="#DejaVuSans-6e"/>
      <use transform="translate(504.384766 0.015625)" xlink:href="#DejaVuSans-65"/>
      <use transform="translate(565.908203 0.015625)" xlink:href="#DejaVuSans-72"/>
      <use transform="translate(607.021484 0.015625)" xlink:href="#DejaVuSans-61"/>
      <use transform="translate(668.300781 0.015625)" xlink:href="#DejaVuSans-74"/>
      <use transform="translate(707.509766 0.015625)" xlink:href="#DejaVuSans-69"/>
      <use transform="translate(735.292969 0.015625)" xlink:href="#DejaVuSans-6f"/>
      <use transform="translate(796.474609 0.015625)" xlink:href="#DejaVuSans-6e"/>
      <use transform="translate(859.853516 0.015625)" xlink:href="#DejaVuSans-73"/>
      <use transform="translate(911.953125 0.015625)" xlink:href="#DejaVuSans-29"/>
     </g>
    </g>
   </g>
   <g id="matplotlib.axis_2">
    <g id="ytick_1">
     <g id="line2d_7">
      <defs>
       <path d="M 0 0 
L -3.5 0 
" id="m2417328c03" style="stroke:#000000;stroke-width:0.8;"/>
      </defs>
      <g>
       <use style="stroke:#000000;stroke-width:0.8;" x="103.88" xlink:href="#m2417328c03" y="478.56"/>
      </g>
     </g>
     <g id="text_8">
      <!-- 0 -->
      <g transform="translate(84.155 486.158437)scale(0.2 -0.2)">
       <use xlink:href="#DejaVuSans-30"/>
      </g>
     </g>
    </g>
    <g id="ytick_2">
     <g id="line2d_8">
      <g>
       <use style="stroke:#000000;stroke-width:0.8;" x="103.88" xlink:href="#m2417328c03" y="385.304236"/>
      </g>
     </g>
     <g id="text_9">
      <!-- 2000 -->
      <g transform="translate(45.98 392.902674)scale(0.2 -0.2)">
       <use xlink:href="#DejaVuSans-32"/>
       <use x="63.623047" xlink:href="#DejaVuSans-30"/>
       <use x="127.246094" xlink:href="#DejaVuSans-30"/>
       <use x="190.869141" xlink:href="#DejaVuSans-30"/>
      </g>
     </g>
    </g>
    <g id="ytick_3">
     <g id="line2d_9">
      <g>
       <use style="stroke:#000000;stroke-width:0.8;" x="103.88" xlink:href="#m2417328c03" y="292.048472"/>
      </g>
     </g>
     <g id="text_10">
      <!-- 4000 -->
      <g transform="translate(45.98 299.64691)scale(0.2 -0.2)">
       <use xlink:href="#DejaVuSans-34"/>
       <use x="63.623047" xlink:href="#DejaVuSans-30"/>
       <use x="127.246094" xlink:href="#DejaVuSans-30"/>
       <use x="190.869141" xlink:href="#DejaVuSans-30"/>
      </g>
     </g>
    </g>
    <g id="ytick_4">
     <g id="line2d_10">
      <g>
       <use style="stroke:#000000;stroke-width:0.8;" x="103.88" xlink:href="#m2417328c03" y="198.792708"/>
      </g>
     </g>
     <g id="text_11">
      <!-- 6000 -->
      <defs>
       <path d="M 33.015625 40.375 
Q 26.375 40.375 22.484375 35.828125 
Q 18.609375 31.296875 18.609375 23.390625 
Q 18.609375 15.53125 22.484375 10.953125 
Q 26.375 6.390625 33.015625 6.390625 
Q 39.65625 6.390625 43.53125 10.953125 
Q 47.40625 15.53125 47.40625 23.390625 
Q 47.40625 31.296875 43.53125 35.828125 
Q 39.65625 40.375 33.015625 40.375 
z
M 52.59375 71.296875 
L 52.59375 62.3125 
Q 48.875 64.0625 45.09375 64.984375 
Q 41.3125 65.921875 37.59375 65.921875 
Q 27.828125 65.921875 22.671875 59.328125 
Q 17.53125 52.734375 16.796875 39.40625 
Q 19.671875 43.65625 24.015625 45.921875 
Q 28.375 48.1875 33.59375 48.1875 
Q 44.578125 48.1875 50.953125 41.515625 
Q 57.328125 34.859375 57.328125 23.390625 
Q 57.328125 12.15625 50.6875 5.359375 
Q 44.046875 -1.421875 33.015625 -1.421875 
Q 20.359375 -1.421875 13.671875 8.265625 
Q 6.984375 17.96875 6.984375 36.375 
Q 6.984375 53.65625 15.1875 63.9375 
Q 23.390625 74.21875 37.203125 74.21875 
Q 40.921875 74.21875 44.703125 73.484375 
Q 48.484375 72.75 52.59375 71.296875 
z
" id="DejaVuSans-36"/>
      </defs>
      <g transform="translate(45.98 206.391146)scale(0.2 -0.2)">
       <use xlink:href="#DejaVuSans-36"/>
       <use x="63.623047" xlink:href="#DejaVuSans-30"/>
       <use x="127.246094" xlink:href="#DejaVuSans-30"/>
       <use x="190.869141" xlink:href="#DejaVuSans-30"/>
      </g>
     </g>
    </g>
    <g id="ytick_5">
     <g id="line2d_11">
      <g>
       <use style="stroke:#000000;stroke-width:0.8;" x="103.88" xlink:href="#m2417328c03" y="105.536945"/>
      </g>
     </g>
     <g id="text_12">
      <!-- 8000 -->
      <defs>
       <path d="M 31.78125 34.625 
Q 24.75 34.625 20.71875 30.859375 
Q 16.703125 27.09375 16.703125 20.515625 
Q 16.703125 13.921875 20.71875 10.15625 
Q 24.75 6.390625 31.78125 6.390625 
Q 38.8125 6.390625 42.859375 10.171875 
Q 46.921875 13.96875 46.921875 20.515625 
Q 46.921875 27.09375 42.890625 30.859375 
Q 38.875 34.625 31.78125 34.625 
z
M 21.921875 38.8125 
Q 15.578125 40.375 12.03125 44.71875 
Q 8.5 49.078125 8.5 55.328125 
Q 8.5 64.0625 14.71875 69.140625 
Q 20.953125 74.21875 31.78125 74.21875 
Q 42.671875 74.21875 48.875 69.140625 
Q 55.078125 64.0625 55.078125 55.328125 
Q 55.078125 49.078125 51.53125 44.71875 
Q 48 40.375 41.703125 38.8125 
Q 48.828125 37.15625 52.796875 32.3125 
Q 56.78125 27.484375 56.78125 20.515625 
Q 56.78125 9.90625 50.3125 4.234375 
Q 43.84375 -1.421875 31.78125 -1.421875 
Q 19.734375 -1.421875 13.25 4.234375 
Q 6.78125 9.90625 6.78125 20.515625 
Q 6.78125 27.484375 10.78125 32.3125 
Q 14.796875 37.15625 21.921875 38.8125 
z
M 18.3125 54.390625 
Q 18.3125 48.734375 21.84375 45.5625 
Q 25.390625 42.390625 31.78125 42.390625 
Q 38.140625 42.390625 41.71875 45.5625 
Q 45.3125 48.734375 45.3125 54.390625 
Q 45.3125 60.0625 41.71875 63.234375 
Q 38.140625 66.40625 31.78125 66.40625 
Q 25.390625 66.40625 21.84375 63.234375 
Q 18.3125 60.0625 18.3125 54.390625 
z
" id="DejaVuSans-38"/>
      </defs>
      <g transform="translate(45.98 113.135382)scale(0.2 -0.2)">
       <use xlink:href="#DejaVuSans-38"/>
       <use x="63.623047" xlink:href="#DejaVuSans-30"/>
       <use x="127.246094" xlink:href="#DejaVuSans-30"/>
       <use x="190.869141" xlink:href="#DejaVuSans-30"/>
      </g>
     </g>
    </g>
    <g id="text_13">
     <!-- evolutions -->
     <defs>
      <path d="M 2.984375 54.6875 
L 12.5 54.6875 
L 29.59375 8.796875 
L 46.6875 54.6875 
L 56.203125 54.6875 
L 35.6875 0 
L 23.484375 0 
z
" id="DejaVuSans-76"/>
      <path d="M 8.5 21.578125 
L 8.5 54.6875 
L 17.484375 54.6875 
L 17.484375 21.921875 
Q 17.484375 14.15625 20.5 10.265625 
Q 23.53125 6.390625 29.59375 6.390625 
Q 36.859375 6.390625 41.078125 11.03125 
Q 45.3125 15.671875 45.3125 23.6875 
L 45.3125 54.6875 
L 54.296875 54.6875 
L 54.296875 0 
L 45.3125 0 
L 45.3125 8.40625 
Q 42.046875 3.421875 37.71875 1 
Q 33.40625 -1.421875 27.6875 -1.421875 
Q 18.265625 -1.421875 13.375 4.4375 
Q 8.5 10.296875 8.5 21.578125 
z
M 31.109375 56 
z
" id="DejaVuSans-75"/>
     </defs>
     <g transform="translate(37.820625 313.830312)rotate(-90)scale(0.2 -0.2)">
      <use xlink:href="#DejaVuSans-65"/>
      <use x="61.523438" xlink:href="#DejaVuSans-76"/>
      <use x="120.703125" xlink:href="#DejaVuSans-6f"/>
      <use x="181.884766" xlink:href="#DejaVuSans-6c"/>
      <use x="209.667969" xlink:href="#DejaVuSans-75"/>
      <use x="273.046875" xlink:href="#DejaVuSans-74"/>
      <use x="312.255859" xlink:href="#DejaVuSans-69"/>
      <use x="340.039062" xlink:href="#DejaVuSans-6f"/>
      <use x="401.220703" xlink:href="#DejaVuSans-6e"/>
      <use x="464.599609" xlink:href="#DejaVuSans-73"/>
     </g>
    </g>
   </g>
   <g id="line2d_12">
    <path clip-path="url(#p80bcb8c0e9)" d="M 124.243636 478.56 
L 130.488635 478.56 
L 136.733634 478.56 
L 142.978632 478.420116 
L 149.223631 478.56 
L 155.46863 478.513372 
L 161.713629 478.56 
L 167.958627 478.56 
L 174.203626 478.56 
L 180.448625 478.513372 
L 186.693623 478.56 
L 192.938622 478.326861 
L 199.183621 478.466744 
L 205.428619 478.093721 
L 211.673618 478.56 
L 217.918617 477.953838 
L 224.163615 477.580814 
L 230.408614 477.440931 
L 236.653613 476.555001 
L 242.898611 476.694885 
L 249.14361 475.156165 
L 255.388609 472.591631 
L 261.633608 469.654075 
L 267.878606 465.644077 
L 274.123605 459.768964 
L 280.368604 450.769782 
L 286.613602 435.662349 
L 292.858601 415.332592 
L 299.1036 386.842956 
L 305.348598 353.783788 
L 311.593597 294.286611 
L 317.838596 249.150821 
L 324.083594 185.457134 
L 330.328593 117.660194 
L 336.573592 81.849981 
L 342.818591 45.76 
L 349.063589 51.26209 
L 355.308588 98.262995 
L 361.553587 165.920052 
L 367.798585 237.72699 
L 374.043584 311.072648 
L 380.288583 379.94203 
L 386.533581 430.906305 
L 392.77858 456.271872 
L 399.023579 469.654075 
L 405.268577 476.321862 
L 411.513576 478.233605 
L 417.758575 478.420116 
L 424.003573 478.513372 
" style="fill:none;stroke:#3200cd;stroke-linecap:square;stroke-width:1.5;"/>
    <defs>
     <path d="M 0 1.5 
C 0.397805 1.5 0.77937 1.341951 1.06066 1.06066 
C 1.341951 0.77937 1.5 0.397805 1.5 0 
C 1.5 -0.397805 1.341951 -0.77937 1.06066 -1.06066 
C 0.77937 -1.341951 0.397805 -1.5 0 -1.5 
C -0.397805 -1.5 -0.77937 -1.341951 -1.06066 -1.06066 
C -1.341951 -0.77937 -1.5 -0.397805 -1.5 0 
C -1.5 0.397805 -1.341951 0.77937 -1.06066 1.06066 
C -0.77937 1.341951 -0.397805 1.5 0 1.5 
z
" id="m3d4515da0b" style="stroke:#3200cd;"/>
    </defs>
    <g clip-path="url(#p80bcb8c0e9)">
     <use style="fill:#3200cd;stroke:#3200cd;" x="124.243636" xlink:href="#m3d4515da0b" y="478.56"/>
     <use style="fill:#3200cd;stroke:#3200cd;" x="130.488635" xlink:href="#m3d4515da0b" y="478.56"/>
     <use style="fill:#3200cd;stroke:#3200cd;" x="136.733634" xlink:href="#m3d4515da0b" y="478.56"/>
     <use style="fill:#3200cd;stroke:#3200cd;" x="142.978632" xlink:href="#m3d4515da0b" y="478.420116"/>
     <use style="fill:#3200cd;stroke:#3200cd;" x="149.223631" xlink:href="#m3d4515da0b" y="478.56"/>
     <use style="fill:#3200cd;stroke:#3200cd;" x="155.46863" xlink:href="#m3d4515da0b" y="478.513372"/>
     <use style="fill:#3200cd;stroke:#3200cd;" x="161.713629" xlink:href="#m3d4515da0b" y="478.56"/>
     <use style="fill:#3200cd;stroke:#3200cd;" x="167.958627" xlink:href="#m3d4515da0b" y="478.56"/>
     <use style="fill:#3200cd;stroke:#3200cd;" x="174.203626" xlink:href="#m3d4515da0b" y="478.56"/>
     <use style="fill:#3200cd;stroke:#3200cd;" x="180.448625" xlink:href="#m3d4515da0b" y="478.513372"/>
     <use style="fill:#3200cd;stroke:#3200cd;" x="186.693623" xlink:href="#m3d4515da0b" y="478.56"/>
     <use style="fill:#3200cd;stroke:#3200cd;" x="192.938622" xlink:href="#m3d4515da0b" y="478.326861"/>
     <use style="fill:#3200cd;stroke:#3200cd;" x="199.183621" xlink:href="#m3d4515da0b" y="478.466744"/>
     <use style="fill:#3200cd;stroke:#3200cd;" x="205.428619" xlink:href="#m3d4515da0b" y="478.093721"/>
     <use style="fill:#3200cd;stroke:#3200cd;" x="211.673618" xlink:href="#m3d4515da0b" y="478.56"/>
     <use style="fill:#3200cd;stroke:#3200cd;" x="217.918617" xlink:href="#m3d4515da0b" y="477.953838"/>
     <use style="fill:#3200cd;stroke:#3200cd;" x="224.163615" xlink:href="#m3d4515da0b" y="477.580814"/>
     <use style="fill:#3200cd;stroke:#3200cd;" x="230.408614" xlink:href="#m3d4515da0b" y="477.440931"/>
     <use style="fill:#3200cd;stroke:#3200cd;" x="236.653613" xlink:href="#m3d4515da0b" y="476.555001"/>
     <use style="fill:#3200cd;stroke:#3200cd;" x="242.898611" xlink:href="#m3d4515da0b" y="476.694885"/>
     <use style="fill:#3200cd;stroke:#3200cd;" x="249.14361" xlink:href="#m3d4515da0b" y="475.156165"/>
     <use style="fill:#3200cd;stroke:#3200cd;" x="255.388609" xlink:href="#m3d4515da0b" y="472.591631"/>
     <use style="fill:#3200cd;stroke:#3200cd;" x="261.633608" xlink:href="#m3d4515da0b" y="469.654075"/>
     <use style="fill:#3200cd;stroke:#3200cd;" x="267.878606" xlink:href="#m3d4515da0b" y="465.644077"/>
     <use style="fill:#3200cd;stroke:#3200cd;" x="274.123605" xlink:href="#m3d4515da0b" y="459.768964"/>
     <use style="fill:#3200cd;stroke:#3200cd;" x="280.368604" xlink:href="#m3d4515da0b" y="450.769782"/>
     <use style="fill:#3200cd;stroke:#3200cd;" x="286.613602" xlink:href="#m3d4515da0b" y="435.662349"/>
     <use style="fill:#3200cd;stroke:#3200cd;" x="292.858601" xlink:href="#m3d4515da0b" y="415.332592"/>
     <use style="fill:#3200cd;stroke:#3200cd;" x="299.1036" xlink:href="#m3d4515da0b" y="386.842956"/>
     <use style="fill:#3200cd;stroke:#3200cd;" x="305.348598" xlink:href="#m3d4515da0b" y="353.783788"/>
     <use style="fill:#3200cd;stroke:#3200cd;" x="311.593597" xlink:href="#m3d4515da0b" y="294.286611"/>
     <use style="fill:#3200cd;stroke:#3200cd;" x="317.838596" xlink:href="#m3d4515da0b" y="249.150821"/>
     <use style="fill:#3200cd;stroke:#3200cd;" x="324.083594" xlink:href="#m3d4515da0b" y="185.457134"/>
     <use style="fill:#3200cd;stroke:#3200cd;" x="330.328593" xlink:href="#m3d4515da0b" y="117.660194"/>
     <use style="fill:#3200cd;stroke:#3200cd;" x="336.573592" xlink:href="#m3d4515da0b" y="81.849981"/>
     <use style="fill:#3200cd;stroke:#3200cd;" x="342.818591" xlink:href="#m3d4515da0b" y="45.76"/>
     <use style="fill:#3200cd;stroke:#3200cd;" x="349.063589" xlink:href="#m3d4515da0b" y="51.26209"/>
     <use style="fill:#3200cd;stroke:#3200cd;" x="355.308588" xlink:href="#m3d4515da0b" y="98.262995"/>
     <use style="fill:#3200cd;stroke:#3200cd;" x="361.553587" xlink:href="#m3d4515da0b" y="165.920052"/>
     <use style="fill:#3200cd;stroke:#3200cd;" x="367.798585" xlink:href="#m3d4515da0b" y="237.72699"/>
     <use style="fill:#3200cd;stroke:#3200cd;" x="374.043584" xlink:href="#m3d4515da0b" y="311.072648"/>
     <use style="fill:#3200cd;stroke:#3200cd;" x="380.288583" xlink:href="#m3d4515da0b" y="379.94203"/>
     <use style="fill:#3200cd;stroke:#3200cd;" x="386.533581" xlink:href="#m3d4515da0b" y="430.906305"/>
     <use style="fill:#3200cd;stroke:#3200cd;" x="392.77858" xlink:href="#m3d4515da0b" y="456.271872"/>
     <use style="fill:#3200cd;stroke:#3200cd;" x="399.023579" xlink:href="#m3d4515da0b" y="469.654075"/>
     <use style="fill:#3200cd;stroke:#3200cd;" x="405.268577" xlink:href="#m3d4515da0b" y="476.321862"/>
     <use style="fill:#3200cd;stroke:#3200cd;" x="411.513576" xlink:href="#m3d4515da0b" y="478.233605"/>
     <use style="fill:#3200cd;stroke:#3200cd;" x="417.758575" xlink:href="#m3d4515da0b" y="478.420116"/>
     <use style="fill:#3200cd;stroke:#3200cd;" x="424.003573" xlink:href="#m3d4515da0b" y="478.513372"/>
    </g>
   </g>
   <g id="line2d_13">
    <path clip-path="url(#p80bcb8c0e9)" d="M 124.243636 478.56 
L 131.144192 478.56 
L 138.044748 478.56 
L 144.945304 478.466744 
L 151.84586 478.56 
L 158.746415 478.56 
L 165.646971 478.373488 
L 172.547527 478.56 
L 179.448083 478.56 
L 186.348639 478.56 
L 193.249195 478.56 
L 200.14975 478.56 
L 207.050306 478.373488 
L 213.950862 478.420116 
L 220.851418 478.513372 
L 227.751974 478.233605 
L 234.652529 477.860582 
L 241.553085 478.093721 
L 248.453641 477.254419 
L 255.354197 476.834768 
L 262.254753 476.415117 
L 269.155309 474.783142 
L 276.055864 471.752329 
L 282.95642 470.773144 
L 289.856976 466.66989 
L 296.757532 462.333497 
L 303.658088 451.142805 
L 310.558643 442.936298 
L 317.459199 428.714794 
L 324.359755 407.499108 
L 331.260311 383.952028 
L 338.160867 355.555647 
L 345.061423 336.857867 
L 351.961978 315.782064 
L 358.862534 294.053471 
L 365.76309 287.385684 
L 372.663646 291.535566 
L 379.564202 312.424857 
L 386.464757 338.489843 
L 393.365313 370.663081 
L 400.265869 406.613178 
L 407.166425 431.279328 
L 414.066981 454.77978 
L 420.967537 465.690705 
L 427.868092 473.151166 
L 434.768648 476.555001 
L 441.669204 477.767326 
L 448.56976 478.373488 
L 455.470316 478.186977 
" style="fill:none;stroke:#660099;stroke-linecap:square;stroke-width:1.5;"/>
    <defs>
     <path d="M 0 3 
C 0.795609 3 1.55874 2.683901 2.12132 2.12132 
C 2.683901 1.55874 3 0.795609 3 0 
C 3 -0.795609 2.683901 -1.55874 2.12132 -2.12132 
C 1.55874 -2.683901 0.795609 -3 0 -3 
C -0.795609 -3 -1.55874 -2.683901 -2.12132 -2.12132 
C -2.683901 -1.55874 -3 -0.795609 -3 0 
C -3 0.795609 -2.683901 1.55874 -2.12132 2.12132 
C -1.55874 2.683901 -0.795609 3 0 3 
z
" id="m05f90814de" style="stroke:#660099;"/>
    </defs>
    <g clip-path="url(#p80bcb8c0e9)">
     <use style="fill:#660099;stroke:#660099;" x="124.243636" xlink:href="#m05f90814de" y="478.56"/>
     <use style="fill:#660099;stroke:#660099;" x="131.144192" xlink:href="#m05f90814de" y="478.56"/>
     <use style="fill:#660099;stroke:#660099;" x="138.044748" xlink:href="#m05f90814de" y="478.56"/>
     <use style="fill:#660099;stroke:#660099;" x="144.945304" xlink:href="#m05f90814de" y="478.466744"/>
     <use style="fill:#660099;stroke:#660099;" x="151.84586" xlink:href="#m05f90814de" y="478.56"/>
     <use style="fill:#660099;stroke:#660099;" x="158.746415" xlink:href="#m05f90814de" y="478.56"/>
     <use style="fill:#660099;stroke:#660099;" x="165.646971" xlink:href="#m05f90814de" y="478.373488"/>
     <use style="fill:#660099;stroke:#660099;" x="172.547527" xlink:href="#m05f90814de" y="478.56"/>
     <use style="fill:#660099;stroke:#660099;" x="179.448083" xlink:href="#m05f90814de" y="478.56"/>
     <use style="fill:#660099;stroke:#660099;" x="186.348639" xlink:href="#m05f90814de" y="478.56"/>
     <use style="fill:#660099;stroke:#660099;" x="193.249195" xlink:href="#m05f90814de" y="478.56"/>
     <use style="fill:#660099;stroke:#660099;" x="200.14975" xlink:href="#m05f90814de" y="478.56"/>
     <use style="fill:#660099;stroke:#660099;" x="207.050306" xlink:href="#m05f90814de" y="478.373488"/>
     <use style="fill:#660099;stroke:#660099;" x="213.950862" xlink:href="#m05f90814de" y="478.420116"/>
     <use style="fill:#660099;stroke:#660099;" x="220.851418" xlink:href="#m05f90814de" y="478.513372"/>
     <use style="fill:#660099;stroke:#660099;" x="227.751974" xlink:href="#m05f90814de" y="478.233605"/>
     <use style="fill:#660099;stroke:#660099;" x="234.652529" xlink:href="#m05f90814de" y="477.860582"/>
     <use style="fill:#660099;stroke:#660099;" x="241.553085" xlink:href="#m05f90814de" y="478.093721"/>
     <use style="fill:#660099;stroke:#660099;" x="248.453641" xlink:href="#m05f90814de" y="477.254419"/>
     <use style="fill:#660099;stroke:#660099;" x="255.354197" xlink:href="#m05f90814de" y="476.834768"/>
     <use style="fill:#660099;stroke:#660099;" x="262.254753" xlink:href="#m05f90814de" y="476.415117"/>
     <use style="fill:#660099;stroke:#660099;" x="269.155309" xlink:href="#m05f90814de" y="474.783142"/>
     <use style="fill:#660099;stroke:#660099;" x="276.055864" xlink:href="#m05f90814de" y="471.752329"/>
     <use style="fill:#660099;stroke:#660099;" x="282.95642" xlink:href="#m05f90814de" y="470.773144"/>
     <use style="fill:#660099;stroke:#660099;" x="289.856976" xlink:href="#m05f90814de" y="466.66989"/>
     <use style="fill:#660099;stroke:#660099;" x="296.757532" xlink:href="#m05f90814de" y="462.333497"/>
     <use style="fill:#660099;stroke:#660099;" x="303.658088" xlink:href="#m05f90814de" y="451.142805"/>
     <use style="fill:#660099;stroke:#660099;" x="310.558643" xlink:href="#m05f90814de" y="442.936298"/>
     <use style="fill:#660099;stroke:#660099;" x="317.459199" xlink:href="#m05f90814de" y="428.714794"/>
     <use style="fill:#660099;stroke:#660099;" x="324.359755" xlink:href="#m05f90814de" y="407.499108"/>
     <use style="fill:#660099;stroke:#660099;" x="331.260311" xlink:href="#m05f90814de" y="383.952028"/>
     <use style="fill:#660099;stroke:#660099;" x="338.160867" xlink:href="#m05f90814de" y="355.555647"/>
     <use style="fill:#660099;stroke:#660099;" x="345.061423" xlink:href="#m05f90814de" y="336.857867"/>
     <use style="fill:#660099;stroke:#660099;" x="351.961978" xlink:href="#m05f90814de" y="315.782064"/>
     <use style="fill:#660099;stroke:#660099;" x="358.862534" xlink:href="#m05f90814de" y="294.053471"/>
     <use style="fill:#660099;stroke:#660099;" x="365.76309" xlink:href="#m05f90814de" y="287.385684"/>
     <use style="fill:#660099;stroke:#660099;" x="372.663646" xlink:href="#m05f90814de" y="291.535566"/>
     <use style="fill:#660099;stroke:#660099;" x="379.564202" xlink:href="#m05f90814de" y="312.424857"/>
     <use style="fill:#660099;stroke:#660099;" x="386.464757" xlink:href="#m05f90814de" y="338.489843"/>
     <use style="fill:#660099;stroke:#660099;" x="393.365313" xlink:href="#m05f90814de" y="370.663081"/>
     <use style="fill:#660099;stroke:#660099;" x="400.265869" xlink:href="#m05f90814de" y="406.613178"/>
     <use style="fill:#660099;stroke:#660099;" x="407.166425" xlink:href="#m05f90814de" y="431.279328"/>
     <use style="fill:#660099;stroke:#660099;" x="414.066981" xlink:href="#m05f90814de" y="454.77978"/>
     <use style="fill:#660099;stroke:#660099;" x="420.967537" xlink:href="#m05f90814de" y="465.690705"/>
     <use style="fill:#660099;stroke:#660099;" x="427.868092" xlink:href="#m05f90814de" y="473.151166"/>
     <use style="fill:#660099;stroke:#660099;" x="434.768648" xlink:href="#m05f90814de" y="476.555001"/>
     <use style="fill:#660099;stroke:#660099;" x="441.669204" xlink:href="#m05f90814de" y="477.767326"/>
     <use style="fill:#660099;stroke:#660099;" x="448.56976" xlink:href="#m05f90814de" y="478.373488"/>
     <use style="fill:#660099;stroke:#660099;" x="455.470316" xlink:href="#m05f90814de" y="478.186977"/>
    </g>
   </g>
   <g id="line2d_14">
    <path clip-path="url(#p80bcb8c0e9)" d="M 124.243636 478.56 
L 131.451315 478.56 
L 138.658994 478.56 
L 145.866673 478.466744 
L 153.074352 478.56 
L 160.282031 478.56 
L 167.48971 478.56 
L 174.697389 478.56 
L 181.905068 478.56 
L 189.112747 478.466744 
L 196.320426 478.56 
L 203.528105 478.56 
L 210.735784 478.513372 
L 217.943463 478.373488 
L 225.151142 478.56 
L 232.358821 478.373488 
L 239.5665 478.420116 
L 246.774178 478.373488 
L 253.981857 478.047093 
L 261.189536 478.186977 
L 268.397215 477.813954 
L 275.604894 476.275234 
L 282.812573 477.394303 
L 290.020252 476.275234 
L 297.227931 475.715699 
L 304.43561 474.550002 
L 311.643289 471.612446 
L 318.850968 469.887214 
L 326.058647 463.545822 
L 333.266326 462.286869 
L 340.474005 455.66571 
L 347.681684 446.060366 
L 354.889363 441.537462 
L 362.097042 429.880491 
L 369.304721 417.524103 
L 376.5124 408.33841 
L 383.720078 404.37504 
L 390.927757 394.956208 
L 398.135436 401.204344 
L 405.343115 398.546555 
L 412.550794 415.192708 
L 419.758473 425.637354 
L 426.966152 441.257694 
L 434.173831 459.022917 
L 441.38151 467.415936 
L 448.589189 474.456746 
L 455.796868 476.881396 
L 463.004547 477.860582 
L 470.212226 477.90721 
" style="fill:none;stroke:#980067;stroke-linecap:square;stroke-width:1.5;"/>
    <defs>
     <path d="M -0 3.5 
L 3.5 -3.5 
L -3.5 -3.5 
z
" id="m4981cb175f" style="stroke:#980067;stroke-linejoin:miter;"/>
    </defs>
    <g clip-path="url(#p80bcb8c0e9)">
     <use style="fill:#980067;stroke:#980067;stroke-linejoin:miter;" x="124.243636" xlink:href="#m4981cb175f" y="478.56"/>
     <use style="fill:#980067;stroke:#980067;stroke-linejoin:miter;" x="131.451315" xlink:href="#m4981cb175f" y="478.56"/>
     <use style="fill:#980067;stroke:#980067;stroke-linejoin:miter;" x="138.658994" xlink:href="#m4981cb175f" y="478.56"/>
     <use style="fill:#980067;stroke:#980067;stroke-linejoin:miter;" x="145.866673" xlink:href="#m4981cb175f" y="478.466744"/>
     <use style="fill:#980067;stroke:#980067;stroke-linejoin:miter;" x="153.074352" xlink:href="#m4981cb175f" y="478.56"/>
     <use style="fill:#980067;stroke:#980067;stroke-linejoin:miter;" x="160.282031" xlink:href="#m4981cb175f" y="478.56"/>
     <use style="fill:#980067;stroke:#980067;stroke-linejoin:miter;" x="167.48971" xlink:href="#m4981cb175f" y="478.56"/>
     <use style="fill:#980067;stroke:#980067;stroke-linejoin:miter;" x="174.697389" xlink:href="#m4981cb175f" y="478.56"/>
     <use style="fill:#980067;stroke:#980067;stroke-linejoin:miter;" x="181.905068" xlink:href="#m4981cb175f" y="478.56"/>
     <use style="fill:#980067;stroke:#980067;stroke-linejoin:miter;" x="189.112747" xlink:href="#m4981cb175f" y="478.466744"/>
     <use style="fill:#980067;stroke:#980067;stroke-linejoin:miter;" x="196.320426" xlink:href="#m4981cb175f" y="478.56"/>
     <use style="fill:#980067;stroke:#980067;stroke-linejoin:miter;" x="203.528105" xlink:href="#m4981cb175f" y="478.56"/>
     <use style="fill:#980067;stroke:#980067;stroke-linejoin:miter;" x="210.735784" xlink:href="#m4981cb175f" y="478.513372"/>
     <use style="fill:#980067;stroke:#980067;stroke-linejoin:miter;" x="217.943463" xlink:href="#m4981cb175f" y="478.373488"/>
     <use style="fill:#980067;stroke:#980067;stroke-linejoin:miter;" x="225.151142" xlink:href="#m4981cb175f" y="478.56"/>
     <use style="fill:#980067;stroke:#980067;stroke-linejoin:miter;" x="232.358821" xlink:href="#m4981cb175f" y="478.373488"/>
     <use style="fill:#980067;stroke:#980067;stroke-linejoin:miter;" x="239.5665" xlink:href="#m4981cb175f" y="478.420116"/>
     <use style="fill:#980067;stroke:#980067;stroke-linejoin:miter;" x="246.774178" xlink:href="#m4981cb175f" y="478.373488"/>
     <use style="fill:#980067;stroke:#980067;stroke-linejoin:miter;" x="253.981857" xlink:href="#m4981cb175f" y="478.047093"/>
     <use style="fill:#980067;stroke:#980067;stroke-linejoin:miter;" x="261.189536" xlink:href="#m4981cb175f" y="478.186977"/>
     <use style="fill:#980067;stroke:#980067;stroke-linejoin:miter;" x="268.397215" xlink:href="#m4981cb175f" y="477.813954"/>
     <use style="fill:#980067;stroke:#980067;stroke-linejoin:miter;" x="275.604894" xlink:href="#m4981cb175f" y="476.275234"/>
     <use style="fill:#980067;stroke:#980067;stroke-linejoin:miter;" x="282.812573" xlink:href="#m4981cb175f" y="477.394303"/>
     <use style="fill:#980067;stroke:#980067;stroke-linejoin:miter;" x="290.020252" xlink:href="#m4981cb175f" y="476.275234"/>
     <use style="fill:#980067;stroke:#980067;stroke-linejoin:miter;" x="297.227931" xlink:href="#m4981cb175f" y="475.715699"/>
     <use style="fill:#980067;stroke:#980067;stroke-linejoin:miter;" x="304.43561" xlink:href="#m4981cb175f" y="474.550002"/>
     <use style="fill:#980067;stroke:#980067;stroke-linejoin:miter;" x="311.643289" xlink:href="#m4981cb175f" y="471.612446"/>
     <use style="fill:#980067;stroke:#980067;stroke-linejoin:miter;" x="318.850968" xlink:href="#m4981cb175f" y="469.887214"/>
     <use style="fill:#980067;stroke:#980067;stroke-linejoin:miter;" x="326.058647" xlink:href="#m4981cb175f" y="463.545822"/>
     <use style="fill:#980067;stroke:#980067;stroke-linejoin:miter;" x="333.266326" xlink:href="#m4981cb175f" y="462.286869"/>
     <use style="fill:#980067;stroke:#980067;stroke-linejoin:miter;" x="340.474005" xlink:href="#m4981cb175f" y="455.66571"/>
     <use style="fill:#980067;stroke:#980067;stroke-linejoin:miter;" x="347.681684" xlink:href="#m4981cb175f" y="446.060366"/>
     <use style="fill:#980067;stroke:#980067;stroke-linejoin:miter;" x="354.889363" xlink:href="#m4981cb175f" y="441.537462"/>
     <use style="fill:#980067;stroke:#980067;stroke-linejoin:miter;" x="362.097042" xlink:href="#m4981cb175f" y="429.880491"/>
     <use style="fill:#980067;stroke:#980067;stroke-linejoin:miter;" x="369.304721" xlink:href="#m4981cb175f" y="417.524103"/>
     <use style="fill:#980067;stroke:#980067;stroke-linejoin:miter;" x="376.5124" xlink:href="#m4981cb175f" y="408.33841"/>
     <use style="fill:#980067;stroke:#980067;stroke-linejoin:miter;" x="383.720078" xlink:href="#m4981cb175f" y="404.37504"/>
     <use style="fill:#980067;stroke:#980067;stroke-linejoin:miter;" x="390.927757" xlink:href="#m4981cb175f" y="394.956208"/>
     <use style="fill:#980067;stroke:#980067;stroke-linejoin:miter;" x="398.135436" xlink:href="#m4981cb175f" y="401.204344"/>
     <use style="fill:#980067;stroke:#980067;stroke-linejoin:miter;" x="405.343115" xlink:href="#m4981cb175f" y="398.546555"/>
     <use style="fill:#980067;stroke:#980067;stroke-linejoin:miter;" x="412.550794" xlink:href="#m4981cb175f" y="415.192708"/>
     <use style="fill:#980067;stroke:#980067;stroke-linejoin:miter;" x="419.758473" xlink:href="#m4981cb175f" y="425.637354"/>
     <use style="fill:#980067;stroke:#980067;stroke-linejoin:miter;" x="426.966152" xlink:href="#m4981cb175f" y="441.257694"/>
     <use style="fill:#980067;stroke:#980067;stroke-linejoin:miter;" x="434.173831" xlink:href="#m4981cb175f" y="459.022917"/>
     <use style="fill:#980067;stroke:#980067;stroke-linejoin:miter;" x="441.38151" xlink:href="#m4981cb175f" y="467.415936"/>
     <use style="fill:#980067;stroke:#980067;stroke-linejoin:miter;" x="448.589189" xlink:href="#m4981cb175f" y="474.456746"/>
     <use style="fill:#980067;stroke:#980067;stroke-linejoin:miter;" x="455.796868" xlink:href="#m4981cb175f" y="476.881396"/>
     <use style="fill:#980067;stroke:#980067;stroke-linejoin:miter;" x="463.004547" xlink:href="#m4981cb175f" y="477.860582"/>
     <use style="fill:#980067;stroke:#980067;stroke-linejoin:miter;" x="470.212226" xlink:href="#m4981cb175f" y="477.90721"/>
    </g>
   </g>
   <g id="line2d_15">
    <path clip-path="url(#p80bcb8c0e9)" d="M 124.243636 478.56 
L 132.123353 478.56 
L 140.00307 478.56 
L 147.882787 478.56 
L 155.762503 478.513372 
L 163.64222 478.56 
L 171.521937 478.56 
L 179.401654 478.466744 
L 187.28137 478.56 
L 195.161087 478.56 
L 203.040804 478.56 
L 210.920521 478.513372 
L 218.800237 478.513372 
L 226.679954 478.56 
L 234.559671 478.466744 
L 242.439388 478.466744 
L 250.319104 478.513372 
L 258.198821 478.280233 
L 266.078538 478.280233 
L 273.958255 478.513372 
L 281.837971 478.326861 
L 289.717688 478.233605 
L 297.597405 478.047093 
L 305.477122 477.953838 
L 313.356838 477.207791 
L 321.236555 476.78814 
L 329.116272 475.808955 
L 336.995989 475.529188 
L 344.875705 475.202793 
L 352.755422 473.524189 
L 360.635139 473.05791 
L 368.514856 469.793958 
L 376.394572 469.09454 
L 384.274289 466.0171 
L 392.154006 463.312683 
L 400.033723 458.323499 
L 407.913439 455.479198 
L 415.793156 452.35513 
L 423.672873 451.562456 
L 431.55259 450.676527 
L 439.432306 451.142805 
L 447.312023 453.987106 
L 455.19174 459.955475 
L 463.071457 466.110356 
L 470.951173 471.239423 
L 478.83089 475.24942 
L 486.710607 477.394303 
L 494.590324 478.280233 
L 502.47004 478.466744 
" style="fill:none;stroke:#cc0033;stroke-linecap:square;stroke-width:1.5;"/>
    <defs>
     <path d="M -3 3 
L 3 3 
L 3 -3 
L -3 -3 
z
" id="m01646f6563" style="stroke:#cc0033;stroke-linejoin:miter;"/>
    </defs>
    <g clip-path="url(#p80bcb8c0e9)">
     <use style="fill:#cc0033;stroke:#cc0033;stroke-linejoin:miter;" x="124.243636" xlink:href="#m01646f6563" y="478.56"/>
     <use style="fill:#cc0033;stroke:#cc0033;stroke-linejoin:miter;" x="132.123353" xlink:href="#m01646f6563" y="478.56"/>
     <use style="fill:#cc0033;stroke:#cc0033;stroke-linejoin:miter;" x="140.00307" xlink:href="#m01646f6563" y="478.56"/>
     <use style="fill:#cc0033;stroke:#cc0033;stroke-linejoin:miter;" x="147.882787" xlink:href="#m01646f6563" y="478.56"/>
     <use style="fill:#cc0033;stroke:#cc0033;stroke-linejoin:miter;" x="155.762503" xlink:href="#m01646f6563" y="478.513372"/>
     <use style="fill:#cc0033;stroke:#cc0033;stroke-linejoin:miter;" x="163.64222" xlink:href="#m01646f6563" y="478.56"/>
     <use style="fill:#cc0033;stroke:#cc0033;stroke-linejoin:miter;" x="171.521937" xlink:href="#m01646f6563" y="478.56"/>
     <use style="fill:#cc0033;stroke:#cc0033;stroke-linejoin:miter;" x="179.401654" xlink:href="#m01646f6563" y="478.466744"/>
     <use style="fill:#cc0033;stroke:#cc0033;stroke-linejoin:miter;" x="187.28137" xlink:href="#m01646f6563" y="478.56"/>
     <use style="fill:#cc0033;stroke:#cc0033;stroke-linejoin:miter;" x="195.161087" xlink:href="#m01646f6563" y="478.56"/>
     <use style="fill:#cc0033;stroke:#cc0033;stroke-linejoin:miter;" x="203.040804" xlink:href="#m01646f6563" y="478.56"/>
     <use style="fill:#cc0033;stroke:#cc0033;stroke-linejoin:miter;" x="210.920521" xlink:href="#m01646f6563" y="478.513372"/>
     <use style="fill:#cc0033;stroke:#cc0033;stroke-linejoin:miter;" x="218.800237" xlink:href="#m01646f6563" y="478.513372"/>
     <use style="fill:#cc0033;stroke:#cc0033;stroke-linejoin:miter;" x="226.679954" xlink:href="#m01646f6563" y="478.56"/>
     <use style="fill:#cc0033;stroke:#cc0033;stroke-linejoin:miter;" x="234.559671" xlink:href="#m01646f6563" y="478.466744"/>
     <use style="fill:#cc0033;stroke:#cc0033;stroke-linejoin:miter;" x="242.439388" xlink:href="#m01646f6563" y="478.466744"/>
     <use style="fill:#cc0033;stroke:#cc0033;stroke-linejoin:miter;" x="250.319104" xlink:href="#m01646f6563" y="478.513372"/>
     <use style="fill:#cc0033;stroke:#cc0033;stroke-linejoin:miter;" x="258.198821" xlink:href="#m01646f6563" y="478.280233"/>
     <use style="fill:#cc0033;stroke:#cc0033;stroke-linejoin:miter;" x="266.078538" xlink:href="#m01646f6563" y="478.280233"/>
     <use style="fill:#cc0033;stroke:#cc0033;stroke-linejoin:miter;" x="273.958255" xlink:href="#m01646f6563" y="478.513372"/>
     <use style="fill:#cc0033;stroke:#cc0033;stroke-linejoin:miter;" x="281.837971" xlink:href="#m01646f6563" y="478.326861"/>
     <use style="fill:#cc0033;stroke:#cc0033;stroke-linejoin:miter;" x="289.717688" xlink:href="#m01646f6563" y="478.233605"/>
     <use style="fill:#cc0033;stroke:#cc0033;stroke-linejoin:miter;" x="297.597405" xlink:href="#m01646f6563" y="478.047093"/>
     <use style="fill:#cc0033;stroke:#cc0033;stroke-linejoin:miter;" x="305.477122" xlink:href="#m01646f6563" y="477.953838"/>
     <use style="fill:#cc0033;stroke:#cc0033;stroke-linejoin:miter;" x="313.356838" xlink:href="#m01646f6563" y="477.207791"/>
     <use style="fill:#cc0033;stroke:#cc0033;stroke-linejoin:miter;" x="321.236555" xlink:href="#m01646f6563" y="476.78814"/>
     <use style="fill:#cc0033;stroke:#cc0033;stroke-linejoin:miter;" x="329.116272" xlink:href="#m01646f6563" y="475.808955"/>
     <use style="fill:#cc0033;stroke:#cc0033;stroke-linejoin:miter;" x="336.995989" xlink:href="#m01646f6563" y="475.529188"/>
     <use style="fill:#cc0033;stroke:#cc0033;stroke-linejoin:miter;" x="344.875705" xlink:href="#m01646f6563" y="475.202793"/>
     <use style="fill:#cc0033;stroke:#cc0033;stroke-linejoin:miter;" x="352.755422" xlink:href="#m01646f6563" y="473.524189"/>
     <use style="fill:#cc0033;stroke:#cc0033;stroke-linejoin:miter;" x="360.635139" xlink:href="#m01646f6563" y="473.05791"/>
     <use style="fill:#cc0033;stroke:#cc0033;stroke-linejoin:miter;" x="368.514856" xlink:href="#m01646f6563" y="469.793958"/>
     <use style="fill:#cc0033;stroke:#cc0033;stroke-linejoin:miter;" x="376.394572" xlink:href="#m01646f6563" y="469.09454"/>
     <use style="fill:#cc0033;stroke:#cc0033;stroke-linejoin:miter;" x="384.274289" xlink:href="#m01646f6563" y="466.0171"/>
     <use style="fill:#cc0033;stroke:#cc0033;stroke-linejoin:miter;" x="392.154006" xlink:href="#m01646f6563" y="463.312683"/>
     <use style="fill:#cc0033;stroke:#cc0033;stroke-linejoin:miter;" x="400.033723" xlink:href="#m01646f6563" y="458.323499"/>
     <use style="fill:#cc0033;stroke:#cc0033;stroke-linejoin:miter;" x="407.913439" xlink:href="#m01646f6563" y="455.479198"/>
     <use style="fill:#cc0033;stroke:#cc0033;stroke-linejoin:miter;" x="415.793156" xlink:href="#m01646f6563" y="452.35513"/>
     <use style="fill:#cc0033;stroke:#cc0033;stroke-linejoin:miter;" x="423.672873" xlink:href="#m01646f6563" y="451.562456"/>
     <use style="fill:#cc0033;stroke:#cc0033;stroke-linejoin:miter;" x="431.55259" xlink:href="#m01646f6563" y="450.676527"/>
     <use style="fill:#cc0033;stroke:#cc0033;stroke-linejoin:miter;" x="439.432306" xlink:href="#m01646f6563" y="451.142805"/>
     <use style="fill:#cc0033;stroke:#cc0033;stroke-linejoin:miter;" x="447.312023" xlink:href="#m01646f6563" y="453.987106"/>
     <use style="fill:#cc0033;stroke:#cc0033;stroke-linejoin:miter;" x="455.19174" xlink:href="#m01646f6563" y="459.955475"/>
     <use style="fill:#cc0033;stroke:#cc0033;stroke-linejoin:miter;" x="463.071457" xlink:href="#m01646f6563" y="466.110356"/>
     <use style="fill:#cc0033;stroke:#cc0033;stroke-linejoin:miter;" x="470.951173" xlink:href="#m01646f6563" y="471.239423"/>
     <use style="fill:#cc0033;stroke:#cc0033;stroke-linejoin:miter;" x="478.83089" xlink:href="#m01646f6563" y="475.24942"/>
     <use style="fill:#cc0033;stroke:#cc0033;stroke-linejoin:miter;" x="486.710607" xlink:href="#m01646f6563" y="477.394303"/>
     <use style="fill:#cc0033;stroke:#cc0033;stroke-linejoin:miter;" x="494.590324" xlink:href="#m01646f6563" y="478.280233"/>
     <use style="fill:#cc0033;stroke:#cc0033;stroke-linejoin:miter;" x="502.47004" xlink:href="#m01646f6563" y="478.466744"/>
    </g>
   </g>
   <g id="line2d_16">
    <path clip-path="url(#p80bcb8c0e9)" d="M 124.243636 478.56 
L 132.728485 478.56 
L 141.213333 478.56 
L 149.698182 478.56 
L 158.18303 478.56 
L 166.667879 478.56 
L 175.152727 478.56 
L 183.637576 478.56 
L 192.122424 478.56 
L 200.607273 478.513372 
L 209.092121 478.56 
L 217.57697 478.56 
L 226.061818 478.56 
L 234.546667 478.56 
L 243.031515 478.56 
L 251.516364 478.466744 
L 260.001212 478.56 
L 268.486061 478.513372 
L 276.970909 478.56 
L 285.455758 478.513372 
L 293.940606 478.56 
L 302.425455 478.326861 
L 310.910303 478.326861 
L 319.395152 478.466744 
L 327.88 478.420116 
L 336.364848 478.513372 
L 344.849697 477.860582 
L 353.334545 478.186977 
L 361.819394 478.280233 
L 370.304242 477.767326 
L 378.789091 477.534187 
L 387.273939 477.254419 
L 395.758788 477.487559 
L 404.243636 476.275234 
L 412.728485 475.342676 
L 421.213333 475.109537 
L 429.698182 474.037095 
L 438.18303 473.897212 
L 446.667879 472.218608 
L 455.152727 472.032097 
L 463.637576 469.887214 
L 472.122424 471.006283 
L 480.607273 470.913027 
L 489.092121 472.311864 
L 497.57697 473.337677 
L 506.061818 474.736514 
L 514.546667 476.694885 
L 523.031515 477.627442 
L 531.516364 478.280233 
" style="fill:none;stroke:#fe0100;stroke-linecap:square;stroke-width:1.5;"/>
    <defs>
     <path d="M -3.5 3.5 
L 3.5 3.5 
L 3.5 -3.5 
L -3.5 -3.5 
z
" id="m1c62e9a635" style="stroke:#fe0100;stroke-linejoin:miter;"/>
    </defs>
    <g clip-path="url(#p80bcb8c0e9)">
     <use style="fill:#fe0100;stroke:#fe0100;stroke-linejoin:miter;" x="124.243636" xlink:href="#m1c62e9a635" y="478.56"/>
     <use style="fill:#fe0100;stroke:#fe0100;stroke-linejoin:miter;" x="132.728485" xlink:href="#m1c62e9a635" y="478.56"/>
     <use style="fill:#fe0100;stroke:#fe0100;stroke-linejoin:miter;" x="141.213333" xlink:href="#m1c62e9a635" y="478.56"/>
     <use style="fill:#fe0100;stroke:#fe0100;stroke-linejoin:miter;" x="149.698182" xlink:href="#m1c62e9a635" y="478.56"/>
     <use style="fill:#fe0100;stroke:#fe0100;stroke-linejoin:miter;" x="158.18303" xlink:href="#m1c62e9a635" y="478.56"/>
     <use style="fill:#fe0100;stroke:#fe0100;stroke-linejoin:miter;" x="166.667879" xlink:href="#m1c62e9a635" y="478.56"/>
     <use style="fill:#fe0100;stroke:#fe0100;stroke-linejoin:miter;" x="175.152727" xlink:href="#m1c62e9a635" y="478.56"/>
     <use style="fill:#fe0100;stroke:#fe0100;stroke-linejoin:miter;" x="183.637576" xlink:href="#m1c62e9a635" y="478.56"/>
     <use style="fill:#fe0100;stroke:#fe0100;stroke-linejoin:miter;" x="192.122424" xlink:href="#m1c62e9a635" y="478.56"/>
     <use style="fill:#fe0100;stroke:#fe0100;stroke-linejoin:miter;" x="200.607273" xlink:href="#m1c62e9a635" y="478.513372"/>
     <use style="fill:#fe0100;stroke:#fe0100;stroke-linejoin:miter;" x="209.092121" xlink:href="#m1c62e9a635" y="478.56"/>
     <use style="fill:#fe0100;stroke:#fe0100;stroke-linejoin:miter;" x="217.57697" xlink:href="#m1c62e9a635" y="478.56"/>
     <use style="fill:#fe0100;stroke:#fe0100;stroke-linejoin:miter;" x="226.061818" xlink:href="#m1c62e9a635" y="478.56"/>
     <use style="fill:#fe0100;stroke:#fe0100;stroke-linejoin:miter;" x="234.546667" xlink:href="#m1c62e9a635" y="478.56"/>
     <use style="fill:#fe0100;stroke:#fe0100;stroke-linejoin:miter;" x="243.031515" xlink:href="#m1c62e9a635" y="478.56"/>
     <use style="fill:#fe0100;stroke:#fe0100;stroke-linejoin:miter;" x="251.516364" xlink:href="#m1c62e9a635" y="478.466744"/>
     <use style="fill:#fe0100;stroke:#fe0100;stroke-linejoin:miter;" x="260.001212" xlink:href="#m1c62e9a635" y="478.56"/>
     <use style="fill:#fe0100;stroke:#fe0100;stroke-linejoin:miter;" x="268.486061" xlink:href="#m1c62e9a635" y="478.513372"/>
     <use style="fill:#fe0100;stroke:#fe0100;stroke-linejoin:miter;" x="276.970909" xlink:href="#m1c62e9a635" y="478.56"/>
     <use style="fill:#fe0100;stroke:#fe0100;stroke-linejoin:miter;" x="285.455758" xlink:href="#m1c62e9a635" y="478.513372"/>
     <use style="fill:#fe0100;stroke:#fe0100;stroke-linejoin:miter;" x="293.940606" xlink:href="#m1c62e9a635" y="478.56"/>
     <use style="fill:#fe0100;stroke:#fe0100;stroke-linejoin:miter;" x="302.425455" xlink:href="#m1c62e9a635" y="478.326861"/>
     <use style="fill:#fe0100;stroke:#fe0100;stroke-linejoin:miter;" x="310.910303" xlink:href="#m1c62e9a635" y="478.326861"/>
     <use style="fill:#fe0100;stroke:#fe0100;stroke-linejoin:miter;" x="319.395152" xlink:href="#m1c62e9a635" y="478.466744"/>
     <use style="fill:#fe0100;stroke:#fe0100;stroke-linejoin:miter;" x="327.88" xlink:href="#m1c62e9a635" y="478.420116"/>
     <use style="fill:#fe0100;stroke:#fe0100;stroke-linejoin:miter;" x="336.364848" xlink:href="#m1c62e9a635" y="478.513372"/>
     <use style="fill:#fe0100;stroke:#fe0100;stroke-linejoin:miter;" x="344.849697" xlink:href="#m1c62e9a635" y="477.860582"/>
     <use style="fill:#fe0100;stroke:#fe0100;stroke-linejoin:miter;" x="353.334545" xlink:href="#m1c62e9a635" y="478.186977"/>
     <use style="fill:#fe0100;stroke:#fe0100;stroke-linejoin:miter;" x="361.819394" xlink:href="#m1c62e9a635" y="478.280233"/>
     <use style="fill:#fe0100;stroke:#fe0100;stroke-linejoin:miter;" x="370.304242" xlink:href="#m1c62e9a635" y="477.767326"/>
     <use style="fill:#fe0100;stroke:#fe0100;stroke-linejoin:miter;" x="378.789091" xlink:href="#m1c62e9a635" y="477.534187"/>
     <use style="fill:#fe0100;stroke:#fe0100;stroke-linejoin:miter;" x="387.273939" xlink:href="#m1c62e9a635" y="477.254419"/>
     <use style="fill:#fe0100;stroke:#fe0100;stroke-linejoin:miter;" x="395.758788" xlink:href="#m1c62e9a635" y="477.487559"/>
     <use style="fill:#fe0100;stroke:#fe0100;stroke-linejoin:miter;" x="404.243636" xlink:href="#m1c62e9a635" y="476.275234"/>
     <use style="fill:#fe0100;stroke:#fe0100;stroke-linejoin:miter;" x="412.728485" xlink:href="#m1c62e9a635" y="475.342676"/>
     <use style="fill:#fe0100;stroke:#fe0100;stroke-linejoin:miter;" x="421.213333" xlink:href="#m1c62e9a635" y="475.109537"/>
     <use style="fill:#fe0100;stroke:#fe0100;stroke-linejoin:miter;" x="429.698182" xlink:href="#m1c62e9a635" y="474.037095"/>
     <use style="fill:#fe0100;stroke:#fe0100;stroke-linejoin:miter;" x="438.18303" xlink:href="#m1c62e9a635" y="473.897212"/>
     <use style="fill:#fe0100;stroke:#fe0100;stroke-linejoin:miter;" x="446.667879" xlink:href="#m1c62e9a635" y="472.218608"/>
     <use style="fill:#fe0100;stroke:#fe0100;stroke-linejoin:miter;" x="455.152727" xlink:href="#m1c62e9a635" y="472.032097"/>
     <use style="fill:#fe0100;stroke:#fe0100;stroke-linejoin:miter;" x="463.637576" xlink:href="#m1c62e9a635" y="469.887214"/>
     <use style="fill:#fe0100;stroke:#fe0100;stroke-linejoin:miter;" x="472.122424" xlink:href="#m1c62e9a635" y="471.006283"/>
     <use style="fill:#fe0100;stroke:#fe0100;stroke-linejoin:miter;" x="480.607273" xlink:href="#m1c62e9a635" y="470.913027"/>
     <use style="fill:#fe0100;stroke:#fe0100;stroke-linejoin:miter;" x="489.092121" xlink:href="#m1c62e9a635" y="472.311864"/>
     <use style="fill:#fe0100;stroke:#fe0100;stroke-linejoin:miter;" x="497.57697" xlink:href="#m1c62e9a635" y="473.337677"/>
     <use style="fill:#fe0100;stroke:#fe0100;stroke-linejoin:miter;" x="506.061818" xlink:href="#m1c62e9a635" y="474.736514"/>
     <use style="fill:#fe0100;stroke:#fe0100;stroke-linejoin:miter;" x="514.546667" xlink:href="#m1c62e9a635" y="476.694885"/>
     <use style="fill:#fe0100;stroke:#fe0100;stroke-linejoin:miter;" x="523.031515" xlink:href="#m1c62e9a635" y="477.627442"/>
     <use style="fill:#fe0100;stroke:#fe0100;stroke-linejoin:miter;" x="531.516364" xlink:href="#m1c62e9a635" y="478.280233"/>
    </g>
   </g>
   <g id="patch_3">
    <path d="M 103.88 500.2 
L 103.88 24.12 
" style="fill:none;stroke:#000000;stroke-linecap:square;stroke-linejoin:miter;stroke-width:0.8;"/>
   </g>
   <g id="patch_4">
    <path d="M 551.88 500.2 
L 551.88 24.12 
" style="fill:none;stroke:#000000;stroke-linecap:square;stroke-linejoin:miter;stroke-width:0.8;"/>
   </g>
   <g id="patch_5">
    <path d="M 103.88 500.2 
L 551.88 500.2 
" style="fill:none;stroke:#000000;stroke-linecap:square;stroke-linejoin:miter;stroke-width:0.8;"/>
   </g>
   <g id="patch_6">
    <path d="M 103.88 24.12 
L 551.88 24.12 
" style="fill:none;stroke:#000000;stroke-linecap:square;stroke-linejoin:miter;stroke-width:0.8;"/>
   </g>
   <g id="legend_1">
    <g id="line2d_17">
     <path d="M 416.6175 50.316875 
L 456.6175 50.316875 
" style="fill:none;stroke:#3200cd;stroke-linecap:square;stroke-width:1.5;"/>
    </g>
    <g id="line2d_18">
     <g>
      <use style="fill:#3200cd;stroke:#3200cd;" x="436.6175" xlink:href="#m3d4515da0b" y="50.316875"/>
     </g>
    </g>
    <g id="text_14">
     <!-- p=0.1 -->
     <defs>
      <path d="M 18.109375 8.203125 
L 18.109375 -20.796875 
L 9.078125 -20.796875 
L 9.078125 54.6875 
L 18.109375 54.6875 
L 18.109375 46.390625 
Q 20.953125 51.265625 25.265625 53.625 
Q 29.59375 56 35.59375 56 
Q 45.5625 56 51.78125 48.09375 
Q 58.015625 40.1875 58.015625 27.296875 
Q 58.015625 14.40625 51.78125 6.484375 
Q 45.5625 -1.421875 35.59375 -1.421875 
Q 29.59375 -1.421875 25.265625 0.953125 
Q 20.953125 3.328125 18.109375 8.203125 
z
M 48.6875 27.296875 
Q 48.6875 37.203125 44.609375 42.84375 
Q 40.53125 48.484375 33.40625 48.484375 
Q 26.265625 48.484375 22.1875 42.84375 
Q 18.109375 37.203125 18.109375 27.296875 
Q 18.109375 17.390625 22.1875 11.75 
Q 26.265625 6.109375 33.40625 6.109375 
Q 40.53125 6.109375 44.609375 11.75 
Q 48.6875 17.390625 48.6875 27.296875 
z
" id="DejaVuSans-70"/>
      <path d="M 10.59375 45.40625 
L 73.1875 45.40625 
L 73.1875 37.203125 
L 10.59375 37.203125 
z
M 10.59375 25.484375 
L 73.1875 25.484375 
L 73.1875 17.1875 
L 10.59375 17.1875 
z
" id="DejaVuSans-3d"/>
      <path d="M 10.6875 12.40625 
L 21 12.40625 
L 21 0 
L 10.6875 0 
z
" id="DejaVuSans-2e"/>
     </defs>
     <g transform="translate(472.6175 57.316875)scale(0.2 -0.2)">
      <use xlink:href="#DejaVuSans-70"/>
      <use x="63.476562" xlink:href="#DejaVuSans-3d"/>
      <use x="147.265625" xlink:href="#DejaVuSans-30"/>
      <use x="210.888672" xlink:href="#DejaVuSans-2e"/>
      <use x="242.675781" xlink:href="#DejaVuSans-31"/>
     </g>
    </g>
    <g id="line2d_19">
     <path d="M 416.6175 79.673125 
L 456.6175 79.673125 
" style="fill:none;stroke:#660099;stroke-linecap:square;stroke-width:1.5;"/>
    </g>
    <g id="line2d_20">
     <g>
      <use style="fill:#660099;stroke:#660099;" x="436.6175" xlink:href="#m05f90814de" y="79.673125"/>
     </g>
    </g>
    <g id="text_15">
     <!-- p=0.2 -->
     <g transform="translate(472.6175 86.673125)scale(0.2 -0.2)">
      <use xlink:href="#DejaVuSans-70"/>
      <use x="63.476562" xlink:href="#DejaVuSans-3d"/>
      <use x="147.265625" xlink:href="#DejaVuSans-30"/>
      <use x="210.888672" xlink:href="#DejaVuSans-2e"/>
      <use x="242.675781" xlink:href="#DejaVuSans-32"/>
     </g>
    </g>
    <g id="line2d_21">
     <path d="M 416.6175 109.029375 
L 456.6175 109.029375 
" style="fill:none;stroke:#980067;stroke-linecap:square;stroke-width:1.5;"/>
    </g>
    <g id="line2d_22">
     <g>
      <use style="fill:#980067;stroke:#980067;stroke-linejoin:miter;" x="436.6175" xlink:href="#m4981cb175f" y="109.029375"/>
     </g>
    </g>
    <g id="text_16">
     <!-- p=0.3 -->
     <g transform="translate(472.6175 116.029375)scale(0.2 -0.2)">
      <use xlink:href="#DejaVuSans-70"/>
      <use x="63.476562" xlink:href="#DejaVuSans-3d"/>
      <use x="147.265625" xlink:href="#DejaVuSans-30"/>
      <use x="210.888672" xlink:href="#DejaVuSans-2e"/>
      <use x="242.675781" xlink:href="#DejaVuSans-33"/>
     </g>
    </g>
    <g id="line2d_23">
     <path d="M 416.6175 138.385625 
L 456.6175 138.385625 
" style="fill:none;stroke:#cc0033;stroke-linecap:square;stroke-width:1.5;"/>
    </g>
    <g id="line2d_24">
     <g>
      <use style="fill:#cc0033;stroke:#cc0033;stroke-linejoin:miter;" x="436.6175" xlink:href="#m01646f6563" y="138.385625"/>
     </g>
    </g>
    <g id="text_17">
     <!-- p=0.4 -->
     <g transform="translate(472.6175 145.385625)scale(0.2 -0.2)">
      <use xlink:href="#DejaVuSans-70"/>
      <use x="63.476562" xlink:href="#DejaVuSans-3d"/>
      <use x="147.265625" xlink:href="#DejaVuSans-30"/>
      <use x="210.888672" xlink:href="#DejaVuSans-2e"/>
      <use x="242.675781" xlink:href="#DejaVuSans-34"/>
     </g>
    </g>
    <g id="line2d_25">
     <path d="M 416.6175 167.741875 
L 456.6175 167.741875 
" style="fill:none;stroke:#fe0100;stroke-linecap:square;stroke-width:1.5;"/>
    </g>
    <g id="line2d_26">
     <g>
      <use style="fill:#fe0100;stroke:#fe0100;stroke-linejoin:miter;" x="436.6175" xlink:href="#m1c62e9a635" y="167.741875"/>
     </g>
    </g>
    <g id="text_18">
     <!-- p=0.5 -->
     <g transform="translate(472.6175 174.741875)scale(0.2 -0.2)">
      <use xlink:href="#DejaVuSans-70"/>
      <use x="63.476562" xlink:href="#DejaVuSans-3d"/>
      <use x="147.265625" xlink:href="#DejaVuSans-30"/>
      <use x="210.888672" xlink:href="#DejaVuSans-2e"/>
      <use x="242.675781" xlink:href="#DejaVuSans-35"/>
     </g>
    </g>
   </g>
  </g>
 </g>
 <defs>
  <clipPath id="p80bcb8c0e9">
   <rect height="476.08" width="448" x="103.88" y="24.12"/>
  </clipPath>
 </defs>
</svg>
