<?xml version="1.0" encoding="utf-8" standalone="no"?>
<!DOCTYPE svg PUBLIC "-//W3C//DTD SVG 1.1//EN"
  "http://www.w3.org/Graphics/SVG/1.1/DTD/svg11.dtd">
<!-- Created with matplotlib (http://matplotlib.org/) -->
<svg height="576pt" version="1.1" viewBox="0 0 576 576" width="576pt" xmlns="http://www.w3.org/2000/svg" xmlns:xlink="http://www.w3.org/1999/xlink">
 <defs>
  <style type="text/css">
*{stroke-linecap:butt;stroke-linejoin:round;}
  </style>
 </defs>
 <g id="figure_1">
  <g id="patch_1">
   <path d="M 0 576 
L 576 576 
L 576 0 
L 0 0 
z
" style="fill:#ffffff;"/>
  </g>
  <g id="axes_1">
   <g id="patch_2">
    <path d="M 78.23 503.08 
L 551.88 503.08 
L 551.88 24.12 
L 78.23 24.12 
z
" style="fill:#ffffff;"/>
   </g>
   <g id="matplotlib.axis_1">
    <g id="xtick_1">
     <g id="line2d_1">
      <defs>
       <path d="M 0 0 
L 0 3.5 
" id="m28672529d6" style="stroke:#000000;stroke-width:0.8;"/>
      </defs>
      <g>
       <use style="stroke:#000000;stroke-width:0.8;" x="99.759545" xlink:href="#m28672529d6" y="503.08"/>
      </g>
     </g>
     <g id="text_1">
      <!-- 0 -->
      <defs>
       <path d="M 31.78125 66.40625 
Q 24.171875 66.40625 20.328125 58.90625 
Q 16.5 51.421875 16.5 36.375 
Q 16.5 21.390625 20.328125 13.890625 
Q 24.171875 6.390625 31.78125 6.390625 
Q 39.453125 6.390625 43.28125 13.890625 
Q 47.125 21.390625 47.125 36.375 
Q 47.125 51.421875 43.28125 58.90625 
Q 39.453125 66.40625 31.78125 66.40625 
z
M 31.78125 74.21875 
Q 44.046875 74.21875 50.515625 64.515625 
Q 56.984375 54.828125 56.984375 36.375 
Q 56.984375 17.96875 50.515625 8.265625 
Q 44.046875 -1.421875 31.78125 -1.421875 
Q 19.53125 -1.421875 13.0625 8.265625 
Q 6.59375 17.96875 6.59375 36.375 
Q 6.59375 54.828125 13.0625 64.515625 
Q 19.53125 74.21875 31.78125 74.21875 
z
" id="DejaVuSans-30"/>
      </defs>
      <g transform="translate(93.397045 525.276875)scale(0.2 -0.2)">
       <use xlink:href="#DejaVuSans-30"/>
      </g>
     </g>
    </g>
    <g id="xtick_2">
     <g id="line2d_2">
      <g>
       <use style="stroke:#000000;stroke-width:0.8;" x="170.435906" xlink:href="#m28672529d6" y="503.08"/>
      </g>
     </g>
     <g id="text_2">
      <!-- 2 -->
      <defs>
       <path d="M 19.1875 8.296875 
L 53.609375 8.296875 
L 53.609375 0 
L 7.328125 0 
L 7.328125 8.296875 
Q 12.9375 14.109375 22.625 23.890625 
Q 32.328125 33.6875 34.8125 36.53125 
Q 39.546875 41.84375 41.421875 45.53125 
Q 43.3125 49.21875 43.3125 52.78125 
Q 43.3125 58.59375 39.234375 62.25 
Q 35.15625 65.921875 28.609375 65.921875 
Q 23.96875 65.921875 18.8125 64.3125 
Q 13.671875 62.703125 7.8125 59.421875 
L 7.8125 69.390625 
Q 13.765625 71.78125 18.9375 73 
Q 24.125 74.21875 28.421875 74.21875 
Q 39.75 74.21875 46.484375 68.546875 
Q 53.21875 62.890625 53.21875 53.421875 
Q 53.21875 48.921875 51.53125 44.890625 
Q 49.859375 40.875 45.40625 35.40625 
Q 44.1875 33.984375 37.640625 27.21875 
Q 31.109375 20.453125 19.1875 8.296875 
z
" id="DejaVuSans-32"/>
      </defs>
      <g transform="translate(164.073406 525.276875)scale(0.2 -0.2)">
       <use xlink:href="#DejaVuSans-32"/>
      </g>
     </g>
    </g>
    <g id="xtick_3">
     <g id="line2d_3">
      <g>
       <use style="stroke:#000000;stroke-width:0.8;" x="241.112267" xlink:href="#m28672529d6" y="503.08"/>
      </g>
     </g>
     <g id="text_3">
      <!-- 4 -->
      <defs>
       <path d="M 37.796875 64.3125 
L 12.890625 25.390625 
L 37.796875 25.390625 
z
M 35.203125 72.90625 
L 47.609375 72.90625 
L 47.609375 25.390625 
L 58.015625 25.390625 
L 58.015625 17.1875 
L 47.609375 17.1875 
L 47.609375 0 
L 37.796875 0 
L 37.796875 17.1875 
L 4.890625 17.1875 
L 4.890625 26.703125 
z
" id="DejaVuSans-34"/>
      </defs>
      <g transform="translate(234.749767 525.276875)scale(0.2 -0.2)">
       <use xlink:href="#DejaVuSans-34"/>
      </g>
     </g>
    </g>
    <g id="xtick_4">
     <g id="line2d_4">
      <g>
       <use style="stroke:#000000;stroke-width:0.8;" x="311.788628" xlink:href="#m28672529d6" y="503.08"/>
      </g>
     </g>
     <g id="text_4">
      <!-- 6 -->
      <defs>
       <path d="M 33.015625 40.375 
Q 26.375 40.375 22.484375 35.828125 
Q 18.609375 31.296875 18.609375 23.390625 
Q 18.609375 15.53125 22.484375 10.953125 
Q 26.375 6.390625 33.015625 6.390625 
Q 39.65625 6.390625 43.53125 10.953125 
Q 47.40625 15.53125 47.40625 23.390625 
Q 47.40625 31.296875 43.53125 35.828125 
Q 39.65625 40.375 33.015625 40.375 
z
M 52.59375 71.296875 
L 52.59375 62.3125 
Q 48.875 64.0625 45.09375 64.984375 
Q 41.3125 65.921875 37.59375 65.921875 
Q 27.828125 65.921875 22.671875 59.328125 
Q 17.53125 52.734375 16.796875 39.40625 
Q 19.671875 43.65625 24.015625 45.921875 
Q 28.375 48.1875 33.59375 48.1875 
Q 44.578125 48.1875 50.953125 41.515625 
Q 57.328125 34.859375 57.328125 23.390625 
Q 57.328125 12.15625 50.6875 5.359375 
Q 44.046875 -1.421875 33.015625 -1.421875 
Q 20.359375 -1.421875 13.671875 8.265625 
Q 6.984375 17.96875 6.984375 36.375 
Q 6.984375 53.65625 15.1875 63.9375 
Q 23.390625 74.21875 37.203125 74.21875 
Q 40.921875 74.21875 44.703125 73.484375 
Q 48.484375 72.75 52.59375 71.296875 
z
" id="DejaVuSans-36"/>
      </defs>
      <g transform="translate(305.426128 525.276875)scale(0.2 -0.2)">
       <use xlink:href="#DejaVuSans-36"/>
      </g>
     </g>
    </g>
    <g id="xtick_5">
     <g id="line2d_5">
      <g>
       <use style="stroke:#000000;stroke-width:0.8;" x="382.464989" xlink:href="#m28672529d6" y="503.08"/>
      </g>
     </g>
     <g id="text_5">
      <!-- 8 -->
      <defs>
       <path d="M 31.78125 34.625 
Q 24.75 34.625 20.71875 30.859375 
Q 16.703125 27.09375 16.703125 20.515625 
Q 16.703125 13.921875 20.71875 10.15625 
Q 24.75 6.390625 31.78125 6.390625 
Q 38.8125 6.390625 42.859375 10.171875 
Q 46.921875 13.96875 46.921875 20.515625 
Q 46.921875 27.09375 42.890625 30.859375 
Q 38.875 34.625 31.78125 34.625 
z
M 21.921875 38.8125 
Q 15.578125 40.375 12.03125 44.71875 
Q 8.5 49.078125 8.5 55.328125 
Q 8.5 64.0625 14.71875 69.140625 
Q 20.953125 74.21875 31.78125 74.21875 
Q 42.671875 74.21875 48.875 69.140625 
Q 55.078125 64.0625 55.078125 55.328125 
Q 55.078125 49.078125 51.53125 44.71875 
Q 48 40.375 41.703125 38.8125 
Q 48.828125 37.15625 52.796875 32.3125 
Q 56.78125 27.484375 56.78125 20.515625 
Q 56.78125 9.90625 50.3125 4.234375 
Q 43.84375 -1.421875 31.78125 -1.421875 
Q 19.734375 -1.421875 13.25 4.234375 
Q 6.78125 9.90625 6.78125 20.515625 
Q 6.78125 27.484375 10.78125 32.3125 
Q 14.796875 37.15625 21.921875 38.8125 
z
M 18.3125 54.390625 
Q 18.3125 48.734375 21.84375 45.5625 
Q 25.390625 42.390625 31.78125 42.390625 
Q 38.140625 42.390625 41.71875 45.5625 
Q 45.3125 48.734375 45.3125 54.390625 
Q 45.3125 60.0625 41.71875 63.234375 
Q 38.140625 66.40625 31.78125 66.40625 
Q 25.390625 66.40625 21.84375 63.234375 
Q 18.3125 60.0625 18.3125 54.390625 
z
" id="DejaVuSans-38"/>
      </defs>
      <g transform="translate(376.102489 525.276875)scale(0.2 -0.2)">
       <use xlink:href="#DejaVuSans-38"/>
      </g>
     </g>
    </g>
    <g id="xtick_6">
     <g id="line2d_6">
      <g>
       <use style="stroke:#000000;stroke-width:0.8;" x="453.14135" xlink:href="#m28672529d6" y="503.08"/>
      </g>
     </g>
     <g id="text_6">
      <!-- 10 -->
      <defs>
       <path d="M 12.40625 8.296875 
L 28.515625 8.296875 
L 28.515625 63.921875 
L 10.984375 60.40625 
L 10.984375 69.390625 
L 28.421875 72.90625 
L 38.28125 72.90625 
L 38.28125 8.296875 
L 54.390625 8.296875 
L 54.390625 0 
L 12.40625 0 
z
" id="DejaVuSans-31"/>
      </defs>
      <g transform="translate(440.41635 525.276875)scale(0.2 -0.2)">
       <use xlink:href="#DejaVuSans-31"/>
       <use x="63.623047" xlink:href="#DejaVuSans-30"/>
      </g>
     </g>
    </g>
    <g id="xtick_7">
     <g id="line2d_7">
      <g>
       <use style="stroke:#000000;stroke-width:0.8;" x="523.817711" xlink:href="#m28672529d6" y="503.08"/>
      </g>
     </g>
     <g id="text_7">
      <!-- 12 -->
      <g transform="translate(511.092711 525.276875)scale(0.2 -0.2)">
       <use xlink:href="#DejaVuSans-31"/>
       <use x="63.623047" xlink:href="#DejaVuSans-32"/>
      </g>
     </g>
    </g>
    <g id="text_8">
     <!-- log (generations) -->
     <defs>
      <path d="M 9.421875 75.984375 
L 18.40625 75.984375 
L 18.40625 0 
L 9.421875 0 
z
" id="DejaVuSans-6c"/>
      <path d="M 30.609375 48.390625 
Q 23.390625 48.390625 19.1875 42.75 
Q 14.984375 37.109375 14.984375 27.296875 
Q 14.984375 17.484375 19.15625 11.84375 
Q 23.34375 6.203125 30.609375 6.203125 
Q 37.796875 6.203125 41.984375 11.859375 
Q 46.1875 17.53125 46.1875 27.296875 
Q 46.1875 37.015625 41.984375 42.703125 
Q 37.796875 48.390625 30.609375 48.390625 
z
M 30.609375 56 
Q 42.328125 56 49.015625 48.375 
Q 55.71875 40.765625 55.71875 27.296875 
Q 55.71875 13.875 49.015625 6.21875 
Q 42.328125 -1.421875 30.609375 -1.421875 
Q 18.84375 -1.421875 12.171875 6.21875 
Q 5.515625 13.875 5.515625 27.296875 
Q 5.515625 40.765625 12.171875 48.375 
Q 18.84375 56 30.609375 56 
z
" id="DejaVuSans-6f"/>
      <path d="M 45.40625 27.984375 
Q 45.40625 37.75 41.375 43.109375 
Q 37.359375 48.484375 30.078125 48.484375 
Q 22.859375 48.484375 18.828125 43.109375 
Q 14.796875 37.75 14.796875 27.984375 
Q 14.796875 18.265625 18.828125 12.890625 
Q 22.859375 7.515625 30.078125 7.515625 
Q 37.359375 7.515625 41.375 12.890625 
Q 45.40625 18.265625 45.40625 27.984375 
z
M 54.390625 6.78125 
Q 54.390625 -7.171875 48.1875 -13.984375 
Q 42 -20.796875 29.203125 -20.796875 
Q 24.46875 -20.796875 20.265625 -20.09375 
Q 16.0625 -19.390625 12.109375 -17.921875 
L 12.109375 -9.1875 
Q 16.0625 -11.328125 19.921875 -12.34375 
Q 23.78125 -13.375 27.78125 -13.375 
Q 36.625 -13.375 41.015625 -8.765625 
Q 45.40625 -4.15625 45.40625 5.171875 
L 45.40625 9.625 
Q 42.625 4.78125 38.28125 2.390625 
Q 33.9375 0 27.875 0 
Q 17.828125 0 11.671875 7.65625 
Q 5.515625 15.328125 5.515625 27.984375 
Q 5.515625 40.671875 11.671875 48.328125 
Q 17.828125 56 27.875 56 
Q 33.9375 56 38.28125 53.609375 
Q 42.625 51.21875 45.40625 46.390625 
L 45.40625 54.6875 
L 54.390625 54.6875 
z
" id="DejaVuSans-67"/>
      <path id="DejaVuSans-20"/>
      <path d="M 31 75.875 
Q 24.46875 64.65625 21.28125 53.65625 
Q 18.109375 42.671875 18.109375 31.390625 
Q 18.109375 20.125 21.3125 9.0625 
Q 24.515625 -2 31 -13.1875 
L 23.1875 -13.1875 
Q 15.875 -1.703125 12.234375 9.375 
Q 8.59375 20.453125 8.59375 31.390625 
Q 8.59375 42.28125 12.203125 53.3125 
Q 15.828125 64.359375 23.1875 75.875 
z
" id="DejaVuSans-28"/>
      <path d="M 56.203125 29.59375 
L 56.203125 25.203125 
L 14.890625 25.203125 
Q 15.484375 15.921875 20.484375 11.0625 
Q 25.484375 6.203125 34.421875 6.203125 
Q 39.59375 6.203125 44.453125 7.46875 
Q 49.3125 8.734375 54.109375 11.28125 
L 54.109375 2.78125 
Q 49.265625 0.734375 44.1875 -0.34375 
Q 39.109375 -1.421875 33.890625 -1.421875 
Q 20.796875 -1.421875 13.15625 6.1875 
Q 5.515625 13.8125 5.515625 26.8125 
Q 5.515625 40.234375 12.765625 48.109375 
Q 20.015625 56 32.328125 56 
Q 43.359375 56 49.78125 48.890625 
Q 56.203125 41.796875 56.203125 29.59375 
z
M 47.21875 32.234375 
Q 47.125 39.59375 43.09375 43.984375 
Q 39.0625 48.390625 32.421875 48.390625 
Q 24.90625 48.390625 20.390625 44.140625 
Q 15.875 39.890625 15.1875 32.171875 
z
" id="DejaVuSans-65"/>
      <path d="M 54.890625 33.015625 
L 54.890625 0 
L 45.90625 0 
L 45.90625 32.71875 
Q 45.90625 40.484375 42.875 44.328125 
Q 39.84375 48.1875 33.796875 48.1875 
Q 26.515625 48.1875 22.3125 43.546875 
Q 18.109375 38.921875 18.109375 30.90625 
L 18.109375 0 
L 9.078125 0 
L 9.078125 54.6875 
L 18.109375 54.6875 
L 18.109375 46.1875 
Q 21.34375 51.125 25.703125 53.5625 
Q 30.078125 56 35.796875 56 
Q 45.21875 56 50.046875 50.171875 
Q 54.890625 44.34375 54.890625 33.015625 
z
" id="DejaVuSans-6e"/>
      <path d="M 41.109375 46.296875 
Q 39.59375 47.171875 37.8125 47.578125 
Q 36.03125 48 33.890625 48 
Q 26.265625 48 22.1875 43.046875 
Q 18.109375 38.09375 18.109375 28.8125 
L 18.109375 0 
L 9.078125 0 
L 9.078125 54.6875 
L 18.109375 54.6875 
L 18.109375 46.1875 
Q 20.953125 51.171875 25.484375 53.578125 
Q 30.03125 56 36.53125 56 
Q 37.453125 56 38.578125 55.875 
Q 39.703125 55.765625 41.0625 55.515625 
z
" id="DejaVuSans-72"/>
      <path d="M 34.28125 27.484375 
Q 23.390625 27.484375 19.1875 25 
Q 14.984375 22.515625 14.984375 16.5 
Q 14.984375 11.71875 18.140625 8.90625 
Q 21.296875 6.109375 26.703125 6.109375 
Q 34.1875 6.109375 38.703125 11.40625 
Q 43.21875 16.703125 43.21875 25.484375 
L 43.21875 27.484375 
z
M 52.203125 31.203125 
L 52.203125 0 
L 43.21875 0 
L 43.21875 8.296875 
Q 40.140625 3.328125 35.546875 0.953125 
Q 30.953125 -1.421875 24.3125 -1.421875 
Q 15.921875 -1.421875 10.953125 3.296875 
Q 6 8.015625 6 15.921875 
Q 6 25.140625 12.171875 29.828125 
Q 18.359375 34.515625 30.609375 34.515625 
L 43.21875 34.515625 
L 43.21875 35.40625 
Q 43.21875 41.609375 39.140625 45 
Q 35.0625 48.390625 27.6875 48.390625 
Q 23 48.390625 18.546875 47.265625 
Q 14.109375 46.140625 10.015625 43.890625 
L 10.015625 52.203125 
Q 14.9375 54.109375 19.578125 55.046875 
Q 24.21875 56 28.609375 56 
Q 40.484375 56 46.34375 49.84375 
Q 52.203125 43.703125 52.203125 31.203125 
z
" id="DejaVuSans-61"/>
      <path d="M 18.3125 70.21875 
L 18.3125 54.6875 
L 36.8125 54.6875 
L 36.8125 47.703125 
L 18.3125 47.703125 
L 18.3125 18.015625 
Q 18.3125 11.328125 20.140625 9.421875 
Q 21.96875 7.515625 27.59375 7.515625 
L 36.8125 7.515625 
L 36.8125 0 
L 27.59375 0 
Q 17.1875 0 13.234375 3.875 
Q 9.28125 7.765625 9.28125 18.015625 
L 9.28125 47.703125 
L 2.6875 47.703125 
L 2.6875 54.6875 
L 9.28125 54.6875 
L 9.28125 70.21875 
z
" id="DejaVuSans-74"/>
      <path d="M 9.421875 54.6875 
L 18.40625 54.6875 
L 18.40625 0 
L 9.421875 0 
z
M 9.421875 75.984375 
L 18.40625 75.984375 
L 18.40625 64.59375 
L 9.421875 64.59375 
z
" id="DejaVuSans-69"/>
      <path d="M 44.28125 53.078125 
L 44.28125 44.578125 
Q 40.484375 46.53125 36.375 47.5 
Q 32.28125 48.484375 27.875 48.484375 
Q 21.1875 48.484375 17.84375 46.4375 
Q 14.5 44.390625 14.5 40.28125 
Q 14.5 37.15625 16.890625 35.375 
Q 19.28125 33.59375 26.515625 31.984375 
L 29.59375 31.296875 
Q 39.15625 29.25 43.1875 25.515625 
Q 47.21875 21.78125 47.21875 15.09375 
Q 47.21875 7.46875 41.1875 3.015625 
Q 35.15625 -1.421875 24.609375 -1.421875 
Q 20.21875 -1.421875 15.453125 -0.5625 
Q 10.6875 0.296875 5.421875 2 
L 5.421875 11.28125 
Q 10.40625 8.6875 15.234375 7.390625 
Q 20.0625 6.109375 24.8125 6.109375 
Q 31.15625 6.109375 34.5625 8.28125 
Q 37.984375 10.453125 37.984375 14.40625 
Q 37.984375 18.0625 35.515625 20.015625 
Q 33.0625 21.96875 24.703125 23.78125 
L 21.578125 24.515625 
Q 13.234375 26.265625 9.515625 29.90625 
Q 5.8125 33.546875 5.8125 39.890625 
Q 5.8125 47.609375 11.28125 51.796875 
Q 16.75 56 26.8125 56 
Q 31.78125 56 36.171875 55.265625 
Q 40.578125 54.546875 44.28125 53.078125 
z
" id="DejaVuSans-73"/>
      <path d="M 8.015625 75.875 
L 15.828125 75.875 
Q 23.140625 64.359375 26.78125 53.3125 
Q 30.421875 42.28125 30.421875 31.390625 
Q 30.421875 20.453125 26.78125 9.375 
Q 23.140625 -1.703125 15.828125 -13.1875 
L 8.015625 -13.1875 
Q 14.5 -2 17.703125 9.0625 
Q 20.90625 20.125 20.90625 31.390625 
Q 20.90625 42.671875 17.703125 53.65625 
Q 14.5 64.65625 8.015625 75.875 
z
" id="DejaVuSans-29"/>
     </defs>
     <g transform="translate(229.233125 548.633125)scale(0.2 -0.2)">
      <use xlink:href="#DejaVuSans-6c"/>
      <use x="27.783203" xlink:href="#DejaVuSans-6f"/>
      <use x="88.964844" xlink:href="#DejaVuSans-67"/>
      <use x="152.441406" xlink:href="#DejaVuSans-20"/>
      <use x="184.228516" xlink:href="#DejaVuSans-28"/>
      <use x="223.242188" xlink:href="#DejaVuSans-67"/>
      <use x="286.71875" xlink:href="#DejaVuSans-65"/>
      <use x="348.242188" xlink:href="#DejaVuSans-6e"/>
      <use x="411.621094" xlink:href="#DejaVuSans-65"/>
      <use x="473.144531" xlink:href="#DejaVuSans-72"/>
      <use x="514.257812" xlink:href="#DejaVuSans-61"/>
      <use x="575.537109" xlink:href="#DejaVuSans-74"/>
      <use x="614.746094" xlink:href="#DejaVuSans-69"/>
      <use x="642.529297" xlink:href="#DejaVuSans-6f"/>
      <use x="703.710938" xlink:href="#DejaVuSans-6e"/>
      <use x="767.089844" xlink:href="#DejaVuSans-73"/>
      <use x="819.189453" xlink:href="#DejaVuSans-29"/>
     </g>
    </g>
   </g>
   <g id="matplotlib.axis_2">
    <g id="ytick_1">
     <g id="line2d_8">
      <defs>
       <path d="M 0 0 
L -3.5 0 
" id="mfb01b3bf75" style="stroke:#000000;stroke-width:0.8;"/>
      </defs>
      <g>
       <use style="stroke:#000000;stroke-width:0.8;" x="78.23" xlink:href="#mfb01b3bf75" y="481.309091"/>
      </g>
     </g>
     <g id="text_9">
      <!-- 0 -->
      <g transform="translate(58.505 488.907528)scale(0.2 -0.2)">
       <use xlink:href="#DejaVuSans-30"/>
      </g>
     </g>
    </g>
    <g id="ytick_2">
     <g id="line2d_9">
      <g>
       <use style="stroke:#000000;stroke-width:0.8;" x="78.23" xlink:href="#mfb01b3bf75" y="398.787366"/>
      </g>
     </g>
     <g id="text_10">
      <!-- 2 -->
      <g transform="translate(58.505 406.385804)scale(0.2 -0.2)">
       <use xlink:href="#DejaVuSans-32"/>
      </g>
     </g>
    </g>
    <g id="ytick_3">
     <g id="line2d_10">
      <g>
       <use style="stroke:#000000;stroke-width:0.8;" x="78.23" xlink:href="#mfb01b3bf75" y="316.265642"/>
      </g>
     </g>
     <g id="text_11">
      <!-- 4 -->
      <g transform="translate(58.505 323.86408)scale(0.2 -0.2)">
       <use xlink:href="#DejaVuSans-34"/>
      </g>
     </g>
    </g>
    <g id="ytick_4">
     <g id="line2d_11">
      <g>
       <use style="stroke:#000000;stroke-width:0.8;" x="78.23" xlink:href="#mfb01b3bf75" y="233.743918"/>
      </g>
     </g>
     <g id="text_12">
      <!-- 6 -->
      <g transform="translate(58.505 241.342355)scale(0.2 -0.2)">
       <use xlink:href="#DejaVuSans-36"/>
      </g>
     </g>
    </g>
    <g id="ytick_5">
     <g id="line2d_12">
      <g>
       <use style="stroke:#000000;stroke-width:0.8;" x="78.23" xlink:href="#mfb01b3bf75" y="151.222193"/>
      </g>
     </g>
     <g id="text_13">
      <!-- 8 -->
      <g transform="translate(58.505 158.820631)scale(0.2 -0.2)">
       <use xlink:href="#DejaVuSans-38"/>
      </g>
     </g>
    </g>
    <g id="ytick_6">
     <g id="line2d_13">
      <g>
       <use style="stroke:#000000;stroke-width:0.8;" x="78.23" xlink:href="#mfb01b3bf75" y="68.700469"/>
      </g>
     </g>
     <g id="text_14">
      <!-- 10 -->
      <g transform="translate(45.78 76.298906)scale(0.2 -0.2)">
       <use xlink:href="#DejaVuSans-31"/>
       <use x="63.623047" xlink:href="#DejaVuSans-30"/>
      </g>
     </g>
    </g>
    <g id="text_15">
     <!-- log (fitness increments) -->
     <defs>
      <path d="M 37.109375 75.984375 
L 37.109375 68.5 
L 28.515625 68.5 
Q 23.6875 68.5 21.796875 66.546875 
Q 19.921875 64.59375 19.921875 59.515625 
L 19.921875 54.6875 
L 34.71875 54.6875 
L 34.71875 47.703125 
L 19.921875 47.703125 
L 19.921875 0 
L 10.890625 0 
L 10.890625 47.703125 
L 2.296875 47.703125 
L 2.296875 54.6875 
L 10.890625 54.6875 
L 10.890625 58.5 
Q 10.890625 67.625 15.140625 71.796875 
Q 19.390625 75.984375 28.609375 75.984375 
z
" id="DejaVuSans-66"/>
      <path d="M 48.78125 52.59375 
L 48.78125 44.1875 
Q 44.96875 46.296875 41.140625 47.34375 
Q 37.3125 48.390625 33.40625 48.390625 
Q 24.65625 48.390625 19.8125 42.84375 
Q 14.984375 37.3125 14.984375 27.296875 
Q 14.984375 17.28125 19.8125 11.734375 
Q 24.65625 6.203125 33.40625 6.203125 
Q 37.3125 6.203125 41.140625 7.25 
Q 44.96875 8.296875 48.78125 10.40625 
L 48.78125 2.09375 
Q 45.015625 0.34375 40.984375 -0.53125 
Q 36.96875 -1.421875 32.421875 -1.421875 
Q 20.0625 -1.421875 12.78125 6.34375 
Q 5.515625 14.109375 5.515625 27.296875 
Q 5.515625 40.671875 12.859375 48.328125 
Q 20.21875 56 33.015625 56 
Q 37.15625 56 41.109375 55.140625 
Q 45.0625 54.296875 48.78125 52.59375 
z
" id="DejaVuSans-63"/>
      <path d="M 52 44.1875 
Q 55.375 50.25 60.0625 53.125 
Q 64.75 56 71.09375 56 
Q 79.640625 56 84.28125 50.015625 
Q 88.921875 44.046875 88.921875 33.015625 
L 88.921875 0 
L 79.890625 0 
L 79.890625 32.71875 
Q 79.890625 40.578125 77.09375 44.375 
Q 74.3125 48.1875 68.609375 48.1875 
Q 61.625 48.1875 57.5625 43.546875 
Q 53.515625 38.921875 53.515625 30.90625 
L 53.515625 0 
L 44.484375 0 
L 44.484375 32.71875 
Q 44.484375 40.625 41.703125 44.40625 
Q 38.921875 48.1875 33.109375 48.1875 
Q 26.21875 48.1875 22.15625 43.53125 
Q 18.109375 38.875 18.109375 30.90625 
L 18.109375 0 
L 9.078125 0 
L 9.078125 54.6875 
L 18.109375 54.6875 
L 18.109375 46.1875 
Q 21.1875 51.21875 25.484375 53.609375 
Q 29.78125 56 35.6875 56 
Q 41.65625 56 45.828125 52.96875 
Q 50 49.953125 52 44.1875 
z
" id="DejaVuSans-6d"/>
     </defs>
     <g transform="translate(37.620625 382.36875)rotate(-90)scale(0.2 -0.2)">
      <use xlink:href="#DejaVuSans-6c"/>
      <use x="27.783203" xlink:href="#DejaVuSans-6f"/>
      <use x="88.964844" xlink:href="#DejaVuSans-67"/>
      <use x="152.441406" xlink:href="#DejaVuSans-20"/>
      <use x="184.228516" xlink:href="#DejaVuSans-28"/>
      <use x="223.242188" xlink:href="#DejaVuSans-66"/>
      <use x="258.447266" xlink:href="#DejaVuSans-69"/>
      <use x="286.230469" xlink:href="#DejaVuSans-74"/>
      <use x="325.439453" xlink:href="#DejaVuSans-6e"/>
      <use x="388.818359" xlink:href="#DejaVuSans-65"/>
      <use x="450.341797" xlink:href="#DejaVuSans-73"/>
      <use x="502.441406" xlink:href="#DejaVuSans-73"/>
      <use x="554.541016" xlink:href="#DejaVuSans-20"/>
      <use x="586.328125" xlink:href="#DejaVuSans-69"/>
      <use x="614.111328" xlink:href="#DejaVuSans-6e"/>
      <use x="677.490234" xlink:href="#DejaVuSans-63"/>
      <use x="732.470703" xlink:href="#DejaVuSans-72"/>
      <use x="773.552734" xlink:href="#DejaVuSans-65"/>
      <use x="835.076172" xlink:href="#DejaVuSans-6d"/>
      <use x="932.488281" xlink:href="#DejaVuSans-65"/>
      <use x="994.011719" xlink:href="#DejaVuSans-6e"/>
      <use x="1057.390625" xlink:href="#DejaVuSans-74"/>
      <use x="1096.599609" xlink:href="#DejaVuSans-73"/>
      <use x="1148.699219" xlink:href="#DejaVuSans-29"/>
     </g>
    </g>
   </g>
   <g id="line2d_14">
    <path clip-path="url(#p986ac11855)" d="M 99.759545 45.890909 
M 121.388709 57.718909 
M 137.610582 71.207449 
M 148.425164 75.416049 
L 153.832455 79.536647 
L 159.239746 82.35135 
L 164.647037 85.857676 
L 170.054328 88.805293 
L 175.461619 92.201035 
L 180.86891 68.604046 
L 186.2762 73.952192 
L 191.683491 79.298621 
L 197.090782 69.085271 
L 202.498073 76.735273 
L 207.905364 82.707546 
L 213.312655 78.402652 
L 218.719946 78.77401 
L 224.127237 81.822756 
L 229.534528 92.11504 
L 234.941819 91.743363 
L 240.34911 99.902958 
L 245.756401 109.010414 
L 251.163692 114.773878 
L 256.570983 126.182995 
L 261.978274 135.913973 
L 267.385564 147.340654 
L 272.792855 158.813621 
L 278.200146 170.418287 
L 283.607437 187.214303 
L 289.014728 201.563667 
L 294.422019 215.880436 
L 299.82931 235.459351 
L 305.236601 256.750244 
L 310.643892 275.119804 
L 316.051183 311.019968 
L 321.458474 323.336046 
L 326.865765 348.495499 
L 332.273056 364.408266 
L 337.680347 390.64971 
L 343.087638 452.709241 
L 348.494929 481.309091 
L 353.902219 481.309091 
L 359.30951 452.709241 
" style="fill:none;stroke:#3200cd;stroke-linecap:square;stroke-width:1.5;"/>
    <defs>
     <path d="M 0 4.5 
C 1.193414 4.5 2.338109 4.025852 3.181981 3.181981 
C 4.025852 2.338109 4.5 1.193414 4.5 0 
C 4.5 -1.193414 4.025852 -2.338109 3.181981 -3.181981 
C 2.338109 -4.025852 1.193414 -4.5 0 -4.5 
C -1.193414 -4.5 -2.338109 -4.025852 -3.181981 -3.181981 
C -4.025852 -2.338109 -4.5 -1.193414 -4.5 0 
C -4.5 1.193414 -4.025852 2.338109 -3.181981 3.181981 
C -2.338109 4.025852 -1.193414 4.5 0 4.5 
z
" id="ma43915a3ee" style="stroke:#3200cd;"/>
    </defs>
    <g clip-path="url(#p986ac11855)">
     <use style="fill:#3200cd;stroke:#3200cd;" x="99.759545" xlink:href="#ma43915a3ee" y="45.890909"/>
     <use style="fill:#3200cd;stroke:#3200cd;" x="121.388709" xlink:href="#ma43915a3ee" y="57.718909"/>
     <use style="fill:#3200cd;stroke:#3200cd;" x="137.610582" xlink:href="#ma43915a3ee" y="71.207449"/>
     <use style="fill:#3200cd;stroke:#3200cd;" x="148.425164" xlink:href="#ma43915a3ee" y="75.416049"/>
     <use style="fill:#3200cd;stroke:#3200cd;" x="153.832455" xlink:href="#ma43915a3ee" y="79.536647"/>
     <use style="fill:#3200cd;stroke:#3200cd;" x="159.239746" xlink:href="#ma43915a3ee" y="82.35135"/>
     <use style="fill:#3200cd;stroke:#3200cd;" x="164.647037" xlink:href="#ma43915a3ee" y="85.857676"/>
     <use style="fill:#3200cd;stroke:#3200cd;" x="170.054328" xlink:href="#ma43915a3ee" y="88.805293"/>
     <use style="fill:#3200cd;stroke:#3200cd;" x="175.461619" xlink:href="#ma43915a3ee" y="92.201035"/>
     <use style="fill:#3200cd;stroke:#3200cd;" x="180.86891" xlink:href="#ma43915a3ee" y="68.604046"/>
     <use style="fill:#3200cd;stroke:#3200cd;" x="186.2762" xlink:href="#ma43915a3ee" y="73.952192"/>
     <use style="fill:#3200cd;stroke:#3200cd;" x="191.683491" xlink:href="#ma43915a3ee" y="79.298621"/>
     <use style="fill:#3200cd;stroke:#3200cd;" x="197.090782" xlink:href="#ma43915a3ee" y="69.085271"/>
     <use style="fill:#3200cd;stroke:#3200cd;" x="202.498073" xlink:href="#ma43915a3ee" y="76.735273"/>
     <use style="fill:#3200cd;stroke:#3200cd;" x="207.905364" xlink:href="#ma43915a3ee" y="82.707546"/>
     <use style="fill:#3200cd;stroke:#3200cd;" x="213.312655" xlink:href="#ma43915a3ee" y="78.402652"/>
     <use style="fill:#3200cd;stroke:#3200cd;" x="218.719946" xlink:href="#ma43915a3ee" y="78.77401"/>
     <use style="fill:#3200cd;stroke:#3200cd;" x="224.127237" xlink:href="#ma43915a3ee" y="81.822756"/>
     <use style="fill:#3200cd;stroke:#3200cd;" x="229.534528" xlink:href="#ma43915a3ee" y="92.11504"/>
     <use style="fill:#3200cd;stroke:#3200cd;" x="234.941819" xlink:href="#ma43915a3ee" y="91.743363"/>
     <use style="fill:#3200cd;stroke:#3200cd;" x="240.34911" xlink:href="#ma43915a3ee" y="99.902958"/>
     <use style="fill:#3200cd;stroke:#3200cd;" x="245.756401" xlink:href="#ma43915a3ee" y="109.010414"/>
     <use style="fill:#3200cd;stroke:#3200cd;" x="251.163692" xlink:href="#ma43915a3ee" y="114.773878"/>
     <use style="fill:#3200cd;stroke:#3200cd;" x="256.570983" xlink:href="#ma43915a3ee" y="126.182995"/>
     <use style="fill:#3200cd;stroke:#3200cd;" x="261.978274" xlink:href="#ma43915a3ee" y="135.913973"/>
     <use style="fill:#3200cd;stroke:#3200cd;" x="267.385564" xlink:href="#ma43915a3ee" y="147.340654"/>
     <use style="fill:#3200cd;stroke:#3200cd;" x="272.792855" xlink:href="#ma43915a3ee" y="158.813621"/>
     <use style="fill:#3200cd;stroke:#3200cd;" x="278.200146" xlink:href="#ma43915a3ee" y="170.418287"/>
     <use style="fill:#3200cd;stroke:#3200cd;" x="283.607437" xlink:href="#ma43915a3ee" y="187.214303"/>
     <use style="fill:#3200cd;stroke:#3200cd;" x="289.014728" xlink:href="#ma43915a3ee" y="201.563667"/>
     <use style="fill:#3200cd;stroke:#3200cd;" x="294.422019" xlink:href="#ma43915a3ee" y="215.880436"/>
     <use style="fill:#3200cd;stroke:#3200cd;" x="299.82931" xlink:href="#ma43915a3ee" y="235.459351"/>
     <use style="fill:#3200cd;stroke:#3200cd;" x="305.236601" xlink:href="#ma43915a3ee" y="256.750244"/>
     <use style="fill:#3200cd;stroke:#3200cd;" x="310.643892" xlink:href="#ma43915a3ee" y="275.119804"/>
     <use style="fill:#3200cd;stroke:#3200cd;" x="316.051183" xlink:href="#ma43915a3ee" y="311.019968"/>
     <use style="fill:#3200cd;stroke:#3200cd;" x="321.458474" xlink:href="#ma43915a3ee" y="323.336046"/>
     <use style="fill:#3200cd;stroke:#3200cd;" x="326.865765" xlink:href="#ma43915a3ee" y="348.495499"/>
     <use style="fill:#3200cd;stroke:#3200cd;" x="332.273056" xlink:href="#ma43915a3ee" y="364.408266"/>
     <use style="fill:#3200cd;stroke:#3200cd;" x="337.680347" xlink:href="#ma43915a3ee" y="390.64971"/>
     <use style="fill:#3200cd;stroke:#3200cd;" x="343.087638" xlink:href="#ma43915a3ee" y="452.709241"/>
     <use style="fill:#3200cd;stroke:#3200cd;" x="348.494929" xlink:href="#ma43915a3ee" y="481.309091"/>
     <use style="fill:#3200cd;stroke:#3200cd;" x="353.902219" xlink:href="#ma43915a3ee" y="481.309091"/>
     <use style="fill:#3200cd;stroke:#3200cd;" x="359.30951" xlink:href="#ma43915a3ee" y="452.709241"/>
    </g>
   </g>
   <g id="line2d_15">
    <path clip-path="url(#p986ac11855)" d="M 99.759545 119.05698 
M 121.955587 134.01927 
M 136.752948 173.246104 
L 144.151628 179.312487 
L 151.550309 187.280586 
L 158.948989 189.424932 
L 166.34767 166.170326 
L 173.74635 174.492172 
L 181.14503 179.094319 
L 188.543711 167.054664 
L 195.942391 175.253328 
L 203.341072 156.610791 
L 210.739752 163.83181 
L 218.138433 154.23574 
L 225.537113 155.70598 
L 232.935794 153.791434 
L 240.334474 152.202059 
L 247.733154 147.618761 
L 255.131835 148.659168 
L 262.530515 149.673129 
L 269.929196 149.064395 
L 277.327876 151.69492 
L 284.726557 154.414811 
L 292.125237 159.013755 
L 299.523918 165.382505 
L 306.922598 174.056569 
L 314.321279 178.607619 
L 321.719959 190.66622 
L 329.118639 201.845955 
L 336.51732 212.998367 
L 343.916 227.354339 
L 351.314681 240.801769 
L 358.713361 261.878875 
L 366.112042 282.420117 
L 373.510722 297.041871 
L 380.909403 335.808415 
L 388.308083 357.702594 
L 395.706763 386.302445 
L 403.105444 382.369864 
L 410.504124 414.902295 
L 417.902805 481.309091 
L 425.301485 435.979401 
L 432.700166 435.979401 
M 454.896207 481.309091 
" style="fill:none;stroke:#660099;stroke-linecap:square;stroke-width:1.5;"/>
    <defs>
     <path d="M -4.5 4.5 
L 4.5 4.5 
L 4.5 -4.5 
L -4.5 -4.5 
z
" id="m5da9976e6b" style="stroke:#660099;stroke-linejoin:miter;"/>
    </defs>
    <g clip-path="url(#p986ac11855)">
     <use style="fill:#660099;stroke:#660099;stroke-linejoin:miter;" x="99.759545" xlink:href="#m5da9976e6b" y="119.05698"/>
     <use style="fill:#660099;stroke:#660099;stroke-linejoin:miter;" x="121.955587" xlink:href="#m5da9976e6b" y="134.01927"/>
     <use style="fill:#660099;stroke:#660099;stroke-linejoin:miter;" x="136.752948" xlink:href="#m5da9976e6b" y="173.246104"/>
     <use style="fill:#660099;stroke:#660099;stroke-linejoin:miter;" x="144.151628" xlink:href="#m5da9976e6b" y="179.312487"/>
     <use style="fill:#660099;stroke:#660099;stroke-linejoin:miter;" x="151.550309" xlink:href="#m5da9976e6b" y="187.280586"/>
     <use style="fill:#660099;stroke:#660099;stroke-linejoin:miter;" x="158.948989" xlink:href="#m5da9976e6b" y="189.424932"/>
     <use style="fill:#660099;stroke:#660099;stroke-linejoin:miter;" x="166.34767" xlink:href="#m5da9976e6b" y="166.170326"/>
     <use style="fill:#660099;stroke:#660099;stroke-linejoin:miter;" x="173.74635" xlink:href="#m5da9976e6b" y="174.492172"/>
     <use style="fill:#660099;stroke:#660099;stroke-linejoin:miter;" x="181.14503" xlink:href="#m5da9976e6b" y="179.094319"/>
     <use style="fill:#660099;stroke:#660099;stroke-linejoin:miter;" x="188.543711" xlink:href="#m5da9976e6b" y="167.054664"/>
     <use style="fill:#660099;stroke:#660099;stroke-linejoin:miter;" x="195.942391" xlink:href="#m5da9976e6b" y="175.253328"/>
     <use style="fill:#660099;stroke:#660099;stroke-linejoin:miter;" x="203.341072" xlink:href="#m5da9976e6b" y="156.610791"/>
     <use style="fill:#660099;stroke:#660099;stroke-linejoin:miter;" x="210.739752" xlink:href="#m5da9976e6b" y="163.83181"/>
     <use style="fill:#660099;stroke:#660099;stroke-linejoin:miter;" x="218.138433" xlink:href="#m5da9976e6b" y="154.23574"/>
     <use style="fill:#660099;stroke:#660099;stroke-linejoin:miter;" x="225.537113" xlink:href="#m5da9976e6b" y="155.70598"/>
     <use style="fill:#660099;stroke:#660099;stroke-linejoin:miter;" x="232.935794" xlink:href="#m5da9976e6b" y="153.791434"/>
     <use style="fill:#660099;stroke:#660099;stroke-linejoin:miter;" x="240.334474" xlink:href="#m5da9976e6b" y="152.202059"/>
     <use style="fill:#660099;stroke:#660099;stroke-linejoin:miter;" x="247.733154" xlink:href="#m5da9976e6b" y="147.618761"/>
     <use style="fill:#660099;stroke:#660099;stroke-linejoin:miter;" x="255.131835" xlink:href="#m5da9976e6b" y="148.659168"/>
     <use style="fill:#660099;stroke:#660099;stroke-linejoin:miter;" x="262.530515" xlink:href="#m5da9976e6b" y="149.673129"/>
     <use style="fill:#660099;stroke:#660099;stroke-linejoin:miter;" x="269.929196" xlink:href="#m5da9976e6b" y="149.064395"/>
     <use style="fill:#660099;stroke:#660099;stroke-linejoin:miter;" x="277.327876" xlink:href="#m5da9976e6b" y="151.69492"/>
     <use style="fill:#660099;stroke:#660099;stroke-linejoin:miter;" x="284.726557" xlink:href="#m5da9976e6b" y="154.414811"/>
     <use style="fill:#660099;stroke:#660099;stroke-linejoin:miter;" x="292.125237" xlink:href="#m5da9976e6b" y="159.013755"/>
     <use style="fill:#660099;stroke:#660099;stroke-linejoin:miter;" x="299.523918" xlink:href="#m5da9976e6b" y="165.382505"/>
     <use style="fill:#660099;stroke:#660099;stroke-linejoin:miter;" x="306.922598" xlink:href="#m5da9976e6b" y="174.056569"/>
     <use style="fill:#660099;stroke:#660099;stroke-linejoin:miter;" x="314.321279" xlink:href="#m5da9976e6b" y="178.607619"/>
     <use style="fill:#660099;stroke:#660099;stroke-linejoin:miter;" x="321.719959" xlink:href="#m5da9976e6b" y="190.66622"/>
     <use style="fill:#660099;stroke:#660099;stroke-linejoin:miter;" x="329.118639" xlink:href="#m5da9976e6b" y="201.845955"/>
     <use style="fill:#660099;stroke:#660099;stroke-linejoin:miter;" x="336.51732" xlink:href="#m5da9976e6b" y="212.998367"/>
     <use style="fill:#660099;stroke:#660099;stroke-linejoin:miter;" x="343.916" xlink:href="#m5da9976e6b" y="227.354339"/>
     <use style="fill:#660099;stroke:#660099;stroke-linejoin:miter;" x="351.314681" xlink:href="#m5da9976e6b" y="240.801769"/>
     <use style="fill:#660099;stroke:#660099;stroke-linejoin:miter;" x="358.713361" xlink:href="#m5da9976e6b" y="261.878875"/>
     <use style="fill:#660099;stroke:#660099;stroke-linejoin:miter;" x="366.112042" xlink:href="#m5da9976e6b" y="282.420117"/>
     <use style="fill:#660099;stroke:#660099;stroke-linejoin:miter;" x="373.510722" xlink:href="#m5da9976e6b" y="297.041871"/>
     <use style="fill:#660099;stroke:#660099;stroke-linejoin:miter;" x="380.909403" xlink:href="#m5da9976e6b" y="335.808415"/>
     <use style="fill:#660099;stroke:#660099;stroke-linejoin:miter;" x="388.308083" xlink:href="#m5da9976e6b" y="357.702594"/>
     <use style="fill:#660099;stroke:#660099;stroke-linejoin:miter;" x="395.706763" xlink:href="#m5da9976e6b" y="386.302445"/>
     <use style="fill:#660099;stroke:#660099;stroke-linejoin:miter;" x="403.105444" xlink:href="#m5da9976e6b" y="382.369864"/>
     <use style="fill:#660099;stroke:#660099;stroke-linejoin:miter;" x="410.504124" xlink:href="#m5da9976e6b" y="414.902295"/>
     <use style="fill:#660099;stroke:#660099;stroke-linejoin:miter;" x="417.902805" xlink:href="#m5da9976e6b" y="481.309091"/>
     <use style="fill:#660099;stroke:#660099;stroke-linejoin:miter;" x="425.301485" xlink:href="#m5da9976e6b" y="435.979401"/>
     <use style="fill:#660099;stroke:#660099;stroke-linejoin:miter;" x="432.700166" xlink:href="#m5da9976e6b" y="435.979401"/>
     <use style="fill:#660099;stroke:#660099;stroke-linejoin:miter;" x="454.896207" xlink:href="#m5da9976e6b" y="481.309091"/>
    </g>
   </g>
   <g id="line2d_16">
    <path clip-path="url(#p986ac11855)" d="M 99.759545 158.796987 
M 122.222019 172.266434 
M 137.197002 221.106735 
L 144.684493 225.303688 
L 152.171984 235.459351 
L 159.659476 237.874239 
L 167.146967 218.129727 
L 174.634458 227.092365 
L 182.121949 233.787796 
L 189.609441 224.071929 
L 197.096932 218.90759 
L 204.584423 219.26607 
L 212.071915 226.659403 
L 219.559406 219.26607 
L 227.046897 214.510384 
L 234.534388 213.060274 
L 242.02188 217.297547 
L 249.509371 215.814154 
L 256.996862 212.384355 
L 264.484354 210.712195 
L 271.971845 209.105171 
L 279.459336 210.188794 
L 286.946827 207.073288 
L 294.434319 207.885003 
L 301.92181 207.39606 
L 309.409301 211.005868 
L 316.896792 209.387587 
L 324.384284 215.091988 
L 331.871775 212.020286 
L 339.359266 220.956422 
L 346.846758 223.829929 
L 354.334249 227.617988 
L 361.82174 235.673138 
L 369.309231 239.723775 
L 376.796723 252.189191 
L 384.284214 260.097554 
L 391.771705 281.110139 
L 399.259197 298.00147 
L 406.746688 313.771711 
L 414.234179 329.102744 
L 421.72167 355.68947 
L 429.209162 395.50954 
L 436.696653 395.50954 
L 444.184144 407.37955 
M 459.159127 452.709241 
" style="fill:none;stroke:#980067;stroke-linecap:square;stroke-width:1.5;"/>
    <defs>
     <path d="M -0 4.5 
L 4.5 -4.5 
L -4.5 -4.5 
z
" id="mdc8c33b4ca" style="stroke:#980067;stroke-linejoin:miter;"/>
    </defs>
    <g clip-path="url(#p986ac11855)">
     <use style="fill:#980067;stroke:#980067;stroke-linejoin:miter;" x="99.759545" xlink:href="#mdc8c33b4ca" y="158.796987"/>
     <use style="fill:#980067;stroke:#980067;stroke-linejoin:miter;" x="122.222019" xlink:href="#mdc8c33b4ca" y="172.266434"/>
     <use style="fill:#980067;stroke:#980067;stroke-linejoin:miter;" x="137.197002" xlink:href="#mdc8c33b4ca" y="221.106735"/>
     <use style="fill:#980067;stroke:#980067;stroke-linejoin:miter;" x="144.684493" xlink:href="#mdc8c33b4ca" y="225.303688"/>
     <use style="fill:#980067;stroke:#980067;stroke-linejoin:miter;" x="152.171984" xlink:href="#mdc8c33b4ca" y="235.459351"/>
     <use style="fill:#980067;stroke:#980067;stroke-linejoin:miter;" x="159.659476" xlink:href="#mdc8c33b4ca" y="237.874239"/>
     <use style="fill:#980067;stroke:#980067;stroke-linejoin:miter;" x="167.146967" xlink:href="#mdc8c33b4ca" y="218.129727"/>
     <use style="fill:#980067;stroke:#980067;stroke-linejoin:miter;" x="174.634458" xlink:href="#mdc8c33b4ca" y="227.092365"/>
     <use style="fill:#980067;stroke:#980067;stroke-linejoin:miter;" x="182.121949" xlink:href="#mdc8c33b4ca" y="233.787796"/>
     <use style="fill:#980067;stroke:#980067;stroke-linejoin:miter;" x="189.609441" xlink:href="#mdc8c33b4ca" y="224.071929"/>
     <use style="fill:#980067;stroke:#980067;stroke-linejoin:miter;" x="197.096932" xlink:href="#mdc8c33b4ca" y="218.90759"/>
     <use style="fill:#980067;stroke:#980067;stroke-linejoin:miter;" x="204.584423" xlink:href="#mdc8c33b4ca" y="219.26607"/>
     <use style="fill:#980067;stroke:#980067;stroke-linejoin:miter;" x="212.071915" xlink:href="#mdc8c33b4ca" y="226.659403"/>
     <use style="fill:#980067;stroke:#980067;stroke-linejoin:miter;" x="219.559406" xlink:href="#mdc8c33b4ca" y="219.26607"/>
     <use style="fill:#980067;stroke:#980067;stroke-linejoin:miter;" x="227.046897" xlink:href="#mdc8c33b4ca" y="214.510384"/>
     <use style="fill:#980067;stroke:#980067;stroke-linejoin:miter;" x="234.534388" xlink:href="#mdc8c33b4ca" y="213.060274"/>
     <use style="fill:#980067;stroke:#980067;stroke-linejoin:miter;" x="242.02188" xlink:href="#mdc8c33b4ca" y="217.297547"/>
     <use style="fill:#980067;stroke:#980067;stroke-linejoin:miter;" x="249.509371" xlink:href="#mdc8c33b4ca" y="215.814154"/>
     <use style="fill:#980067;stroke:#980067;stroke-linejoin:miter;" x="256.996862" xlink:href="#mdc8c33b4ca" y="212.384355"/>
     <use style="fill:#980067;stroke:#980067;stroke-linejoin:miter;" x="264.484354" xlink:href="#mdc8c33b4ca" y="210.712195"/>
     <use style="fill:#980067;stroke:#980067;stroke-linejoin:miter;" x="271.971845" xlink:href="#mdc8c33b4ca" y="209.105171"/>
     <use style="fill:#980067;stroke:#980067;stroke-linejoin:miter;" x="279.459336" xlink:href="#mdc8c33b4ca" y="210.188794"/>
     <use style="fill:#980067;stroke:#980067;stroke-linejoin:miter;" x="286.946827" xlink:href="#mdc8c33b4ca" y="207.073288"/>
     <use style="fill:#980067;stroke:#980067;stroke-linejoin:miter;" x="294.434319" xlink:href="#mdc8c33b4ca" y="207.885003"/>
     <use style="fill:#980067;stroke:#980067;stroke-linejoin:miter;" x="301.92181" xlink:href="#mdc8c33b4ca" y="207.39606"/>
     <use style="fill:#980067;stroke:#980067;stroke-linejoin:miter;" x="309.409301" xlink:href="#mdc8c33b4ca" y="211.005868"/>
     <use style="fill:#980067;stroke:#980067;stroke-linejoin:miter;" x="316.896792" xlink:href="#mdc8c33b4ca" y="209.387587"/>
     <use style="fill:#980067;stroke:#980067;stroke-linejoin:miter;" x="324.384284" xlink:href="#mdc8c33b4ca" y="215.091988"/>
     <use style="fill:#980067;stroke:#980067;stroke-linejoin:miter;" x="331.871775" xlink:href="#mdc8c33b4ca" y="212.020286"/>
     <use style="fill:#980067;stroke:#980067;stroke-linejoin:miter;" x="339.359266" xlink:href="#mdc8c33b4ca" y="220.956422"/>
     <use style="fill:#980067;stroke:#980067;stroke-linejoin:miter;" x="346.846758" xlink:href="#mdc8c33b4ca" y="223.829929"/>
     <use style="fill:#980067;stroke:#980067;stroke-linejoin:miter;" x="354.334249" xlink:href="#mdc8c33b4ca" y="227.617988"/>
     <use style="fill:#980067;stroke:#980067;stroke-linejoin:miter;" x="361.82174" xlink:href="#mdc8c33b4ca" y="235.673138"/>
     <use style="fill:#980067;stroke:#980067;stroke-linejoin:miter;" x="369.309231" xlink:href="#mdc8c33b4ca" y="239.723775"/>
     <use style="fill:#980067;stroke:#980067;stroke-linejoin:miter;" x="376.796723" xlink:href="#mdc8c33b4ca" y="252.189191"/>
     <use style="fill:#980067;stroke:#980067;stroke-linejoin:miter;" x="384.284214" xlink:href="#mdc8c33b4ca" y="260.097554"/>
     <use style="fill:#980067;stroke:#980067;stroke-linejoin:miter;" x="391.771705" xlink:href="#mdc8c33b4ca" y="281.110139"/>
     <use style="fill:#980067;stroke:#980067;stroke-linejoin:miter;" x="399.259197" xlink:href="#mdc8c33b4ca" y="298.00147"/>
     <use style="fill:#980067;stroke:#980067;stroke-linejoin:miter;" x="406.746688" xlink:href="#mdc8c33b4ca" y="313.771711"/>
     <use style="fill:#980067;stroke:#980067;stroke-linejoin:miter;" x="414.234179" xlink:href="#mdc8c33b4ca" y="329.102744"/>
     <use style="fill:#980067;stroke:#980067;stroke-linejoin:miter;" x="421.72167" xlink:href="#mdc8c33b4ca" y="355.68947"/>
     <use style="fill:#980067;stroke:#980067;stroke-linejoin:miter;" x="429.209162" xlink:href="#mdc8c33b4ca" y="395.50954"/>
     <use style="fill:#980067;stroke:#980067;stroke-linejoin:miter;" x="436.696653" xlink:href="#mdc8c33b4ca" y="395.50954"/>
     <use style="fill:#980067;stroke:#980067;stroke-linejoin:miter;" x="444.184144" xlink:href="#mdc8c33b4ca" y="407.37955"/>
     <use style="fill:#980067;stroke:#980067;stroke-linejoin:miter;" x="459.159127" xlink:href="#mdc8c33b4ca" y="452.709241"/>
    </g>
   </g>
   <g id="line2d_17">
    <path clip-path="url(#p986ac11855)" d="M 99.759545 203.581481 
M 123.718936 215.353134 
L 131.7054 258.576244 
M 147.678327 274.565958 
L 155.664791 249.857448 
L 163.651255 299.99033 
L 171.637718 276.827394 
L 179.624182 261.077668 
L 187.610646 275.681185 
L 195.597109 272.684029 
L 203.583573 274.291799 
L 211.570036 271.645966 
L 219.5565 264.595761 
L 227.542964 271.903043 
L 235.529427 274.291799 
L 243.515891 268.919031 
L 251.502355 275.681185 
L 259.488818 267.504234 
L 267.475282 269.889919 
L 275.461746 265.912709 
L 283.448209 268.679837 
L 291.434673 262.490158 
L 299.421137 267.970463 
L 307.4076 266.361201 
L 315.394064 267.970463 
L 323.380527 268.205569 
L 331.366991 262.081631 
L 339.353455 268.205569 
L 347.339918 262.90277 
L 355.326382 267.73669 
L 363.312846 264.812354 
L 371.299309 269.889919 
L 379.285773 266.587288 
L 387.272237 265.690277 
L 395.2587 272.161733 
L 403.245164 280.154246 
L 411.231628 283.091041 
L 419.218091 299.484055 
L 427.204555 311.019968 
L 435.191018 323.336046 
L 443.177482 329.102744 
L 451.163946 364.408266 
L 459.150409 382.369864 
L 467.136873 414.902295 
L 475.123337 435.979401 
L 483.1098 452.709241 
" style="fill:none;stroke:#cc0033;stroke-linecap:square;stroke-width:1.5;"/>
    <defs>
     <path d="M 0 -4.5 
L -4.5 4.5 
L 4.5 4.5 
z
" id="md6434392aa" style="stroke:#cc0033;stroke-linejoin:miter;"/>
    </defs>
    <g clip-path="url(#p986ac11855)">
     <use style="fill:#cc0033;stroke:#cc0033;stroke-linejoin:miter;" x="99.759545" xlink:href="#md6434392aa" y="203.581481"/>
     <use style="fill:#cc0033;stroke:#cc0033;stroke-linejoin:miter;" x="123.718936" xlink:href="#md6434392aa" y="215.353134"/>
     <use style="fill:#cc0033;stroke:#cc0033;stroke-linejoin:miter;" x="131.7054" xlink:href="#md6434392aa" y="258.576244"/>
     <use style="fill:#cc0033;stroke:#cc0033;stroke-linejoin:miter;" x="147.678327" xlink:href="#md6434392aa" y="274.565958"/>
     <use style="fill:#cc0033;stroke:#cc0033;stroke-linejoin:miter;" x="155.664791" xlink:href="#md6434392aa" y="249.857448"/>
     <use style="fill:#cc0033;stroke:#cc0033;stroke-linejoin:miter;" x="163.651255" xlink:href="#md6434392aa" y="299.99033"/>
     <use style="fill:#cc0033;stroke:#cc0033;stroke-linejoin:miter;" x="171.637718" xlink:href="#md6434392aa" y="276.827394"/>
     <use style="fill:#cc0033;stroke:#cc0033;stroke-linejoin:miter;" x="179.624182" xlink:href="#md6434392aa" y="261.077668"/>
     <use style="fill:#cc0033;stroke:#cc0033;stroke-linejoin:miter;" x="187.610646" xlink:href="#md6434392aa" y="275.681185"/>
     <use style="fill:#cc0033;stroke:#cc0033;stroke-linejoin:miter;" x="195.597109" xlink:href="#md6434392aa" y="272.684029"/>
     <use style="fill:#cc0033;stroke:#cc0033;stroke-linejoin:miter;" x="203.583573" xlink:href="#md6434392aa" y="274.291799"/>
     <use style="fill:#cc0033;stroke:#cc0033;stroke-linejoin:miter;" x="211.570036" xlink:href="#md6434392aa" y="271.645966"/>
     <use style="fill:#cc0033;stroke:#cc0033;stroke-linejoin:miter;" x="219.5565" xlink:href="#md6434392aa" y="264.595761"/>
     <use style="fill:#cc0033;stroke:#cc0033;stroke-linejoin:miter;" x="227.542964" xlink:href="#md6434392aa" y="271.903043"/>
     <use style="fill:#cc0033;stroke:#cc0033;stroke-linejoin:miter;" x="235.529427" xlink:href="#md6434392aa" y="274.291799"/>
     <use style="fill:#cc0033;stroke:#cc0033;stroke-linejoin:miter;" x="243.515891" xlink:href="#md6434392aa" y="268.919031"/>
     <use style="fill:#cc0033;stroke:#cc0033;stroke-linejoin:miter;" x="251.502355" xlink:href="#md6434392aa" y="275.681185"/>
     <use style="fill:#cc0033;stroke:#cc0033;stroke-linejoin:miter;" x="259.488818" xlink:href="#md6434392aa" y="267.504234"/>
     <use style="fill:#cc0033;stroke:#cc0033;stroke-linejoin:miter;" x="267.475282" xlink:href="#md6434392aa" y="269.889919"/>
     <use style="fill:#cc0033;stroke:#cc0033;stroke-linejoin:miter;" x="275.461746" xlink:href="#md6434392aa" y="265.912709"/>
     <use style="fill:#cc0033;stroke:#cc0033;stroke-linejoin:miter;" x="283.448209" xlink:href="#md6434392aa" y="268.679837"/>
     <use style="fill:#cc0033;stroke:#cc0033;stroke-linejoin:miter;" x="291.434673" xlink:href="#md6434392aa" y="262.490158"/>
     <use style="fill:#cc0033;stroke:#cc0033;stroke-linejoin:miter;" x="299.421137" xlink:href="#md6434392aa" y="267.970463"/>
     <use style="fill:#cc0033;stroke:#cc0033;stroke-linejoin:miter;" x="307.4076" xlink:href="#md6434392aa" y="266.361201"/>
     <use style="fill:#cc0033;stroke:#cc0033;stroke-linejoin:miter;" x="315.394064" xlink:href="#md6434392aa" y="267.970463"/>
     <use style="fill:#cc0033;stroke:#cc0033;stroke-linejoin:miter;" x="323.380527" xlink:href="#md6434392aa" y="268.205569"/>
     <use style="fill:#cc0033;stroke:#cc0033;stroke-linejoin:miter;" x="331.366991" xlink:href="#md6434392aa" y="262.081631"/>
     <use style="fill:#cc0033;stroke:#cc0033;stroke-linejoin:miter;" x="339.353455" xlink:href="#md6434392aa" y="268.205569"/>
     <use style="fill:#cc0033;stroke:#cc0033;stroke-linejoin:miter;" x="347.339918" xlink:href="#md6434392aa" y="262.90277"/>
     <use style="fill:#cc0033;stroke:#cc0033;stroke-linejoin:miter;" x="355.326382" xlink:href="#md6434392aa" y="267.73669"/>
     <use style="fill:#cc0033;stroke:#cc0033;stroke-linejoin:miter;" x="363.312846" xlink:href="#md6434392aa" y="264.812354"/>
     <use style="fill:#cc0033;stroke:#cc0033;stroke-linejoin:miter;" x="371.299309" xlink:href="#md6434392aa" y="269.889919"/>
     <use style="fill:#cc0033;stroke:#cc0033;stroke-linejoin:miter;" x="379.285773" xlink:href="#md6434392aa" y="266.587288"/>
     <use style="fill:#cc0033;stroke:#cc0033;stroke-linejoin:miter;" x="387.272237" xlink:href="#md6434392aa" y="265.690277"/>
     <use style="fill:#cc0033;stroke:#cc0033;stroke-linejoin:miter;" x="395.2587" xlink:href="#md6434392aa" y="272.161733"/>
     <use style="fill:#cc0033;stroke:#cc0033;stroke-linejoin:miter;" x="403.245164" xlink:href="#md6434392aa" y="280.154246"/>
     <use style="fill:#cc0033;stroke:#cc0033;stroke-linejoin:miter;" x="411.231628" xlink:href="#md6434392aa" y="283.091041"/>
     <use style="fill:#cc0033;stroke:#cc0033;stroke-linejoin:miter;" x="419.218091" xlink:href="#md6434392aa" y="299.484055"/>
     <use style="fill:#cc0033;stroke:#cc0033;stroke-linejoin:miter;" x="427.204555" xlink:href="#md6434392aa" y="311.019968"/>
     <use style="fill:#cc0033;stroke:#cc0033;stroke-linejoin:miter;" x="435.191018" xlink:href="#md6434392aa" y="323.336046"/>
     <use style="fill:#cc0033;stroke:#cc0033;stroke-linejoin:miter;" x="443.177482" xlink:href="#md6434392aa" y="329.102744"/>
     <use style="fill:#cc0033;stroke:#cc0033;stroke-linejoin:miter;" x="451.163946" xlink:href="#md6434392aa" y="364.408266"/>
     <use style="fill:#cc0033;stroke:#cc0033;stroke-linejoin:miter;" x="459.150409" xlink:href="#md6434392aa" y="382.369864"/>
     <use style="fill:#cc0033;stroke:#cc0033;stroke-linejoin:miter;" x="467.136873" xlink:href="#md6434392aa" y="414.902295"/>
     <use style="fill:#cc0033;stroke:#cc0033;stroke-linejoin:miter;" x="475.123337" xlink:href="#md6434392aa" y="435.979401"/>
     <use style="fill:#cc0033;stroke:#cc0033;stroke-linejoin:miter;" x="483.1098" xlink:href="#md6434392aa" y="452.709241"/>
    </g>
   </g>
   <g id="line2d_18">
    <path clip-path="url(#p986ac11855)" d="M 99.759545 251.712181 
M 117.700833 268.679837 
M 135.642121 325.170164 
L 144.612765 338.309839 
L 153.583409 335.808415 
L 162.554053 315.219609 
L 171.524697 321.579999 
L 180.495341 322.448681 
L 189.465985 312.372904 
L 198.436629 325.170164 
L 207.407273 337.040174 
L 216.377917 324.242914 
L 225.348561 318.277368 
L 234.319205 321.579999 
L 243.289848 329.102744 
L 252.260492 325.170164 
L 261.231136 332.319504 
L 270.20178 318.277368 
L 279.172424 325.170164 
L 288.143068 321.579999 
L 297.113712 323.336046 
L 306.084356 323.336046 
L 315.055 319.895649 
L 324.025644 319.078575 
L 332.996288 319.078575 
L 341.966932 321.579999 
L 350.937576 323.336046 
L 359.90822 327.08962 
L 368.878864 318.277368 
L 377.849508 315.963069 
L 386.820152 328.083906 
L 395.790795 323.336046 
L 404.761439 326.118731 
L 413.732083 314.48931 
L 422.702727 335.808415 
L 431.673371 332.319504 
L 440.644015 334.612364 
L 449.614659 338.309839 
L 458.585303 334.612364 
L 467.555947 345.32002 
L 476.526591 362.04986 
L 485.497235 382.369864 
L 494.467879 378.7797 
L 503.438523 414.902295 
L 512.409167 452.709241 
L 521.379811 435.979401 
L 530.350455 481.309091 
" style="fill:none;stroke:#fe0100;stroke-linecap:square;stroke-width:1.5;"/>
    <defs>
     <path d="M 0 -4.5 
L -3.897114 -2.25 
L -3.897114 2.25 
L -0 4.5 
L 3.897114 2.25 
L 3.897114 -2.25 
z
" id="mfd067c0505" style="stroke:#fe0100;stroke-linejoin:miter;"/>
    </defs>
    <g clip-path="url(#p986ac11855)">
     <use style="fill:#fe0100;stroke:#fe0100;stroke-linejoin:miter;" x="99.759545" xlink:href="#mfd067c0505" y="251.712181"/>
     <use style="fill:#fe0100;stroke:#fe0100;stroke-linejoin:miter;" x="117.700833" xlink:href="#mfd067c0505" y="268.679837"/>
     <use style="fill:#fe0100;stroke:#fe0100;stroke-linejoin:miter;" x="135.642121" xlink:href="#mfd067c0505" y="325.170164"/>
     <use style="fill:#fe0100;stroke:#fe0100;stroke-linejoin:miter;" x="144.612765" xlink:href="#mfd067c0505" y="338.309839"/>
     <use style="fill:#fe0100;stroke:#fe0100;stroke-linejoin:miter;" x="153.583409" xlink:href="#mfd067c0505" y="335.808415"/>
     <use style="fill:#fe0100;stroke:#fe0100;stroke-linejoin:miter;" x="162.554053" xlink:href="#mfd067c0505" y="315.219609"/>
     <use style="fill:#fe0100;stroke:#fe0100;stroke-linejoin:miter;" x="171.524697" xlink:href="#mfd067c0505" y="321.579999"/>
     <use style="fill:#fe0100;stroke:#fe0100;stroke-linejoin:miter;" x="180.495341" xlink:href="#mfd067c0505" y="322.448681"/>
     <use style="fill:#fe0100;stroke:#fe0100;stroke-linejoin:miter;" x="189.465985" xlink:href="#mfd067c0505" y="312.372904"/>
     <use style="fill:#fe0100;stroke:#fe0100;stroke-linejoin:miter;" x="198.436629" xlink:href="#mfd067c0505" y="325.170164"/>
     <use style="fill:#fe0100;stroke:#fe0100;stroke-linejoin:miter;" x="207.407273" xlink:href="#mfd067c0505" y="337.040174"/>
     <use style="fill:#fe0100;stroke:#fe0100;stroke-linejoin:miter;" x="216.377917" xlink:href="#mfd067c0505" y="324.242914"/>
     <use style="fill:#fe0100;stroke:#fe0100;stroke-linejoin:miter;" x="225.348561" xlink:href="#mfd067c0505" y="318.277368"/>
     <use style="fill:#fe0100;stroke:#fe0100;stroke-linejoin:miter;" x="234.319205" xlink:href="#mfd067c0505" y="321.579999"/>
     <use style="fill:#fe0100;stroke:#fe0100;stroke-linejoin:miter;" x="243.289848" xlink:href="#mfd067c0505" y="329.102744"/>
     <use style="fill:#fe0100;stroke:#fe0100;stroke-linejoin:miter;" x="252.260492" xlink:href="#mfd067c0505" y="325.170164"/>
     <use style="fill:#fe0100;stroke:#fe0100;stroke-linejoin:miter;" x="261.231136" xlink:href="#mfd067c0505" y="332.319504"/>
     <use style="fill:#fe0100;stroke:#fe0100;stroke-linejoin:miter;" x="270.20178" xlink:href="#mfd067c0505" y="318.277368"/>
     <use style="fill:#fe0100;stroke:#fe0100;stroke-linejoin:miter;" x="279.172424" xlink:href="#mfd067c0505" y="325.170164"/>
     <use style="fill:#fe0100;stroke:#fe0100;stroke-linejoin:miter;" x="288.143068" xlink:href="#mfd067c0505" y="321.579999"/>
     <use style="fill:#fe0100;stroke:#fe0100;stroke-linejoin:miter;" x="297.113712" xlink:href="#mfd067c0505" y="323.336046"/>
     <use style="fill:#fe0100;stroke:#fe0100;stroke-linejoin:miter;" x="306.084356" xlink:href="#mfd067c0505" y="323.336046"/>
     <use style="fill:#fe0100;stroke:#fe0100;stroke-linejoin:miter;" x="315.055" xlink:href="#mfd067c0505" y="319.895649"/>
     <use style="fill:#fe0100;stroke:#fe0100;stroke-linejoin:miter;" x="324.025644" xlink:href="#mfd067c0505" y="319.078575"/>
     <use style="fill:#fe0100;stroke:#fe0100;stroke-linejoin:miter;" x="332.996288" xlink:href="#mfd067c0505" y="319.078575"/>
     <use style="fill:#fe0100;stroke:#fe0100;stroke-linejoin:miter;" x="341.966932" xlink:href="#mfd067c0505" y="321.579999"/>
     <use style="fill:#fe0100;stroke:#fe0100;stroke-linejoin:miter;" x="350.937576" xlink:href="#mfd067c0505" y="323.336046"/>
     <use style="fill:#fe0100;stroke:#fe0100;stroke-linejoin:miter;" x="359.90822" xlink:href="#mfd067c0505" y="327.08962"/>
     <use style="fill:#fe0100;stroke:#fe0100;stroke-linejoin:miter;" x="368.878864" xlink:href="#mfd067c0505" y="318.277368"/>
     <use style="fill:#fe0100;stroke:#fe0100;stroke-linejoin:miter;" x="377.849508" xlink:href="#mfd067c0505" y="315.963069"/>
     <use style="fill:#fe0100;stroke:#fe0100;stroke-linejoin:miter;" x="386.820152" xlink:href="#mfd067c0505" y="328.083906"/>
     <use style="fill:#fe0100;stroke:#fe0100;stroke-linejoin:miter;" x="395.790795" xlink:href="#mfd067c0505" y="323.336046"/>
     <use style="fill:#fe0100;stroke:#fe0100;stroke-linejoin:miter;" x="404.761439" xlink:href="#mfd067c0505" y="326.118731"/>
     <use style="fill:#fe0100;stroke:#fe0100;stroke-linejoin:miter;" x="413.732083" xlink:href="#mfd067c0505" y="314.48931"/>
     <use style="fill:#fe0100;stroke:#fe0100;stroke-linejoin:miter;" x="422.702727" xlink:href="#mfd067c0505" y="335.808415"/>
     <use style="fill:#fe0100;stroke:#fe0100;stroke-linejoin:miter;" x="431.673371" xlink:href="#mfd067c0505" y="332.319504"/>
     <use style="fill:#fe0100;stroke:#fe0100;stroke-linejoin:miter;" x="440.644015" xlink:href="#mfd067c0505" y="334.612364"/>
     <use style="fill:#fe0100;stroke:#fe0100;stroke-linejoin:miter;" x="449.614659" xlink:href="#mfd067c0505" y="338.309839"/>
     <use style="fill:#fe0100;stroke:#fe0100;stroke-linejoin:miter;" x="458.585303" xlink:href="#mfd067c0505" y="334.612364"/>
     <use style="fill:#fe0100;stroke:#fe0100;stroke-linejoin:miter;" x="467.555947" xlink:href="#mfd067c0505" y="345.32002"/>
     <use style="fill:#fe0100;stroke:#fe0100;stroke-linejoin:miter;" x="476.526591" xlink:href="#mfd067c0505" y="362.04986"/>
     <use style="fill:#fe0100;stroke:#fe0100;stroke-linejoin:miter;" x="485.497235" xlink:href="#mfd067c0505" y="382.369864"/>
     <use style="fill:#fe0100;stroke:#fe0100;stroke-linejoin:miter;" x="494.467879" xlink:href="#mfd067c0505" y="378.7797"/>
     <use style="fill:#fe0100;stroke:#fe0100;stroke-linejoin:miter;" x="503.438523" xlink:href="#mfd067c0505" y="414.902295"/>
     <use style="fill:#fe0100;stroke:#fe0100;stroke-linejoin:miter;" x="512.409167" xlink:href="#mfd067c0505" y="452.709241"/>
     <use style="fill:#fe0100;stroke:#fe0100;stroke-linejoin:miter;" x="521.379811" xlink:href="#mfd067c0505" y="435.979401"/>
     <use style="fill:#fe0100;stroke:#fe0100;stroke-linejoin:miter;" x="530.350455" xlink:href="#mfd067c0505" y="481.309091"/>
    </g>
   </g>
   <g id="patch_3">
    <path d="M 78.23 503.08 
L 78.23 24.12 
" style="fill:none;stroke:#000000;stroke-linecap:square;stroke-linejoin:miter;stroke-width:0.8;"/>
   </g>
   <g id="patch_4">
    <path d="M 551.88 503.08 
L 551.88 24.12 
" style="fill:none;stroke:#000000;stroke-linecap:square;stroke-linejoin:miter;stroke-width:0.8;"/>
   </g>
   <g id="patch_5">
    <path d="M 78.23 503.08 
L 551.88 503.08 
" style="fill:none;stroke:#000000;stroke-linecap:square;stroke-linejoin:miter;stroke-width:0.8;"/>
   </g>
   <g id="patch_6">
    <path d="M 78.23 24.12 
L 551.88 24.12 
" style="fill:none;stroke:#000000;stroke-linecap:square;stroke-linejoin:miter;stroke-width:0.8;"/>
   </g>
   <g id="legend_1">
    <g id="line2d_19">
     <path d="M 429.3425 50.316875 
L 469.3425 50.316875 
" style="fill:none;stroke:#3200cd;stroke-linecap:square;stroke-width:1.5;"/>
    </g>
    <g id="line2d_20">
     <g>
      <use style="fill:#3200cd;stroke:#3200cd;" x="449.3425" xlink:href="#ma43915a3ee" y="50.316875"/>
     </g>
    </g>
    <g id="text_16">
     <!-- p=.1 -->
     <defs>
      <path d="M 18.109375 8.203125 
L 18.109375 -20.796875 
L 9.078125 -20.796875 
L 9.078125 54.6875 
L 18.109375 54.6875 
L 18.109375 46.390625 
Q 20.953125 51.265625 25.265625 53.625 
Q 29.59375 56 35.59375 56 
Q 45.5625 56 51.78125 48.09375 
Q 58.015625 40.1875 58.015625 27.296875 
Q 58.015625 14.40625 51.78125 6.484375 
Q 45.5625 -1.421875 35.59375 -1.421875 
Q 29.59375 -1.421875 25.265625 0.953125 
Q 20.953125 3.328125 18.109375 8.203125 
z
M 48.6875 27.296875 
Q 48.6875 37.203125 44.609375 42.84375 
Q 40.53125 48.484375 33.40625 48.484375 
Q 26.265625 48.484375 22.1875 42.84375 
Q 18.109375 37.203125 18.109375 27.296875 
Q 18.109375 17.390625 22.1875 11.75 
Q 26.265625 6.109375 33.40625 6.109375 
Q 40.53125 6.109375 44.609375 11.75 
Q 48.6875 17.390625 48.6875 27.296875 
z
" id="DejaVuSans-70"/>
      <path d="M 10.59375 45.40625 
L 73.1875 45.40625 
L 73.1875 37.203125 
L 10.59375 37.203125 
z
M 10.59375 25.484375 
L 73.1875 25.484375 
L 73.1875 17.1875 
L 10.59375 17.1875 
z
" id="DejaVuSans-3d"/>
      <path d="M 10.6875 12.40625 
L 21 12.40625 
L 21 0 
L 10.6875 0 
z
" id="DejaVuSans-2e"/>
     </defs>
     <g transform="translate(485.3425 57.316875)scale(0.2 -0.2)">
      <use xlink:href="#DejaVuSans-70"/>
      <use x="63.476562" xlink:href="#DejaVuSans-3d"/>
      <use x="147.265625" xlink:href="#DejaVuSans-2e"/>
      <use x="179.052734" xlink:href="#DejaVuSans-31"/>
     </g>
    </g>
    <g id="line2d_21">
     <path d="M 429.3425 79.673125 
L 469.3425 79.673125 
" style="fill:none;stroke:#660099;stroke-linecap:square;stroke-width:1.5;"/>
    </g>
    <g id="line2d_22">
     <g>
      <use style="fill:#660099;stroke:#660099;stroke-linejoin:miter;" x="449.3425" xlink:href="#m5da9976e6b" y="79.673125"/>
     </g>
    </g>
    <g id="text_17">
     <!-- p=.2 -->
     <g transform="translate(485.3425 86.673125)scale(0.2 -0.2)">
      <use xlink:href="#DejaVuSans-70"/>
      <use x="63.476562" xlink:href="#DejaVuSans-3d"/>
      <use x="147.265625" xlink:href="#DejaVuSans-2e"/>
      <use x="179.052734" xlink:href="#DejaVuSans-32"/>
     </g>
    </g>
    <g id="line2d_23">
     <path d="M 429.3425 109.029375 
L 469.3425 109.029375 
" style="fill:none;stroke:#980067;stroke-linecap:square;stroke-width:1.5;"/>
    </g>
    <g id="line2d_24">
     <g>
      <use style="fill:#980067;stroke:#980067;stroke-linejoin:miter;" x="449.3425" xlink:href="#mdc8c33b4ca" y="109.029375"/>
     </g>
    </g>
    <g id="text_18">
     <!-- p=.3 -->
     <defs>
      <path d="M 40.578125 39.3125 
Q 47.65625 37.796875 51.625 33 
Q 55.609375 28.21875 55.609375 21.1875 
Q 55.609375 10.40625 48.1875 4.484375 
Q 40.765625 -1.421875 27.09375 -1.421875 
Q 22.515625 -1.421875 17.65625 -0.515625 
Q 12.796875 0.390625 7.625 2.203125 
L 7.625 11.71875 
Q 11.71875 9.328125 16.59375 8.109375 
Q 21.484375 6.890625 26.8125 6.890625 
Q 36.078125 6.890625 40.9375 10.546875 
Q 45.796875 14.203125 45.796875 21.1875 
Q 45.796875 27.640625 41.28125 31.265625 
Q 36.765625 34.90625 28.71875 34.90625 
L 20.21875 34.90625 
L 20.21875 43.015625 
L 29.109375 43.015625 
Q 36.375 43.015625 40.234375 45.921875 
Q 44.09375 48.828125 44.09375 54.296875 
Q 44.09375 59.90625 40.109375 62.90625 
Q 36.140625 65.921875 28.71875 65.921875 
Q 24.65625 65.921875 20.015625 65.03125 
Q 15.375 64.15625 9.8125 62.3125 
L 9.8125 71.09375 
Q 15.4375 72.65625 20.34375 73.4375 
Q 25.25 74.21875 29.59375 74.21875 
Q 40.828125 74.21875 47.359375 69.109375 
Q 53.90625 64.015625 53.90625 55.328125 
Q 53.90625 49.265625 50.4375 45.09375 
Q 46.96875 40.921875 40.578125 39.3125 
z
" id="DejaVuSans-33"/>
     </defs>
     <g transform="translate(485.3425 116.029375)scale(0.2 -0.2)">
      <use xlink:href="#DejaVuSans-70"/>
      <use x="63.476562" xlink:href="#DejaVuSans-3d"/>
      <use x="147.265625" xlink:href="#DejaVuSans-2e"/>
      <use x="179.052734" xlink:href="#DejaVuSans-33"/>
     </g>
    </g>
    <g id="line2d_25">
     <path d="M 429.3425 138.385625 
L 469.3425 138.385625 
" style="fill:none;stroke:#cc0033;stroke-linecap:square;stroke-width:1.5;"/>
    </g>
    <g id="line2d_26">
     <g>
      <use style="fill:#cc0033;stroke:#cc0033;stroke-linejoin:miter;" x="449.3425" xlink:href="#md6434392aa" y="138.385625"/>
     </g>
    </g>
    <g id="text_19">
     <!-- p=.4 -->
     <g transform="translate(485.3425 145.385625)scale(0.2 -0.2)">
      <use xlink:href="#DejaVuSans-70"/>
      <use x="63.476562" xlink:href="#DejaVuSans-3d"/>
      <use x="147.265625" xlink:href="#DejaVuSans-2e"/>
      <use x="179.052734" xlink:href="#DejaVuSans-34"/>
     </g>
    </g>
    <g id="line2d_27">
     <path d="M 429.3425 167.741875 
L 469.3425 167.741875 
" style="fill:none;stroke:#fe0100;stroke-linecap:square;stroke-width:1.5;"/>
    </g>
    <g id="line2d_28">
     <g>
      <use style="fill:#fe0100;stroke:#fe0100;stroke-linejoin:miter;" x="449.3425" xlink:href="#mfd067c0505" y="167.741875"/>
     </g>
    </g>
    <g id="text_20">
     <!-- p=.5 -->
     <defs>
      <path d="M 10.796875 72.90625 
L 49.515625 72.90625 
L 49.515625 64.59375 
L 19.828125 64.59375 
L 19.828125 46.734375 
Q 21.96875 47.46875 24.109375 47.828125 
Q 26.265625 48.1875 28.421875 48.1875 
Q 40.625 48.1875 47.75 41.5 
Q 54.890625 34.8125 54.890625 23.390625 
Q 54.890625 11.625 47.5625 5.09375 
Q 40.234375 -1.421875 26.90625 -1.421875 
Q 22.3125 -1.421875 17.546875 -0.640625 
Q 12.796875 0.140625 7.71875 1.703125 
L 7.71875 11.625 
Q 12.109375 9.234375 16.796875 8.0625 
Q 21.484375 6.890625 26.703125 6.890625 
Q 35.15625 6.890625 40.078125 11.328125 
Q 45.015625 15.765625 45.015625 23.390625 
Q 45.015625 31 40.078125 35.4375 
Q 35.15625 39.890625 26.703125 39.890625 
Q 22.75 39.890625 18.8125 39.015625 
Q 14.890625 38.140625 10.796875 36.28125 
z
" id="DejaVuSans-35"/>
     </defs>
     <g transform="translate(485.3425 174.741875)scale(0.2 -0.2)">
      <use xlink:href="#DejaVuSans-70"/>
      <use x="63.476562" xlink:href="#DejaVuSans-3d"/>
      <use x="147.265625" xlink:href="#DejaVuSans-2e"/>
      <use x="179.052734" xlink:href="#DejaVuSans-35"/>
     </g>
    </g>
   </g>
  </g>
 </g>
 <defs>
  <clipPath id="p986ac11855">
   <rect height="478.96" width="473.65" x="78.23" y="24.12"/>
  </clipPath>
 </defs>
</svg>
